<svg width="16" height="33" viewBox="0 0 16 33" fill="none" xmlns="http://www.w3.org/2000/svg">
<g clip-path="url(#clip0_426_399)">
<path d="M9.88631 8.01684C9.88631 8.72787 9.88631 9.51 9.88631 10.221C9.81582 16.4781 9.67485 22.8062 9.60437 29.0633C9.60437 29.7743 9.60437 30.4142 9.53388 31.1252C9.4634 32.0496 9.25194 33.1872 8.05369 32.9739C7.56029 32.9028 6.99641 31.8363 6.92592 31.1963C6.64398 25.9347 6.43252 20.7442 6.22106 15.4826C6.15058 14.2739 6.22106 13.0651 5.58669 11.7853C4.74087 13.2073 4.03601 14.7005 3.1197 16.0515C2.69679 16.6914 1.6395 17.4024 1.00513 17.2602C-0.263606 16.9758 -0.122635 15.5537 0.300278 14.7005C2.1329 10.4343 3.96552 6.09707 6.15057 1.9731C7.56029 -0.657699 9.67485 -0.657699 11.0846 1.9731C12.9877 5.45714 14.3974 9.22559 15.9481 12.8518C16.1595 13.2784 15.6661 13.9895 15.5252 14.5583C14.9613 14.345 14.1154 14.345 13.8335 13.9184C13.1286 13.0651 12.7057 11.9275 12.1418 10.9321C11.578 9.86551 11.0141 8.79897 10.4502 7.80353C10.3092 7.94573 10.0978 8.01684 9.88631 8.01684Z" fill="#1C1B29"/>
</g>
<defs>
<clipPath id="clip0_426_399">
<rect width="16" height="33" fill="white" transform="matrix(-1 0 0 -1 16 33)"/>
</clipPath>
</defs>
</svg>
