<svg width="24" height="25" viewBox="0 0 24 25" fill="none" xmlns="http://www.w3.org/2000/svg">
<path d="M16.1631 22.3981C16.1581 22.3378 16.1323 22.2809 16.0901 22.2372C15.4484 21.5741 14.7073 21.0237 13.887 20.6011L13.8525 20.5834C13.7556 20.5339 13.6685 20.4839 13.5947 20.427C13.8804 18.7313 13.9842 17.0101 14.0851 15.325L14.1314 14.5624C14.1562 14.1642 14.1764 13.7623 14.1962 13.3605L23.2946 15.418C23.3291 15.4256 23.3636 15.4296 23.3981 15.4296C23.5024 15.4296 23.604 15.3943 23.6875 15.3276C23.7987 15.2389 23.8624 15.1064 23.8624 14.9642V13.8861C23.8624 13.8311 23.855 13.7821 23.8392 13.736C23.7344 13.4255 23.273 12.9881 22.6062 12.4891L22.3563 11.6274C22.2694 11.3275 22.1796 11.0178 22.0195 10.7266C21.8847 10.4824 21.6427 10.1567 21.2553 9.99157C21.2024 9.96918 21.0404 9.89966 20.8677 9.96971C20.7386 10.0221 20.6686 10.1296 20.6388 10.1754C20.4774 10.4224 20.3784 10.7029 20.341 10.9941C20.026 10.8032 19.7042 10.6123 19.3795 10.4232C19.3782 10.4195 19.379 10.4155 19.3777 10.4119C19.2518 10.0803 19.1881 9.72454 19.1204 9.3477C19.0177 8.77546 18.9116 8.18373 18.5703 7.67417C18.3846 7.39608 18.1374 7.26283 17.8948 7.31128C17.7658 7.3363 17.6689 7.4053 17.5914 7.46981C17.1372 7.84534 16.8633 8.41152 16.8264 8.99561C15.6143 8.34068 14.6489 7.84718 14.3655 7.7034C14.3481 7.69471 14.33 7.69339 14.3121 7.68865C14.3084 6.01907 14.2786 4.30709 13.8317 2.69676C13.634 1.98521 13.3435 1.47775 12.9435 1.14594C12.8007 1.0277 12.6578 0.940536 12.5182 0.886815C11.9604 0.672718 11.3118 0.792275 10.8655 1.19229C10.492 1.52673 10.2189 2.01865 10.0304 2.69676C9.58351 4.30682 9.55375 6.01881 9.55006 7.68865C9.53216 7.69339 9.51372 7.69471 9.4966 7.7034C9.22563 7.84113 8.32974 8.29908 7.19211 8.91161C7.15814 8.32357 6.884 7.75212 6.42631 7.37343C6.34836 7.30944 6.25119 7.24018 6.12321 7.21543C5.88014 7.16697 5.63339 7.30049 5.44774 7.57805C5.10645 8.08814 5.00032 8.67987 4.89762 9.25184C4.82994 9.62868 4.76621 9.98446 4.64033 10.316C4.63823 10.3218 4.63928 10.3276 4.63744 10.3334C4.31432 10.5204 3.99278 10.71 3.67703 10.8998C3.6399 10.608 3.54088 10.3271 3.37946 10.0793C3.34943 10.0334 3.27939 9.926 3.14956 9.87333C2.9776 9.80381 2.81591 9.8728 2.76271 9.89545C2.37507 10.0606 2.13306 10.3863 1.9985 10.6307C1.83838 10.9214 1.74858 11.2314 1.66142 11.5313L1.41862 12.3701C0.665726 12.9181 0.136147 13.401 0.023174 13.736C0.0073735 13.7821 0 13.8308 0 13.8859V14.964C0 15.1062 0.0637285 15.2386 0.174858 15.3274C0.258338 15.394 0.359987 15.4293 0.46427 15.4293C0.498505 15.4293 0.533266 15.4253 0.567763 15.4177L9.6662 13.3602C9.68595 13.7621 9.70623 14.1639 9.73098 14.5621L9.77733 15.3248C9.87845 17.0162 9.98273 18.744 10.2708 20.4454C10.2016 20.4944 10.1239 20.5394 10.0375 20.5837L10.0038 20.6008C9.18323 21.0232 8.44166 21.5738 7.80069 22.2369C7.75855 22.2806 7.73275 22.3373 7.72774 22.3976C7.70984 22.608 7.69509 22.831 7.68034 23.0541C7.66559 23.2734 7.65137 23.4928 7.63373 23.6998C7.62583 23.7938 7.66876 23.8852 7.7467 23.9389C7.79147 23.9697 7.84361 23.9855 7.89602 23.9855C7.93473 23.9855 7.97397 23.9771 8.01031 23.9594C8.91752 23.5233 9.86291 23.147 10.822 22.8334C10.8726 23.0006 10.9258 23.167 10.9821 23.333C11.0419 23.5091 11.1196 23.7119 11.2465 23.8833C11.4011 24.093 11.6576 24.218 11.9322 24.218C12.2069 24.218 12.4634 24.093 12.6177 23.8836C12.7447 23.7122 12.8226 23.5091 12.8824 23.3332C12.9395 23.1644 12.9935 22.9948 13.0449 22.8247C14.0126 23.1399 14.9667 23.5194 15.8824 23.9594C15.9187 23.9768 15.9577 23.9855 15.9967 23.9855C16.0491 23.9855 16.1012 23.9697 16.146 23.9389C16.2239 23.8852 16.2668 23.7938 16.2589 23.6998C16.2413 23.4912 16.2265 23.2697 16.2121 23.0483C16.1955 22.8276 16.181 22.6067 16.1631 22.3981ZM20.8482 11.1935C20.8566 10.9457 20.9338 10.6944 21.066 10.484C21.3056 10.5933 21.4655 10.8137 21.5576 10.9812C21.6896 11.2208 21.7712 11.5024 21.8499 11.7744L21.9152 11.9993C21.5771 11.7694 21.2095 11.5318 20.8242 11.2917C20.8382 11.2611 20.8471 11.2282 20.8482 11.1935ZM17.9267 7.87562C17.973 7.83717 17.9901 7.82954 17.9912 7.82848C18.0025 7.83006 18.0599 7.85851 18.1323 7.967C18.4123 8.38519 18.5042 8.89791 18.6016 9.44092C18.6374 9.64053 18.6743 9.84331 18.7212 10.045C18.2556 9.7801 17.795 9.52414 17.356 9.28371C17.3044 8.76361 17.5238 8.20875 17.9267 7.87562ZM14.3128 8.39835L14.3126 8.268C14.5973 8.41337 14.894 8.56689 15.2014 8.72753C15.2019 8.73122 15.2027 8.73438 15.2029 8.73806L15.4863 11.4844C15.4931 11.5521 15.5503 11.6024 15.6169 11.6024C15.6217 11.6024 15.6261 11.6022 15.6309 11.6016C15.703 11.5943 15.7557 11.5297 15.7481 11.4571L15.4816 8.87447C15.7936 9.03906 16.1144 9.21023 16.4385 9.38509C16.567 9.83198 16.6766 10.2865 16.7538 10.7447C16.7646 10.809 16.8204 10.8545 16.8833 10.8545C16.8907 10.8545 16.8981 10.854 16.9054 10.8527C16.9771 10.8406 17.0255 10.7726 17.0134 10.701C16.9486 10.3171 16.8591 9.93627 16.759 9.5589C17.0898 9.73876 17.4229 9.92204 17.755 10.1072C17.7837 10.2154 17.8042 10.3292 17.825 10.4466L17.8353 10.5053C17.9312 11.046 18.0678 11.5843 18.2416 12.1059C18.2601 12.161 18.3117 12.196 18.3667 12.196C18.3807 12.196 18.3944 12.1939 18.4083 12.1894C18.4773 12.1662 18.5145 12.0917 18.4915 12.0227C18.3217 11.5132 18.1882 10.9873 18.0944 10.4593L18.0842 10.4011C18.077 10.3605 18.0694 10.3197 18.0618 10.2789C18.4212 10.4809 18.777 10.6842 19.1246 10.8859L19.5381 12.0638C19.557 12.1178 19.6081 12.1518 19.6624 12.1518C19.6768 12.1518 19.6913 12.1494 19.7061 12.1444C19.7745 12.1202 19.8106 12.0451 19.7867 11.9764L19.4759 11.091C19.8741 11.3251 20.2578 11.5561 20.6191 11.7797C20.8687 12.3095 21.1118 12.848 21.3396 13.3887C21.3609 13.4387 21.4096 13.4692 21.461 13.4692C21.4778 13.4692 21.4955 13.4658 21.5121 13.459C21.579 13.4308 21.6106 13.3536 21.5824 13.2865C21.4059 12.8678 21.2195 12.4509 21.0294 12.0372C22.3002 12.8449 23.2154 13.5317 23.3357 13.8864V14.8873L14.2217 12.8262C14.2849 11.362 14.3165 9.87938 14.3128 8.39835ZM5.41508 9.34533C5.51252 8.80232 5.60442 8.28959 5.88436 7.87115C5.95677 7.76291 6.01418 7.73421 6.02103 7.73237C6.02656 7.73395 6.04394 7.74158 6.09029 7.78003C6.4961 8.11553 6.71572 8.67592 6.65963 9.1997C6.22249 9.43802 5.76138 9.69347 5.29342 9.95839C5.34108 9.75351 5.37874 9.54757 5.41508 9.34533ZM2.16624 11.6783C2.24551 11.4062 2.32688 11.1247 2.45882 10.8853C2.55125 10.7176 2.71083 10.4972 2.95047 10.3879C3.08267 10.5986 3.15983 10.8495 3.16826 11.0973C3.16931 11.1321 3.17853 11.1648 3.19222 11.195C2.81011 11.431 2.44407 11.6648 2.10409 11.8924L2.16624 11.6783ZM0.525365 14.8871L0.520889 13.9048C0.648082 13.528 1.63403 12.7948 2.9876 11.9416C2.79747 12.3553 2.61103 12.7719 2.43459 13.1906C2.40641 13.2578 2.43801 13.3349 2.5049 13.3631C2.52149 13.37 2.53913 13.3734 2.55599 13.3734C2.60734 13.3734 2.65606 13.3431 2.67739 13.2928C2.90439 12.7532 3.14693 12.216 3.39605 11.6872C3.75867 11.4639 4.14183 11.2345 4.53816 11.0025L4.23031 11.8802C4.20608 11.949 4.24242 12.0243 4.31089 12.0483C4.32564 12.0535 4.34012 12.0556 4.35461 12.0556C4.40886 12.0556 4.45968 12.0217 4.4789 11.9677L4.88919 10.7984C5.23812 10.5967 5.59415 10.3942 5.95309 10.193C5.94624 10.2304 5.93913 10.2678 5.93255 10.3049L5.92228 10.3634C5.82879 10.8911 5.69501 11.417 5.52516 11.9266C5.50225 11.9956 5.53964 12.0701 5.60837 12.0933C5.62233 12.098 5.63602 12.0999 5.64998 12.0999C5.70502 12.0999 5.75637 12.0649 5.77507 12.0098C5.94887 11.4881 6.08555 10.9499 6.1814 10.4095L6.19167 10.3505C6.21142 10.2373 6.23091 10.1275 6.25804 10.0229C6.59064 9.83804 6.92403 9.65528 7.25399 9.47647C7.15524 9.84936 7.06728 10.2259 7.00303 10.6054C6.99091 10.677 7.03937 10.745 7.111 10.7571C7.11837 10.7584 7.12575 10.7589 7.13312 10.7589C7.19606 10.7589 7.25189 10.7134 7.26268 10.6491C7.33905 10.1959 7.44728 9.74613 7.57395 9.30372C7.89997 9.12833 8.22098 8.95795 8.5333 8.79389L8.26838 11.3615C8.26101 11.4339 8.31341 11.4987 8.38557 11.506C8.39031 11.5066 8.39479 11.5068 8.39953 11.5068C8.46615 11.5068 8.5233 11.4565 8.53014 11.3889L8.81297 8.64747C9.06578 8.51554 9.31121 8.38914 9.54796 8.26826L9.54769 8.39862C9.54401 9.87991 9.57561 11.3623 9.63907 12.8264L0.525365 14.8871ZM8.1907 23.2927C8.19544 23.225 8.19991 23.1568 8.20439 23.0888C8.21677 22.9021 8.22914 22.7154 8.2431 22.5363C8.35581 22.4226 8.47458 22.3157 8.59361 22.209C8.64575 22.3046 8.70474 22.3962 8.77321 22.4818C8.79928 22.5145 8.83746 22.5313 8.87617 22.5313C8.90488 22.5313 8.93411 22.5219 8.95833 22.5026C9.01522 22.4573 9.0247 22.3747 8.97914 22.3178C8.9083 22.2288 8.85116 22.1311 8.80059 22.0302C8.95149 21.9043 9.10607 21.7837 9.26592 21.6697C9.31569 21.7771 9.36888 21.8817 9.4234 21.9833L9.69543 22.4913C9.71913 22.5356 9.76469 22.5608 9.8113 22.5608C9.83237 22.5608 9.85369 22.5556 9.87344 22.545C9.93744 22.5108 9.96166 22.4307 9.92717 22.3668L9.65514 21.8588C9.59615 21.7484 9.53953 21.6347 9.4887 21.5193C9.73256 21.3574 9.98221 21.2038 10.244 21.069L10.2766 21.0524C10.3074 21.0366 10.3396 21.02 10.3717 21.0029C10.4583 21.4466 10.5581 21.8883 10.6761 22.3265C9.83157 22.6014 8.9981 22.924 8.1907 23.2927ZM12.3815 23.1647C12.3349 23.3019 12.2764 23.4575 12.1922 23.571C12.0805 23.7222 11.7806 23.7224 11.6684 23.5707C11.5846 23.4575 11.5259 23.3019 11.4793 23.1644C10.6213 20.6348 10.4589 17.9192 10.3014 15.2931L10.255 14.5295C10.2253 14.0512 10.1997 13.5696 10.1773 13.0861C10.185 13.0503 10.1863 13.0126 10.1776 12.9744C10.1766 12.9692 10.1729 12.9655 10.1713 12.9605C10.1033 11.4536 10.0707 9.92573 10.0744 8.39993L10.0749 8.02678C10.077 6.28689 10.0791 4.48774 10.5371 2.83791C10.6974 2.25987 10.9194 1.85012 11.2157 1.58493C11.4177 1.40402 11.6808 1.30816 11.9451 1.30816C12.0747 1.30816 12.2048 1.33107 12.3283 1.37874C12.4131 1.41139 12.5095 1.47117 12.6064 1.55149C12.9208 1.81246 13.1555 2.23328 13.3235 2.83791C13.7814 4.48774 13.7835 6.28689 13.7856 8.02678L13.7862 8.39993C13.7899 9.92573 13.7572 11.4536 13.6893 12.9605C13.6879 12.9655 13.6843 12.9692 13.6829 12.9744C13.6742 13.0126 13.6758 13.0503 13.6832 13.0861C13.6608 13.5696 13.6353 14.0512 13.6055 14.5295L13.5592 15.2931C13.402 17.9192 13.2395 20.6348 12.3815 23.1647ZM13.1876 22.3178C13.3058 21.878 13.4056 21.4345 13.4923 20.9892C13.5331 21.0113 13.5737 21.0324 13.6126 21.0524L13.6458 21.0693C13.8538 21.1765 14.055 21.2947 14.2518 21.419C14.2033 21.5254 14.1506 21.6302 14.0959 21.7321L13.8241 22.2401C13.7896 22.3043 13.8138 22.3841 13.8778 22.4184C13.8976 22.4292 13.9189 22.4342 13.94 22.4342C13.9868 22.4342 14.0324 22.4089 14.0558 22.3646L14.3276 21.8567C14.3776 21.7634 14.4279 21.6678 14.4745 21.5694C14.6863 21.7137 14.8919 21.8664 15.0889 22.0305C15.0384 22.1316 14.9812 22.229 14.9101 22.3178C14.8648 22.3747 14.8738 22.4573 14.9306 22.5029C14.9551 22.5221 14.9841 22.5316 15.0131 22.5316C15.0515 22.5316 15.09 22.5147 15.116 22.4821C15.1845 22.3965 15.2435 22.3049 15.2956 22.209C15.4147 22.3154 15.5334 22.4223 15.6461 22.5363C15.6601 22.7136 15.6722 22.8984 15.6846 23.0833C15.6893 23.1534 15.6938 23.2231 15.6985 23.2929C14.8827 22.9203 14.0403 22.5945 13.1876 22.3178Z" fill="#1C1B29"/>
<path d="M4.67951 15.2768H4.64659C4.54521 15.2768 4.4533 15.3347 4.40932 15.4258L1.47965 21.5156C1.41671 21.6467 1.47175 21.8042 1.6029 21.8671C1.63976 21.8848 1.67848 21.8932 1.71692 21.8932C1.81489 21.8932 1.9089 21.8382 1.95446 21.7442L4.83751 15.751C4.90151 15.7029 4.94285 15.6262 4.94285 15.5401C4.94285 15.3945 4.82514 15.2768 4.67951 15.2768Z" fill="#1C1B29"/>
<path d="M7.59654 14.4924C7.45355 14.465 7.31635 14.5611 7.29054 14.7044C7.0825 15.8481 6.74226 16.9686 6.27931 18.0349C6.22111 18.1684 6.28247 18.3235 6.41598 18.3812C6.45022 18.3962 6.48577 18.403 6.52053 18.403C6.62244 18.403 6.71935 18.3438 6.76228 18.2445C7.24129 17.1411 7.59338 15.9813 7.80853 14.7981C7.8346 14.6557 7.7398 14.5185 7.59654 14.4924Z" fill="#1C1B29"/>
<path d="M15.8687 15.3369C15.8302 15.1968 15.6841 15.1151 15.545 15.153C15.4049 15.1915 15.3222 15.3366 15.3612 15.4767C15.6496 16.5222 16.0567 17.536 16.5715 18.4906C16.6192 18.5789 16.7098 18.6289 16.8035 18.6289C16.8457 18.6289 16.8883 18.6189 16.9284 18.5973C17.0563 18.5283 17.1043 18.3687 17.035 18.2407C16.5389 17.3211 16.1465 16.3439 15.8687 15.3369Z" fill="#1C1B29"/>
<path d="M23.916 21.8009C22.0047 20.0228 20.4544 17.9316 19.3086 15.5852C19.2448 15.4543 19.0866 15.4001 18.9565 15.4641C18.8256 15.5278 18.7716 15.6856 18.8353 15.8162C20.0098 18.2207 21.5983 20.3641 23.557 22.1864C23.6079 22.2335 23.6724 22.257 23.7366 22.257C23.8072 22.257 23.8775 22.2288 23.9294 22.1732C24.0284 22.0666 24.0224 21.9001 23.916 21.8009Z" fill="#1C1B29"/>
</svg>
