<svg width="112" height="49" viewBox="0 0 112 49" fill="none" xmlns="http://www.w3.org/2000/svg">
<path d="M26.6134 26.6333C26.1534 26.4 26.4801 25.5733 25.8401 24.7C25.0401 23.6 23.6934 23.76 23.6467 23.3267C23.5667 22.5267 28.1601 22.4933 29.9667 19.6267C30.7734 18.3533 31.0534 16.48 30.3534 15.9267C29.1801 15 24.7467 17.4467 22.5667 21.1733C20.7934 24.2133 19.9134 29.1467 22.4401 32.1C23.4401 33.2667 25.0801 34.2533 29.4067 34.64C36.1867 35.24 41.2867 33.6267 44.8067 32.7067C54.4601 30.1733 62.4067 30.1533 71.6867 30.1267C74.9067 30.12 78.6534 30.4067 86.14 30.9867C89.0467 31.2133 96.9467 31.8533 96.98 32.9667C97 33.6933 93.6133 33.4933 91.9067 36.0667C90.9667 37.48 91.0067 39.0333 89.98 39.3133C89.1934 39.5267 88.3734 38.82 88.16 38.6467C85.2867 36.3467 69.0667 33.5933 49.9668 36.24C46.5401 36.7133 43.8601 37.2467 37.7534 37.96C28.4467 39.0467 26.0734 38.82 23.6867 37.92C22.4801 37.4667 16.1001 35.0467 14.9534 29.36C13.7867 23.54 19.0201 18.8667 20.4134 17.62C24.0734 14.3533 30.3934 11.5533 32.9734 13.8333C34.6401 15.3067 34.1401 18.3667 34.0934 18.6533C33.8401 20.0733 32.4467 21.5333 29.6601 24.46C28.2067 25.9867 27.1667 26.9333 26.6067 26.6533L26.6134 26.6333Z" fill="#1D1D1B"/>
<path d="M47.3665 34.2733C46.0065 34.2733 44.7131 34.0733 43.4998 33.68C42.2865 33.2867 41.2998 32.68 40.5531 31.8733C39.7598 31.0267 39.3665 29.9267 39.3665 28.5867C39.3665 27.8667 39.4931 27.1266 39.7531 26.3666C40.0131 25.6066 40.3065 24.8333 40.6398 24.04C41.0065 23.2133 41.3331 22.3667 41.6198 21.5067C41.9065 20.6467 42.0465 19.7866 42.0465 18.9266C42.0465 17.9799 41.8265 17.1 41.3931 16.2867C41.1931 15.8933 41.0998 15.54 41.0998 15.2333C41.0998 14.6733 41.3598 14.2133 41.8731 13.8533C42.3865 13.5 43.0598 13.2333 43.8865 13.0667C44.7131 12.8867 45.5998 12.8 46.5398 12.8C47.6931 12.8 48.7865 12.9133 49.8131 13.1399C50.8531 13.3599 51.6865 13.68 52.3331 14.1C52.9731 14.5133 53.3065 15.02 53.3265 15.6267C53.3265 16.4533 52.6598 17.2333 51.3265 17.9533C51.0865 18.08 50.9065 18.1867 50.7798 18.2667C50.6598 18.3467 50.5998 18.4199 50.5998 18.4866C50.5998 18.6333 50.8931 18.8133 51.4865 19.02C53.3131 19.6933 54.7598 20.74 55.8265 22.1733C56.8931 23.6067 57.4398 25.34 57.4731 27.3867C57.4731 28.4933 57.1798 29.4733 56.5865 30.3333C55.9931 31.18 55.2065 31.9 54.2331 32.48C53.2531 33.06 52.1665 33.5067 50.9731 33.8133C49.7798 34.1067 48.5798 34.2599 47.3731 34.2599L47.3665 34.2733ZM49.7931 23.12C50.3065 23.12 50.6731 23.06 50.8865 22.94C51.1131 22.8133 51.2265 22.6533 51.2265 22.4667C51.2265 22.1933 51.0265 21.8867 50.6331 21.56C50.2398 21.2333 49.7465 20.9533 49.1665 20.7133C48.5865 20.4733 48.0131 20.36 47.4465 20.36C47.0531 20.36 46.7665 20.4467 46.5865 20.6133C46.4065 20.78 46.3198 20.9867 46.3198 21.22C46.3198 21.5533 46.4731 21.8933 46.7798 22.24C47.2931 22.82 48.2931 23.1133 49.7865 23.1133L49.7931 23.12ZM46.9065 18.1133C47.0731 18.1133 47.2731 18.06 47.4998 17.9533C48.2998 17.54 48.8731 17.1599 49.2198 16.8133C49.5665 16.4599 49.7398 16.1599 49.7398 15.9266C49.7398 15.5399 49.3998 15.3333 48.7198 15.3066C48.4131 15.3066 48.0598 15.3666 47.6665 15.4866C47.1998 15.6466 46.8531 15.9067 46.6131 16.2733C46.3865 16.64 46.2731 16.9867 46.2731 17.3267C46.2731 17.5533 46.3198 17.7467 46.4198 17.9067C46.5265 18.0533 46.6931 18.1267 46.9065 18.1267V18.1133Z" fill="#1D1D1B"/>
<path d="M55.8801 47.7733C85.8214 47.7733 110.093 37.452 110.093 24.72C110.093 11.988 85.8214 1.66667 55.8801 1.66667C25.9389 1.66667 1.66675 11.988 1.66675 24.72C1.66675 37.452 25.9389 47.7733 55.8801 47.7733Z" stroke="#1D1D1B" stroke-width="2" stroke-miterlimit="10"/>
<path d="M77.738 33.6667C76.984 33.6667 76.2867 33.5187 75.6473 33.2227C75.0073 32.9267 74.492 32.4969 74.1 31.9336C73.718 31.3702 73.5273 30.6827 73.5273 29.8711C73.5273 29.3555 73.5467 28.7443 73.5847 28.0377C73.6327 27.1879 73.656 26.3285 73.656 25.4597C73.656 24.7912 73.6273 24.1515 73.57 23.5403C73.5133 22.9293 73.3986 22.385 73.2266 21.9075C73.0546 21.4301 72.7873 21.0625 72.4247 20.8047C72.0613 20.5373 71.694 20.4037 71.3213 20.4037C70.968 20.4037 70.6533 20.5421 70.376 20.819C70.0993 21.0864 69.9607 21.5161 69.9607 22.1081C69.9607 23.2253 70.524 24.7053 71.6513 26.5482C72.3193 27.6367 72.6533 28.6871 72.6533 29.6992C72.6533 30.4822 72.4673 31.1745 72.0953 31.7761C71.732 32.3681 71.2547 32.8311 70.6627 33.1653C70.0707 33.4995 69.426 33.6667 68.7293 33.6667C67.5356 33.6667 66.5425 33.4566 65.75 33.0365C64.9575 32.6068 64.3655 32.0529 63.9739 31.375C63.5825 30.6875 63.3867 29.9666 63.3867 29.2123C63.3867 28.8781 63.4249 28.5486 63.5013 28.2239C63.7782 27.0972 64.1267 25.9657 64.5468 24.8294C64.8906 23.8841 65.1914 22.9531 65.4492 22.0365C65.7166 21.1103 65.8503 20.2079 65.8503 19.3294C65.8503 18.7947 65.7787 18.2695 65.6354 17.7539C65.5017 17.2287 65.2773 16.7179 64.9622 16.2213C64.6471 15.7248 64.4896 15.2903 64.4896 14.918C64.4896 14.5074 64.6423 14.1732 64.9479 13.9153C65.2535 13.6575 65.6497 13.4666 66.1367 13.3425C66.6237 13.2183 67.1298 13.1563 67.6549 13.1563C68.1993 13.1563 68.7247 13.2231 69.2307 13.3568C69.746 13.4809 70.166 13.6767 70.4907 13.944C70.8153 14.2018 70.978 14.5265 70.978 14.918C70.978 15.2426 70.8393 15.6103 70.5627 16.0208C70.41 16.2405 70.2907 16.4983 70.2047 16.7943C70.1187 17.0807 70.0753 17.3385 70.0753 17.5677C70.0753 17.7109 70.0946 17.8303 70.1326 17.9258C70.1806 18.0213 70.2426 18.069 70.3193 18.069C70.424 18.069 70.572 17.9687 70.7633 17.7682C70.954 17.5677 71.212 17.1857 71.5367 16.6224C71.8613 16.059 72.2146 15.5147 72.5966 14.9896C72.988 14.4644 73.4653 14.0299 74.0287 13.6862C74.592 13.3329 75.3033 13.1563 76.1627 13.1563C76.736 13.1563 77.1987 13.3568 77.552 13.7578C77.9053 14.1493 78.1633 14.6411 78.3253 15.2331C78.4973 15.8155 78.5833 16.3932 78.5833 16.9661C78.5833 17.5486 78.502 18.0499 78.34 18.4701C78.1873 18.8902 77.9627 19.1003 77.6667 19.1003C77.552 19.1003 77.4327 19.0621 77.3087 18.9857C76.8027 18.6706 75.838 18.4891 74.4153 18.4414C73.852 18.4414 73.57 18.5369 73.57 18.7279C73.57 18.9284 73.914 19.2435 74.6013 19.6732L75.69 20.3463C76.8553 21.0339 77.9293 21.7548 78.9127 22.5091C79.896 23.2635 80.6887 24.1706 81.2906 25.2305C81.9013 26.2808 82.2213 27.6081 82.25 29.2123C82.25 30.2053 82.0253 31.0313 81.5767 31.6901C81.128 32.3489 80.56 32.8455 79.8727 33.1797C79.1847 33.5043 78.4733 33.6667 77.738 33.6667Z" fill="#1D1D1B"/>
</svg>
