<svg width="35" height="40" viewBox="0 0 35 40" fill="none" xmlns="http://www.w3.org/2000/svg">
<path fill-rule="evenodd" clip-rule="evenodd" d="M1.64627 0.786266C1.64627 0.995791 1.60137 0.995785 1.40681 0.846125C1.22722 0.681498 1.18232 0.681498 1.22721 0.846125C1.25715 0.965853 1.16735 1.07062 1.04762 1.08559C0.359185 1.14545 0.239455 1.17538 0.419048 1.25021C0.718369 1.36994 0.628572 1.59443 0.269387 1.6094C-0.0449 1.6094 -0.0448991 1.62436 0.209524 1.72913C0.478913 1.83389 0.478911 1.84886 0.25442 1.93865C0.10476 1.99852 0 2.19307 0 2.41756C0 2.98627 0.314283 4.13866 0.463944 4.13866C0.538774 4.13866 0.598638 4.25839 0.613605 4.39308C0.613605 4.61757 0.64354 4.61757 0.748303 4.36315C0.868031 4.07879 0.882996 4.07879 0.882996 4.39308C0.897962 4.6475 0.987758 4.7373 1.24218 4.7373C1.4966 4.7373 1.52653 4.76723 1.36191 4.872C1.24218 4.94683 1.06259 4.97676 0.942859 4.93186C0.838097 4.88697 0.748303 4.96179 0.748303 5.09649C0.748303 5.23118 0.808167 5.33594 0.897963 5.33594C0.972793 5.33594 1.13742 5.5754 1.25715 5.85975C1.37688 6.14411 1.5864 6.42847 1.70613 6.47337C1.84082 6.51826 1.90069 6.62303 1.85579 6.69786C1.81089 6.77269 2.00545 7.2067 2.27484 7.67065C2.54423 8.1346 2.90341 8.76317 3.083 9.06249C3.9211 10.5142 4.98369 12.1754 5.20818 12.37C5.34288 12.4897 5.5524 12.7741 5.6422 12.9986C5.74696 13.238 5.89662 13.4176 5.98642 13.4176C6.06125 13.4176 6.13608 13.5074 6.13608 13.6122C6.13608 13.7169 6.3456 14.0462 6.60003 14.3305C6.85445 14.6149 7.12384 14.9741 7.19867 15.1387C7.2735 15.3033 7.93201 16.2163 8.66534 17.1591C9.66807 18.4312 9.96739 18.9251 9.84766 19.0598C9.7429 19.1945 9.7429 19.2544 9.86263 19.2544C9.96739 19.2544 9.99732 19.3292 9.95243 19.404C9.89256 19.4938 9.80276 19.5238 9.7429 19.4938C9.6082 19.404 8.80004 20.0775 8.91976 20.1823C8.96466 20.2272 8.84494 20.4367 8.65038 20.6462C7.9769 21.3646 7.66262 21.7836 7.75241 21.8734C7.79731 21.9183 7.75241 21.9483 7.66262 21.9483C7.55785 21.9483 7.48303 22.0231 7.48303 22.0979C7.48303 22.1877 7.34833 22.4122 7.18371 22.5918C7.01908 22.7714 6.91432 23.0109 6.95921 23.1156C7.00411 23.2503 6.95921 23.2952 6.82452 23.2503C6.55513 23.1455 6.22588 23.5197 6.34561 23.819C6.3905 23.9537 6.24084 24.1632 5.91159 24.3877C5.62724 24.5823 5.41771 24.7768 5.46261 24.8217C5.50751 24.8666 5.44764 24.9864 5.31295 25.0911C5.19322 25.1959 5.08846 25.4054 5.08846 25.5401C5.08846 25.9592 4.92383 26.3034 4.77417 26.1986C4.69934 26.1537 4.63948 26.2136 4.63948 26.3333C4.63948 26.453 4.47485 26.6626 4.26533 26.7973C4.0558 26.932 3.90614 27.0966 3.9211 27.1565C3.98097 27.4258 3.68165 28.0843 3.50206 28.0843C3.38233 28.0843 3.29253 28.1891 3.29253 28.3088C3.29253 28.4435 3.18777 28.7129 3.05307 28.9075C2.91838 29.102 2.85852 29.3265 2.90341 29.4163C2.94831 29.4912 2.88845 29.581 2.76872 29.6408C2.64899 29.6857 2.54423 29.8204 2.54423 29.9551C2.54423 30.0748 2.45443 30.1796 2.3347 30.1796C2.12518 30.1796 1.87076 30.5837 1.93062 30.8381C1.94559 30.9129 1.90069 31.0177 1.82586 31.0626C1.6313 31.1823 1.04762 32.3646 1.04762 32.634C1.04762 32.7538 0.942861 32.9483 0.823133 33.083C0.703404 33.2027 0.56871 33.4871 0.523812 33.7265C0.49388 33.951 0.389117 34.4449 0.299321 34.8191C0.224491 35.1932 0.119728 35.9415 0.0598633 36.4953C-9.14347e-07 37.3483 0.0299294 37.513 0.25442 37.6477C0.424035 37.7474 0.429025 37.8023 0.269387 37.8123C-0.059866 37.8123 -0.0748339 38.0517 0.239453 38.1715C0.359182 38.2164 0.419049 38.3361 0.359184 38.4259C0.29932 38.5307 0.374151 38.5306 0.598642 38.4109C0.823133 38.2912 0.89796 38.2912 0.838095 38.396C0.688435 38.6354 0.927893 38.5905 1.31701 38.3211C1.51157 38.1864 1.6313 37.9919 1.5864 37.8871C1.55647 37.7823 1.61633 37.6477 1.73606 37.6028C1.85579 37.5579 1.94559 37.6028 1.94559 37.7075C1.96055 37.8123 2.03538 37.7823 2.15511 37.6177C2.25987 37.483 2.43947 37.3633 2.54423 37.3633C2.76872 37.3633 3.51702 36.7796 3.51702 36.615C3.51702 36.5402 3.78641 36.2857 4.11566 36.0463C4.74424 35.5823 7.18371 33.2327 7.18371 33.083C7.18371 33.0381 7.40819 32.7837 7.67758 32.5293C7.93201 32.2599 8.56058 31.5714 9.05446 31.0027C9.54834 30.434 10.1171 29.7905 10.3266 29.5809C10.5361 29.3714 10.8953 28.9673 11.1198 28.668C11.3443 28.3687 12.2572 27.366 13.1552 26.4381C14.547 24.9864 14.8164 24.7619 14.996 24.9564C15.1007 25.0762 15.5497 25.6149 15.9688 26.1537C16.4028 26.6925 17.0164 27.3809 17.3457 27.6803C17.6599 27.9646 17.9443 28.2639 17.9742 28.3537C18.1538 28.8177 20.5035 31.3918 20.6681 31.2871C20.743 31.2422 20.8028 31.317 20.8028 31.4367C20.8028 31.5714 20.9076 31.6762 21.0273 31.6762C21.147 31.6762 21.2518 31.7361 21.2518 31.8259C21.2518 31.9007 21.3566 31.9306 21.4763 31.8857C21.596 31.8259 21.7008 31.8708 21.7008 31.9606C21.7008 32.0503 21.6559 32.1102 21.596 32.1102C21.2668 32.0503 21.2368 32.1551 21.4763 32.4245C21.6259 32.5891 21.8355 32.7238 21.9253 32.7238C22.03 32.7238 22.1498 32.8585 22.1946 33.0231C22.2395 33.1878 22.4341 33.3823 22.6287 33.4572C22.8083 33.547 22.913 33.6068 22.8382 33.6068C22.6736 33.6218 24.1851 35.1184 24.3498 35.1184C24.4246 35.1184 24.7688 35.3878 25.143 35.717C25.5171 36.0463 26.0559 36.4204 26.3402 36.5402C26.6246 36.6749 26.9688 36.8395 27.0886 36.9293C27.2083 37.0041 27.4926 37.1837 27.7171 37.3334C27.9566 37.4681 28.1362 37.6925 28.1511 37.8123C28.1511 37.932 28.211 37.8871 28.3008 37.6925C28.3756 37.498 28.4954 37.3932 28.5852 37.4381C28.6899 37.498 28.6899 37.6327 28.5852 37.8272C28.4505 38.0667 28.4804 38.1116 28.8096 38.1116C29.0192 38.1116 29.1838 38.1864 29.1838 38.2762C29.1838 38.3511 29.1239 38.381 29.0341 38.3361C28.7947 38.1864 28.8545 38.5007 29.109 38.7102C29.2886 38.8599 29.3484 38.8449 29.4233 38.6504C29.4981 38.4558 29.558 38.4409 29.7375 38.5905C29.8573 38.6953 30.0967 38.8 30.2763 38.815C30.4559 38.8449 30.6355 38.9497 30.6954 39.0395C30.86 39.2939 31.2791 39.3238 31.3688 39.0844C31.4137 38.9647 31.5484 38.9198 31.6682 38.9647C31.8029 39.0096 31.8777 38.9347 31.8777 38.7252C31.8777 38.5456 31.8178 38.4109 31.743 38.4109C31.6682 38.4109 31.5634 38.2014 31.5035 37.9619C31.4137 37.5279 31.2192 37.3783 31.0845 37.6177C31.0546 37.6925 31.0546 37.6477 31.0695 37.5429C31.0995 37.4531 31.0546 37.3633 30.9797 37.3633C30.8899 37.3633 30.8301 37.2735 30.8301 37.1538C30.8301 37.034 30.7103 36.8395 30.5756 36.7347C30.426 36.63 30.2913 36.4504 30.2614 36.3456C30.2464 36.2558 30.0967 36.0313 29.9171 35.8517C29.4831 35.4177 29.6178 35.1034 30.3212 34.849C30.7702 34.6844 30.9797 34.5048 31.0995 34.1606C31.2641 33.7565 31.2491 33.6667 31.0246 33.5021C30.7852 33.3225 30.7852 33.2776 30.9797 33.1279C31.2341 32.9333 31.1593 31.8857 30.9049 31.9306C30.8151 31.9456 30.7552 31.7361 30.7702 31.4816C30.7702 30.9429 30.6205 30.5687 30.2165 30.1197C30.0518 29.9551 29.9321 29.7905 29.9171 29.7456C29.9171 29.7007 29.8872 29.5211 29.8722 29.3565C29.7974 28.8177 29.7076 28.6381 29.4532 28.3537C29.3035 28.2041 29.1838 27.9796 29.1838 27.8599C29.1838 27.5456 28.4654 26.483 28.196 26.3782C28.0763 26.3333 27.9865 26.1986 28.0164 26.0939C28.0613 25.8993 27.777 25.4503 27.1933 24.7469C27.0437 24.5673 26.8192 24.1932 26.6845 23.9088C26.5498 23.6394 26.3103 23.37 26.1607 23.3251C26.011 23.2952 25.9062 23.1755 25.9362 23.0857C25.9661 22.9959 25.7715 22.6217 25.4872 22.2626C25.2178 21.9034 24.9933 21.5591 24.9933 21.4993C24.9933 21.4394 24.7239 21.0503 24.3947 20.6612C24.0654 20.2571 23.796 19.883 23.796 19.8231C23.796 19.7483 23.4817 19.3142 23.1076 18.8503C21.9103 17.3836 21.8953 17.5033 23.4668 15.9918C24.23 15.2734 25.4273 14.1509 26.1457 13.4924C26.8641 12.8339 27.6573 12.0707 27.9117 11.7863C28.1511 11.502 28.4954 11.1428 28.66 10.9931C29.9471 9.8108 31.728 8.02983 31.6233 8.02983C31.5634 8.02983 31.6682 7.94004 31.8777 7.83527C32.0722 7.73051 32.4614 7.35636 32.7308 6.98221C33.0151 6.60806 33.3743 6.14411 33.524 5.96452C33.6886 5.76996 33.8233 5.54547 33.8233 5.47064C33.8233 5.39581 33.943 5.33594 34.0927 5.33594C34.3022 5.33594 34.3172 5.30601 34.1226 5.18628C33.928 5.06655 33.943 5.03662 34.1675 5.03662C34.3022 5.03662 34.5117 4.87199 34.6015 4.66247C34.6913 4.45294 34.826 4.28832 34.9008 4.28832C34.9757 4.28832 35.0206 4.13866 34.9906 3.9441C34.9607 3.73457 34.826 3.59988 34.6165 3.56995C34.4219 3.54002 34.2723 3.45022 34.2723 3.37539C34.2723 3.30056 34.1825 3.24069 34.0627 3.24069C33.7634 3.24069 32.4165 3.85431 32.2967 4.04886C32.2369 4.13866 32.177 4.16859 32.177 4.09376C32.177 4.0339 31.9076 4.15362 31.5784 4.36315C30.9199 4.7822 30.6804 4.8271 30.6804 4.55771C30.6804 4.36315 31.6981 3.39035 31.8927 3.39035C31.9525 3.39035 32.0573 3.25566 32.1022 3.09103C32.162 2.92641 32.2369 2.82165 32.2967 2.85158C32.3566 2.88151 32.5063 2.80668 32.626 2.67199C32.8205 2.46246 32.8056 2.4475 32.5811 2.5373C32.3865 2.61213 32.3267 2.55226 32.3267 2.31281C32.3267 2.13321 32.2818 2.04342 32.2219 2.08831C32.177 2.14818 32.0573 2.07335 31.9525 1.93865C31.7879 1.72913 31.6981 1.71416 31.0845 1.90872C30.6954 2.01348 30.3811 2.16314 30.3811 2.223C30.3811 2.28287 30.2763 2.34273 30.1566 2.34273C30.0369 2.34273 29.7226 2.58219 29.4382 2.86654C29.1539 3.1509 28.8546 3.39035 28.7498 3.39035C28.645 3.39035 28.4056 3.55498 28.196 3.76451C27.777 4.19852 26.2804 5.33594 26.1607 5.33594C25.9661 5.33594 24.9933 6.30874 24.9933 6.5033C24.9933 6.62303 24.8885 6.66793 24.7239 6.62303C24.5443 6.56316 24.3198 6.69786 24.0205 7.07201C23.7661 7.37133 23.4219 7.67065 23.2273 7.74548C23.0328 7.82031 22.928 7.94003 22.9729 8.02983C23.0178 8.10466 23.0178 8.17949 22.943 8.17949C22.7334 8.17949 20.5484 10.0503 18.9769 11.5918C18.6627 11.8761 18.3035 12.1455 18.1688 12.1605C17.9293 12.1904 17.9293 12.1605 18.1389 11.472C18.1838 11.3523 18.1837 11.2924 18.1538 11.3523C18.0042 11.6067 17.645 11.4421 17.1212 10.8734C16.7171 10.4394 16.5225 10.3196 16.4327 10.4543C16.3579 10.589 16.313 10.4992 16.313 10.2298C16.313 10.0054 16.2531 9.82576 16.1633 9.82576C16.0885 9.82576 16.0137 9.76589 16.0137 9.6761C16.0137 9.4965 15.2953 8.77813 15.1157 8.77813C15.0259 8.77813 14.966 8.64344 14.966 8.47881C14.966 8.31419 14.8613 8.17949 14.7266 8.17949C14.6069 8.17949 14.547 8.10466 14.5919 8.02983C14.6368 7.94003 14.5769 7.83528 14.4572 7.79038C14.3225 7.74548 14.2177 7.58085 14.2028 7.44616C14.2028 7.31147 14.128 7.38629 14.0531 7.61078C13.9484 7.89514 13.8286 7.98494 13.664 7.92508C13.4994 7.86521 13.4545 7.89514 13.5293 7.99991C13.649 8.20943 13.4844 8.22439 13.2001 8.0448C13.0504 7.95501 13.1252 7.8652 13.4994 7.73051C13.7688 7.64071 13.9035 7.52099 13.8137 7.47609C13.7089 7.44616 13.6191 7.3414 13.6191 7.26657C13.6191 7.17677 13.6939 7.1618 13.7837 7.22167C13.8735 7.26657 13.8286 7.10194 13.7089 6.84752C13.5742 6.59309 13.3796 6.38356 13.2599 6.38356C13.1552 6.38356 12.9756 6.21894 12.8708 6.00941C12.766 5.79989 12.6164 5.63526 12.5416 5.63526C12.4817 5.63526 12.4218 5.5305 12.4218 5.41077C12.4218 5.29104 12.3171 5.18628 12.1973 5.18628C12.0776 5.18628 11.9728 5.11145 11.9728 5.03662C11.9728 4.93186 11.8681 4.93186 11.6586 5.05159C11.4341 5.17132 11.3742 5.17132 11.4341 5.05159C11.4939 4.96179 11.449 4.88696 11.3443 4.872C11.2395 4.872 11.2694 4.81213 11.4191 4.75227C11.6735 4.66247 11.6586 4.61758 11.3293 4.25839C10.9102 3.80941 10.4014 3.83934 10.2517 4.30329C10.1919 4.45295 10.0123 4.58764 9.84766 4.58764C9.63814 4.58764 9.57827 4.51281 9.63814 4.36315C9.68304 4.24342 9.6531 4.13866 9.57827 4.13866C9.30888 4.13866 9.42861 3.86927 9.71297 3.79444C9.90753 3.74954 10.0273 3.80941 10.0722 3.97403C10.117 4.13866 10.1619 4.07879 10.2517 3.79444C10.3415 3.46519 10.2966 3.30056 10.0123 3.00124C9.8327 2.80668 9.53337 2.64205 9.36875 2.62709C9.18915 2.62709 9.14426 2.58219 9.24902 2.5373C9.36875 2.4924 9.32385 2.37267 9.06942 2.17811C8.87487 2.02845 8.63541 1.89375 8.56058 1.89375C8.48575 1.89375 8.21636 1.69919 7.99187 1.4747C7.75241 1.23524 7.43813 0.995787 7.28846 0.950889C7.06397 0.861093 7.03404 0.905996 7.10888 1.19035C7.19867 1.50464 7.1837 1.50463 6.86942 1.14545L6.54016 0.771295L6.65989 1.14545C6.71976 1.35497 6.82452 1.54953 6.88438 1.59443C7.09391 1.74409 6.98914 2.16314 6.76465 2.07334C6.60003 2.01348 6.5701 2.05838 6.65989 2.17811C6.74969 2.32777 6.68983 2.34273 6.4354 2.2679C6.21091 2.19307 6.13608 2.20804 6.19594 2.32777C6.25581 2.41756 6.40547 2.49239 6.5252 2.49239C6.64492 2.49239 6.71976 2.53729 6.70479 2.59715C6.60003 2.88151 6.97418 2.80668 7.12384 2.50736C7.30343 2.17811 7.51296 2.23797 7.37826 2.58219C7.3184 2.73185 7.37826 2.76178 7.54289 2.70192C7.70752 2.64205 7.78235 2.70192 7.78235 2.91145C7.78235 3.07607 7.67758 3.2407 7.52792 3.27063C7.30343 3.31553 7.30343 3.33049 7.52792 3.52505C7.75241 3.70464 7.78235 3.68968 7.78235 3.48016C7.78235 3.12097 8.18643 3.1958 8.27623 3.56995C8.39595 3.97403 8.26126 4.13866 8.08167 3.83934C7.96194 3.64478 7.93201 3.64478 7.93201 3.85431C7.93201 3.989 8.0218 4.18356 8.14153 4.27335C8.30616 4.40805 8.36602 4.37812 8.42589 4.10873C8.51568 3.79444 8.54561 3.79444 8.71024 4.01893C8.815 4.15362 9.0395 4.28832 9.20412 4.31825C9.48848 4.36315 9.48847 4.37812 9.14425 4.72234L8.78507 5.08152L9.24902 5.50057C9.81773 6.02438 9.98236 6.05432 9.62317 5.5754C9.47351 5.38084 9.30888 5.24615 9.24902 5.29104C9.17419 5.32098 9.12929 5.24615 9.12929 5.12642C9.12929 4.94683 9.26398 4.88696 9.62317 4.90193C9.87759 4.9169 9.98236 4.94683 9.84766 4.99172C9.698 5.02166 9.57827 5.12642 9.57827 5.20125C9.57827 5.29105 9.66807 5.30601 9.77283 5.24615C9.86263 5.18628 9.90753 5.18628 9.84766 5.26111C9.7878 5.32097 9.84766 5.47064 9.96739 5.59037C10.132 5.75499 10.147 5.87472 10.0273 6.00941C9.89256 6.17404 9.92249 6.18901 10.1619 6.12915C10.3415 6.08425 10.4313 5.97949 10.3715 5.87472C10.3116 5.78493 10.3864 5.81485 10.5361 5.93458C10.8055 6.14411 10.8055 6.15907 10.4613 6.2339C10.147 6.30873 10.132 6.33867 10.3715 6.42847C10.5361 6.48833 10.7307 6.48833 10.8055 6.42847C10.9102 6.36861 10.9252 6.4135 10.8504 6.5482C10.7456 6.72779 10.7606 6.72779 10.9551 6.56316C11.1497 6.39853 11.1946 6.4584 11.2694 6.93731C11.3293 7.23663 11.2994 7.56588 11.2245 7.65568C11.03 7.89514 11.9279 8.97269 12.2273 8.85296C12.4069 8.7931 12.4368 8.86793 12.3769 9.16726C12.332 9.46658 12.4218 9.6761 12.796 10.0652C13.0654 10.3346 13.245 10.604 13.2001 10.6489C13.1552 10.6938 13.23 10.7237 13.3647 10.7237C13.4994 10.7237 13.6191 10.8285 13.6191 10.9482C13.6191 11.2176 13.8885 11.7115 14.2477 12.1305C14.3973 12.2952 14.4871 12.4598 14.4422 12.4897C14.3524 12.5945 12.332 10.5591 12.3769 10.4094C12.4069 10.3496 12.2871 10.2598 12.1375 10.1999C11.9728 10.155 11.6137 9.85569 11.3293 9.54141C11.03 9.21215 10.6558 8.91283 10.4912 8.85296C10.3116 8.80807 10.1769 8.68834 10.1769 8.59855C10.1769 8.37406 8.38099 6.54819 8.05173 6.44343C7.88711 6.39853 7.79731 6.2788 7.82724 6.18901C7.85718 6.08425 7.69255 5.88969 7.45309 5.755C7.2286 5.60534 7.03404 5.42574 7.03404 5.33594C7.03404 5.26111 6.92928 5.18628 6.80955 5.18628C6.68983 5.18628 6.58506 5.11145 6.58506 5.03662C6.58506 4.90193 6.4354 4.70737 5.71703 3.9441C5.58233 3.79444 5.38778 3.71961 5.28301 3.74954C5.17825 3.79444 5.10342 3.77947 5.13335 3.71961C5.14832 3.64478 4.99866 3.34546 4.78914 3.04614C4.44492 2.55226 4.08573 2.29783 3.66668 2.2679C3.59185 2.2679 3.51702 2.16314 3.51702 2.02845C3.51702 1.78899 2.39457 0.6366 2.27484 0.771295C2.24491 0.801227 2.08028 0.771298 1.93062 0.681502C1.70613 0.561774 1.64627 0.591707 1.64627 0.786266ZM3.36736 2.49239C3.32246 2.56722 3.20273 2.64205 3.1279 2.64205C3.03811 2.64205 3.02314 2.56722 3.06804 2.49239C3.11294 2.40259 3.23266 2.34273 3.30749 2.34273C3.39729 2.34273 3.41226 2.40259 3.36736 2.49239ZM8.32112 2.47743C8.44085 2.37267 8.57555 2.34273 8.63541 2.4026C8.68031 2.4475 8.65038 2.49239 8.56058 2.49239C8.45582 2.49239 8.38099 2.58219 8.38099 2.68696C8.38099 2.80669 8.27623 2.89648 8.1565 2.89648C8.0218 2.89648 7.932 2.76179 7.94697 2.58219C7.94697 2.4026 7.99187 2.3577 8.03677 2.46247C8.09663 2.61213 8.1565 2.61212 8.32112 2.47743ZM9.12929 3.04614C9.12929 3.1509 9.02453 3.1958 8.87487 3.13594C8.71024 3.07607 8.66534 3.09104 8.74017 3.21077C8.80004 3.31553 8.7701 3.39035 8.69527 3.39035C8.47078 3.39035 8.48575 2.89648 8.71024 2.67199C8.9048 2.47743 9.12929 2.68695 9.12929 3.04614ZM9.57827 3.46518C9.57827 3.58491 9.47351 3.62982 9.29392 3.58492C9.05446 3.52506 9.03949 3.46518 9.17419 3.31552C9.38371 3.09103 9.57827 3.16586 9.57827 3.46518ZM10.7007 4.58764C10.7456 4.66247 10.7157 4.7373 10.6409 4.7373C10.5511 4.7373 10.4762 4.66247 10.4762 4.58764C10.4762 4.49784 10.5062 4.43798 10.5361 4.43798C10.581 4.43798 10.6558 4.49784 10.7007 4.58764ZM11.1198 5.33594C11.015 5.75499 10.9252 5.7101 10.9252 5.24615C10.9252 5.03662 10.9851 4.90193 11.0599 4.94683C11.1347 4.99173 11.1647 5.17131 11.1198 5.33594ZM29.9321 5.32098C29.9321 5.39581 29.8273 5.50057 29.6926 5.54547C29.4831 5.6203 29.4682 5.60533 29.6328 5.41077C29.8423 5.15635 29.9321 5.12642 29.9321 5.32098ZM11.4191 6.03935C11.3143 6.29377 11.913 6.30874 12.0177 6.03935C12.0776 5.90465 12.1375 5.91962 12.2572 6.08424C12.3919 6.26384 12.4218 6.27881 12.4218 6.09922C12.4218 5.97949 12.4667 5.93459 12.5116 5.97949C12.5715 6.03935 12.5415 6.17405 12.4518 6.27881C12.347 6.39854 12.3171 6.53323 12.362 6.57813C12.5266 6.74276 11.5089 6.39853 11.2844 6.21894C11.015 5.99445 11.015 5.82983 11.2844 5.82983C11.4041 5.82983 11.464 5.91962 11.4191 6.03935ZM13.0803 7.52099C13.1402 7.68562 13.0953 7.73052 12.9157 7.70058C12.781 7.67065 12.6463 7.56588 12.6014 7.46112C12.5116 7.19173 12.9756 7.23664 13.0803 7.52099ZM11.7334 7.955C11.6735 8.07473 11.5837 8.1346 11.5089 8.0897C11.2994 7.96997 11.3592 7.73051 11.5987 7.73051C11.7334 7.73051 11.7783 7.82031 11.7334 7.955ZM12.2722 8.50875C12.2722 8.7033 11.9279 8.58358 11.8531 8.35909C11.8232 8.25432 11.883 8.20943 12.0327 8.26929C12.1674 8.31419 12.2722 8.43392 12.2722 8.50875ZM12.7211 8.82304C12.7211 9.09243 12.6912 9.10739 12.5715 8.92779C12.3769 8.62847 12.3769 8.28425 12.5715 8.40398C12.6613 8.44888 12.7211 8.64345 12.7211 8.82304ZM28.1212 8.8829C27.8069 9.28698 27.4777 9.51148 27.343 9.42168C27.2681 9.37678 27.4328 9.18222 27.7022 8.98766C28.2858 8.56861 28.3906 8.53868 28.1212 8.8829ZM13.215 9.12236C13.2599 9.24209 13.2001 9.33188 13.0953 9.33188C12.9905 9.33188 12.9307 9.24209 12.9756 9.12236C13.0205 9.0176 13.0654 8.92779 13.0953 8.92779C13.1252 8.92779 13.1701 9.0176 13.215 9.12236ZM27.2382 9.7659C27.2382 9.88563 27.1784 9.96046 27.1035 9.91556C27.0287 9.87066 26.9239 10.0054 26.879 10.2149C26.8042 10.4992 26.6994 10.589 26.5049 10.5292C26.3103 10.4843 26.2505 10.5441 26.2654 10.7686C26.2954 11.0829 25.6219 11.7713 25.3076 11.7713C25.2178 11.7713 25.143 11.8911 25.143 12.0407C25.143 12.1904 24.9484 12.385 24.679 12.5047C24.4096 12.6244 24.1253 12.9088 24.0055 13.1782C23.9008 13.4326 23.811 13.5972 23.796 13.5373C23.796 13.3727 23.3021 13.7918 22.1498 14.9741L21.1171 16.0217L20.8178 15.6476C20.4287 15.1836 20.4287 14.8244 20.8178 14.7197C21.0123 14.6598 21.0872 14.57 21.0123 14.4503C20.9525 14.3455 20.9674 14.3006 21.0722 14.3754C21.147 14.4203 21.4164 14.3156 21.6559 14.121C21.8804 13.9265 22.2246 13.687 22.4191 13.5822C22.5987 13.4924 22.7484 13.3278 22.7484 13.2231C22.7484 13.1183 22.943 12.9237 23.1674 12.789C23.3919 12.6543 23.6763 12.37 23.7811 12.1605C23.9008 11.9509 24.0804 11.7564 24.2001 11.7115C24.3348 11.6516 24.3797 11.6965 24.3049 11.8162C24.245 11.906 24.3348 11.8761 24.4994 11.7264C24.6641 11.5918 24.8586 11.472 24.9484 11.472C25.0382 11.472 25.3375 11.2026 25.5919 10.8734C25.8464 10.5441 26.1906 10.2747 26.3552 10.2747C26.5198 10.2747 26.5947 10.1999 26.5498 10.0802C26.4899 9.91555 26.8341 9.6312 27.2083 9.54141C27.2232 9.52644 27.2382 9.6312 27.2382 9.7659ZM13.4694 10.1999C13.4694 10.2747 13.3946 10.2448 13.3198 10.1251C13.245 10.0053 13.1701 9.82576 13.1701 9.75093C13.1701 9.66113 13.245 9.70603 13.3198 9.82576C13.3946 9.94549 13.4694 10.1101 13.4694 10.1999ZM14.8763 13.0584C14.9212 13.1782 14.9062 13.238 14.8164 13.1931C14.7266 13.1482 14.6667 13.0435 14.6667 12.9537C14.6667 12.7441 14.7715 12.789 14.8763 13.0584ZM13.3497 23.0408L13.7388 23.5496L13.3797 23.9388C13.1701 24.1632 13.0354 24.3428 13.0803 24.3428C13.1252 24.3428 12.8858 24.6122 12.5715 24.9415C12.2422 25.2857 11.9728 25.6598 11.9728 25.7796C11.9728 25.8993 11.8531 26.049 11.7184 26.0939C11.4041 26.2136 9.87759 27.7102 9.87759 27.9048C9.87759 27.9796 9.60821 28.249 9.27895 28.5333C8.96467 28.8027 8.72521 29.0721 8.75514 29.132C8.78507 29.1769 8.65038 29.3415 8.44085 29.4912C8.24629 29.6558 8.08167 29.8503 8.08167 29.9551C8.08167 30.0449 7.91704 30.2245 7.70752 30.3292C7.49799 30.434 7.33337 30.5837 7.33337 30.6585C7.33337 30.8231 6.80955 31.4367 6.03132 32.215C5.67213 32.5592 5.38778 32.9633 5.38778 33.098C5.38778 33.2476 5.34288 33.3374 5.29798 33.2776C5.14832 33.1279 4.81907 33.532 4.90886 33.7565C4.95376 33.8912 4.92383 33.9361 4.83403 33.8762C4.66941 33.7714 4.35512 33.9959 3.14287 35.1034C2.76872 35.4327 2.40953 35.717 2.31974 35.717C2.24491 35.717 2.09525 35.5524 1.99048 35.3429C1.85579 35.0286 1.85579 34.9687 2.06531 34.9687C2.18504 34.9687 2.25987 34.9238 2.20001 34.8789C2.15511 34.8191 2.20001 34.5946 2.31974 34.3701C2.4694 34.0857 2.48436 33.9211 2.3796 33.8163C2.18504 33.6218 2.76872 33.1728 3.2177 33.1728C3.39729 33.1728 3.63675 32.9932 3.77144 32.7538C3.90614 32.5293 4.26533 32.1102 4.56465 31.8259C5.86669 30.5986 6.10615 30.3442 6.5252 29.7905C7.33336 28.7129 9.00956 26.7374 9.12929 26.7374C9.18916 26.7374 9.36875 26.5428 9.53337 26.3034C9.68303 26.0639 10.2368 25.3755 10.7756 24.7768C11.3143 24.1782 11.9728 23.4299 12.2572 23.1156C12.5266 22.8013 12.796 22.5469 12.8558 22.5469C12.9007 22.5469 13.1252 22.7714 13.3497 23.0408ZM24.5443 22.6966C24.5443 22.7714 24.4845 22.8462 24.3947 22.8462C24.3198 22.8462 24.245 22.7714 24.245 22.6966C24.245 22.6068 24.3198 22.5469 24.3947 22.5469C24.4845 22.5469 24.5443 22.6068 24.5443 22.6966ZM18.8123 27.8748C18.7674 27.9197 18.6327 27.9347 18.528 27.8898C18.4082 27.8449 18.4531 27.8 18.6178 27.8C18.7824 27.785 18.8722 27.8299 18.8123 27.8748ZM25.2926 34.9687C25.2926 35.0436 25.2178 35.1184 25.128 35.1184C25.0532 35.1184 25.0232 35.0436 25.0681 34.9687C25.113 34.8789 25.1879 34.8191 25.2328 34.8191C25.2627 34.8191 25.2926 34.8789 25.2926 34.9687ZM29.7076 37.9619C29.6627 38.0368 29.543 38.1116 29.4682 38.1116C29.3784 38.1116 29.3634 38.0368 29.4083 37.9619C29.4532 37.8721 29.5729 37.8123 29.6478 37.8123C29.7375 37.8123 29.7525 37.8721 29.7076 37.9619ZM30.9348 38.4409C30.8899 38.5606 30.845 38.5157 30.845 38.3511C30.8301 38.1864 30.875 38.0966 30.9199 38.1565C30.9648 38.2014 30.9797 38.3361 30.9348 38.4409Z" fill="#1C1B29"/>
<path fill-rule="evenodd" clip-rule="evenodd" d="M5.80636 1.26515C5.74649 1.48964 5.80636 1.51957 6.16554 1.47467C6.64446 1.39984 6.65942 1.10052 6.18051 1.02569C5.98595 0.995759 5.85126 1.08556 5.80636 1.26515Z" fill="#1C1B29"/>
<path fill-rule="evenodd" clip-rule="evenodd" d="M10.4766 6.83252C10.4766 6.90735 10.5514 6.98218 10.6412 6.98218C10.716 6.98218 10.746 6.90735 10.7011 6.83252C10.6562 6.74273 10.5813 6.68286 10.5364 6.68286C10.5065 6.68286 10.4766 6.74273 10.4766 6.83252Z" fill="#1C1B29"/>
<path fill-rule="evenodd" clip-rule="evenodd" d="M31.4287 39.3088C31.4287 39.3837 31.5335 39.4136 31.6532 39.3687C31.7729 39.3088 31.8777 39.249 31.8777 39.219C31.8777 39.1891 31.7729 39.1592 31.6532 39.1592C31.5335 39.1592 31.4287 39.219 31.4287 39.3088Z" fill="#1C1B29"/>
</svg>
