<svg width="24" height="25" viewBox="0 0 24 25" fill="none" xmlns="http://www.w3.org/2000/svg">
<g clip-path="url(#clip0_238_288)">
<path fill-rule="evenodd" clip-rule="evenodd" d="M17.5208 0.737995C4.45383 0.349995 3.36483 0.349995 1.80683 1.402C-0.0161687 2.64 0.243831 4.487 0.230831 6.467C0.134831 20.576 -0.165169 24.035 4.07083 24.18C7.08483 24.303 19.8398 25.022 22.0468 23.784C23.7868 22.815 23.7028 20.799 23.7188 18.084C23.8098 1.418 24.8008 0.956995 17.5208 0.737995ZM22.5338 3.198C22.8294 6.49596 22.8582 9.8124 22.6198 13.115C22.5898 22.775 23.2108 23.1 18.3318 23.191C15.6118 23.251 12.8968 23.27 10.2038 23.168C0.733831 22.772 1.67683 24.317 1.50483 12.841C1.50483 12.219 1.35883 4.416 1.57283 3.643C1.96583 2.236 3.36283 1.819 4.82083 1.671C5.42783 1.613 19.5108 1.439 21.0698 1.897C21.4109 1.96202 21.7285 2.11714 21.9894 2.34626C22.2503 2.57538 22.4452 2.87015 22.5538 3.2L22.5338 3.198Z" fill="#1C1B29"/>
<path fill-rule="evenodd" clip-rule="evenodd" d="M4.39016 4.57999C5.32216 5.22999 6.00016 5.78099 7.19216 6.57299C8.38516 7.36499 8.37016 7.02699 7.27016 7.61499C4.33216 9.19999 4.07716 9.38999 4.28216 9.79799C4.48816 10.208 4.64416 10.121 7.31716 8.92299C10.6522 7.43299 12.2832 7.58699 4.78316 3.90599C4.7389 3.88012 4.68998 3.86322 4.6392 3.85625C4.58841 3.84929 4.53675 3.85239 4.48716 3.86539C4.43758 3.87839 4.39104 3.90103 4.3502 3.93202C4.30936 3.963 4.27503 4.00173 4.24916 4.04599C4.22329 4.09024 4.20639 4.13916 4.19942 4.18995C4.19246 4.24073 4.19556 4.2924 4.20856 4.34198C4.23482 4.44213 4.30078 4.52774 4.39016 4.57999Z" fill="#1C1B29"/>
<path fill-rule="evenodd" clip-rule="evenodd" d="M16.4581 10.288C16.5143 10.2908 16.5703 10.2819 16.6229 10.2621C16.6754 10.2423 16.7234 10.2119 16.7637 10.1728C16.804 10.1337 16.8359 10.0868 16.8573 10.0348C16.8787 9.9829 16.8892 9.92713 16.8882 9.87097C16.8872 9.81481 16.8746 9.75946 16.8513 9.70836C16.828 9.65726 16.7944 9.61148 16.7527 9.57389C16.711 9.53629 16.662 9.50767 16.6087 9.4898C16.5555 9.47192 16.4991 9.46519 16.4432 9.47C14.7223 9.19621 12.9676 9.21548 11.2531 9.527C10.5241 9.504 10.0031 11.255 16.4581 10.288Z" fill="#1C1B29"/>
</g>
<defs>
<clipPath id="clip0_238_288">
<rect width="24" height="24" fill="white" transform="translate(0 0.5)"/>
</clipPath>
</defs>
</svg>
