<svg width="143" height="143" viewBox="0 0 143 143" fill="none" xmlns="http://www.w3.org/2000/svg">
<path d="M142.5 71.5C142.5 110.712 110.712 142.5 71.5 142.5C32.2878 142.5 0.5 110.712 0.5 71.5C0.5 32.2878 32.2878 0.5 71.5 0.5C110.712 0.5 142.5 32.2878 142.5 71.5Z" fill="#F2FF50" stroke="black"/>
<path d="M120.68 77.0936C121.022 73.5641 123.758 71.6405 127.663 72.0182C131.211 72.3612 133.386 74.7416 133.062 78.092C132.947 79.2745 132.403 80.2345 132.378 80.4853C132.366 80.6107 132.403 80.7951 132.387 80.9563C132.358 81.2609 131.954 81.5112 131.34 81.6869C130.969 81.7777 130.525 81.8794 130.042 81.8327C129.737 81.8032 129.593 81.6085 129.617 81.3576C129.647 81.0531 129.804 80.9236 130.19 80.6716C131.248 80.0144 131.78 79.3786 131.915 77.9811C132.154 75.5086 130.467 73.8807 127.493 73.5931C124.393 73.2934 122.293 74.6274 122.037 77.2791C121.948 78.1928 122.097 79.2741 122.568 80.2057C122.66 80.3774 122.698 80.5438 122.686 80.6692C122.672 80.8126 122.609 80.897 122.529 80.9796C122.413 81.0588 122.302 81.0842 122.159 81.0704C121.997 81.0548 121.859 80.9872 121.76 80.8872C120.942 79.9943 120.552 78.4195 120.68 77.0936Z" fill="#1C1B29"/>
<path d="M122.075 83.9052C121.024 83.6585 120.379 83.729 120.116 83.6674C119.818 83.5975 119.683 83.3069 119.843 82.6235C120.004 81.94 120.254 81.7399 120.552 81.8098C120.815 81.8715 121.357 82.2391 122.408 82.4857L130.417 84.3646C131.468 84.6113 131.901 84.343 132.392 84.4581C132.707 84.5321 132.795 84.867 132.811 85.3514C132.816 85.7225 132.772 85.9895 132.756 86.0595C132.71 86.2523 132.555 86.3637 132.362 86.3185L122.075 83.9052Z" fill="#1C1B29"/>
<path d="M118.942 85.9312C119.185 85.1399 119.444 84.9745 119.736 85.0646C119.994 85.144 120.484 85.6338 121.516 85.9516L125.455 87.1647C126.487 87.4825 126.955 87.2497 127.436 87.398C127.729 87.4881 127.794 87.8282 127.771 88.3298C127.756 88.6831 127.694 88.9464 127.673 89.0153C127.615 89.2045 127.452 89.305 127.263 89.2468L121.087 87.3451C120.055 87.0272 119.406 87.0535 119.148 86.9741C118.856 86.884 118.735 86.6021 118.942 85.9312ZM130.488 88.1305C131.038 88.3 131.279 88.8638 131.073 89.5348C130.871 90.1885 130.355 90.5192 129.805 90.3497C129.254 90.1802 128.996 89.6111 129.197 88.9574C129.404 88.2864 129.937 87.961 130.488 88.1305Z" fill="#1C1B29"/>
<path d="M116.65 91.583C117.685 89.1869 120.143 88.3072 122.737 89.4275C125.233 90.505 126.283 92.9777 125.276 95.3078C124.513 97.076 122.906 97.8917 121.435 97.2567C121.088 97.1068 120.936 96.6881 121.114 96.275C121.314 95.8122 121.692 95.662 122.122 95.8475C123.014 96.2328 123.878 95.8216 124.292 94.8631C124.956 93.3263 124.097 91.6813 122.164 90.8464C120.247 90.0187 118.48 90.5693 117.766 92.2219C117.467 92.9159 117.389 93.5491 117.508 94.3649C117.538 94.6131 117.537 94.7502 117.495 94.8494C117.445 94.965 117.352 95.0428 117.258 95.0803C117.132 95.1438 117.035 95.1412 116.92 95.0912C116.771 95.027 116.634 94.8896 116.561 94.7405C116.129 93.7891 116.165 92.7068 116.65 91.583Z" fill="#1C1B29"/>
<path d="M114.951 95.4178C115.328 94.8255 115.621 94.7344 115.879 94.8987C116.107 95.0436 116.507 95.5544 117.418 96.1341L124.359 100.55C125.27 101.13 125.767 101.019 126.192 101.29C126.466 101.464 126.428 101.824 126.283 102.287C126.176 102.623 126.046 102.861 126.007 102.922C125.901 103.089 125.717 103.143 125.55 103.036L118.671 98.6591C118.489 98.5431 118.384 98.5404 118.326 98.6315C118.239 98.7682 118.268 98.9573 118.33 99.2955L118.943 102.054C119.168 103.008 119.389 103.298 119.602 103.433C119.723 103.51 119.843 103.523 119.934 103.581C120.344 103.841 120.216 104.144 119.646 105.04C119.027 106.012 118.856 106.18 118.446 105.919C118.173 105.745 118.46 105.16 118.195 103.733L117.749 101.55C117.705 101.351 117.667 101.242 117.576 101.184C117.5 101.136 117.38 101.123 117.25 101.126L113.595 101.574C112.145 101.739 111.719 102.108 111.43 101.925C111.02 101.664 111.144 101.401 111.685 100.551C112.314 99.5637 112.479 99.3705 112.889 99.6314C113.011 99.7087 113.073 99.8122 113.225 99.9088C113.437 100.044 113.845 100.175 114.771 100.061L117.032 99.7926C117.196 99.7691 117.281 99.7374 117.329 99.6614C117.377 99.5855 117.359 99.4461 117.341 99.3066L117.025 97.8253C116.996 97.6362 116.909 97.5382 116.605 97.3449L116.514 97.287C115.77 96.8135 115.044 96.7141 114.816 96.5692C114.558 96.4049 114.507 96.1164 114.951 95.4178Z" fill="#1C1B29"/>
<path d="M102.869 113.048C102.148 112.244 101.565 111.944 101.385 111.743C101.181 111.515 101.21 111.224 101.773 110.719C102.376 110.178 102.682 110.17 102.886 110.397C103.067 110.599 103.247 111.258 103.968 112.063L105.819 114.127C106.143 114.488 106.325 114.422 106.781 114.013L110.279 110.877C110.734 110.469 110.82 110.295 110.496 109.933L108.646 107.869C107.925 107.065 107.288 106.814 107.108 106.613C106.904 106.385 106.932 106.093 107.549 105.54C108.112 105.036 108.391 105.051 108.596 105.279C108.776 105.48 109.024 106.08 109.745 106.884L114.551 112.245C115.272 113.049 115.841 113.361 116.021 113.562C116.226 113.789 116.21 114.069 115.647 114.574C115.031 115.126 114.738 115.123 114.534 114.895C114.353 114.694 114.173 114.034 113.452 113.23L112.094 111.716C111.698 111.273 111.503 111.327 111.061 111.723L107.536 114.883C107.094 115.28 107.02 115.467 107.417 115.909L108.774 117.424C109.495 118.228 110.132 118.479 110.312 118.68C110.516 118.908 110.474 119.212 109.871 119.752C109.308 120.257 109.015 120.254 108.811 120.026C108.631 119.825 108.396 119.213 107.675 118.409L102.869 113.048Z" fill="#1C1B29"/>
<path d="M96.6366 113.817C98.9665 112.417 101.331 113.138 102.898 115.746C104.325 118.122 103.851 120.444 101.691 121.742C99.6697 122.956 97.5486 122.361 96.2231 120.155C96.0007 119.784 96.0437 119.507 96.3369 119.33L101.336 116.327C101.383 116.299 101.404 116.266 101.358 116.188C100.375 114.553 98.6679 114.088 97.1558 114.996C96.5077 115.385 96.0758 115.855 95.6965 116.586C95.5762 116.806 95.496 116.917 95.4034 116.972C95.2954 117.037 95.175 117.047 95.0762 117.022C94.9373 117.001 94.8601 116.942 94.7952 116.834C94.7118 116.695 94.6808 116.504 94.7085 116.34C94.9117 115.315 95.5719 114.457 96.6366 113.817ZM102.025 117.299C101.988 117.238 101.939 117.225 101.892 117.253L97.8497 119.682C97.788 119.719 97.7911 119.759 97.8282 119.82C98.6439 121.178 99.9159 121.548 101.15 120.807C102.462 120.019 102.757 118.518 102.025 117.299Z" fill="#1C1B29"/>
<path d="M92.0108 116.391C92.6584 116.12 92.9673 116.206 93.0855 116.488C93.1897 116.737 93.2268 117.385 93.6438 118.381L95.2353 122.183C95.6523 123.18 96.1137 123.396 96.3083 123.861C96.4265 124.143 96.2067 124.411 95.8237 124.708C95.5264 124.93 95.2842 125.051 95.2178 125.079C95.0352 125.155 94.8537 125.094 94.7772 124.912L94.4645 124.165C94.3463 123.882 94.2757 123.853 94.1927 123.888C93.9436 123.992 94.1552 125.523 92.7604 126.107C92.0132 126.42 91.3981 126.209 91.1271 125.562C90.8769 124.964 91.0545 124.363 91.6523 124.112C92.084 123.932 92.3944 124.114 92.633 124.404C92.7523 124.55 92.8439 124.628 93.0431 124.545C93.6243 124.302 93.7626 122.488 93.2761 121.325L92.2822 118.951C91.8652 117.955 91.3466 117.508 91.2424 117.259C91.1242 116.977 91.2636 116.704 92.0108 116.391Z" fill="#1C1B29"/>
<path d="M83.736 119.103C86.3647 118.412 88.4331 119.767 89.2064 122.709C89.9111 125.39 88.8056 127.486 86.3684 128.126C84.0879 128.726 82.2183 127.561 81.5639 125.072C81.4541 124.654 81.5733 124.399 81.904 124.312L87.5444 122.829C87.5967 122.816 87.6269 122.789 87.604 122.702C87.119 120.857 85.6103 119.932 83.9042 120.38C83.1731 120.573 82.6269 120.902 82.0578 121.499C81.881 121.675 81.7728 121.76 81.6684 121.787C81.5465 121.819 81.4283 121.794 81.3404 121.743C81.2131 121.683 81.1554 121.606 81.1233 121.484C81.0821 121.327 81.106 121.135 81.1784 120.985C81.6606 120.058 82.5348 119.419 83.736 119.103ZM87.9335 123.956C87.9152 123.886 87.8712 123.86 87.819 123.874L83.2579 125.073C83.1883 125.091 83.1801 125.131 83.1984 125.2C83.6011 126.732 84.7186 127.443 86.1113 127.077C87.591 126.688 88.295 125.331 87.9335 123.956Z" fill="#1C1B29"/>
<path d="M74.7697 126.248C75.1117 126.242 75.277 126.456 75.2825 126.816C75.2889 127.23 75.1115 127.395 74.7875 127.4L70.0361 127.473C69.7121 127.478 69.5296 127.319 69.5232 126.905C69.5177 126.545 69.6763 126.326 70.0183 126.321L74.7697 126.248Z" fill="#1C1B29"/>
<path d="M62.1483 119.812C62.8369 119.948 63.0278 120.188 62.9682 120.488C62.9156 120.753 62.5844 121.311 62.374 122.371L61.3884 127.332C61.3182 127.685 61.3855 127.808 61.7033 127.871L62.2506 127.98C62.586 128.047 62.671 128.266 62.6009 128.619C62.5272 128.989 62.3579 129.103 62.0401 129.039L61.4752 128.927C61.1574 128.864 61.0657 128.956 60.9955 129.309L60.9745 129.415C60.5887 131.357 59.175 132.838 57.5861 132.522C57.1094 132.428 56.8937 132.128 56.9778 131.704C57.0655 131.263 57.4289 131.096 57.8526 131.181C58.7001 131.349 59.2463 130.632 59.5024 129.343L59.555 129.078C59.6356 128.672 59.5684 128.548 59.2506 128.485L58.1384 128.264C57.8382 128.205 57.7074 128.032 57.7811 127.661C57.8512 127.308 58.0134 127.138 58.3488 127.205L59.4611 127.426C59.7789 127.489 59.8882 127.401 59.9583 127.048L60.9439 122.087C61.1544 121.027 60.9559 120.364 61.0085 120.099C61.0681 119.799 61.3362 119.65 62.1483 119.812Z" fill="#1C1B29"/>
<path d="M52.2985 126.707C49.9507 125.896 48.9124 123.499 49.7999 120.93C50.6934 118.344 53.036 117.021 55.3668 117.826C57.7147 118.637 58.7301 121.045 57.8425 123.614C56.9491 126.2 54.6123 127.506 52.2985 126.707ZM56.4023 123.097C57.1371 120.97 56.6134 119.399 55.0142 118.847C53.4149 118.294 52.0037 119.292 51.2572 121.453C50.5283 123.562 51.0349 125.128 52.6512 125.686C54.2164 126.227 55.6617 125.241 56.4023 123.097Z" fill="#1C1B29"/>
<path d="M50.2724 115.891C50.8968 116.212 51.0305 116.503 50.8907 116.776C50.7673 117.016 50.2955 117.462 49.8021 118.422L47.9187 122.089C47.4252 123.049 47.5567 123.542 47.3265 123.99C47.1866 124.262 46.8404 124.267 46.3666 124.165C46.0052 124.081 45.7568 123.973 45.6928 123.94C45.5167 123.85 45.4461 123.672 45.5366 123.496L45.9067 122.775C46.0465 122.503 46.0232 122.43 45.9431 122.389C45.7029 122.266 44.6681 123.414 43.3231 122.723C42.6026 122.353 42.3677 121.747 42.6884 121.122C42.9845 120.546 43.5588 120.294 44.1352 120.591C44.5515 120.804 44.6121 121.159 44.5436 121.529C44.5094 121.714 44.5081 121.834 44.7003 121.933C45.2607 122.221 46.7374 121.158 47.3131 120.037L48.4892 117.748C48.9826 116.787 48.9901 116.103 49.1134 115.863C49.2532 115.591 49.5518 115.521 50.2724 115.891Z" fill="#1C1B29"/>
<path d="M40.9361 109.856C42.1357 110.863 42.3835 112.528 41.4232 113.672C40.2661 115.051 38.5245 114.858 36.5113 113.169L35.4634 112.29C35.229 112.093 35.0675 112.146 34.8476 112.408C33.8063 113.649 33.7567 114.688 34.7494 115.521C36.018 116.585 37.0512 115.69 37.6855 116.222C38.0302 116.512 38.0359 116.869 37.8161 117.131C37.5847 117.407 37.1073 117.499 36.5543 117.458C35.6904 117.368 34.8825 117.042 34.0414 116.337C32.4144 114.971 32.2613 113.222 33.6961 111.512L36.3457 108.354C36.6812 107.954 36.6519 107.765 36.4175 107.568C36.2107 107.395 36.2161 107.164 36.3549 106.999C36.6789 106.613 37.1856 106.709 37.6268 107.079C38.1232 107.496 38.2387 108.086 37.8658 108.643C37.8008 108.776 37.8075 108.852 37.8626 108.899C37.9316 108.956 37.9983 108.989 38.7404 109.001C39.5309 108.983 40.288 109.313 40.9361 109.856ZM40.1911 112.732C40.8275 111.974 40.6831 111.054 39.9523 110.441C38.9044 109.561 37.0807 109.746 36.1782 110.822L36.051 110.974C35.9006 111.153 35.9001 111.293 36.0931 111.455L37.0583 112.265C38.5337 113.503 39.4043 113.67 40.1911 112.732Z" fill="#1C1B29"/>
<path d="M32.6806 95.0028C33.1653 95.6742 33.1417 95.9798 32.8936 96.1589C32.6746 96.3169 31.9888 96.4124 31.1131 97.0445L29.4931 98.2139C29.2012 98.4246 29.1306 98.5422 29.2149 98.6589C29.3729 98.8779 30.7981 98.9147 31.7568 100.243C33.0421 102.023 32.4051 104.37 30.2159 105.95C27.9537 107.583 25.2972 107.348 23.8749 105.377C22.8951 104.02 23.1151 102.818 22.9782 102.628C22.8518 102.453 21.968 102.736 21.7784 102.473C21.6415 102.283 21.7072 102.036 21.9845 101.836L30.2597 95.8623C31.1354 95.2302 31.5052 94.6969 31.7242 94.5389C31.9723 94.3598 32.2698 94.4336 32.6806 95.0028ZM29.3788 104.668C31.1156 103.414 31.5975 101.867 30.7547 100.7C29.8381 99.43 28.0482 99.2569 26.5595 100.332L24.6038 101.743C24.1514 102.07 23.8446 103.49 24.719 104.701C25.7093 106.073 27.4231 106.079 29.3788 104.668Z" fill="#1C1B29"/>
<path d="M27.6589 93.5624C28.5307 95.3401 27.7467 96.8073 25.6942 97.8139L22.8661 99.201C21.8964 99.6766 21.4259 100.148 21.1997 100.259C20.9088 100.402 20.6279 100.279 20.3188 99.6484C20.081 99.1635 20.0585 98.9541 20.3171 98.8272L24.9876 96.5366C26.5713 95.7598 27.1172 94.9107 26.5386 93.7309C25.9758 92.5835 24.0949 92.2229 22.6081 92.9521L20.3455 94.0618C19.3759 94.5374 18.945 95.0895 18.7188 95.2005C18.4279 95.3432 18.155 95.2364 17.7904 94.493C17.5605 94.0244 17.538 93.8149 17.7965 93.6881L23.162 91.0566C24.2609 90.5176 24.5479 89.8355 24.8873 89.6691C25.162 89.5343 25.3544 89.6405 25.7696 90.0784C26.0733 90.3705 26.1449 90.4757 26.2163 90.6211C26.3035 90.7989 26.1812 90.9992 25.9305 91.1422C25.1627 91.5388 25.1621 91.6193 25.1938 91.684C25.3127 91.9264 26.9217 92.0595 27.6589 93.5624Z" fill="#1C1B29"/>
<path d="M24.9783 87.6415C25.2546 88.4221 25.146 88.7087 24.8576 88.8108C24.603 88.9009 23.918 88.7997 22.8999 89.16L19.0141 90.5354C17.996 90.8957 17.7598 91.3612 17.2847 91.5294C16.9962 91.6315 16.7414 91.3971 16.4604 90.981C16.2615 90.6886 16.1544 90.4401 16.1304 90.3722C16.0643 90.1855 16.1351 90.0077 16.3217 89.9417L22.4134 87.7856C23.4315 87.4252 23.9364 87.0174 24.1909 86.9273C24.4794 86.8252 24.7441 86.9797 24.9783 87.6415ZM14.3982 92.761C13.8552 92.9532 13.3258 92.6442 13.0915 91.9824C12.8633 91.3376 13.0805 90.7643 13.6234 90.5721C14.1664 90.3799 14.7129 90.683 14.9411 91.3278C15.1753 91.9895 14.9412 92.5689 14.3982 92.761Z" fill="#1C1B29"/>
<path d="M23.45 81.7276C24.0461 84.2686 22.5956 86.4393 19.8443 87.0847C17.1981 87.7055 14.8821 86.3445 14.3024 83.8736C13.8625 81.9985 14.6675 80.386 16.2271 80.0201C16.5951 79.9338 16.967 80.1794 17.0698 80.6175C17.1849 81.1081 16.9703 81.4543 16.5147 81.5612C15.5684 81.7832 15.1195 82.6281 15.3579 83.6445C15.7403 85.2742 17.4095 86.0844 19.4598 85.6034C21.4926 85.1265 22.584 83.6317 22.1729 81.8793C22.0002 81.1432 21.6852 80.5885 21.1043 80.0038C20.9323 79.8222 20.8509 79.7119 20.8263 79.6068C20.7975 79.4841 20.8254 79.3666 20.879 79.2801C20.942 79.1544 21.0214 79.0988 21.1441 79.07C21.3018 79.033 21.4935 79.062 21.6408 79.1383C22.5547 79.645 23.1705 80.5359 23.45 81.7276Z" fill="#1C1B29"/>
<path d="M22.5392 77.7241C22.5906 78.4243 22.4103 78.6721 22.1051 78.6945C21.8358 78.7143 21.2097 78.5437 20.1326 78.6228L11.9286 79.2252C10.8515 79.3042 10.5189 79.6896 10.0162 79.7265C9.69309 79.7503 9.5078 79.439 9.34787 78.9815C9.23307 78.647 9.19535 78.379 9.19007 78.3072C9.17557 78.1098 9.29069 77.9569 9.48816 77.9424L17.6203 77.3453C17.8357 77.3295 17.9215 77.2691 17.9136 77.1614C17.9017 76.9998 17.7655 76.8654 17.5137 76.6312L15.3747 74.7849C14.6245 74.1541 14.2742 74.0535 14.0229 74.072C13.8793 74.0825 13.7755 74.1443 13.6678 74.1522C13.1831 74.1878 13.1056 73.8686 13.0278 72.8094C12.9434 71.6605 12.9801 71.4232 13.4648 71.3876C13.788 71.3639 13.9072 72.0049 14.9723 72.9915L16.6335 74.4759C16.7877 74.6089 16.8827 74.6742 16.9904 74.6663C17.0802 74.6597 17.1839 74.5979 17.2863 74.5182L19.9514 71.9762C21.0151 70.9776 21.1371 70.4272 21.4782 70.4022C21.9629 70.3666 22.0199 70.6512 22.0937 71.6565C22.1794 72.8233 22.1619 73.0773 21.6772 73.1129C21.5336 73.1234 21.4219 73.0775 21.2424 73.0907C20.9911 73.1091 20.5861 73.2471 19.9116 73.8923L18.2577 75.4576C18.14 75.5745 18.0914 75.6503 18.098 75.74C18.1046 75.8298 18.2023 75.9309 18.2999 76.032L19.4382 77.0314C19.5744 77.1657 19.7027 77.1924 20.0617 77.1661L20.1694 77.1582C21.049 77.0936 21.6908 76.7396 21.9601 76.7198C22.2653 76.6974 22.4786 76.8984 22.5392 77.7241Z" fill="#1C1B29"/>
<path d="M15.9777 54.3432C15.2931 54.1881 15.1096 54.1834 15.0857 54.2888C15.0579 54.4117 15.1122 54.4978 15.8458 55.0885L20.9674 59.202C21.2029 59.3845 21.286 59.5879 21.2144 59.9039C21.1468 60.2023 20.9977 60.3716 20.689 60.4308L14.2945 61.9349C13.421 62.1246 13.2918 62.2061 13.2639 62.329C13.2441 62.4167 13.355 62.4972 14.0923 62.6643L20.0435 64.0127C21.0968 64.2514 21.7652 64.0706 22.0286 64.1303C22.327 64.1979 22.4684 64.4699 22.3252 65.1019C22.186 65.7163 21.9491 65.8656 21.6507 65.798C21.3874 65.7384 20.8382 65.3925 19.7849 65.1538L12.7629 63.5627C11.7096 63.3241 11.065 63.3995 10.8017 63.3398C10.5033 63.2722 10.3539 63.0354 10.5249 62.2805C10.7119 61.4554 10.7908 61.2703 11.1816 61.1743L18.3969 59.4685C18.9226 59.3477 19.0263 59.2974 19.0462 59.2096C19.0661 59.1218 18.9727 59.0453 18.568 58.7137L12.7926 54.0645C12.4948 53.8309 12.4939 53.5908 12.657 52.871C12.836 52.081 13.0688 51.9492 13.3673 52.0169C13.6306 52.0765 14.1797 52.4224 15.233 52.6611L22.255 54.2521C23.3083 54.4908 23.9529 54.4154 24.2163 54.475C24.5147 54.5427 24.6601 54.7971 24.497 55.5168C24.314 56.3244 24.0692 56.5088 23.7708 56.4412C23.5074 56.3815 22.9822 55.9303 21.9289 55.6916L15.9777 54.3432Z" fill="#1C1B29"/>
<path d="M26.9251 50.4532C25.7922 52.9238 23.433 53.6637 20.6679 52.3957C18.1482 51.2402 17.2289 49.0562 18.2793 46.7656C19.2623 44.6222 21.3487 43.9156 23.6884 44.9886C24.0811 45.1686 24.2024 45.4223 24.0598 45.7332L21.6288 51.0343C21.6063 51.0834 21.6077 51.1236 21.6895 51.1611C23.4238 51.9565 25.0957 51.3766 25.831 49.7732C26.1461 49.086 26.2376 48.4547 26.1376 47.6365C26.1131 47.3876 26.1165 47.2506 26.1615 47.1524C26.2141 47.0379 26.3082 46.9622 26.4036 46.9268C26.5304 46.8661 26.6273 46.8709 26.7418 46.9234C26.889 46.991 27.0227 47.1315 27.0922 47.2821C27.5031 48.2429 27.4429 49.3242 26.9251 50.4532ZM20.5114 50.6209C20.5769 50.6509 20.6246 50.6332 20.6471 50.5841L22.6129 46.2974C22.643 46.2319 22.6177 46.2006 22.5523 46.1706C21.1125 45.5103 19.8538 45.9232 19.2535 47.2321C18.6158 48.6229 19.2189 50.0282 20.5114 50.6209Z" fill="#1C1B29"/>
<path d="M30.5192 44.0373C29.9595 44.8756 29.0556 45.3543 28.9257 45.5489C28.8557 45.6537 28.7957 45.8084 28.7157 45.9282C28.6058 46.0929 28.3262 46.1226 27.9668 46.0775C27.5175 46.0372 26.9685 45.8222 26.7739 45.6923C26.5643 45.5524 26.5544 45.3726 26.6844 45.178C26.7943 45.0133 26.9242 44.9485 27.3336 44.8539C28.2673 44.6549 29.0513 44.3558 29.6509 43.4576C30.3006 42.4845 30.2263 41.526 29.4628 41.0163C28.8041 40.5765 28.2648 40.8008 26.7662 42.1378C25.2127 43.5246 24.1592 43.7735 22.9915 42.994C21.7789 42.1844 21.6353 40.422 22.6547 38.8951C23.0645 38.2813 23.6189 37.8723 23.7488 37.6777C23.8088 37.5878 23.8688 37.4331 23.9488 37.3133C24.0587 37.1487 24.2485 37.0589 24.8425 37.1092C25.2668 37.1545 25.7111 37.2995 25.9206 37.4394C26.1302 37.5794 26.1401 37.7591 26.0202 37.9387C25.9102 38.1034 25.7355 38.1382 25.341 38.2428C24.4522 38.5368 23.9578 38.7911 23.508 39.4647C22.8784 40.4079 22.9177 41.3215 23.6064 41.7812C24.2351 42.201 24.8543 41.9218 26.273 40.6397C27.8465 39.223 28.8801 39.004 30.0627 39.7935C31.3801 40.6731 31.5786 42.4504 30.5192 44.0373Z" fill="#1C1B29"/>
<path d="M35.0488 38.1992C34.3705 38.9449 33.4054 39.2836 33.2479 39.4566C33.1631 39.5499 33.0807 39.6939 32.9838 39.8004C32.8506 39.9469 32.5697 39.9347 32.221 39.8365C31.7827 39.7298 31.2719 39.4354 31.0988 39.2779C30.9124 39.1083 30.9294 38.9291 31.0868 38.7561C31.2201 38.6096 31.3581 38.5648 31.7771 38.5323C32.73 38.4745 33.5498 38.2956 34.2765 37.4967C35.0639 36.6312 35.1332 35.6723 34.4542 35.0546C33.8683 34.5216 33.3016 34.6631 31.6206 35.7619C29.8779 36.9019 28.799 36.9911 27.7605 36.0463C26.682 35.0652 26.8024 33.3011 28.0379 31.943C28.5346 31.3971 29.1437 31.0752 29.3012 30.9021C29.3738 30.8222 29.4562 30.6782 29.5531 30.5717C29.6864 30.4252 29.8874 30.3647 30.4673 30.503C30.8802 30.6109 31.2978 30.8205 31.4842 30.9901C31.6706 31.1596 31.6536 31.3388 31.5083 31.4986C31.375 31.6451 31.197 31.6535 30.7914 31.6981C29.8687 31.8564 29.3419 32.0342 28.7969 32.6334C28.0338 33.4722 27.9366 34.3815 28.5491 34.9387C29.1083 35.4474 29.7622 35.2636 31.356 34.2071C33.123 33.0405 34.1776 32.9779 35.2295 33.9348C36.4012 35.0007 36.3327 36.7879 35.0488 38.1992Z" fill="#1C1B29"/>
<path d="M39.9241 33.4669C38.6992 34.4426 37.0183 34.3548 36.0874 33.1863C34.9659 31.7784 35.5007 30.1097 37.5562 28.4722L38.6262 27.6199C38.8656 27.4292 38.8462 27.2605 38.6331 26.993C37.6238 25.7259 36.6151 25.4708 35.6014 26.2783C34.3061 27.3101 34.9783 28.5006 34.3307 29.0165C33.9787 29.2969 33.6275 29.2315 33.4144 28.964C33.1901 28.6824 33.1939 28.1961 33.344 27.6623C33.6043 26.8336 34.0837 26.1065 34.9426 25.4223C36.6039 24.0989 38.3492 24.2965 39.7399 26.0423L42.3082 29.2664C42.6334 29.6747 42.8246 29.6835 43.0639 29.4929C43.2751 29.3246 43.4999 29.3757 43.6345 29.5447C43.9485 29.9389 43.7535 30.4164 43.303 30.7752C42.7962 31.179 42.1946 31.1749 41.7233 30.6989C41.6054 30.6087 41.5295 30.6001 41.4732 30.6449C41.4028 30.701 41.3577 30.76 41.1988 31.4849C41.0594 32.2633 40.5858 32.9398 39.9241 33.4669ZM37.2534 32.1654C37.8702 32.9398 38.8006 32.9811 39.5468 32.3867C40.6168 31.5343 40.7977 29.7102 39.9229 28.6121L39.7995 28.4572C39.6537 28.2742 39.516 28.2458 39.3189 28.4028L38.3334 29.1879C36.827 30.3879 36.4907 31.2081 37.2534 32.1654Z" fill="#1C1B29"/>
<path d="M49.243 31.7956C47.4027 32.8196 45.5303 32.9346 44.7864 31.5976C44.4538 30.9999 44.5337 30.2551 44.9862 29.7355C45.063 29.6515 45.0909 29.5536 45.0647 29.5064C45.0384 29.4592 44.965 29.4383 44.8846 29.4419C44.152 29.4581 43.6326 29.191 43.3087 28.609C42.8624 27.8068 43.1608 27.0846 43.7007 26.537C43.8544 26.369 43.8998 26.3026 43.8561 26.2239C43.8298 26.1767 43.7231 26.1331 43.5046 26.1105C42.7353 26.0236 41.8713 25.6186 41.3112 24.612C40.3922 22.9605 41.1286 21.0263 43.0475 19.9585C43.8025 19.5384 44.4248 19.3981 45.0383 19.0568C45.9663 18.5404 46.0778 17.9634 46.4867 17.7358C46.7069 17.6133 46.8958 17.6936 47.0183 17.9138C47.3597 18.5272 46.2868 19.4126 46.3568 19.5384C46.4268 19.6642 47.2959 19.8192 47.9085 20.9202C48.9326 22.7605 48.1506 24.5758 45.7598 25.9062C44.3599 26.6851 43.9861 27.1609 44.3099 27.7429C44.5988 28.2619 45.0377 28.3473 45.6825 27.9885C46.5004 27.5333 47.4528 26.8386 48.2078 26.4185C50.048 25.3945 51.2282 25.4793 51.9809 26.832C52.8474 28.3891 51.618 30.474 49.243 31.7956ZM45.8767 30.7437C46.3931 31.6717 47.5959 31.538 48.7913 30.8728C50.4113 29.9713 51.3301 28.6979 50.8312 27.8014C50.3936 27.0149 49.8183 26.9436 48.6544 27.5913C46.4052 28.8429 45.4566 29.9887 45.8767 30.7437ZM42.7164 23.9536C43.329 25.0547 44.4482 25.4001 45.6908 24.7086C46.9176 24.0259 47.2368 22.8596 46.5628 21.6485C45.9151 20.4845 44.831 20.2021 43.5727 20.9022C42.3458 21.5849 42.0424 22.7425 42.7164 23.9536Z" fill="#1C1B29"/>
<path d="M55.4615 24.6396C52.8992 25.5465 50.7255 24.3682 49.7105 21.5005C48.7856 18.8874 49.7133 16.7069 52.0888 15.8661C54.3117 15.0793 56.2716 16.085 57.1304 18.5115C57.2746 18.9188 57.177 19.1824 56.8546 19.2966L51.3568 21.2425C51.3059 21.2605 51.2779 21.2895 51.308 21.3743C51.9446 23.173 53.5249 23.9693 55.1878 23.3808C55.9004 23.1285 56.4173 22.7546 56.9349 22.1131C57.0965 21.9223 57.1973 21.8294 57.2991 21.7933C57.4179 21.7513 57.5377 21.7661 57.6296 21.81C57.7614 21.8588 57.8254 21.9316 57.8675 22.0504C57.9215 22.2031 57.9137 22.3968 57.8539 22.5517C57.4504 23.5155 56.6323 24.2252 55.4615 24.6396ZM50.8755 20.1526C50.8996 20.2204 50.9455 20.2424 50.9964 20.2244L55.4422 18.6508C55.51 18.6268 55.515 18.5868 55.491 18.519C54.9625 17.0257 53.7897 16.4097 52.4322 16.8902C50.9899 17.4007 50.4011 18.8121 50.8755 20.1526Z" fill="#1C1B29"/>
<path d="M84.5 65C84.5 60 82 57.5 77 57.5H67C62 57.5 59.5 60 59.5 65V81.25C59.5 81.9375 60.0625 82.5 60.75 82.5H77C82 82.5 84.5 80 84.5 75V70" stroke="#1C1B29" stroke-width="1.5" stroke-linecap="round" stroke-linejoin="round"/>
<path d="M76.3875 69.675L77.2 68.8625C77.25 68.8125 77.3 68.7625 77.35 68.7C78.3625 67.625 78.7625 66.3625 77.2 64.8C75.55 63.15 74.25 63.6875 73.1375 64.8L66.65 71.2875C66.4 71.5375 66.1625 72.025 66.1125 72.375L65.7625 74.85C65.6375 75.75 66.2625 76.375 67.1625 76.25L69.6375 75.9C69.9875 75.85 70.475 75.6125 70.725 75.3625L73.15 72.9375" stroke="#1C1B29" stroke-width="1.5" stroke-miterlimit="10" stroke-linecap="round" stroke-linejoin="round"/>
<path d="M72.2124 65.725C72.7624 67.6875 74.2999 69.2375 76.2749 69.7875" stroke="#1C1B29" stroke-width="1.5" stroke-miterlimit="10" stroke-linecap="round" stroke-linejoin="round"/>
</svg>
