<svg width="24" height="25" viewBox="0 0 24 25" fill="none" xmlns="http://www.w3.org/2000/svg">
<g clip-path="url(#clip0_235_234)">
<path fill-rule="evenodd" clip-rule="evenodd" d="M11.2302 18.27C11.1891 18.2481 11.144 18.2348 11.0976 18.2311C11.0512 18.2273 11.0045 18.2331 10.9605 18.2481C10.9164 18.2631 10.8759 18.287 10.8415 18.3183C10.807 18.3495 10.7793 18.3876 10.7602 18.43C10.5102 18.93 11.6402 19.35 9.36018 21.67C8.34912 22.6842 7.00218 23.2938 5.57295 23.3841C4.14371 23.4743 2.73079 23.039 1.60018 22.16C1.95065 22.1697 2.29895 22.1021 2.62039 21.9621C2.94183 21.8222 3.22854 21.6132 3.46018 21.35C5.46019 19.48 4.66018 15.84 7.82019 16C9.30019 16.08 9.23018 16.75 9.73018 17.21C10.4702 17.89 10.7302 16.92 10.2602 16.83C9.79018 16.74 10.0002 15.5 7.88019 15.24C4.05019 14.82 4.39018 18.93 2.67018 20.5C1.91018 21.2 1.36018 21.01 0.800185 21.29C0.240185 21.57 -0.00981522 22.29 0.800185 23.02C1.59474 23.6335 2.51374 24.0659 3.49289 24.287C4.47205 24.5082 5.4877 24.5127 6.46878 24.3003C7.44987 24.0879 8.37269 23.6637 9.17269 23.0573C9.97268 22.451 10.6305 21.6772 11.1002 20.79C11.4902 20.1 11.9402 18.61 11.2302 18.27Z" fill="#1C1B29"/>
<path fill-rule="evenodd" clip-rule="evenodd" d="M19.69 0.709997C17.46 1.36 15.94 3.08 14.69 5.08C12.43 8.93 12.51 8.6 10.88 11.31C8.57 15.2 9.17 13.84 8.85 14.4C8.81418 14.4424 8.78999 14.4934 8.77983 14.5479C8.76966 14.6025 8.77386 14.6588 8.79202 14.7112C8.81017 14.7637 8.84166 14.8105 8.88338 14.8471C8.92511 14.8837 8.97563 14.9088 9.03 14.92C9.58 15.1 11.26 12.14 11.55 11.71C12 11.01 12.49 10.32 12.97 9.63C15.32 6.03 16.18 4.52 17.52 3.29C19.45 1.53 22.69 0.749997 22.52 3.29C22.37 7.1 17.45 10.13 15 12.7C14.46 13.26 14 13.91 13.47 14.52C12.22 15.99 11.15 16.35 11.33 16.83C11.61 17.56 12.67 16.33 13.33 15.83C14.19 15.08 14.83 14.12 15.62 13.35C18.15 10.89 21.69 8.97 23.24 5.56C24.79 2.15 22.82 -0.190003 19.69 0.709997Z" fill="#1C1B29"/>
<path fill-rule="evenodd" clip-rule="evenodd" d="M18.5101 5.5C19.5821 4.73007 20.5384 3.81076 21.3501 2.77C21.3616 2.68918 21.3407 2.6071 21.292 2.54157C21.2433 2.47604 21.1708 2.43236 21.0901 2.42C20.8359 2.37803 20.5752 2.40094 20.3322 2.4866C20.0892 2.57226 19.8718 2.7179 19.7001 2.91C19.0085 3.62775 18.3889 4.41149 17.8501 5.25C17.8648 5.31864 17.8965 5.3825 17.9422 5.43574C17.988 5.48898 18.0464 5.52991 18.112 5.55477C18.1776 5.57964 18.2485 5.58766 18.318 5.57809C18.3876 5.56852 18.4536 5.54167 18.5101 5.5Z" fill="#1C1B29"/>
</g>
<defs>
<clipPath id="clip0_235_234">
<rect width="24" height="24" fill="white" transform="translate(0 0.5)"/>
</clipPath>
</defs>
</svg>
