<svg width="16" height="17" viewBox="0 0 16 17" fill="none" xmlns="http://www.w3.org/2000/svg">
<g clip-path="url(#clip0_268_477)">
<path d="M15.7196 3.89334C15.6604 3.5355 15.4956 3.20352 15.2463 2.94001C14.9047 2.79424 14.5377 2.71721 14.1663 2.71334C11.5255 2.57007 8.87854 2.58566 6.23964 2.76001C3.55964 2.93334 1.13297 3.28668 0.366307 3.83334C0.237747 3.9524 0.155151 4.11287 0.132973 4.28668C0.0221049 5.15313 -0.0224689 6.02678 -0.000359791 6.90001C-0.0109422 9.14661 0.100332 11.3921 0.332973 13.6267C0.337241 13.6539 0.346902 13.68 0.361389 13.7034C0.375875 13.7268 0.394896 13.7471 0.417333 13.763C0.43977 13.779 0.465171 13.7903 0.492044 13.7963C0.518917 13.8023 0.54672 13.8029 0.573819 13.798C0.600919 13.7932 0.626769 13.7829 0.64985 13.7679C0.672931 13.7529 0.692779 13.7334 0.708227 13.7106C0.723674 13.6878 0.734411 13.6621 0.739805 13.6351C0.7452 13.6081 0.745144 13.5803 0.73964 13.5533C0.63964 12.92 0.546307 10.8867 0.532973 8.81335C0.503218 7.45415 0.547729 6.09435 0.666307 4.74001C1.75964 5.47335 3.91964 6.90668 5.6863 7.86668L6.65964 8.34668C7.1826 8.63307 7.75477 8.81852 8.3463 8.89335C8.61536 8.85005 8.87347 8.75496 9.1063 8.61335C9.28761 8.51645 9.46344 8.40962 9.63297 8.29335L10.593 7.62668C10.8196 7.46001 11.0396 7.30001 11.2596 7.11335C12.5548 6.12181 13.7656 5.02472 14.8796 3.83334C14.8796 3.90668 14.9263 3.99335 14.9463 4.08668C15.1407 5.13077 15.2322 6.19139 15.2196 7.25335C15.254 9.07214 15.1739 10.8913 14.9796 12.7C14.9796 12.8467 14.933 13 14.913 13.0867H14.453C13.2596 13.2067 10.7196 13.3933 8.13297 13.5533C5.20631 13.7333 2.22631 13.8867 1.09297 13.9133C1.06233 13.9133 1.03199 13.9194 1.00368 13.9311C0.975371 13.9428 0.949649 13.96 0.927982 13.9817C0.906315 14.0034 0.889127 14.0291 0.877401 14.0574C0.865675 14.0857 0.85964 14.116 0.85964 14.1467C0.861376 14.2092 0.887427 14.2685 0.932249 14.3121C0.97707 14.3557 1.03713 14.38 1.09964 14.38C2.61297 14.38 7.39964 14.1867 10.9863 13.9933C12.693 13.9067 14.1263 13.8133 14.8063 13.7467C15.003 13.7358 15.1966 13.693 15.3796 13.62C15.4534 13.5727 15.5097 13.5024 15.5396 13.42C15.6126 13.2175 15.6618 13.0072 15.6863 12.7933C15.9083 10.9485 16.0129 9.09144 15.9996 7.23335C16.0144 6.11358 15.9206 4.99502 15.7196 3.89334ZM11.4996 6.08001C10.6796 6.69335 9.8463 7.26668 9.2063 7.65335C8.93285 7.85464 8.62588 8.00587 8.29964 8.10001C8.00377 8.06234 7.71703 7.97203 7.45297 7.83335C6.85297 7.58668 6.07964 7.20668 5.25964 6.77334C3.55964 5.90001 1.67964 4.82668 0.752973 4.28668C1.53964 3.82668 3.79964 3.62001 6.27964 3.48668C8.88652 3.34209 11.4994 3.34209 14.1063 3.48668H14.5196C13.581 4.42728 12.5713 5.29428 11.4996 6.08001Z" fill="#1C1B29"/>
<path d="M11.7861 10.1067C12.0128 10.3267 12.2461 10.54 12.4528 10.74C13.1195 11.36 13.7861 11.9 14.0928 12.2C14.1375 12.2432 14.1973 12.2673 14.2595 12.2673C14.3216 12.2673 14.3814 12.2432 14.4261 12.2C14.4483 12.1783 14.4659 12.1524 14.4779 12.1237C14.49 12.0951 14.4962 12.0644 14.4962 12.0333C14.4962 12.0023 14.49 11.9716 14.4779 11.943C14.4659 11.9143 14.4483 11.8884 14.4261 11.8667C14.1395 11.5267 13.6061 10.8933 12.9728 10.2067C12.7595 9.98001 12.5372 9.75779 12.3061 9.54001C12.0795 9.32001 11.8461 9.10001 11.6395 8.87335C11.4328 8.64668 11.0995 8.42001 10.8461 8.20668C10.3861 7.89335 10.0461 8.20668 10.3728 8.60001C10.5995 8.84668 10.8461 9.12001 11.1195 9.40001C11.3928 9.68001 11.5595 9.88668 11.7861 10.1067Z" fill="#1C1B29"/>
<path d="M3.05925 10.7333C2.36676 11.4191 1.71244 12.1425 1.09925 12.9C1.07912 12.9232 1.06375 12.9501 1.05402 12.9793C1.0443 13.0084 1.04041 13.0392 1.04257 13.0698C1.04474 13.1005 1.05292 13.1304 1.06665 13.1579C1.08038 13.1854 1.09939 13.2099 1.12259 13.23C1.14579 13.2501 1.17273 13.2655 1.20187 13.2752C1.23101 13.285 1.26178 13.2888 1.29242 13.2867C1.32306 13.2845 1.35298 13.2763 1.38046 13.2626C1.40794 13.2489 1.43245 13.2299 1.45259 13.2067C1.84592 12.8067 2.57925 12.2 3.37925 11.4867C3.79925 11.1067 4.23925 10.7067 4.64592 10.2933C5.05259 9.88 5.59259 9.28 5.97925 8.82C6.36592 8.36 5.88592 8.15333 5.43259 8.56C5.08592 8.86667 4.71259 9.18667 4.31925 9.54C3.92592 9.89333 3.46592 10.3333 3.05925 10.7333Z" fill="#1C1B29"/>
</g>
<defs>
<clipPath id="clip0_268_477">
<rect width="16" height="16" fill="white" transform="translate(0 0.5)"/>
</clipPath>
</defs>
</svg>
