<svg width="24" height="25" viewBox="0 0 24 25" fill="none" xmlns="http://www.w3.org/2000/svg">
<g clip-path="url(#clip0_430_281)">
<path fill-rule="evenodd" clip-rule="evenodd" d="M16.4128 18.0761C16.3602 18.076 16.3082 18.0867 16.2601 18.1076C16.2119 18.1286 16.1686 18.1593 16.1329 18.1978C16.0972 18.2364 16.0698 18.2819 16.0526 18.3315C16.0354 18.3811 16.0286 18.4338 16.0328 18.4861C16.0982 19.5098 16.0714 20.5373 15.9528 21.5561C15.8473 22.1766 15.5701 22.7551 15.1528 23.2261C14.8391 23.4629 14.4713 23.6176 14.0828 23.6761C12.2592 24.0823 10.3867 24.2238 8.52277 24.0961C5.99277 23.9561 3.42277 23.4161 2.25277 22.0961C1.93083 21.4761 1.74663 20.7939 1.71277 20.0961C1.32804 16.9077 1.24767 13.6898 1.47277 10.4861C1.5555 8.63137 1.8201 6.7892 2.26277 4.98614C2.38981 4.31622 2.69757 3.69379 3.15277 3.18614C4.04277 2.47614 6.15277 2.29613 8.41277 2.32613C10.9912 2.30811 13.5626 2.59681 16.0728 3.18614C16.3228 3.27613 16.5228 3.49613 16.6128 3.42614C16.7797 3.90829 16.861 4.41596 16.8528 4.92614C16.8528 5.86614 16.7928 6.92614 16.7928 7.53614C16.79 7.58244 16.7968 7.62881 16.8127 7.6724C16.8285 7.71599 16.8531 7.75587 16.885 7.78959C16.9168 7.82331 16.9553 7.85016 16.9979 7.86848C17.0405 7.88681 17.0864 7.89622 17.1328 7.89614C17.1787 7.89747 17.2245 7.88973 17.2675 7.87336C17.3105 7.85699 17.3498 7.83231 17.3832 7.80074C17.4167 7.76916 17.4435 7.73131 17.4623 7.68934C17.4811 7.64737 17.4915 7.6021 17.4928 7.55614C17.4928 6.78614 17.6628 5.55614 17.6128 4.45614C17.6011 3.96611 17.5029 3.48199 17.3228 3.02614C17.0749 2.70395 16.7204 2.4806 16.3228 2.39613C13.7556 1.67164 11.1091 1.26526 8.44277 1.18613C5.83277 1.08613 3.44277 1.36613 2.38277 2.18613C1.70071 2.84505 1.22771 3.69018 1.02277 4.61614C0.517631 6.50182 0.215911 8.43619 0.12277 10.3861C-0.112934 13.688 -0.00905606 17.0054 0.43277 20.2861C0.514436 21.2246 0.81961 22.1298 1.32277 22.9261C2.70277 24.4061 5.60277 25.0761 8.47277 25.1861C11.8728 25.2961 15.2028 24.5861 15.8428 23.8361C16.3675 23.2406 16.714 22.5094 16.8428 21.7261C16.9431 20.6451 16.9431 19.5571 16.8428 18.4761C16.8429 18.421 16.8317 18.3664 16.8097 18.3158C16.7878 18.2652 16.7556 18.2197 16.7152 18.1821C16.6748 18.1446 16.6271 18.1158 16.5751 18.0975C16.523 18.0793 16.4678 18.072 16.4128 18.0761Z" fill="#F2FF50"/>
<path fill-rule="evenodd" clip-rule="evenodd" d="M22.7632 10.7462C20.4832 11.1962 18.0632 11.5662 15.6232 11.9462C14.0532 12.1962 12.4632 12.4562 10.8932 12.6162C9.59323 12.7462 8.30323 12.8162 7.03323 12.8262L7.92323 11.9762C8.62323 11.3262 9.31323 10.6762 9.92323 9.97625L12.2332 7.22625C12.2958 7.15801 12.3305 7.06881 12.3305 6.97625C12.3305 6.88368 12.2958 6.79448 12.2332 6.72625C12.1998 6.69268 12.16 6.66605 12.1163 6.64788C12.0725 6.62971 12.0256 6.62036 11.9782 6.62036C11.9308 6.62036 11.8839 6.62971 11.8402 6.64788C11.7964 6.66605 11.7567 6.69268 11.7232 6.72625L9.18323 9.26625C8.38323 10.0162 7.40323 10.6962 6.53323 11.4462C5.91792 11.9734 5.35222 12.5558 4.84323 13.1862C4.77293 13.2774 4.72313 13.3827 4.69724 13.4949C4.67136 13.607 4.66999 13.7235 4.69323 13.8362C4.72677 13.9635 4.78939 14.0812 4.87615 14.1801C4.96291 14.279 5.07146 14.3564 5.19323 14.4062C5.34323 14.4762 5.64323 14.5162 5.78323 14.5962L7.06323 15.5162C7.90244 16.1385 8.70697 16.8061 9.47323 17.5162C9.96392 18.0018 10.4216 18.5196 10.8432 19.0662C10.9022 19.153 10.9928 19.2132 11.0957 19.2338C11.1986 19.2544 11.3054 19.2337 11.3932 19.1762C11.4807 19.1155 11.5411 19.0231 11.5617 18.9185C11.5822 18.814 11.5612 18.7056 11.5032 18.6162C11.1001 17.9977 10.6522 17.4094 10.1632 16.8562C9.43195 16.0449 8.65396 15.2769 7.83323 14.5562L6.74323 13.6762C8.44254 13.8264 10.1509 13.8465 11.8532 13.7362C12.7332 13.6762 13.6032 13.5862 14.4732 13.4662C15.3432 13.3462 16.1932 13.1862 17.0532 12.9962C19.0532 12.5462 21.0532 11.9962 22.9332 11.3962C23.0222 11.3705 23.0979 11.3115 23.1444 11.2314C23.191 11.1513 23.2049 11.0563 23.1832 10.9662C23.1556 10.8821 23.0963 10.812 23.0179 10.771C22.9395 10.7299 22.8481 10.721 22.7632 10.7462Z" fill="#F2FF50"/>
</g>
<defs>
<clipPath id="clip0_430_281">
<rect width="24" height="24" fill="white" transform="translate(0 0.5)"/>
</clipPath>
</defs>
</svg>
