<svg width="24" height="25" viewBox="0 0 24 25" fill="none" xmlns="http://www.w3.org/2000/svg">
<g clip-path="url(#clip0_430_295)">
<g filter="url(#filter0_d_430_295)">
<path fill-rule="evenodd" clip-rule="evenodd" d="M16.4128 17.9094C16.3602 17.9092 16.3082 17.92 16.2601 17.9409C16.2119 17.9618 16.1686 17.9925 16.1329 18.0311C16.0972 18.0696 16.0698 18.1151 16.0526 18.1647C16.0354 18.2144 16.0286 18.267 16.0328 18.3194C16.0982 19.3431 16.0714 20.3705 15.9528 21.3894C15.8473 22.0098 15.5701 22.5883 15.1528 23.0594C14.8391 23.2961 14.4713 23.4508 14.0828 23.5094C12.2592 23.9156 10.3867 24.057 8.52277 23.9294C5.99277 23.7894 3.42277 23.2494 2.25277 21.9294C1.93083 21.3094 1.74663 20.6272 1.71277 19.9294C1.32804 16.7409 1.24767 13.5231 1.47277 10.3194C1.5555 8.46462 1.8201 6.62245 2.26277 4.81939C2.38981 4.14948 2.69757 3.52704 3.15277 3.01939C4.04277 2.30939 6.15277 2.12939 8.41277 2.15939C10.9912 2.14136 13.5626 2.43006 16.0728 3.01939C16.3228 3.10939 16.5228 3.32939 16.6128 3.25939C16.7797 3.74154 16.861 4.24921 16.8528 4.75939C16.8528 5.69939 16.7928 6.75939 16.7928 7.36939C16.79 7.41569 16.7968 7.46206 16.8127 7.50565C16.8285 7.54924 16.8531 7.58912 16.885 7.62284C16.9168 7.65656 16.9553 7.68341 16.9979 7.70173C17.0405 7.72006 17.0864 7.72947 17.1328 7.72939C17.1787 7.73072 17.2245 7.72298 17.2675 7.70661C17.3105 7.69024 17.3498 7.66556 17.3832 7.63399C17.4167 7.60241 17.4435 7.56456 17.4623 7.52259C17.4811 7.48062 17.4915 7.43536 17.4928 7.38939C17.4928 6.61939 17.6628 5.38939 17.6128 4.28939C17.6011 3.79936 17.5029 3.31525 17.3228 2.85939C17.0749 2.5372 16.7204 2.31385 16.3228 2.22939C13.7556 1.50489 11.1091 1.09851 8.44277 1.01939C5.83277 0.919387 3.44277 1.19939 2.38277 2.01939C1.70071 2.67831 1.22771 3.52344 1.02277 4.44939C0.517631 6.33507 0.215911 8.26944 0.12277 10.2194C-0.112934 13.5213 -0.00905606 16.8387 0.43277 20.1194C0.514436 21.0578 0.81961 21.9631 1.32277 22.7594C2.70277 24.2394 5.60277 24.9094 8.47277 25.0194C11.8728 25.1294 15.2028 24.4194 15.8428 23.6694C16.3675 23.0738 16.714 22.3426 16.8428 21.5594C16.9431 20.4784 16.9431 19.3904 16.8428 18.3094C16.8429 18.2542 16.8317 18.1996 16.8097 18.1491C16.7878 18.0985 16.7556 18.0529 16.7152 18.0154C16.6748 17.9778 16.6271 17.949 16.5751 17.9308C16.523 17.9125 16.4678 17.9053 16.4128 17.9094Z" fill="#F2FF50"/>
<path fill-rule="evenodd" clip-rule="evenodd" d="M22.7632 10.5795C20.4832 11.0295 18.0632 11.3995 15.6232 11.7795C14.0532 12.0295 12.4632 12.2895 10.8932 12.4495C9.59323 12.5795 8.30323 12.6495 7.03323 12.6595L7.92323 11.8095C8.62323 11.1595 9.31323 10.5095 9.92323 9.8095L12.2332 7.0595C12.2958 6.99126 12.3305 6.90206 12.3305 6.8095C12.3305 6.71693 12.2958 6.62773 12.2332 6.5595C12.1998 6.52594 12.16 6.49931 12.1163 6.48114C12.0725 6.46297 12.0256 6.45361 11.9782 6.45361C11.9308 6.45361 11.8839 6.46297 11.8402 6.48114C11.7964 6.49931 11.7567 6.52594 11.7232 6.5595L9.18323 9.0995C8.38323 9.8495 7.40323 10.5295 6.53323 11.2795C5.91792 11.8066 5.35222 12.3891 4.84323 13.0195C4.77293 13.1107 4.72313 13.2159 4.69724 13.3281C4.67136 13.4403 4.66999 13.5567 4.69323 13.6695C4.72677 13.7967 4.78939 13.9144 4.87615 14.0133C4.96291 14.1122 5.07146 14.1897 5.19323 14.2395C5.34323 14.3095 5.64323 14.3495 5.78323 14.4295L7.06323 15.3495C7.90244 15.9717 8.70697 16.6394 9.47323 17.3495C9.96392 17.8351 10.4216 18.3529 10.8432 18.8995C10.9022 18.9863 10.9928 19.0465 11.0957 19.0671C11.1986 19.0876 11.3054 19.067 11.3932 19.0095C11.4807 18.9487 11.5411 18.8563 11.5617 18.7518C11.5822 18.6473 11.5612 18.5388 11.5032 18.4495C11.1001 17.8309 10.6522 17.2427 10.1632 16.6895C9.43195 15.8782 8.65396 15.1102 7.83323 14.3895L6.74323 13.5095C8.44254 13.6597 10.1509 13.6798 11.8532 13.5695C12.7332 13.5095 13.6032 13.4195 14.4732 13.2995C15.3432 13.1795 16.1932 13.0195 17.0532 12.8295C19.0532 12.3795 21.0532 11.8295 22.9332 11.2295C23.0222 11.2038 23.0979 11.1447 23.1444 11.0646C23.191 10.9845 23.2049 10.8896 23.1832 10.7995C23.1556 10.7154 23.0963 10.6453 23.0179 10.6042C22.9395 10.5631 22.8481 10.5543 22.7632 10.5795Z" fill="#F2FF50"/>
</g>
</g>
<defs>
<filter id="filter0_d_430_295" x="0" y="1" width="24.1934" height="25.0308" filterUnits="userSpaceOnUse" color-interpolation-filters="sRGB">
<feFlood flood-opacity="0" result="BackgroundImageFix"/>
<feColorMatrix in="SourceAlpha" type="matrix" values="0 0 0 0 0 0 0 0 0 0 0 0 0 0 0 0 0 0 127 0" result="hardAlpha"/>
<feOffset dx="1" dy="1"/>
<feComposite in2="hardAlpha" operator="out"/>
<feColorMatrix type="matrix" values="0 0 0 0 0.109804 0 0 0 0 0.105882 0 0 0 0 0.160784 0 0 0 1 0"/>
<feBlend mode="normal" in2="BackgroundImageFix" result="effect1_dropShadow_430_295"/>
<feBlend mode="normal" in="SourceGraphic" in2="effect1_dropShadow_430_295" result="shape"/>
</filter>
<clipPath id="clip0_430_295">
<rect width="24" height="24" fill="white" transform="translate(0 0.5)"/>
</clipPath>
</defs>
</svg>
