<svg width="16" height="17" viewBox="0 0 16 17" fill="none" xmlns="http://www.w3.org/2000/svg">
<g clip-path="url(#clip0_268_491)">
<path fill-rule="evenodd" clip-rule="evenodd" d="M5.88737 9.65333C6.27404 9.24667 6.65404 8.86 7.00737 8.55333C7.2772 8.62594 7.5547 8.66622 7.83404 8.67333C7.85944 8.67515 7.88495 8.67192 7.9091 8.66385C7.93326 8.65577 7.95558 8.643 7.97478 8.62628C7.99398 8.60955 8.00969 8.5892 8.02101 8.56638C8.03232 8.54357 8.03902 8.51874 8.04071 8.49333C8.04252 8.46827 8.03925 8.44311 8.0311 8.41934C8.02295 8.39557 8.01008 8.3737 7.99327 8.35502C7.97647 8.33635 7.95606 8.32126 7.93328 8.31066C7.9105 8.30006 7.88582 8.29416 7.86071 8.29333C6.36071 8.15333 5.66071 7.22667 5.64071 6.25333C5.8478 6.36274 6.07426 6.43067 6.30737 6.45333C6.41563 6.47 6.52579 6.47 6.63404 6.45333C6.74406 6.43866 6.85166 6.40952 6.95404 6.36667C7.2119 6.27278 7.44142 6.11442 7.62071 5.90667C7.62071 5.90667 7.62071 5.85333 7.66071 5.82667C7.74372 5.87983 7.83063 5.92663 7.92071 5.96667C8.15057 6.07437 8.3922 6.15491 8.64071 6.20667C9.11359 6.29477 9.59758 6.30602 10.074 6.24C10.131 6.74561 9.99304 7.25391 9.68835 7.66141C9.38366 8.0689 8.93511 8.34494 8.43404 8.43333C8.3768 8.44004 8.32448 8.46894 8.28833 8.51382C8.25218 8.5587 8.23508 8.61598 8.24071 8.67333C8.24901 8.73112 8.27929 8.78348 8.32524 8.8195C8.3712 8.85551 8.42927 8.87241 8.48737 8.86667C8.81149 8.83426 9.12621 8.73917 9.41404 8.58667C9.64435 8.83414 9.85186 9.10189 10.034 9.38667C10.1407 9.54667 10.2407 9.70667 10.3407 9.87333C10.4407 10.04 10.5274 10.2067 10.614 10.38C10.7176 10.5787 10.8089 10.7835 10.8874 10.9933C11.0274 11.2333 11.3674 11.28 11.5074 10.86C11.454 10.42 11.3874 10.5 11.254 10.1133C11.1807 9.90356 11.0893 9.70057 10.9807 9.50667C10.8741 9.30967 10.7443 9.12614 10.594 8.96C10.3622 8.70678 10.1003 8.48289 9.81404 8.29333C10.1234 7.9942 10.3609 7.62882 10.5087 7.22467C10.6565 6.82053 10.7108 6.38813 10.6674 5.96C10.6674 5.25275 10.3864 4.57448 9.88633 4.07438C9.38623 3.57428 8.70795 3.29333 8.00071 3.29333C7.24225 3.26251 6.50229 3.53237 5.94175 4.04422C5.3812 4.55608 5.04541 5.26854 5.00737 6.02667C4.98759 6.52336 5.11915 7.01434 5.38464 7.43459C5.65012 7.85484 6.037 8.18453 6.49404 8.38C6.10415 8.60813 5.73595 8.87145 5.39404 9.16667C5.09002 9.42992 4.82513 9.73522 4.60737 10.0733C4.3928 10.3847 4.28092 10.7553 4.28737 11.1333C4.28737 11.4467 4.67404 11.62 4.72737 11.3667C4.78071 10.9067 4.92071 10.8667 5.20071 10.48C5.4141 10.1919 5.64334 9.91595 5.88737 9.65333ZM8.00071 4.06C8.48175 4.03886 8.95338 4.19798 9.32328 4.50624C9.69319 4.8145 9.93476 5.24969 10.0007 5.72667C9.59345 5.70995 9.19009 5.64048 8.80071 5.52C8.60207 5.45611 8.40825 5.37814 8.22071 5.28667C8.03575 5.19747 7.8575 5.09498 7.68737 4.98C7.40003 4.79458 7.13977 4.57022 6.91404 4.31333C7.25554 4.15667 7.62513 4.0705 8.00071 4.06ZM6.47404 4.55333C6.66092 4.93026 6.92163 5.26579 7.24071 5.54C7.24071 5.54 7.24071 5.54 7.27404 5.57333C7.18681 5.6118 7.09492 5.6387 7.00071 5.65333C6.89193 5.66023 6.78282 5.66023 6.67404 5.65333L6.34737 5.7C6.12927 5.75892 5.90603 5.79687 5.68071 5.81333C5.78002 5.30959 6.06271 4.86061 6.47404 4.55333Z" fill="#1C1B29"/>
<path fill-rule="evenodd" clip-rule="evenodd" d="M10.4603 12.28C10.4798 12.2491 10.4902 12.2132 10.4902 12.1767C10.4902 12.1401 10.4798 12.1042 10.4603 12.0733C10.3003 11.8133 9.92695 12.1667 9.50695 12.2667C9.13197 12.3523 8.75077 12.4081 8.36695 12.4333C7.38598 12.5191 6.39775 12.408 5.46029 12.1067C4.9867 11.9633 4.53727 11.7498 4.12695 11.4733C3.7318 11.2185 3.37489 10.9087 3.06695 10.5533C2.51741 9.87227 2.15416 9.06018 2.01275 8.19657C1.87135 7.33295 1.95664 6.44741 2.26029 5.62666C2.52085 4.79303 2.95497 4.02401 3.53409 3.3702C4.11321 2.71639 4.8242 2.19261 5.62029 1.83333C6.10942 1.62395 6.61876 1.46534 7.14029 1.36C7.64072 1.24652 8.1556 1.21054 8.66695 1.25333C10.0645 1.44547 11.332 2.1749 12.2003 3.28666C13.0899 4.40204 13.5742 5.78661 13.5736 7.21333C13.5661 7.76599 13.4968 8.31609 13.367 8.85333C13.2447 9.38793 13.0182 9.89314 12.7003 10.34C12.3979 10.6862 12.068 11.0072 11.7136 11.3C11.414 11.4624 11.1285 11.6497 10.8603 11.86C10.8411 11.8974 10.8328 11.9395 10.8361 11.9814C10.8395 12.0234 10.8545 12.0635 10.8794 12.0974C10.9043 12.1313 10.9382 12.1577 10.9772 12.1734C11.0162 12.1892 11.0588 12.1938 11.1003 12.1867C11.8623 11.802 12.5417 11.2721 13.1003 10.6267C13.4677 10.1404 13.7268 9.58127 13.8603 8.98666C14.0165 8.41013 14.1038 7.81709 14.1203 7.22C14.1564 5.65663 13.6525 4.1286 12.6936 2.89333C11.7503 1.62375 10.3439 0.777987 8.78029 0.539995C8.18676 0.471435 7.58616 0.496179 7.00029 0.613329C6.42914 0.728961 5.87085 0.900913 5.33362 1.12666C4.43715 1.53017 3.63798 2.12182 2.99037 2.86146C2.34275 3.6011 1.86184 4.47142 1.58029 5.41333C1.26039 6.34777 1.1924 7.35001 1.38318 8.31909C1.57395 9.28817 2.01674 10.1899 2.66695 10.9333C3.41411 11.6872 4.32736 12.2557 5.33362 12.5933C6.34711 12.8545 7.39711 12.9447 8.44029 12.86C8.84465 12.8228 9.24573 12.756 9.64029 12.66C9.92278 12.5541 10.1969 12.4271 10.4603 12.28Z" fill="#1C1B29"/>
<path fill-rule="evenodd" clip-rule="evenodd" d="M14.6667 14.5533C14.5967 14.2256 14.4454 13.9207 14.2267 13.6666C13.9534 13.34 13.5934 13.08 13.2867 12.78C12.9801 12.48 12.7934 12.2733 12.5401 12.0333C12.4661 11.9617 12.3858 11.897 12.3001 11.84C12.2628 11.8003 12.2129 11.7749 12.1589 11.7681C12.1049 11.7613 12.0503 11.7737 12.0044 11.8029C11.9585 11.8322 11.9243 11.8766 11.9077 11.9284C11.8911 11.9802 11.8931 12.0362 11.9134 12.0866C12.0203 12.1702 12.1165 12.2664 12.2001 12.3733C12.4334 12.6266 12.6534 12.9066 12.8667 13.16C13.0801 13.4133 13.4601 13.7333 13.7067 14.06C13.8424 14.24 13.9317 14.4506 13.9667 14.6733C13.9774 14.8662 13.928 15.0576 13.8253 15.2212C13.7226 15.3847 13.5717 15.5124 13.3934 15.5866C13.2314 15.6988 13.0412 15.7632 12.8444 15.7726C12.6476 15.7821 12.4521 15.7361 12.2801 15.64C12.1356 15.5299 12.0076 15.3997 11.9001 15.2533C11.7213 14.9891 11.561 14.7129 11.4201 14.4266C11.1801 13.9733 10.9401 13.52 10.7534 13.0466C10.6534 12.82 10.6801 12.8933 10.5867 12.66C10.4934 12.4266 10.1467 12.66 10.2201 12.8333C10.3201 13.1466 10.3001 13.16 10.4134 13.4666C10.5667 13.88 10.7334 14.2866 10.9134 14.6933C11.0427 15.0145 11.1942 15.3264 11.3667 15.6266C11.5031 15.8501 11.6767 16.0485 11.8801 16.2133C12.1633 16.3959 12.4931 16.493 12.8301 16.493C13.167 16.493 13.4969 16.3959 13.7801 16.2133C14.0823 16.0634 14.3302 15.8229 14.4892 15.5253C14.6481 15.2277 14.7102 14.8879 14.6667 14.5533Z" fill="#1C1B29"/>
<path fill-rule="evenodd" clip-rule="evenodd" d="M8.17349 9.49333C8.17533 9.46772 8.17186 9.44201 8.1633 9.4178C8.15475 9.39359 8.14129 9.3714 8.12377 9.35263C8.10625 9.33386 8.08504 9.31891 8.06148 9.3087C8.03792 9.2985 8.0125 9.29327 7.98683 9.29333C7.96144 9.29244 7.93612 9.29656 7.91232 9.30547C7.88852 9.31437 7.86671 9.32787 7.84814 9.34521C7.82956 9.36255 7.81459 9.38337 7.80407 9.4065C7.79355 9.42963 7.78769 9.45461 7.78683 9.48C7.72683 9.72 7.65349 9.94667 7.61349 10.2C7.58196 10.4032 7.58196 10.6101 7.61349 10.8133C7.64683 11.06 7.70016 11.2933 7.75349 11.5333C7.75349 11.5917 7.77667 11.6476 7.81793 11.6889C7.85919 11.7302 7.91515 11.7533 7.97349 11.7533C8.03184 11.7533 8.0878 11.7302 8.12906 11.6889C8.17032 11.6476 8.19349 11.5917 8.19349 11.5333C8.19349 11.2933 8.28016 11.0667 8.30683 10.8267C8.31324 10.7245 8.31324 10.6221 8.30683 10.52C8.31347 10.4201 8.31347 10.3199 8.30683 10.22C8.28683 9.96 8.22016 9.73333 8.17349 9.49333Z" fill="#1C1B29"/>
</g>
<defs>
<clipPath id="clip0_268_491">
<rect width="16" height="16" fill="white" transform="translate(0 0.5)"/>
</clipPath>
</defs>
</svg>
