<svg width="89" height="5" viewBox="0 0 89 5" fill="none" xmlns="http://www.w3.org/2000/svg">
<path fill-rule="evenodd" clip-rule="evenodd" d="M81.6491 0.0091014C81.5502 0.0819027 75.0379 0.203017 73.6784 0.157351C73.5827 0.154152 71.974 0.166616 70.1037 0.185147C67.2514 0.213385 66.6856 0.245264 66.5943 0.382483C66.5082 0.511981 66.4851 0.514518 66.4837 0.394727C66.4824 0.281333 66.4432 0.273833 66.3278 0.364835C66.2336 0.43907 66.0417 0.45363 65.8345 0.402228C65.6479 0.3559 64.9911 0.31972 64.3747 0.321706C63.7584 0.323801 63.2813 0.28365 63.3145 0.232579C63.3477 0.181507 63.0423 0.168271 62.636 0.203238C60.8076 0.360422 54.1377 0.437966 53.9108 0.304718C53.8466 0.267104 53.8292 0.290048 53.872 0.3559C53.9149 0.421752 53.8968 0.506797 53.8319 0.544962C53.767 0.583017 53.7139 0.561618 53.7139 0.497421C53.7139 0.433223 53.6586 0.380608 53.591 0.380608C53.5235 0.380608 53.5004 0.430245 53.5398 0.490913C53.5793 0.551581 53.5593 0.601218 53.4955 0.601218C53.4317 0.601218 53.3472 0.551581 53.3077 0.490913C53.2682 0.430245 53.1737 0.38138 53.0977 0.382263C53.0146 0.383366 53.029 0.426716 53.1336 0.490913C53.3333 0.613572 53.2562 0.630118 52.6113 0.603093C52.3559 0.592393 52.0974 0.538013 52.0367 0.482088C51.8705 0.329096 47.9103 0.350495 47.9103 0.50437C47.9103 0.595482 47.8691 0.595702 47.7545 0.505363C47.6689 0.437856 47.5753 0.404765 47.5468 0.432011C47.5181 0.459146 46.9359 0.489148 46.2529 0.498634C45.4705 0.509555 45.0373 0.556213 45.0819 0.624713C45.1207 0.684608 45.0418 0.677218 44.9065 0.608388C44.771 0.539448 44.6604 0.522129 44.6605 0.569781C44.6608 0.66354 43.3202 0.629677 43.0353 0.528748C42.9395 0.494774 41.6598 0.484295 40.1915 0.505584C38.7232 0.526763 36.2519 0.544521 34.6999 0.545072C33.1477 0.545624 31.9986 0.578385 32.1463 0.617764C32.2977 0.658246 32.0453 0.694316 31.5663 0.700493C31.0719 0.70689 30.7459 0.754652 30.785 0.814768C30.8262 0.877973 30.7171 0.881172 30.5033 0.822821C30.3114 0.770536 30.127 0.769985 30.0934 0.821497C30.0599 0.87312 29.8502 0.899262 29.6275 0.879518C29.4049 0.859883 29.2226 0.878966 29.2226 0.921985C29.2226 0.965114 29.1442 1.0966 29.0483 1.2144C28.9029 1.39288 28.8857 1.39641 28.9446 1.23547C28.9918 1.10664 28.9565 1.04244 28.8384 1.04244C28.7412 1.04244 28.6398 0.980446 28.6133 0.904557C28.5101 0.610153 13.791 0.629567 11.4938 0.927169C11.126 0.974821 10.3719 1.02269 9.81786 1.0335C9.26384 1.04442 8.66317 1.0913 8.48302 1.13774C8.30288 1.18418 7.98577 1.21363 7.77823 1.20315C7.57069 1.19278 7.40099 1.22676 7.40099 1.27882C7.40099 1.33077 7.34005 1.37335 7.26554 1.37335C7.19113 1.37335 7.16467 1.34059 7.2068 1.30055C7.24894 1.26051 7.18162 1.15991 7.0573 1.07718C6.87878 0.958275 6.43237 0.939634 4.93967 0.988609C3.89943 1.02269 2.74579 1.09031 2.3761 1.13895C1.81756 1.21242 1.68639 1.19775 1.60038 1.05214C1.50799 0.895732 1.48837 0.897938 1.41745 1.07288C1.36313 1.20701 1.29546 1.23503 1.20272 1.1619C1.11857 1.0956 1.00273 1.09384 0.896985 1.15738C0.80343 1.21363 0.779054 1.26117 0.842894 1.26305C0.906734 1.26492 0.885028 1.31092 0.794491 1.3653C0.699544 1.42244 0.517543 1.42354 0.363399 1.36784C0.0459405 1.25312 -0.0616599 1.3717 0.0332875 1.73129C0.0985203 1.97816 0.552713 2.14141 0.552713 1.91804C0.552713 1.86112 0.634197 1.81457 0.733671 1.81457C0.833145 1.81457 0.882359 1.76494 0.842894 1.70427C0.80343 1.6436 0.852644 1.59396 0.952118 1.59396C1.16499 1.59396 1.17428 1.64559 1.01294 1.93216C0.911377 2.1124 0.931574 2.14549 1.14317 2.14549C1.36383 2.14549 1.37474 2.16766 1.23429 2.33212C1.14364 2.43846 1.134 2.48512 1.21212 2.44066C1.28745 2.39765 1.38194 2.41298 1.4221 2.47464C1.46214 2.5363 1.42987 2.58671 1.35013 2.58671C1.26842 2.58671 1.31206 2.68113 1.4503 2.80357C1.58506 2.92292 1.72876 3.12058 1.76962 3.24302C1.82173 3.3991 1.91993 3.45216 2.09787 3.4205C2.23762 3.39557 2.35184 3.36789 2.35184 3.35884C2.35184 3.3498 2.48137 3.3199 2.63981 3.29233C2.9185 3.24379 2.92036 3.24743 2.69785 3.40727C2.47325 3.56853 2.47453 3.5725 2.75124 3.57592C3.02715 3.57934 3.02866 3.58397 2.80928 3.75307C2.68543 3.8486 2.64817 3.89592 2.72675 3.8583C2.80522 3.82058 3.09551 3.86272 3.37177 3.95184C3.98626 4.15006 6.49795 4.11344 6.57096 3.90518C6.60021 3.82168 6.53358 3.80172 6.37979 3.84815C6.25002 3.88731 6.11015 3.86768 6.06906 3.80458C6.02043 3.7298 6.24224 3.68976 6.70456 3.68976C7.14842 3.68976 7.38776 3.64839 7.34296 3.57945C7.21806 3.38741 9.01313 3.44124 9.21776 3.6356C9.39361 3.80282 9.66395 3.75715 9.54857 3.57978C9.51468 3.52772 9.59871 3.45128 9.73521 3.41013C9.97258 3.33855 10.233 3.52926 10.125 3.69549C10.0994 3.73476 10.3264 3.74436 10.6292 3.71667C10.9756 3.68501 11.3395 3.72969 11.6094 3.8369C11.8455 3.93066 12.067 3.96409 12.1015 3.91114C12.1358 3.85819 12.3205 3.81914 12.5118 3.82433C12.7032 3.82951 12.8963 3.79885 12.9411 3.75627C12.9859 3.71369 12.7371 3.6849 12.3882 3.69218C12.0393 3.69957 11.505 3.67067 11.2009 3.62799C10.7374 3.56302 10.6704 3.52474 10.7865 3.39182C10.8634 3.3038 11.0292 3.25913 11.1592 3.29145C11.288 3.32343 11.4714 3.28968 11.5668 3.21633C11.6834 3.12676 11.7141 3.12444 11.6607 3.20927C11.6028 3.30115 11.9962 3.33799 13.1104 3.34505C14.2994 3.35267 14.6088 3.32542 14.5005 3.22251C14.4238 3.1497 14.2185 3.08021 14.0441 3.06797C13.8697 3.05583 13.6878 3.04183 13.6399 3.03686C13.592 3.03201 13.5528 2.98568 13.5528 2.93395C13.5528 2.88221 13.9837 2.85795 14.5104 2.8799C15.0372 2.90185 15.5464 2.88773 15.6421 2.84846C15.9382 2.72713 16.3987 2.76331 16.3657 2.90527C16.3488 2.97851 16.401 3.03013 16.4818 3.0201C16.8264 2.97719 17.7643 3.03344 17.7013 3.09334C17.6085 3.18147 15.5748 3.16779 15.2736 3.07701C15.1021 3.02517 15.0492 3.04701 15.0872 3.15423C15.1254 3.26199 15.327 3.29498 15.81 3.27258C16.205 3.25427 16.5482 3.29531 16.6463 3.37263C16.7723 3.47213 16.8454 3.4729 16.947 3.37627C17.021 3.30601 17.2147 3.2535 17.3774 3.25957L17.6734 3.27049L17.3832 3.35884C17.009 3.47279 17.0704 3.48128 18.66 3.53511C20.2154 3.58795 20.2889 3.60526 20.2282 3.90485C20.1842 4.1216 20.2346 4.13098 21.4455 4.13098C22.1403 4.13098 22.7336 4.16892 22.7637 4.21536C22.7938 4.26169 23.2017 4.29114 23.6701 4.28077C24.1385 4.2704 25.0963 4.25198 25.7985 4.23974C26.5007 4.2276 27.1798 4.16429 27.3074 4.0991C27.6081 3.94566 28.0619 3.89834 28.0619 4.02056C28.0619 4.15877 28.5311 4.20819 28.9199 4.11101C29.1046 4.06479 29.3091 4.0584 29.3743 4.09678C29.5648 4.20863 30.1512 4.22474 30.1512 4.11818C30.1512 4.06457 30.2557 4.02067 30.3834 4.02067C30.511 4.02067 30.6155 3.97103 30.6155 3.91037C30.6155 3.8497 30.7492 3.80006 30.9125 3.80006C31.0758 3.80006 31.1826 3.84143 31.1498 3.89195C31.1169 3.94258 31.153 3.98471 31.23 3.98559C31.3069 3.98659 31.5357 4.02277 31.7383 4.06612C32.0705 4.13704 32.1004 4.12248 32.0439 3.91721C31.9881 3.71413 31.8863 3.68832 31.0952 3.67597C30.3035 3.66361 30.2645 3.65369 30.7288 3.58254C31.0146 3.53864 31.3492 3.52794 31.4724 3.55849C31.6416 3.60052 31.6723 3.57625 31.5979 3.459C31.5156 3.32917 31.5332 3.32961 31.7047 3.46209C31.8831 3.59964 31.9255 3.59964 32.0282 3.46209C32.1255 3.3316 32.1356 3.33579 32.0854 3.4858C31.9915 3.76631 32.3465 3.80337 34.3774 3.72505C35.7675 3.67145 36.2035 3.68557 36.1407 3.78208C36.0947 3.85268 36.1069 3.91037 36.1677 3.91037C36.2285 3.91037 36.3083 3.83591 36.3451 3.74491C36.3818 3.65391 36.4788 3.58022 36.5606 3.58111C36.666 3.58232 36.6586 3.61685 36.5352 3.6998C36.3805 3.80381 36.3805 3.81153 36.5352 3.76907C36.631 3.7427 36.7027 3.64354 36.6947 3.54868C36.6849 3.4333 36.7425 3.39844 36.8688 3.44334C37.0386 3.50367 37.04 3.48922 36.8834 3.29862C36.7138 3.09235 36.7173 3.09179 37.0198 3.27512C37.2242 3.3991 37.345 3.42161 37.3732 3.34108C37.4165 3.21765 38.0757 3.21203 39.5241 3.32288C40.297 3.38212 40.533 3.57945 39.8309 3.57945C39.5144 3.57945 39.4279 3.61817 39.4763 3.73807C39.5136 3.83051 39.4583 3.91599 39.3436 3.94313C39.2354 3.96872 39.408 3.96453 39.7272 3.93375C40.0464 3.90298 40.3706 3.87683 40.4475 3.87573C40.5245 3.87452 40.5606 3.83227 40.5277 3.78164C40.4949 3.73112 40.6669 3.69472 40.9101 3.70079C41.2841 3.71005 41.3076 3.72351 41.0632 3.78815C40.8665 3.84021 40.8201 3.89161 40.9181 3.94919C40.9973 3.99563 41.1143 4.00302 41.1781 3.96552C41.2419 3.92802 41.295 3.96232 41.2959 4.04174C41.2974 4.15679 41.318 4.15568 41.3975 4.03645C41.4717 3.92537 41.519 3.92018 41.5816 4.01637C41.628 4.08774 41.7515 4.11476 41.8561 4.0766C41.9608 4.03854 42.3037 3.98328 42.6181 3.95405C42.9325 3.92471 43.2328 3.87551 43.2853 3.84474C43.3379 3.81385 43.3497 3.86558 43.3118 3.95978C43.2679 4.06832 43.3072 4.13098 43.4195 4.13098C43.5167 4.13098 43.6226 4.06899 43.6549 3.9931C43.7016 3.88279 43.7152 3.88279 43.7225 3.9931C43.7275 4.06899 43.8132 4.13098 43.9127 4.13098C44.0265 4.13098 44.0613 4.07991 44.0064 3.9931C43.9388 3.8861 43.9601 3.88665 44.1017 3.99563C44.2844 4.13627 45.4224 4.16385 45.6469 4.03314C45.7107 3.99596 46.5528 3.96 47.5182 3.95317C48.4836 3.94644 49.3404 3.90143 49.4224 3.85345C49.5151 3.79885 49.5425 3.80999 49.4952 3.8829C49.3902 4.04428 51.4476 4.0595 51.7617 3.89967C51.8932 3.83282 51.9703 3.8251 51.9328 3.88257C51.8928 3.94423 52.1612 3.98725 52.5863 3.98736L53.3077 3.98747L52.8434 3.85014C52.3233 3.69638 52.3242 3.69417 52.9341 3.63317C53.2053 3.60615 53.3458 3.63119 53.3018 3.6988C53.2588 3.76499 53.3949 3.79764 53.6464 3.78153C53.8751 3.76697 54.0622 3.72108 54.0622 3.67972C54.0622 3.63835 55.2896 3.61122 56.7898 3.61949C58.29 3.62788 59.5175 3.67476 59.5175 3.72384C59.5176 3.77293 59.4689 3.78451 59.4095 3.74965C59.3501 3.71469 59.2636 3.74447 59.2173 3.81561C59.155 3.91136 59.2779 3.92625 59.6897 3.87253C59.9959 3.83271 60.3989 3.80006 60.5853 3.80006C60.8255 3.80006 60.8987 3.75991 60.837 3.66218C60.7735 3.56169 60.801 3.56368 60.9388 3.66979C61.0753 3.77502 61.1893 3.78407 61.3495 3.70255C61.484 3.63416 61.6133 3.62964 61.6777 3.69086C61.8145 3.82091 62.6863 3.5446 62.5655 3.40947C62.5171 3.35531 62.5718 3.3798 62.6871 3.46385C62.8659 3.59423 62.8916 3.59423 62.8612 3.46363C62.8333 3.34351 62.9946 3.31384 63.6077 3.3263C64.0378 3.33513 64.4195 3.2963 64.4561 3.24026C64.4926 3.18412 64.4018 3.13746 64.2544 3.13658C64.0387 3.13514 64.0204 3.11397 64.1605 3.02793C64.2956 2.94498 64.2566 2.91729 63.9864 2.90428C63.6903 2.89005 63.6792 2.88012 63.9127 2.83809C64.0637 2.81085 64.2439 2.8425 64.3131 2.90825C64.4713 3.05859 64.663 3.06565 64.5667 2.91762C64.5255 2.85431 64.6309 2.80732 64.8142 2.80732C65.1103 2.80732 65.118 2.81802 64.9196 2.9559C64.7714 3.05892 64.7468 3.12864 64.8394 3.18302C64.9129 3.22626 64.973 3.2032 64.973 3.13183C64.973 3.0565 65.0701 3.02638 65.205 3.05981C65.3326 3.09157 65.4663 3.07249 65.502 3.01756C65.5378 2.96263 65.4726 2.91266 65.3571 2.90659C65.2084 2.89887 65.2317 2.86986 65.4373 2.80732C65.6464 2.74367 65.5033 2.71598 64.9246 2.70804C64.0749 2.69635 63.964 2.6337 64.6289 2.54115C64.8501 2.51038 65.2426 2.44199 65.5011 2.38937C65.7597 2.33665 66.0861 2.30157 66.2266 2.31139C66.3808 2.3222 66.4819 2.26594 66.4819 2.16931C66.4819 2.05824 66.5705 2.02559 66.7721 2.06221C66.9605 2.0964 67.0623 2.06496 67.0623 1.97242C67.0623 1.89399 66.9447 1.80696 66.8011 1.77883C66.6575 1.75082 66.775 1.72489 67.0623 1.72147C67.3496 1.71795 68.4203 1.6811 69.4418 1.63974C70.4632 1.59826 71.2728 1.59154 71.2409 1.62474C71.1607 1.70813 69.9916 1.8234 68.7645 1.86884C68.2005 1.88969 67.7087 1.93569 67.6716 1.97099C67.6344 2.00628 67.7172 2.03518 67.8554 2.03518C67.9938 2.03518 68.1069 2.09254 68.1069 2.16258C68.1069 2.23483 68.2075 2.20351 68.3391 2.09034C68.4668 1.98058 68.5712 1.94109 68.5712 2.00275C68.5712 2.06441 68.7148 2.09122 68.8904 2.06232C69.2001 2.01125 69.2028 2.01489 68.9775 2.18553C68.7594 2.35065 68.7856 2.35882 69.4128 2.31999C69.7799 2.29738 70.0802 2.3233 70.0802 2.37757C70.0802 2.43195 69.9626 2.48037 69.819 2.48512C69.6754 2.48986 69.6232 2.51887 69.7029 2.54942C69.9672 2.65079 69.8535 2.79287 69.4797 2.82794C69.0204 2.87096 68.8866 3.13823 69.3243 3.13823C69.4938 3.13823 69.7038 3.20596 69.7908 3.28869C69.8978 3.39039 70.1427 3.42458 70.5468 3.39436C70.8756 3.36965 71.1162 3.39304 71.0816 3.44631C71.0465 3.50025 71.2451 3.5104 71.5312 3.46915C71.813 3.42844 72.1097 3.43407 72.1905 3.4815C72.2714 3.52893 72.3649 3.52584 72.3986 3.47444C72.4463 3.40153 73.3841 3.29817 74.4107 3.25273C74.4624 3.25041 74.4677 3.18655 74.4227 3.11066C74.3583 3.00212 74.3732 3.00134 74.493 3.10679C74.6136 3.21291 74.6769 3.20144 74.7965 3.05164C74.8996 2.92281 74.9491 2.9088 74.9515 3.00774C74.9541 3.10536 75.0362 3.12864 75.2019 3.07867C75.3679 3.02859 75.4226 3.04425 75.3691 3.12643C75.3255 3.19361 75.3467 3.24854 75.4163 3.24854C75.4859 3.24854 75.5728 3.17441 75.6094 3.08374C75.6461 2.99307 75.7283 2.94961 75.7923 2.98722C75.8698 3.03267 75.8693 3.07856 75.7911 3.12444C75.7265 3.16239 76.3346 3.17629 77.1426 3.15544C77.9505 3.13448 78.5854 3.14066 78.5535 3.16912C78.5216 3.19758 77.9209 3.25516 77.2186 3.29718C75.9862 3.37098 75.2731 3.56357 76.1217 3.59357C76.89 3.62071 78.2697 3.59037 79.1338 3.52728C79.6126 3.49231 80.161 3.4526 80.3525 3.43892C80.5439 3.42514 80.7889 3.34351 80.8969 3.25725C81.1118 3.08562 81.6711 3.02385 81.7608 3.16184C81.7918 3.20949 81.9512 3.24854 82.1147 3.24854C82.3588 3.24854 82.3877 3.27677 82.2753 3.40528C82.163 3.53401 82.1816 3.55143 82.379 3.50235C82.5113 3.46948 82.6496 3.39646 82.6862 3.3402C82.725 3.28042 82.821 3.29167 82.9165 3.367C83.1388 3.54228 83.1248 3.41686 82.8979 3.20122C82.7321 3.0437 82.7591 3.02793 83.195 3.02793C83.4711 3.02793 83.6452 2.98314 83.6056 2.92214C83.5639 2.85806 83.7095 2.84052 83.976 2.87769C84.2175 2.91145 84.4935 2.93516 84.5892 2.93053C85.5668 2.88299 86.6265 2.94796 86.6992 3.05981C86.7619 3.15599 86.8274 3.1379 86.9383 2.99362C87.045 2.85508 87.2834 2.78294 87.7265 2.75525C88.0757 2.73341 88.2701 2.73981 88.1585 2.76948C87.9254 2.83147 87.8837 3.0234 88.1004 3.03708C88.1803 3.04216 88.3631 3.0587 88.5067 3.07381C88.6503 3.08893 88.7679 3.05705 88.7679 3.003C88.7679 2.94884 88.8201 2.93527 88.8839 2.97277C88.9478 3.01028 89 2.96351 89 2.86898C89 2.77445 88.9526 2.69701 88.8948 2.69701C88.8369 2.69701 88.817 2.59774 88.8503 2.4764C88.9058 2.27488 88.7949 2.19954 88.5067 2.24278C88.4588 2.24995 88.4279 2.21862 88.4381 2.17306C88.4787 1.9904 88.2751 1.72159 88.1348 1.77277C88.0526 1.80266 87.9543 1.75049 87.9165 1.65673C87.8786 1.56297 87.8849 1.49811 87.9305 1.51256C87.9761 1.52701 88.0395 1.48917 88.0714 1.42851C88.1033 1.36784 87.9653 1.30309 87.7648 1.28456C87.4879 1.25897 87.4124 1.2058 87.4512 1.06395C87.4873 0.931802 87.3732 0.822049 87.0615 0.689573L86.6205 0.502274L87.0268 0.487825L87.433 0.473485L87.1138 0.362738C86.9382 0.30174 86.7946 0.214599 86.7946 0.168933C86.7946 0.123267 86.4682 0.0709821 86.0692 0.0526715C85.328 0.0186976 81.6848 -0.0172615 81.6491 0.0091014ZM43.8261 0.455946C43.9098 0.487824 44.0099 0.483853 44.0485 0.447232C44.087 0.410611 44.0185 0.384579 43.8962 0.389322C43.761 0.394617 43.7334 0.420759 43.8261 0.455946ZM67.2096 0.452968C67.131 0.483192 66.9743 0.485067 66.8614 0.45705C66.7484 0.429032 66.8127 0.404324 67.0042 0.402118C67.1958 0.399911 67.2882 0.422744 67.2096 0.452968ZM74.0016 0.461572C73.7004 0.484185 73.178 0.484405 72.8408 0.462013C72.5035 0.439731 72.7498 0.4212 73.3882 0.420869C74.0266 0.420649 74.3027 0.438849 74.0016 0.461572ZM28.7583 0.865178C28.7583 0.889003 28.8367 0.937097 28.9325 0.972063C29.0282 1.00692 29.1066 0.987396 29.1066 0.928714C29.1066 0.869921 29.0282 0.821828 28.9325 0.821828C28.8367 0.821828 28.7583 0.841352 28.7583 0.865178ZM28.5154 0.979123C28.4154 1.07432 27.4815 1.11656 27.4815 1.02589C27.4815 0.974379 27.7253 0.932133 28.0233 0.932133C28.3211 0.932133 28.5427 0.953312 28.5154 0.979123ZM30.8476 1.17083C30.8476 1.22157 30.7302 1.2668 30.5865 1.27154C30.4428 1.27617 30.2336 1.29658 30.1216 1.31699C30.0096 1.33728 29.9474 1.30871 29.9834 1.25334C30.0194 1.19797 29.9935 1.15274 29.9259 1.15274C29.8584 1.15274 29.803 1.20238 29.803 1.26305C29.803 1.43612 29.6032 1.3921 29.5265 1.20216C29.4682 1.05766 29.566 1.03472 30.1525 1.05479C30.5348 1.06792 30.8476 1.12009 30.8476 1.17083ZM27.0633 1.39177C27.0305 1.44229 26.8761 1.48366 26.7202 1.48366C26.5643 1.48366 26.4369 1.44229 26.4369 1.39177C26.4369 1.34114 26.5913 1.29978 26.78 1.29978C26.9687 1.29978 27.0962 1.34114 27.0633 1.39177ZM28.461 1.58238C28.4309 1.61106 28.3485 1.57951 28.2779 1.51245C28.2075 1.44549 28.0647 1.41626 27.9607 1.44748C27.8068 1.49392 27.8021 1.48388 27.9355 1.39387C28.0952 1.28599 28.5871 1.46248 28.461 1.58238ZM67.0623 1.30651C67.0623 1.3878 66.3694 1.44362 66.2477 1.37214C66.1798 1.33221 66.3352 1.29173 66.5932 1.28213C66.8512 1.27253 67.0623 1.28345 67.0623 1.30651ZM72.2199 1.38505C72.142 1.50484 71.8555 1.5152 71.7812 1.40093C71.7516 1.35548 71.8527 1.31103 72.0057 1.30232C72.1588 1.2936 72.2551 1.33089 72.2199 1.38505ZM80.8169 1.37655C80.4188 1.48421 77.1601 1.5719 77.1605 1.47494C77.1605 1.43987 77.4597 1.39961 77.8253 1.3856C78.191 1.37148 78.5003 1.35063 78.5126 1.33905C78.5249 1.32758 79.1269 1.31015 79.8501 1.30033C80.7423 1.2882 81.0531 1.31268 80.8169 1.37655ZM61.3747 1.55061C61.3747 1.57444 61.2964 1.59396 61.2006 1.59396C61.1049 1.59396 61.0265 1.54587 61.0265 1.48708C61.0265 1.42839 61.1049 1.40887 61.2006 1.44373C61.2964 1.47869 61.3747 1.52679 61.3747 1.55061ZM71.0934 1.43998C71.0548 1.4766 70.9547 1.48057 70.871 1.44869C70.7783 1.4135 70.8059 1.38736 70.9411 1.38207C71.0634 1.37732 71.1319 1.40336 71.0934 1.43998ZM71.5577 1.43998C71.5191 1.4766 71.419 1.48057 71.3353 1.44869C71.2426 1.4135 71.2701 1.38736 71.4054 1.38207C71.5277 1.37732 71.5962 1.40336 71.5577 1.43998ZM50.0397 1.65386C50.0018 1.74751 49.946 1.80045 49.9156 1.77155C49.8852 1.74265 49.8947 1.66599 49.9368 1.60135C50.0513 1.42531 50.1181 1.4595 50.0397 1.65386ZM59.3876 1.6543C59.4166 1.68176 59.2257 1.70427 58.9634 1.70427C58.7011 1.70427 58.4543 1.7539 58.4149 1.81457C58.3754 1.87524 58.2809 1.92411 58.2049 1.92322C58.1218 1.92212 58.1362 1.87877 58.2408 1.81457C58.3707 1.73482 58.297 1.70305 57.9506 1.68938L57.4863 1.67118L58.0086 1.60312C58.5366 1.53451 59.291 1.56242 59.3876 1.6543ZM59.8948 1.55668C59.8151 1.58734 59.6845 1.58734 59.6046 1.55668C59.5249 1.52613 59.5901 1.50109 59.7497 1.50109C59.9093 1.50109 59.9747 1.52613 59.8948 1.55668ZM24.8699 1.70427C24.8305 1.76494 24.6837 1.80961 24.5439 1.80354C24.3071 1.79339 24.3096 1.78644 24.5797 1.70427C24.7393 1.65573 24.886 1.61106 24.9058 1.60499C24.9255 1.59893 24.9094 1.6436 24.8699 1.70427ZM25.6244 1.70427C25.6244 1.76494 25.5722 1.81457 25.5083 1.81457C25.4445 1.81457 25.3922 1.76494 25.3922 1.70427C25.3922 1.6436 25.4445 1.59396 25.5083 1.59396C25.5722 1.59396 25.6244 1.6436 25.6244 1.70427ZM66.0265 1.69677C65.8154 1.82373 64.6092 1.81744 64.6922 1.68982C64.7264 1.63709 65.0779 1.59473 65.4731 1.59562C65.9451 1.59672 66.135 1.63147 66.0265 1.69677ZM80.6055 1.66621C80.4864 1.77927 78.2603 1.80509 78.0782 1.69544C77.9776 1.635 78.4455 1.59672 79.2983 1.59562C80.059 1.59473 80.6473 1.6265 80.6055 1.66621ZM24.8137 1.95676L25.3342 2.00375L24.7629 1.99194C24.3611 1.98356 24.1777 1.93094 24.1447 1.81457C24.1123 1.70019 24.128 1.68938 24.1955 1.77939C24.2494 1.85108 24.5275 1.93083 24.8137 1.95676ZM23.5961 2.01389C23.5605 2.04787 23.4668 2.014 23.388 1.93856C23.2743 1.82957 23.2876 1.817 23.453 1.87678C23.5675 1.91826 23.6319 1.97992 23.5961 2.01389ZM24.0451 1.9893C24.0884 2.09662 24.0625 2.14714 23.9777 2.12023C23.8041 2.0653 23.7086 1.81457 23.8612 1.81457C23.9236 1.81457 24.0062 1.89322 24.0451 1.9893ZM57.4006 1.89035C57.2897 1.91793 57.0807 1.91892 56.9364 1.89256C56.792 1.8662 56.8827 1.84358 57.1381 1.84237C57.3934 1.84116 57.5116 1.86278 57.4006 1.89035ZM67.1784 2.03518C67.1784 2.09585 67.2567 2.14549 67.3525 2.14549C67.4482 2.14549 67.5266 2.09585 67.5266 2.03518C67.5266 1.97451 67.4482 1.92488 67.3525 1.92488C67.2567 1.92488 67.1784 1.97451 67.1784 2.03518ZM21.2443 2.11284C21.1015 2.13898 20.8403 2.13964 20.6639 2.11438C20.4875 2.08901 20.6042 2.06761 20.9234 2.06673C21.2426 2.06596 21.387 2.0867 21.2443 2.11284ZM25.0126 2.21211C24.974 2.24873 24.8739 2.2527 24.7902 2.22083C24.6975 2.18564 24.7251 2.1595 24.8603 2.1542C24.9826 2.14946 25.0511 2.17549 25.0126 2.21211ZM51.9729 2.30444C51.9729 2.33124 51.9206 2.38375 51.8568 2.42125C51.7929 2.45875 51.7407 2.4368 51.7407 2.37261C51.7407 2.30841 51.7929 2.25579 51.8568 2.25579C51.9206 2.25579 51.9729 2.27763 51.9729 2.30444ZM66.6924 2.33113C66.776 2.36301 66.8762 2.35904 66.9148 2.32242C66.9533 2.2858 66.8848 2.25976 66.7625 2.26451C66.6272 2.2698 66.5997 2.29594 66.6924 2.33113ZM67.1567 2.33113C67.2403 2.36301 67.3405 2.35904 67.3791 2.32242C67.4176 2.2858 67.3491 2.25976 67.2268 2.26451C67.0915 2.2698 67.064 2.29594 67.1567 2.33113ZM50.6259 2.48324C50.6617 2.51733 50.3657 2.547 49.9681 2.5492C49.5148 2.55174 49.3533 2.52538 49.5353 2.47861C49.8751 2.39125 50.532 2.394 50.6259 2.48324ZM87.1109 2.51953C87.1497 2.55648 86.7158 2.58318 86.1466 2.57899C85.5001 2.57413 85.1987 2.53784 85.3437 2.48225C85.6006 2.38386 86.9991 2.41342 87.1109 2.51953ZM48.4592 2.54303C48.4207 2.57965 48.3205 2.58362 48.2368 2.55174C48.1442 2.51655 48.1717 2.49041 48.3069 2.48512C48.4293 2.48037 48.4978 2.5064 48.4592 2.54303ZM85.0535 2.52505C85.0535 2.64142 84.8308 2.69039 84.7645 2.58847C84.7245 2.52681 84.7731 2.4764 84.8726 2.4764C84.972 2.4764 85.0535 2.49824 85.0535 2.52505ZM17.8061 2.75216C17.7103 2.84317 17.566 2.91762 17.4854 2.91762C17.4032 2.91762 17.4377 2.84659 17.5642 2.75569C17.8598 2.54314 18.0286 2.54071 17.8061 2.75216ZM66.0176 2.69359C66.0176 2.75228 66.096 2.7718 66.1917 2.73694C66.2875 2.70198 66.3659 2.65388 66.3659 2.63006C66.3659 2.60623 66.2875 2.58671 66.1917 2.58671C66.096 2.58671 66.0176 2.6348 66.0176 2.69359ZM17.0931 2.80732C17.2987 2.89137 17.2889 2.90295 17.006 2.9099C16.8305 2.91409 16.6868 2.86799 16.6868 2.80732C16.6868 2.67782 16.7761 2.67782 17.0931 2.80732ZM48.5219 2.76937C48.4433 2.7996 48.2866 2.80147 48.1737 2.77345C48.0607 2.74544 48.1251 2.72073 48.3166 2.71852C48.5081 2.71632 48.6005 2.73915 48.5219 2.76937ZM50.2608 2.77676C50.0532 2.80125 49.7139 2.80125 49.5063 2.77676C49.2988 2.75239 49.4686 2.73231 49.8835 2.73231C50.2985 2.73231 50.4683 2.75239 50.2608 2.77676ZM57.3968 2.76364C57.3583 2.80026 57.2581 2.80423 57.1744 2.77235C57.0818 2.73716 57.1093 2.71102 57.2445 2.70573C57.3669 2.70098 57.4353 2.72701 57.3968 2.76364ZM58.3568 2.91542C58.1699 3.03267 58.5329 3.06995 59.4595 3.02859C59.7149 3.01723 59.8842 3.04591 59.8358 3.09235C59.7874 3.13878 59.3805 3.16934 58.9313 3.1604C58.3213 3.14816 58.1329 3.17816 58.1866 3.27898C58.2261 3.35322 58.1538 3.30126 58.0258 3.16349C57.87 2.99561 57.7664 2.95413 57.7119 3.03785C57.6673 3.10668 57.6956 3.20111 57.7751 3.24765C57.8556 3.29498 57.6955 3.33116 57.4127 3.3295C57.134 3.32796 57.002 3.30457 57.1196 3.27755C57.2371 3.25052 57.421 3.14518 57.5282 3.04326C57.6353 2.94145 57.9049 2.84648 58.127 2.83214C58.4274 2.81294 58.4863 2.83423 58.3568 2.91542ZM77.4798 2.88332C77.3681 2.91111 77.1852 2.91111 77.0735 2.88332C76.9619 2.85563 77.0532 2.83291 77.2767 2.83291C77.5001 2.83291 77.5915 2.85563 77.4798 2.88332ZM78.1738 2.87394C78.1353 2.91056 78.0351 2.91453 77.9514 2.88266C77.8588 2.84747 77.8863 2.82133 78.0215 2.81603C78.1438 2.81129 78.2123 2.83732 78.1738 2.87394ZM13.4921 3.07249L13.8061 3.22725L13.3727 3.21556C13.1343 3.20916 12.9993 3.18489 13.0726 3.16162C13.146 3.13845 13.1765 3.07403 13.1404 3.01855C13.0505 2.88012 13.1252 2.89159 13.4921 3.07249ZM32.4412 2.98425C32.4027 3.02087 32.3025 3.02484 32.2188 2.99296C32.1262 2.95777 32.1537 2.93163 32.2889 2.92634C32.4113 2.92159 32.4797 2.94762 32.4412 2.98425ZM32.966 2.99064C32.8862 3.02131 32.7557 3.02131 32.6758 2.99064C32.5961 2.96009 32.6613 2.93505 32.8209 2.93505C32.9805 2.93505 33.0458 2.96009 32.966 2.99064ZM57.2542 3.02793C57.2147 3.0886 57.068 3.13327 56.9281 3.1272C56.6913 3.11705 56.6939 3.1101 56.964 3.02793C57.1236 2.97939 57.2703 2.93472 57.29 2.92865C57.3098 2.92259 57.2936 2.96726 57.2542 3.02793ZM60.4462 3.02793C60.4462 3.0886 60.3908 3.13823 60.3232 3.13823C60.2557 3.13823 60.2326 3.0886 60.272 3.02793C60.3115 2.96726 60.3668 2.91762 60.395 2.91762C60.4232 2.91762 60.4462 2.96726 60.4462 3.02793ZM61.6266 2.99748C61.35 3.03024 61.2581 3.08815 61.3037 3.201C61.392 3.41973 61.2569 3.39877 61.0778 3.16603C60.9962 3.05992 60.8875 3.01293 60.8363 3.06168C60.785 3.11032 60.8199 3.19636 60.9138 3.25284C61.0077 3.30932 61.0257 3.35619 60.9536 3.35719C60.8817 3.35807 60.762 3.28924 60.6877 3.20408C60.5145 3.00587 60.6312 2.9666 61.4168 2.9581C61.7679 2.95435 61.8541 2.97057 61.6266 2.99748ZM62.4484 2.99064C62.3687 3.02131 62.2381 3.02131 62.1582 2.99064C62.0785 2.96009 62.1437 2.93505 62.3033 2.93505C62.4629 2.93505 62.5283 2.96009 62.4484 2.99064ZM65.5385 3.10106C65.4043 3.2556 65.4041 3.29233 65.5374 3.33502C65.671 3.3777 65.671 3.40043 65.5374 3.48084C65.4319 3.54438 65.5219 3.57658 65.8077 3.5778C66.0433 3.57868 66.2644 3.53599 66.2989 3.48282C66.3335 3.42966 66.7413 3.39712 67.2053 3.41058C67.6693 3.42392 68.2056 3.39888 68.3971 3.35476C68.7823 3.26619 68.8018 3.26828 66.8314 3.18313C66.3533 3.16239 65.9442 3.09422 65.9222 3.03157C65.8641 2.86578 65.7203 2.89181 65.5385 3.10106ZM68.3391 3.02285C68.4348 3.08451 68.6132 3.13558 68.7357 3.13658C69.0326 3.13878 68.94 3.07569 68.5132 2.98491C68.2589 2.93086 68.212 2.94112 68.3391 3.02285ZM55.8032 3.13823C55.8032 3.1989 55.7479 3.24854 55.6803 3.24854C55.6128 3.24854 55.5897 3.1989 55.6291 3.13823C55.6686 3.07756 55.7239 3.02793 55.7521 3.02793C55.7803 3.02793 55.8032 3.07756 55.8032 3.13823ZM14.2178 3.20486C14.1793 3.24148 14.0791 3.24545 13.9954 3.21357C13.9028 3.17838 13.9303 3.15224 14.0655 3.14695C14.1879 3.1422 14.2564 3.16823 14.2178 3.20486ZM14.7136 3.24854C14.7136 3.3092 14.7658 3.35884 14.8296 3.35884C14.8935 3.35884 14.9457 3.3092 14.9457 3.24854C14.9457 3.18787 14.8935 3.13823 14.8296 3.13823C14.7658 3.13823 14.7136 3.18787 14.7136 3.24854ZM36.5664 3.21059C36.4878 3.24082 36.3312 3.24269 36.2182 3.21467C36.1053 3.18666 36.1696 3.16195 36.3611 3.15974C36.5526 3.15754 36.645 3.18037 36.5664 3.21059ZM65.1471 3.24854C65.1866 3.3092 65.2418 3.35884 65.27 3.35884C65.2982 3.35884 65.3212 3.3092 65.3212 3.24854C65.3212 3.18787 65.2658 3.13823 65.1983 3.13823C65.1307 3.13823 65.1076 3.18787 65.1471 3.24854ZM71.6181 3.21611C71.4746 3.24236 71.2394 3.24236 71.0958 3.21611C70.9522 3.18974 71.0697 3.16824 71.357 3.16824C71.6443 3.16824 71.7617 3.18974 71.6181 3.21611ZM79.6271 3.21611C79.4836 3.24236 79.2484 3.24236 79.1048 3.21611C78.9612 3.18974 79.0787 3.16824 79.366 3.16824C79.6533 3.16824 79.7707 3.18974 79.6271 3.21611ZM10.5772 3.41333C10.5405 3.504 10.4583 3.54746 10.3943 3.50985C10.3228 3.46782 10.3387 3.40506 10.4355 3.34671C10.6468 3.21953 10.654 3.22284 10.5772 3.41333ZM56.7899 3.35884C56.7504 3.41951 56.669 3.46915 56.6089 3.46915C56.5488 3.46915 56.4997 3.41951 56.4997 3.35884C56.4997 3.29817 56.5812 3.24854 56.6806 3.24854C56.7801 3.24854 56.8293 3.29817 56.7899 3.35884ZM62.0421 3.32454C61.9305 3.35233 61.7476 3.35233 61.6359 3.32454C61.5242 3.29685 61.6156 3.27413 61.839 3.27413C62.0625 3.27413 62.1538 3.29685 62.0421 3.32454ZM33.4897 3.43462C33.3787 3.4622 33.1698 3.46319 33.0254 3.43683C32.881 3.41046 32.9718 3.38785 33.2271 3.38664C33.4825 3.38543 33.6007 3.40704 33.4897 3.43462ZM52.4846 3.51316C52.3627 3.59258 52.0802 3.64431 51.8568 3.62799C51.6333 3.61177 51.3038 3.59412 51.1245 3.58894C50.9451 3.58375 50.823 3.54217 50.8532 3.49672C50.8834 3.45128 51.3126 3.40385 51.8071 3.39138C52.5792 3.37186 52.6749 3.38907 52.4846 3.51316ZM64.6248 3.46915C64.6248 3.52981 64.6739 3.57945 64.734 3.57945C64.7941 3.57945 64.8755 3.52981 64.9149 3.46915C64.9544 3.40848 64.9052 3.35884 64.8057 3.35884C64.7063 3.35884 64.6248 3.40848 64.6248 3.46915ZM80.9693 3.43418C81.053 3.46606 81.1531 3.46209 81.1917 3.42547C81.2302 3.38884 81.1617 3.36281 81.0394 3.36756C80.9042 3.37285 80.8767 3.39899 80.9693 3.43418ZM88.5357 3.46915C88.5357 3.52981 88.6433 3.57945 88.7747 3.57945C88.9061 3.57945 88.9814 3.52981 88.942 3.46915C88.9025 3.40848 88.795 3.35884 88.703 3.35884C88.6109 3.35884 88.5357 3.40848 88.5357 3.46915ZM9.77433 3.57008C9.81043 3.62556 9.77433 3.69318 9.69412 3.72042C9.61392 3.74756 9.59035 3.81242 9.64166 3.86448C9.69308 3.91654 9.78362 3.8861 9.84304 3.79686C9.98605 3.58199 9.9821 3.46915 9.83167 3.46915C9.76412 3.46915 9.73823 3.51459 9.77433 3.57008ZM14.9197 3.55055C15.2657 3.5735 15.5026 3.63659 15.4642 3.6956C15.4268 3.75307 15.5691 3.80183 15.7804 3.80403C15.9916 3.80624 16.9547 3.83679 17.9205 3.87209C19.0932 3.915 19.7487 3.89647 19.8938 3.81639C20.0572 3.72616 19.6708 3.6956 18.334 3.69307C17.1798 3.69097 16.5822 3.65115 16.6288 3.57945C16.6751 3.5082 16.2773 3.47632 15.5039 3.48955C14.8423 3.5008 14.5811 3.52816 14.9197 3.55055ZM40.9145 3.53577C40.876 3.57239 40.7758 3.57636 40.6921 3.54449C40.5995 3.5093 40.627 3.48316 40.7622 3.47786C40.8846 3.47312 40.953 3.49915 40.9145 3.53577ZM68.4446 3.58795C68.3256 3.65964 68.368 3.68689 68.6003 3.6881C68.9468 3.68987 69.0093 3.63582 68.7638 3.54636C68.6782 3.51514 68.5346 3.5339 68.4446 3.58795ZM70.1962 3.57471C69.6393 3.65876 69.9083 3.76962 70.4864 3.69439C70.7418 3.66108 70.8724 3.60681 70.7766 3.57361C70.6809 3.54051 70.4197 3.54096 70.1962 3.57471ZM74.0847 3.56688L73.7365 3.64508L74.0724 3.71027C74.2572 3.74623 74.5585 3.73465 74.742 3.68457C74.945 3.62931 75.0495 3.63405 75.0086 3.69682C74.9695 3.75704 75.2228 3.79377 75.6158 3.78506C75.9866 3.77679 76.1595 3.74723 75.9999 3.71932C75.8403 3.69141 75.6575 3.63207 75.5936 3.58739C75.4408 3.4804 74.5248 3.46793 74.0847 3.56688ZM87.404 3.54515C87.5157 3.57294 87.6986 3.57294 87.8103 3.54515C87.9219 3.51746 87.8306 3.49474 87.6071 3.49474C87.3837 3.49474 87.2923 3.51746 87.404 3.54515ZM7.84358 3.65479C7.92727 3.68667 8.02744 3.6827 8.06597 3.64608C8.10451 3.60945 8.03603 3.58342 7.91369 3.58817C7.77846 3.59346 7.75095 3.6196 7.84358 3.65479ZM16.311 3.65523C16.2 3.68281 15.9911 3.6838 15.8467 3.65744C15.7023 3.63107 15.793 3.60846 16.0484 3.60725C16.3038 3.60604 16.4219 3.62765 16.311 3.65523ZM49.2183 3.65181C49.1398 3.68204 48.9831 3.68391 48.8701 3.65589C48.7572 3.62788 48.8215 3.60317 49.013 3.60096C49.2045 3.59876 49.2969 3.62159 49.2183 3.65181ZM50.5485 3.64608C50.51 3.6827 50.4098 3.68667 50.3261 3.65479C50.2335 3.6196 50.261 3.59346 50.3962 3.58817C50.5186 3.58342 50.5871 3.60945 50.5485 3.64608ZM66.6275 3.70961C66.4945 3.75859 66.5647 3.78451 66.8301 3.78451C67.0536 3.78451 67.3409 3.74337 67.4685 3.69296C67.6445 3.62346 67.5954 3.60526 67.2659 3.61795C67.0267 3.6271 66.7394 3.66836 66.6275 3.70961ZM82.7031 3.65247C82.7829 3.68314 82.9135 3.68314 82.9932 3.65247C83.0731 3.62192 83.0078 3.59688 82.8482 3.59688C82.6886 3.59688 82.6233 3.62192 82.7031 3.65247ZM5.82206 3.81848C5.78921 3.869 5.68393 3.91037 5.58817 3.91037C5.49241 3.91037 5.44099 3.869 5.47384 3.81848C5.50669 3.76785 5.61197 3.72649 5.70773 3.72649C5.80349 3.72649 5.85491 3.76785 5.82206 3.81848ZM37.0307 3.7662C37.1437 3.79422 37.3004 3.79234 37.3789 3.76212C37.4575 3.73189 37.3651 3.70906 37.1736 3.71127C36.9821 3.71347 36.9178 3.73818 37.0307 3.7662ZM39.0671 3.7651C39.1508 3.79697 39.251 3.793 39.2895 3.75638C39.328 3.71976 39.2595 3.69373 39.1372 3.69847C39.002 3.70377 38.9745 3.72991 39.0671 3.7651ZM5.31169 3.86713C5.31169 3.95835 5.08628 4.00997 5.03462 3.93055C5.00108 3.87904 5.04971 3.83679 5.14269 3.83679C5.23566 3.83679 5.31169 3.85047 5.31169 3.86713ZM6.76259 3.91037C6.72313 3.97103 6.74623 4.02067 6.81378 4.02067C6.88134 4.02067 6.9367 3.97103 6.9367 3.91037C6.9367 3.8497 6.91372 3.80006 6.88552 3.80006C6.85731 3.80006 6.80206 3.8497 6.76259 3.91037ZM20.5752 3.91037C20.6147 3.97103 20.5916 4.02067 20.524 4.02067C20.4565 4.02067 20.4011 3.97103 20.4011 3.91037C20.4011 3.8497 20.4241 3.80006 20.4523 3.80006C20.4805 3.80006 20.5358 3.8497 20.5752 3.91037ZM45.2697 3.87981C45.0621 3.9043 44.7227 3.9043 44.5152 3.87981C44.3077 3.85544 44.4775 3.83536 44.8924 3.83536C45.3074 3.83536 45.4772 3.85544 45.2697 3.87981ZM77.857 3.89481C77.857 4.03303 78.1184 4.20378 78.2923 4.17907C78.3722 4.16782 78.5289 4.15083 78.6405 4.14146C78.8122 4.1269 78.8167 4.11002 78.6695 4.03225C78.3776 3.87783 77.857 3.7898 77.857 3.89481ZM78.9017 4.02067C78.9017 4.08134 78.9539 4.13098 79.0178 4.13098C79.0816 4.13098 79.1338 4.08134 79.1338 4.02067C79.1338 3.96 79.0816 3.91037 79.0178 3.91037C78.9539 3.91037 78.9017 3.96 78.9017 4.02067ZM80.9039 3.98637C81.0156 4.01416 81.1985 4.01416 81.3102 3.98637C81.4219 3.95868 81.3305 3.93596 81.1071 3.93596C80.8836 3.93596 80.7923 3.95868 80.9039 3.98637ZM74.2588 4.11035C74.2588 4.15966 74.5069 4.21029 74.8101 4.22275C75.2115 4.2393 75.3141 4.21536 75.1874 4.13473C74.9787 4.00203 74.2588 3.98317 74.2588 4.11035ZM77.732 4.04825C77.6401 4.33383 77.6868 4.41865 77.9471 4.43917C78.2346 4.46178 78.2366 4.45704 78.0314 4.2415C77.8345 4.0349 77.7533 3.9824 77.732 4.04825ZM7.95965 4.20632C8.04334 4.23819 8.14351 4.23422 8.18205 4.1976C8.22058 4.16098 8.1521 4.13495 8.02976 4.13969C7.89453 4.14499 7.86702 4.17113 7.95965 4.20632ZM8.47466 4.20698C8.58633 4.23477 8.76926 4.23477 8.88092 4.20698C8.99258 4.17929 8.90123 4.15657 8.67779 4.15657C8.45435 4.15657 8.363 4.17929 8.47466 4.20698ZM57.255 4.24007C57.2143 4.3025 57.2609 4.32103 57.3642 4.28342C57.5652 4.21007 57.602 4.13098 57.4351 4.13098C57.375 4.13098 57.294 4.18006 57.255 4.24007ZM72.0534 4.24779C72.0534 4.31199 72.1056 4.33394 72.1695 4.29643C72.2333 4.25893 72.2856 4.20643 72.2856 4.17962C72.2856 4.15282 72.2333 4.13098 72.1695 4.13098C72.1056 4.13098 72.0534 4.18359 72.0534 4.24779ZM85.6583 4.26114C85.549 4.30239 85.9255 4.33956 86.4948 4.34387C87.064 4.34806 87.4953 4.31894 87.4533 4.27901C87.3505 4.18117 85.9077 4.16683 85.6583 4.26114ZM87.8973 4.24128L87.5491 4.32544L87.9195 4.33857C88.1232 4.34574 88.3221 4.30195 88.3616 4.24128C88.441 4.11917 88.4021 4.11917 87.8973 4.24128ZM47.9974 4.3143C48.0772 4.34497 48.2078 4.34497 48.2876 4.3143C48.3674 4.28375 48.3021 4.25871 48.1425 4.25871C47.9829 4.25871 47.9176 4.28375 47.9974 4.3143ZM53.3265 4.3153C53.2704 4.36857 52.1812 4.47491 51.3371 4.50943C50.8887 4.52774 50.2086 4.55598 49.8255 4.5722L49.1291 4.60165L49.7094 4.68758C50.5663 4.81443 53.1207 4.80505 53.6559 4.67313C53.9113 4.61014 54.1806 4.55345 54.2543 4.54705C54.328 4.54065 54.3608 4.46763 54.3274 4.38468C54.2876 4.28607 54.1094 4.24272 53.8126 4.25937C53.5629 4.27338 53.3441 4.29853 53.3265 4.3153ZM70.7186 4.34342C70.3977 4.416 70.4139 4.42604 70.9233 4.47061C71.3714 4.50976 72.0464 4.41854 71.8213 4.34927C71.5982 4.28055 71.0097 4.27746 70.7186 4.34342ZM73.6567 4.31662C73.7404 4.3485 73.8406 4.34453 73.8791 4.30791C73.9176 4.27128 73.8492 4.24525 73.7268 4.25C73.5916 4.25529 73.5641 4.28143 73.6567 4.31662ZM44.3411 4.42759C44.4527 4.45538 44.6357 4.45538 44.7473 4.42759C44.859 4.3999 44.7677 4.37718 44.5442 4.37718C44.3208 4.37718 44.2294 4.3999 44.3411 4.42759ZM64.3926 4.46189C64.2511 4.54881 64.2661 4.56911 64.4728 4.57054C64.6127 4.57142 64.7594 4.52256 64.7989 4.46189C64.8902 4.32147 64.6213 4.32147 64.3926 4.46189ZM65.3067 4.4727C65.1994 4.53734 65.2899 4.56933 65.5824 4.57054C65.8218 4.57142 66.0176 4.53491 66.0175 4.48947C66.0174 4.371 65.4961 4.35876 65.3067 4.4727ZM74.4909 4.40872C74.4909 4.49796 74.8236 4.53922 74.9491 4.46542C75.0431 4.41027 74.987 4.37916 74.7935 4.37916C74.6271 4.37916 74.4909 4.39251 74.4909 4.40872ZM22.0574 4.53833C22.1703 4.56635 22.327 4.56448 22.4056 4.53425C22.4842 4.50403 22.3918 4.4812 22.2002 4.4834C22.0087 4.48561 21.9444 4.51032 22.0574 4.53833ZM23.1869 4.59271C22.9634 4.64632 22.4232 4.70964 21.9864 4.73324C21.5497 4.75696 21.1657 4.80163 21.1331 4.83263C20.979 4.979 22.0995 5.03437 23.7488 4.96179C26.3482 4.84741 27.3434 4.83649 28.0039 4.91491C28.3231 4.95286 28.6015 4.94128 28.6227 4.88921C28.6438 4.83693 28.7478 4.8366 28.8548 4.88833C28.9614 4.93984 29.3097 4.94613 29.6289 4.90223L30.2093 4.82226L29.5709 4.80604C28.8315 4.78718 28.3891 4.69375 28.4677 4.57286C28.4979 4.52642 28.0186 4.48031 27.4026 4.47039C26.5961 4.45748 26.2561 4.49234 26.1875 4.59503C26.1099 4.71118 26.0919 4.71085 26.0904 4.59326C26.0894 4.50712 26.031 4.48274 25.9457 4.53293C25.754 4.64544 25.3922 4.66596 25.3922 4.56425C25.3922 4.45152 23.6833 4.47358 23.1869 4.59271ZM29.774 4.53977C29.9177 4.56602 30.1526 4.56602 30.2963 4.53977C30.44 4.5134 30.3224 4.4919 30.0351 4.4919C29.7479 4.4919 29.6303 4.5134 29.774 4.53977ZM59.4305 4.53789C59.5422 4.56569 59.7251 4.56569 59.8368 4.53789C59.9484 4.51021 59.8571 4.48748 59.6336 4.48748C59.4102 4.48748 59.3189 4.51021 59.4305 4.53789ZM63.9066 4.53723C63.9903 4.56911 64.0905 4.56514 64.129 4.52852C64.1676 4.49189 64.0991 4.46586 63.9767 4.47061C63.8415 4.4759 63.814 4.50204 63.9066 4.53723ZM6.26929 4.6482C6.38106 4.67599 6.56376 4.67599 6.67554 4.6482C6.78732 4.62051 6.69585 4.59779 6.47241 4.59779C6.24897 4.59779 6.15751 4.62051 6.26929 4.6482ZM27.5976 4.68758C27.7247 4.76931 27.6778 4.77957 27.4235 4.72552C26.9967 4.63474 26.9041 4.57164 27.201 4.57385C27.3233 4.57484 27.5019 4.62591 27.5976 4.68758ZM44.196 4.70169C44.196 4.81983 46.3876 4.80571 46.6916 4.68559C46.8321 4.63 46.3855 4.59713 45.5598 4.6022C44.8098 4.60683 44.196 4.65151 44.196 4.70169ZM48.8172 4.64753C48.9009 4.67941 49.001 4.67544 49.0396 4.63882C49.0781 4.6022 49.0096 4.57617 48.8873 4.58091C48.7521 4.58621 48.7246 4.61235 48.8172 4.64753ZM12.1019 4.79281C12.0625 4.85347 12.1378 4.90311 12.2692 4.90311C12.4006 4.90311 12.5082 4.85347 12.5082 4.79281C12.5082 4.73214 12.433 4.6825 12.3409 4.6825C12.2489 4.6825 12.1414 4.73214 12.1019 4.79281ZM13.6169 4.78354C13.5881 4.82777 13.3437 4.8473 13.0737 4.827C12.8036 4.8067 12.6144 4.82016 12.6532 4.857C12.777 4.9747 14.2813 5.04165 14.2062 4.92617C14.1147 4.78542 13.6835 4.68107 13.6169 4.78354ZM19.8788 4.79556C19.6 4.86075 19.6674 4.87962 20.2174 4.8901C20.5951 4.89727 20.8824 4.88524 20.8558 4.86351C20.7293 4.75983 20.1914 4.72243 19.8788 4.79556ZM11.0305 4.86925C11.1434 4.89727 11.3001 4.89539 11.3787 4.86517C11.4573 4.83494 11.3649 4.81211 11.1734 4.81432C10.9818 4.81652 10.9175 4.84123 11.0305 4.86925ZM6.10249 4.97845C6.18618 5.01033 6.28635 5.00636 6.32489 4.96974C6.36342 4.93311 6.29494 4.90708 6.1726 4.91183C6.03737 4.91712 6.00986 4.94326 6.10249 4.97845ZM14.4524 4.97613C14.5323 5.0068 14.6628 5.0068 14.7426 4.97613C14.8224 4.94558 14.7571 4.92054 14.5975 4.92054C14.4379 4.92054 14.3727 4.94558 14.4524 4.97613Z" fill="#F2FF46"/>
</svg>
