<svg width="449" height="195" viewBox="0 0 449 195" fill="none" xmlns="http://www.w3.org/2000/svg">
<path d="M104.549 104.135C102.672 103.188 104.005 99.8292 101.393 96.2813C98.1273 91.8125 92.6304 92.4625 92.44 90.7021C92.1134 87.4521 110.863 87.3167 118.237 75.6709C121.53 70.498 122.673 62.8875 119.815 60.6396C115.026 56.875 96.93 66.8146 88.0316 81.9542C80.7932 94.3042 77.2012 114.346 87.5146 126.344C91.5964 131.083 98.2906 135.092 115.951 136.663C143.626 139.1 164.443 132.546 178.811 128.808C218.214 118.517 250.651 118.435 288.53 118.327C301.674 118.3 316.967 119.465 347.526 121.821C359.391 122.742 391.637 125.342 391.773 129.865C391.855 132.817 378.031 132.004 371.065 142.458C367.228 148.2 367.391 154.51 363.2 155.648C359.989 156.515 356.642 153.644 355.771 152.94C344.043 143.596 277.836 132.41 199.873 143.163C185.886 145.085 174.947 147.252 150.021 150.15C112.033 154.565 102.345 153.644 92.6032 149.988C87.6778 148.146 61.6358 138.315 56.9553 115.213C52.1932 91.5688 73.5547 72.5834 79.2421 67.5188C94.1815 54.248 119.979 42.873 130.51 52.1355C137.313 58.1209 135.272 70.5521 135.081 71.7167C134.047 77.4855 128.36 83.4167 116.985 95.3063C111.053 101.508 106.808 105.354 104.522 104.217L104.549 104.135Z" fill="url(#paint0_linear_733_290)"/>
<path d="M189.26 135.173C183.708 135.173 178.429 134.36 173.477 132.762C168.524 131.165 164.497 128.7 161.449 125.423C158.211 121.983 156.605 117.515 156.605 112.071C156.605 109.146 157.122 106.139 158.184 103.052C159.245 99.9643 160.442 96.8229 161.803 93.6C163.299 90.2417 164.633 86.8021 165.803 83.3083C166.973 79.8146 167.544 76.3206 167.544 72.8268C167.544 68.981 166.647 65.4062 164.878 62.1021C164.061 60.5042 163.68 59.0687 163.68 57.8229C163.68 55.5479 164.742 53.6792 166.837 52.2167C168.932 50.7812 171.681 49.6979 175.055 49.0208C178.429 48.2896 182.049 47.9375 185.885 47.9375C190.593 47.9375 195.056 48.3976 199.247 49.3185C203.492 50.2122 206.893 51.5125 209.533 53.2187C212.145 54.8979 213.506 56.9562 213.587 59.4208C213.587 62.7792 210.866 65.9479 205.424 68.8729C204.444 69.3875 203.709 69.8208 203.192 70.1458C202.703 70.4708 202.458 70.7685 202.458 71.0393C202.458 71.6351 203.655 72.3667 206.077 73.2062C213.533 75.9417 219.438 80.1937 223.792 86.0167C228.146 91.8396 230.377 98.8813 230.513 107.196C230.513 111.692 229.316 115.673 226.894 119.167C224.472 122.606 221.261 125.531 217.288 127.887C213.288 130.244 208.853 132.058 203.982 133.304C199.111 134.496 194.212 135.118 189.287 135.118L189.26 135.173ZM199.165 89.8625C201.26 89.8625 202.757 89.6187 203.628 89.1312C204.553 88.6167 205.016 87.9667 205.016 87.2083C205.016 86.0979 204.199 84.8521 202.594 83.525C200.988 82.1979 198.975 81.0604 196.607 80.0854C194.24 79.1104 191.899 78.65 189.586 78.65C187.981 78.65 186.811 79.0021 186.076 79.6792C185.341 80.3562 184.987 81.1958 184.987 82.1437C184.987 83.4979 185.613 84.8792 186.865 86.2875C188.96 88.6437 193.042 89.8351 199.138 89.8351L199.165 89.8625ZM187.382 69.5229C188.062 69.5229 188.879 69.3062 189.804 68.8729C193.069 67.1937 195.41 65.6497 196.825 64.2414C198.24 62.806 198.947 61.5872 198.947 60.6393C198.947 59.0685 197.559 58.2289 194.784 58.1206C193.532 58.1206 192.09 58.3643 190.484 58.8518C188.579 59.5018 187.164 60.5583 186.185 62.0479C185.26 63.5375 184.797 64.9458 184.797 66.3271C184.797 67.2479 184.987 68.0333 185.396 68.6833C185.831 69.2792 186.511 69.5771 187.382 69.5771V69.5229Z" fill="url(#paint1_linear_733_290)"/>
<path d="M224.01 190.017C346.225 190.017 445.299 148.086 445.299 96.3626C445.299 44.6388 346.225 2.70837 224.01 2.70837C101.796 2.70837 2.72119 44.6388 2.72119 96.3626C2.72119 148.086 101.796 190.017 224.01 190.017Z" stroke="url(#paint2_linear_733_290)" stroke-width="2" stroke-miterlimit="10"/>
<path d="M313.231 132.708C310.153 132.708 307.307 132.107 304.697 130.905C302.085 129.702 299.981 127.956 298.381 125.668C296.822 123.379 296.043 120.586 296.043 117.289C296.043 115.194 296.122 112.711 296.277 109.841C296.473 106.389 296.569 102.897 296.569 99.3674C296.569 96.6518 296.452 94.0529 296.218 91.5702C295.986 89.0877 295.518 86.8766 294.816 84.9369C294.114 82.9975 293.023 81.5041 291.543 80.4565C290.06 79.3705 288.56 78.8274 287.039 78.8274C285.597 78.8274 284.312 79.39 283.18 80.5147C282.051 81.6011 281.485 83.3466 281.485 85.7516C281.485 90.2902 283.784 96.3027 288.386 103.79C291.113 108.212 292.476 112.479 292.476 116.591C292.476 119.771 291.717 122.584 290.198 125.028C288.715 127.433 286.767 129.314 284.35 130.672C281.934 132.029 279.303 132.708 276.459 132.708C271.586 132.708 267.533 131.855 264.298 130.148C261.063 128.403 258.646 126.153 257.048 123.398C255.45 120.605 254.651 117.677 254.651 114.612C254.651 113.255 254.807 111.916 255.119 110.597C256.249 106.02 257.672 101.423 259.387 96.807C260.79 92.9668 262.018 89.1847 263.07 85.4607C264.161 81.698 264.707 78.032 264.707 74.4632C264.707 72.2912 264.415 70.1575 263.83 68.0629C263.284 65.9293 262.368 63.8539 261.082 61.8367C259.796 59.8196 259.153 58.0545 259.153 56.5419C259.153 54.8739 259.776 53.5162 261.024 52.4686C262.271 51.4213 263.889 50.6456 265.876 50.1413C267.864 49.637 269.93 49.3849 272.073 49.3849C274.296 49.3849 276.44 49.6563 278.505 50.1996C280.609 50.7038 282.323 51.499 283.648 52.5851C284.974 53.6324 285.638 54.9513 285.638 56.5419C285.638 57.8606 285.072 59.3543 283.942 61.0221C283.319 61.9145 282.832 62.9618 282.481 64.1643C282.13 65.328 281.953 66.3753 281.953 67.3065C281.953 67.8882 282.032 68.373 282.187 68.7611C282.383 69.1489 282.636 69.3429 282.949 69.3429C283.376 69.3429 283.98 68.9355 284.761 68.1209C285.54 67.3065 286.593 65.7546 287.918 63.4661C289.243 61.1772 290.685 58.9662 292.245 56.8328C293.842 54.6992 295.79 52.9342 298.09 51.5377C300.389 50.1023 303.293 49.3849 306.8 49.3849C309.141 49.3849 311.029 50.1996 312.471 51.8286C313.914 53.4192 314.967 55.4169 315.628 57.8219C316.33 60.1882 316.681 62.5349 316.681 64.8625C316.681 67.2287 316.349 69.2654 315.688 70.9722C315.065 72.679 314.148 73.5324 312.939 73.5324C312.471 73.5324 311.984 73.3772 311.478 73.0668C309.413 71.7869 305.475 71.0497 299.668 70.8557C297.369 70.8557 296.218 71.2436 296.218 72.0195C296.218 72.8342 297.622 74.1141 300.427 75.8599L304.871 78.5945C309.628 81.3876 314.012 84.3164 318.025 87.3809C322.039 90.4454 325.275 94.1306 327.732 98.4363C330.225 102.703 331.531 108.095 331.648 114.612C331.648 118.646 330.731 122.002 328.899 124.679C327.068 127.355 324.75 129.372 321.944 130.73C319.136 132.049 316.232 132.708 313.231 132.708Z" fill="url(#paint3_linear_733_290)"/>
<defs>
<linearGradient id="paint0_linear_733_290" x1="224.021" y1="48.7646" x2="224.021" y2="155.809" gradientUnits="userSpaceOnUse">
<stop stop-color="#C0D5BD"/>
<stop offset="0.25" stop-color="#D5C89A"/>
<stop offset="0.51" stop-color="#E0AC68"/>
<stop offset="0.765" stop-color="#D97939"/>
<stop offset="1" stop-color="#914739"/>
</linearGradient>
<linearGradient id="paint1_linear_733_290" x1="193.559" y1="47.9375" x2="193.559" y2="135.173" gradientUnits="userSpaceOnUse">
<stop stop-color="#C0D5BD"/>
<stop offset="0.25" stop-color="#D5C89A"/>
<stop offset="0.51" stop-color="#E0AC68"/>
<stop offset="0.765" stop-color="#D97939"/>
<stop offset="1" stop-color="#914739"/>
</linearGradient>
<linearGradient id="paint2_linear_733_290" x1="224.01" y1="2.70837" x2="224.01" y2="190.017" gradientUnits="userSpaceOnUse">
<stop stop-color="#C0D5BD"/>
<stop offset="0.25" stop-color="#D5C89A"/>
<stop offset="0.51" stop-color="#E0AC68"/>
<stop offset="0.765" stop-color="#D97939"/>
<stop offset="1" stop-color="#914739"/>
</linearGradient>
<linearGradient id="paint3_linear_733_290" x1="293.15" y1="49.3849" x2="293.15" y2="132.708" gradientUnits="userSpaceOnUse">
<stop stop-color="#C0D5BD"/>
<stop offset="0.25" stop-color="#D5C89A"/>
<stop offset="0.51" stop-color="#E0AC68"/>
<stop offset="0.765" stop-color="#D97939"/>
<stop offset="1" stop-color="#914739"/>
</linearGradient>
</defs>
</svg>
