<svg width="18" height="18" viewBox="0 0 18 18" fill="none" xmlns="http://www.w3.org/2000/svg">
<path d="M6.88498 1.40044C7.40966 1.1741 7.97231 1.0471 8.54396 1.02599C8.78527 1.02599 9.03412 1.02599 9.29804 0.988543C9.56197 0.951098 9.7882 0.988543 10.0521 0.988543C10.6179 0.958339 11.1831 1.05829 11.7036 1.28062C11.7272 1.29774 11.754 1.30999 11.7825 1.31663C11.811 1.32327 11.8405 1.32417 11.8693 1.31929C11.8981 1.3144 11.9257 1.30382 11.9503 1.28817C11.975 1.27253 11.9962 1.25213 12.0127 1.22819C12.0456 1.18016 12.0585 1.12135 12.0486 1.06411C12.0388 1.00686 12.007 0.955624 11.96 0.921141C11.4273 0.513717 10.7946 0.255151 10.1275 0.172232C9.83758 0.134859 9.54492 0.122331 9.2528 0.134787C8.97438 0.14831 8.69723 0.180839 8.42331 0.232145C7.77629 0.353381 7.16222 0.608552 6.62105 0.981054C6.59223 0.998665 6.56721 1.02177 6.54742 1.04903C6.52764 1.07629 6.51348 1.10717 6.50577 1.13989C6.49806 1.17261 6.49695 1.20653 6.50249 1.23968C6.50804 1.27283 6.52015 1.30456 6.5381 1.33304C6.57617 1.38633 6.63341 1.42305 6.69798 1.43559C6.76254 1.44814 6.8295 1.43555 6.88498 1.40044Z" fill="black"/>
<path d="M17.8792 7.72126C17.8755 7.68773 17.8651 7.65527 17.8486 7.62577C17.8321 7.59626 17.8099 7.57031 17.7832 7.5494C17.7566 7.5285 17.726 7.51307 17.6933 7.504C17.6606 7.49493 17.6264 7.49241 17.5927 7.49658C17.5267 7.50765 17.4674 7.54319 17.4268 7.59603C17.3862 7.64886 17.3673 7.71504 17.374 7.78117C17.4192 8.15563 17.4418 8.53008 17.4494 8.89705C17.4574 9.26957 17.4422 9.64224 17.4041 10.0129C17.3351 10.711 17.1702 11.3963 16.914 12.05C16.6603 12.7068 16.3314 13.3326 15.9337 13.9147C15.0967 15.0874 13.9214 15.9804 12.5629 16.476C11.2118 17.0037 9.75679 17.2163 8.3099 17.0976C7.51362 17.0283 6.7301 16.8546 5.97978 16.5809C5.21855 16.3209 4.50904 15.9306 3.88343 15.4275C2.80779 14.5198 1.99124 13.3473 1.51561 12.0275C1.02106 10.6927 0.835494 9.26436 0.972675 7.84857C0.976141 7.82005 0.973916 7.79113 0.966129 7.76346C0.958341 7.7358 0.945142 7.70992 0.927286 7.68732C0.90943 7.66472 0.887267 7.64583 0.862061 7.63174C0.836856 7.61764 0.809102 7.60862 0.780384 7.60518C0.751666 7.60173 0.722546 7.60394 0.694688 7.61168C0.66683 7.61941 0.640778 7.63252 0.618021 7.65025C0.595263 7.66799 0.576245 7.69 0.562053 7.71503C0.547861 7.74006 0.538773 7.76763 0.535307 7.79615C0.33264 9.28414 0.477123 10.7985 0.957593 12.2222C1.42245 13.6727 2.2623 14.9768 3.39328 16.0042C4.06116 16.5847 4.827 17.0436 5.65553 17.3597C6.48417 17.6847 7.35499 17.8914 8.24203 17.9738C9.82558 18.0873 11.4139 17.8308 12.8796 17.2249C14.3716 16.6433 15.6481 15.6213 16.5369 14.2967C16.9449 13.6597 17.2788 12.9788 17.5323 12.2671C17.7886 11.5552 17.9459 10.812 17.9999 10.0579V8.88207C17.9999 8.45519 17.932 8.1032 17.8792 7.72126Z" fill="black"/>
<path d="M14.366 10.4847C14.1152 10.4616 13.8627 10.4616 13.6119 10.4847C12.5713 10.4847 10.3317 10.6195 8.33333 10.7319C6.33501 10.8442 4.29899 11.0689 4.29899 11.0689C4.23229 11.1177 4.17739 11.1807 4.13826 11.2532C4.09912 11.3258 4.07675 11.4061 4.07276 11.4883C4.06053 11.8909 4.12448 12.2923 4.26129 12.6715C4.47468 13.3738 4.83726 14.0225 5.32454 14.5738C5.83053 15.1014 6.44045 15.52 7.11635 15.8034C7.79225 16.0869 8.51967 16.2292 9.25331 16.2214C10.7331 16.1628 12.1396 15.5657 13.2047 14.5438C13.8976 13.8673 14.3905 13.0151 14.6299 12.0799C14.7555 11.6714 14.7685 11.2369 14.6676 10.8217C14.6468 10.7463 14.6087 10.6767 14.5564 10.6183C14.5041 10.5598 14.4389 10.5141 14.366 10.4847ZM13.4385 12.8138C13.231 13.2213 12.9556 13.5909 12.6241 13.9072C11.7206 14.8103 10.5171 15.356 9.23823 15.4425C8.59881 15.4692 7.96073 15.3646 7.36388 15.1352C6.76703 14.9058 6.22424 14.5566 5.76945 14.1094C5.39896 13.7243 5.10704 13.2717 4.9098 12.7764C4.75824 12.4376 4.65421 12.0798 4.60062 11.7129V11.4358C5.53577 11.353 6.47458 11.318 7.41335 11.331C9.56249 11.2861 12.3073 11.2786 13.5667 11.2786H13.9437C13.8867 11.8201 13.7145 12.3434 13.4385 12.8138Z" fill="black"/>
<path d="M2.74491 6.42565C3.16314 7.10087 3.52868 7.80691 3.83833 8.53758C3.89292 8.65242 3.97942 8.74938 4.08763 8.81704C4.19584 8.88471 4.32126 8.92026 4.44914 8.91952C4.56223 8.88722 4.66615 8.82908 4.75257 8.74976C4.83899 8.67043 4.90552 8.57212 4.94683 8.46269C5.2395 7.66227 5.5846 6.88174 5.97992 6.12609C6.38713 5.59436 7.67661 5.18246 8.1366 4.86043C8.23747 4.80613 8.32203 4.72622 8.38164 4.62886C8.44126 4.5315 8.4738 4.42017 8.47594 4.30624C8.45121 4.20526 8.40558 4.1105 8.34197 4.02798C8.27835 3.94546 8.19814 3.877 8.10644 3.82694C7.27418 3.5118 6.46094 3.14922 5.67075 2.74102C5.03732 2.24674 4.57733 0.831301 4.19275 0.34451C4.14052 0.264995 4.07043 0.19859 3.988 0.15051C3.90557 0.102431 3.81304 0.0739873 3.71768 0.0674133C3.52916 0.0674133 3.32555 0.292086 3.19736 0.681519C3.03541 1.44249 2.82639 2.19282 2.57147 2.92825C2.26984 3.53486 0.867244 4.13399 0.346927 4.49347C0.240636 4.55171 0.152241 4.63749 0.0911565 4.74167C0.0300718 4.84586 -0.00141526 4.96455 4.88262e-05 5.0851C0.035576 5.18702 0.0952087 5.27898 0.173938 5.35326C0.252668 5.42754 0.348196 5.48197 0.452498 5.51198C0.972815 5.74415 2.28492 5.99129 2.74491 6.42565ZM2.36033 3.97672C2.67427 3.7658 2.93283 3.48334 3.11441 3.15292C3.19547 2.95862 3.26102 2.75829 3.31047 2.55379C3.46883 1.92471 3.55178 1.18329 3.70259 0.748921L3.71768 0.621606C3.71768 0.659052 3.80817 0.689008 3.83833 0.741432C4.07209 1.11589 4.32094 1.7899 4.63766 2.35908C4.79873 2.68328 5.01857 2.97523 5.28617 3.22032C5.54237 3.42864 5.82351 3.60472 6.1232 3.74456C6.58319 3.95425 7.10351 4.14897 7.46547 4.32871L7.55596 4.38113H7.47301C7.10351 4.56087 6.59073 4.76307 6.15336 5.00273C5.83874 5.15429 5.55697 5.36545 5.32387 5.62432C4.93055 6.28332 4.60708 6.98104 4.35865 7.70629C4.08996 7.04386 3.74318 6.41538 3.32555 5.83401C3.05781 5.60848 2.74768 5.43793 2.41311 5.33224C1.94558 5.16749 1.40264 5.04017 1.00298 4.92783C1.33478 4.66572 1.90788 4.32871 2.36033 3.97672Z" fill="black"/>
<path d="M9.67492 4.119C9.67271 4.23192 9.70269 4.34316 9.7614 4.43989C9.82011 4.53662 9.90515 4.6149 10.0067 4.6657C10.4516 4.98025 11.7034 5.37717 12.0955 5.89392C12.4762 6.6195 12.8062 7.37018 13.0834 8.14064C13.1266 8.24729 13.194 8.34262 13.2803 8.41925C13.3666 8.49587 13.4695 8.55173 13.5811 8.5825C13.7083 8.58483 13.8336 8.55077 13.9418 8.48437C14.0501 8.41798 14.1369 8.32206 14.1919 8.20805C14.4889 7.49995 14.8419 6.81631 15.2476 6.16352C15.6925 5.71418 16.9669 5.49699 17.4646 5.2873C17.7587 5.15999 17.8869 4.98774 17.9095 4.86791C17.9134 4.74781 17.8837 4.62898 17.8238 4.52457C17.764 4.42015 17.6762 4.33422 17.5702 4.27627C17.0725 3.92428 15.7076 3.34014 15.421 2.77845C15.1749 2.07459 14.9709 1.35688 14.8102 0.629084C14.682 0.24714 14.486 0.0374455 14.2748 0C14.1796 0.00334697 14.0866 0.0296348 14.0038 0.0766004C13.921 0.123566 13.851 0.189802 13.7998 0.269607C13.4227 0.74142 12.9778 2.11192 12.3595 2.59123C11.5954 2.98599 10.8099 3.33851 10.0067 3.64719C9.91977 3.69663 9.84493 3.76458 9.78756 3.84616C9.7302 3.92773 9.69173 4.02091 9.67492 4.119ZM10.6628 4.119C11.0172 3.94675 11.5149 3.75952 11.9598 3.54983C12.2464 3.42148 12.5172 3.26064 12.7667 3.07053C13.0288 2.83487 13.2481 2.55621 13.4152 2.24673C13.7093 1.70002 13.9581 1.04847 14.1693 0.681507C14.1693 0.629084 14.2522 0.599127 14.2824 0.561682C14.277 0.601445 14.277 0.641745 14.2824 0.681507C14.4181 1.1009 14.5086 1.82734 14.6594 2.44144C14.7064 2.63841 14.7695 2.83126 14.8479 3.0181C15.016 3.33785 15.2591 3.61271 15.5568 3.81944C15.9866 4.16394 16.5295 4.48597 16.8915 4.72562C16.5144 4.83795 15.9715 4.95029 15.504 5.11505C15.1774 5.21991 14.875 5.3879 14.6142 5.60933C14.2134 6.16816 13.8794 6.77133 13.6188 7.40671C13.4048 6.70802 13.1193 6.03297 12.7667 5.39215C12.5397 5.14001 12.2657 4.93399 11.9598 4.78553C11.53 4.55337 11.0323 4.35865 10.6778 4.1864H10.6175L10.6628 4.119Z" fill="black"/>
</svg>
