<svg width="238" height="21" viewBox="0 0 238 21" fill="none" xmlns="http://www.w3.org/2000/svg">
<path fill-rule="evenodd" clip-rule="evenodd" d="M38.9342 0.0886826C38.1493 0.120498 37.5074 0.212236 37.5074 0.292546C37.5074 0.372856 37.2289 0.438494 36.8889 0.438494C36.5488 0.438494 36.3431 0.498881 36.4317 0.572704C36.5624 0.681432 32.399 2.13736 31.9572 2.13736C31.8875 2.13736 31.2293 2.34586 30.4949 2.60069C29.7605 2.85552 28.9038 3.06401 28.5911 3.06401C28.2784 3.06401 27.5544 3.26973 26.9825 3.52101C26.4106 3.77244 25.7701 3.98094 25.5596 3.98433C25.349 3.98789 25.0372 4.1794 24.8666 4.41013C24.662 4.68689 24.4806 4.76643 24.3334 4.64427C24.0318 4.39314 22.7903 4.83562 22.784 5.1964C22.7798 5.42157 22.739 5.42574 22.4881 5.2262C22.2379 5.02697 22.1962 5.03161 22.1923 5.25833C22.1899 5.40335 21.6618 5.80645 21.0187 6.15394C20.0824 6.66005 19.6804 6.77403 18.9983 6.72708C18.4119 6.68661 17.9737 6.76847 17.591 6.98978C17.2855 7.16662 17.1299 7.21712 17.2455 7.10206C17.3894 6.95874 17.2086 6.97619 16.6703 7.15766C16.2383 7.30314 15.9593 7.48415 16.0503 7.55967C16.141 7.63535 15.9518 7.69728 15.6292 7.69728C15.3065 7.69728 14.9758 7.78717 14.8938 7.89698C14.8118 8.00678 13.9524 8.40586 12.9843 8.78363C12.0158 9.16155 10.7834 9.69082 10.2451 9.95971C7.94232 11.1106 5.78045 11.9752 5.30163 11.9372C4.57771 11.8796 2.16111 13.0172 0.96468 13.9788C-0.174979 14.8948 -0.265996 15.1105 0.487069 15.1105C1.17165 15.1105 1.84661 16.1874 1.59489 16.8776C1.43929 17.3039 1.50928 17.3976 2.03645 17.4684C2.38099 17.5147 2.66275 17.6327 2.66275 17.7306C2.66275 17.8285 2.52758 17.8658 2.36237 17.8133C2.19355 17.7597 2.0713 17.8739 2.08301 18.0744C2.10855 18.5065 2.60778 19.1646 2.64623 18.8171C2.66906 18.612 2.70451 18.6119 2.95533 18.8159C3.18092 18.9994 3.31459 19.0071 3.61137 18.8545C3.89463 18.7089 3.89764 18.6627 3.62399 18.6627C3.42573 18.6627 3.26352 18.5932 3.26352 18.5082C3.26352 18.4233 3.60146 18.3538 4.01449 18.3538C4.42751 18.3538 4.76545 18.4188 4.76545 18.4982C4.76545 18.8222 4.17189 19.3869 3.3242 19.8693C2.27676 20.4655 1.81747 21.215 2.66666 20.9423C2.94782 20.8519 3.17851 20.667 3.17942 20.5313C3.18302 20.0105 3.27734 19.9106 3.68797 19.9917C3.94119 20.0415 4.15416 19.9631 4.21664 19.7968C4.28333 19.6182 4.58972 19.5171 5.06884 19.515C5.60352 19.5129 5.81709 19.4276 5.818 19.2159C5.8189 19.053 5.98771 18.8908 6.19348 18.8556C6.39924 18.8202 6.56775 18.7235 6.56775 18.6408C6.56775 18.5578 6.44189 18.53 6.2881 18.5788C5.85044 18.718 5.62875 18.4068 6.04539 18.2381C6.24995 18.1553 6.78914 18.0418 7.24362 17.9861C7.6978 17.9303 8.06968 17.8123 8.06968 17.724C8.06968 17.6356 7.90086 17.6156 7.6942 17.6793C7.43917 17.7581 7.45089 17.7116 7.73084 17.534C8.20665 17.2325 8.81403 17.1777 8.48631 17.4658C8.36556 17.572 8.56051 17.5265 8.91917 17.3646C9.64039 17.0393 9.77767 16.8858 9.19612 17.0546C8.90685 17.1385 8.90144 17.1186 9.17269 16.9677C9.36614 16.8599 9.45746 16.6586 9.37515 16.5203C9.25379 16.3158 9.28894 16.3192 9.56379 16.5391C9.97682 16.8693 10.5205 16.8985 10.2811 16.5777C10.1859 16.4503 10.2577 16.346 10.4406 16.346C10.6235 16.346 10.7731 16.2071 10.7731 16.0372C10.7731 15.8673 10.8747 15.7392 10.9984 15.7528C11.4649 15.8036 12.2751 15.5326 12.2751 15.3256C12.2751 15.2073 12.4102 15.1105 12.5754 15.1105C12.7407 15.1105 12.8758 15.1828 12.8758 15.271C12.8758 15.3592 13.1717 15.2898 13.5331 15.1167C13.8944 14.9436 14.5703 14.7153 15.035 14.6097C15.4997 14.5039 15.8797 14.3692 15.8797 14.3102C15.8797 14.2512 16.15 14.2135 16.4804 14.2263C16.8109 14.2391 17.0833 14.3216 17.0857 14.4098C17.0884 14.4978 17.2215 14.4657 17.3816 14.3383C17.6321 14.1389 17.6736 14.1432 17.6775 14.3692C17.6799 14.5136 17.4973 14.6873 17.2714 14.7553C16.9974 14.8378 16.9403 14.9817 17.0998 15.1877C17.2317 15.3576 17.3489 15.4098 17.3606 15.3036C17.3906 15.0277 18.1731 15.0653 18.8802 15.3765C19.6237 15.7039 19.651 15.8819 18.9586 15.885C18.5126 15.887 18.5008 15.9094 18.8811 16.0331C19.1629 16.1247 19.4359 16.1238 19.6171 16.0307C20.1085 15.778 20.4218 15.8681 20.1061 16.1714C19.9409 16.33 19.8757 16.4959 19.9613 16.5397C20.0466 16.5837 19.6504 16.7678 19.0806 16.949C18.0545 17.275 17.0812 17.8826 17.0812 18.197C17.0812 18.2868 17.791 18.1495 18.6582 17.892C19.5257 17.6347 20.2016 17.3553 20.1602 17.2712C20.119 17.1871 20.2959 17.1183 20.5534 17.1183C20.8108 17.1183 20.949 17.0577 20.8598 16.9836C20.7708 16.9096 21.2917 16.7325 22.0171 16.5899C22.7426 16.4475 23.4175 16.2222 23.5167 16.0894C23.6623 15.8943 23.7825 15.8846 24.1439 16.0387C24.3896 16.1436 24.5908 16.163 24.5908 16.0818C24.5908 16.0006 24.7786 15.9342 25.0081 15.9342C25.4806 15.9342 27.6659 15.4296 27.8951 15.2676C27.9777 15.2092 28.3156 15.0826 28.646 14.9862C29.1242 14.8467 29.1471 14.8101 28.7578 14.8063C28.4889 14.8038 28.102 14.9051 27.8978 15.0316C27.6935 15.1581 27.416 15.2265 27.2811 15.1836C27.1459 15.1406 26.951 15.1757 26.8476 15.2616C26.5656 15.4965 25.492 15.7616 25.492 15.5965C25.492 15.5181 26.6073 15.1507 27.9702 14.7802C31.0954 13.9307 31.1416 13.9216 30.5985 14.2598C30.1651 14.5298 30.1852 14.5306 31.1242 14.281C32.1182 14.0168 32.4681 13.8121 31.6499 13.9735C30.9277 14.1161 31.1311 13.8827 31.8752 13.7151C32.2467 13.6313 33.0917 13.3883 33.7526 13.175C34.4134 12.9618 35.1097 12.7492 35.2998 12.7028C35.4903 12.6561 35.7189 12.4748 35.8078 12.2997C35.9547 12.0112 36.0136 12.0039 36.4386 12.2223C36.8054 12.4109 36.8408 12.554 36.6011 12.8779C36.3452 13.2243 36.3695 13.2776 36.7507 13.2025C37.0018 13.153 37.207 13.1834 37.207 13.27C37.207 13.3568 37.6125 13.5005 38.1081 13.5893C39.1036 13.7676 39.2082 13.9585 38.5542 14.4029C38.2391 14.6171 38.2073 14.7542 38.4395 14.898C38.6161 15.0075 38.6819 15.1624 38.5861 15.2422C38.3148 15.4677 38.7498 16.3638 39.1703 16.4467C39.377 16.4875 40.1811 16.2037 40.9573 15.8157C41.7335 15.4279 42.4914 15.1105 42.6415 15.1105C43.0465 15.1105 42.972 15.3677 42.4965 15.6121C42.2075 15.7607 42.1663 15.9073 42.3625 16.0877C42.6662 16.3666 42.4703 16.6549 41.9777 16.6549C41.8125 16.6549 41.7809 16.5681 41.9074 16.4619C42.0417 16.3493 41.8299 16.3731 41.3995 16.5189C40.5091 16.8207 40.2529 17.2727 40.972 17.2727C41.297 17.2727 41.4151 17.1904 41.3036 17.041C41.2087 16.9136 41.2571 16.8094 41.4112 16.8094C41.8071 16.8094 42.3364 17.3621 42.0777 17.5058C41.5283 17.8109 43.5851 17.3791 44.2973 17.0398C44.7412 16.8281 45.2876 16.6549 45.5114 16.6549C45.7352 16.6549 45.9181 16.5854 45.9181 16.5005C45.9181 16.4155 46.1209 16.346 46.3687 16.346C46.6165 16.346 46.8193 16.2766 46.8193 16.1916C46.8193 16.1067 47.0221 16.0372 47.2699 16.0372C47.5177 16.0372 47.7205 15.9754 47.7205 15.8999C47.7205 15.8245 48.1936 15.717 48.7718 15.6613C49.4011 15.6006 49.8231 15.4696 49.8231 15.3352C49.8231 15.2117 49.9358 15.1105 50.0734 15.1105C50.2112 15.1105 50.3239 15.3159 50.3239 15.567C50.3239 15.8435 50.1953 15.9905 49.9983 15.9397C49.8195 15.8937 49.9592 15.9836 50.3089 16.1396C50.6588 16.2955 51.0109 16.5661 51.0917 16.7408C51.2181 17.0145 51.1202 17.0492 50.3807 16.9935C49.5723 16.9325 49.1977 17.1512 49.7886 17.339C50.165 17.4585 51.9577 17.1152 51.7705 16.9595C51.572 16.7944 51.9081 16.6906 52.9595 16.5925C53.4224 16.5494 54.1985 16.2852 54.6846 16.0054C55.1703 15.7255 55.6996 15.4966 55.8606 15.4966C56.0216 15.4966 56.2697 15.3996 56.4124 15.281C56.5548 15.1626 56.8744 15.1056 57.1228 15.1545C57.4118 15.2117 57.6313 15.1309 57.7335 14.9298C57.8254 14.7494 58.0351 14.6612 58.2276 14.7224C58.5322 14.8192 62.0194 13.9809 64.4927 13.2164L65.4945 12.9068L65.3939 13.2751C65.3047 13.6007 65.3975 13.6381 66.1941 13.5977C66.6897 13.5727 66.9601 13.6075 66.7949 13.675C66.6297 13.7425 66.4945 13.902 66.4945 14.0294C66.4945 14.1588 66.2536 14.2509 65.9487 14.2379C65.6486 14.2252 65.4684 14.2484 65.5483 14.2893C65.6282 14.3304 65.4293 14.4998 65.1067 14.6657C64.3852 15.0367 64.63 15.3343 65.4675 15.1037C66.1605 14.9131 66.7525 15.0521 66.5281 15.3528C66.4413 15.469 66.502 15.6057 66.6627 15.6568C66.8234 15.7079 66.8865 15.8064 66.803 15.8759C66.7195 15.9453 66.855 16.0891 67.104 16.1953C67.4762 16.3542 68.0508 16.2779 70.3298 15.7675C71.8552 15.4259 73.4328 15.081 73.8356 15.0012C74.2387 14.9213 74.4415 14.8157 74.2862 14.7666C74.1312 14.7173 73.0579 14.9116 71.9014 15.1984C69.6425 15.7582 69.3481 15.8035 69.3481 15.5907C69.3481 15.5148 69.8888 15.3417 70.5497 15.2058C71.2105 15.0697 71.7512 14.9192 71.7512 14.871C71.7512 14.8228 71.6161 14.8263 71.4508 14.8788C71.0243 15.0144 71.0961 14.7743 71.5803 14.4459C71.8492 14.2637 72.0321 14.2308 72.1099 14.3508C72.1913 14.4764 72.3907 14.4507 72.7437 14.2693C73.027 14.1236 73.182 13.9406 73.0879 13.8625C72.9942 13.7845 73.0684 13.7205 73.2531 13.7205C73.4379 13.7205 73.5133 13.6575 73.4208 13.5805C73.3279 13.5035 73.5565 13.479 73.9287 13.5261C74.3006 13.5732 74.5055 13.5562 74.3841 13.4882C74.0357 13.2933 75.6983 12.9082 76.0681 13.0983C76.53 13.3358 77.4904 13.2903 78.1107 13.0016C78.4128 12.8611 78.6601 12.8206 78.6601 12.9117C78.6601 13.0028 78.7421 13.1874 78.8424 13.3218C78.9427 13.4561 78.8914 13.5661 78.7286 13.5661C78.2594 13.5661 75.002 14.3622 75.1531 14.4399C75.2279 14.4785 76.0059 14.3323 76.8815 14.115C77.7574 13.8978 78.5495 13.7792 78.642 13.8513C78.7346 13.9236 79.013 13.9843 79.2608 13.9865C80.1893 13.994 80.6309 14.119 81.2857 14.5595C81.8865 14.9635 81.9105 15.0395 81.511 15.2665C80.9156 15.6047 80.946 15.7152 81.6098 15.6259C81.9105 15.5854 82.3218 15.6548 82.5239 15.78C82.8405 15.9762 83.021 15.9468 83.8285 15.5675C84.3439 15.3253 84.8453 15.1318 84.942 15.1372C85.039 15.1426 85.1859 15.1337 85.2685 15.1173C86.1084 14.9508 86.7458 14.9955 86.8648 15.229C86.9471 15.3905 87.015 15.3283 87.036 15.0719C87.0585 14.7968 87.2366 14.6472 87.5415 14.6472C87.8912 14.6472 87.9591 14.5576 87.8047 14.2997C87.6905 14.1085 87.6986 14.0016 87.8227 14.0618C87.9468 14.1222 88.5283 14.0685 89.1146 13.9425C89.8416 13.7863 90.2789 13.7638 90.4883 13.8714C90.8755 14.0705 91.3714 14.0791 91.1353 13.8828C90.9134 13.698 92.9115 13.4947 93.4059 13.6518C93.6261 13.7218 93.6946 13.7039 93.5781 13.6069C93.3849 13.4461 95.0575 12.9528 95.8273 12.9434C96.0502 12.9408 96.4951 12.8365 96.8156 12.7117C97.1364 12.5871 97.6432 12.485 97.9421 12.485C98.2409 12.485 98.4855 12.4081 98.4855 12.314C98.4855 12.22 98.6882 12.1831 98.936 12.232C99.1838 12.2808 99.3866 12.2461 99.3866 12.1548C99.3866 12.0634 99.5852 12.0278 99.8276 12.0756C100.07 12.1234 100.339 12.1041 100.425 12.0328C100.511 11.9613 101.211 11.8542 101.98 11.7949C102.75 11.7356 103.596 11.6278 103.861 11.5554C104.126 11.4831 104.782 11.3535 105.319 11.2675C106.158 11.1332 106.295 11.1481 106.289 11.3733C106.28 11.7363 105.362 12.2921 104.668 12.3553C104.343 12.3849 103.964 12.6092 103.797 12.8711C103.635 13.1259 103.373 13.3778 103.214 13.431C103.041 13.4892 103.065 13.5712 103.274 13.6377C103.495 13.708 103.519 13.813 103.341 13.9273C102.888 14.2169 103.487 14.7993 104.258 14.8198C104.635 14.83 105.045 14.83 105.169 14.8198C105.293 14.8098 105.394 14.9213 105.394 15.0677C105.394 15.2863 105.478 15.2725 105.862 14.9905C106.359 14.6256 107.058 14.5158 106.818 14.8402C106.739 14.9465 106.793 15.1976 106.939 15.3984C107.128 15.66 107.308 15.7207 107.575 15.6128C107.78 15.5298 108.319 15.4163 108.774 15.3606C109.228 15.3048 109.6 15.1908 109.6 15.1076C109.6 15.0242 109.942 14.9561 110.361 14.9561C110.78 14.9561 111.449 14.8463 111.847 14.7119C112.492 14.4947 113.107 14.3871 113.912 14.3502C114.054 14.3436 114.092 14.2341 113.997 14.1066C113.902 13.9792 113.944 13.875 114.09 13.875C114.236 13.875 114.409 13.9574 114.475 14.0585C114.553 14.1788 114.801 14.1351 115.199 13.9307C116.192 13.42 116.828 13.3673 117.585 13.7329C118.22 14.0395 118.332 14.0467 119.163 13.8334C120.024 13.6126 120.062 13.6178 120.195 13.9749C120.271 14.1788 120.214 14.3836 120.068 14.4299C119.922 14.4762 119.872 14.5715 119.956 14.6416C120.041 14.7119 119.908 14.809 119.661 14.8578C119.078 14.9727 119.08 15.265 119.663 15.265C119.91 15.265 120.109 15.3519 120.103 15.458C120.089 15.7255 119.043 16.346 118.606 16.346C118.405 16.346 118.325 16.4514 118.426 16.5857C118.528 16.7232 118.478 16.7851 118.308 16.7311C118.144 16.6792 118.01 16.7178 118.01 16.8168C118.01 16.9158 117.83 16.9613 117.61 16.9178C117.39 16.8744 117.209 16.9334 117.209 17.0489C117.209 17.1646 117.302 17.2295 117.417 17.1933C117.897 17.0407 119.38 16.7615 119.587 16.7845C119.711 16.7981 120.099 16.6622 120.449 16.4823C120.834 16.2844 121.161 16.2177 121.276 16.3138C121.53 16.5254 123.175 16.3559 123.023 16.1337C122.958 16.0381 122.648 15.9839 122.335 16.0132C121.845 16.0589 121.866 16.0214 122.48 15.7462C122.873 15.57 123.31 15.4623 123.45 15.507C123.59 15.5516 123.97 15.5151 124.294 15.4262C124.712 15.3111 124.943 15.3138 125.089 15.4355C125.233 15.5555 125.38 15.544 125.58 15.3973C125.804 15.2336 125.9 15.2302 126.019 15.3817C126.188 15.5961 127.57 15.2634 128.572 14.7669C128.868 14.6205 129.464 14.4549 129.897 14.399C130.477 14.3241 130.578 14.2629 130.28 14.1658C130.003 14.0757 130.16 14.0313 130.777 14.0248L131.678 14.0155L130.777 13.7971L129.876 13.5788L130.705 13.6668C131.381 13.7386 131.5 13.7089 131.349 13.506C131.247 13.3692 131.302 13.2572 131.471 13.2572C131.64 13.2572 131.846 13.3442 131.93 13.4503C132.051 13.6047 132.086 13.6047 132.105 13.4503C132.118 13.3442 132.365 13.2561 132.654 13.2549C132.983 13.2533 133.054 13.2099 132.845 13.1391C132.661 13.0767 132.415 12.8692 132.299 12.6782C132.129 12.3976 132.236 12.3018 132.859 12.1801C133.284 12.0972 133.63 11.9593 133.63 11.8737C133.63 11.7881 133.156 11.855 132.577 12.0223C131.998 12.1897 131.423 12.3372 131.3 12.3503C130.932 12.3894 129.591 12.8524 129.354 13.022C129.106 13.1998 129.078 13.1724 128.976 12.6654C128.919 12.3818 129.023 12.3213 129.465 12.3807C129.774 12.4223 129.96 12.401 129.879 12.3336C129.663 12.1536 130.374 11.8969 131.338 11.807C131.801 11.7637 132.338 11.6664 132.53 11.5906C133.35 11.2674 135.39 10.9523 135.506 11.1312C135.697 11.4246 137.695 11.0569 137.644 10.7379C137.621 10.5945 137.79 10.4772 138.019 10.4772C138.249 10.4772 138.437 10.5857 138.437 10.718C138.437 10.8604 138.578 10.9139 138.783 10.8488C138.973 10.7884 139.329 10.8712 139.574 11.0328C140.003 11.3162 140.012 11.3163 139.823 11.0365C139.654 10.7855 139.744 10.7583 140.49 10.8351C140.972 10.8847 141.505 10.8457 141.697 10.7469C141.886 10.6496 142.041 10.6292 142.041 10.7016C142.041 10.7741 142.312 10.6731 142.642 10.4772C142.972 10.2814 143.243 10.1996 143.243 10.2953C143.243 10.4186 143.468 10.4255 144.013 10.3189C144.963 10.1333 145.045 10.1327 145.045 10.3106C145.045 10.3887 144.64 10.4986 144.144 10.5545C143.648 10.6104 143.243 10.7137 143.243 10.784C143.243 10.8542 143.534 10.8725 143.89 10.8246C144.334 10.7648 144.471 10.7937 144.323 10.9162C144.045 11.148 144.521 11.148 144.972 10.9162C145.236 10.7809 145.429 10.7841 145.771 10.9298C146.167 11.0989 146.15 11.1611 145.633 11.4465C144.85 11.8785 144.857 12.2275 145.646 12.0989C146.104 12.0241 146.247 12.0711 146.247 12.2966C146.247 12.4592 146.517 12.7525 146.847 12.9483C147.503 13.3371 147.617 13.4836 147.148 13.3344C146.983 13.2819 146.847 13.3126 146.847 13.4025C146.847 13.4924 147.006 13.5661 147.2 13.5661C147.394 13.5661 147.235 13.7398 146.847 13.9522C146.459 14.1646 146.233 14.3469 146.345 14.3576C146.456 14.3683 146.682 14.3942 146.847 14.4155C147.013 14.4368 147.305 14.4628 147.498 14.4734C147.921 14.4968 147.535 14.7244 147.073 14.7244C146.894 14.7244 146.685 14.8209 146.608 14.9389C146.531 15.0572 146.606 15.11 146.774 15.0565C146.942 15.0032 147.15 15.0977 147.236 15.2667C147.393 15.576 148.349 15.7071 148.349 15.4194C148.349 15.3345 148.552 15.265 148.8 15.265C149.048 15.265 149.25 15.2032 149.25 15.1277C149.25 15.0521 149.42 14.9936 149.626 14.9976C150.597 15.0161 151.053 14.9395 151.053 14.7578C151.053 14.6486 151.492 14.4228 152.029 14.2558C153.107 13.9204 154.958 13.6952 154.958 13.8992C154.958 13.9709 154.821 14.0294 154.655 14.0294C154.473 14.0294 154.498 14.1494 154.717 14.3304C154.989 14.5541 155.183 14.5888 155.471 14.466C155.715 14.3618 155.859 14.3576 155.859 14.4549C155.859 14.6466 154.961 15.0452 154.949 14.8591C154.944 14.7851 154.803 14.8446 154.637 14.9913C154.417 15.1851 154.467 15.3621 154.818 15.6373C155.182 15.9235 155.224 16.0908 154.985 16.3195C154.746 16.5491 154.778 16.6684 155.114 16.812C155.475 16.9661 155.559 16.9547 155.559 16.751C155.559 16.6035 155.805 16.5005 156.159 16.5005C156.49 16.5005 156.764 16.4137 156.77 16.3074C156.776 16.1769 156.898 16.1921 157.145 16.3538C157.444 16.5494 157.71 16.5635 158.595 16.431C159.191 16.3419 159.88 16.1823 160.126 16.0767C160.371 15.9711 161.01 15.8395 161.546 15.7845C162.081 15.7294 162.586 15.5944 162.668 15.4844C162.75 15.3745 163.009 15.3223 163.243 15.3684C163.502 15.4194 163.669 15.355 163.669 15.2043C163.669 14.9107 164.154 14.8727 164.371 15.1491C164.462 15.2645 164.532 15.2333 164.546 15.0719C164.563 14.8883 164.816 14.8016 165.338 14.8016C165.76 14.8016 166.672 14.6688 167.365 14.5065C168.058 14.3442 168.706 14.2225 168.804 14.2362C168.903 14.25 169.173 14.1869 169.405 14.0963C169.637 14.0056 170.638 13.7971 171.629 13.633C172.62 13.4688 173.608 13.2129 173.824 13.0642C174.254 12.7682 174.783 12.7043 174.783 12.9483C174.783 13.0333 174.546 13.1097 174.257 13.1182C173.907 13.1284 173.982 13.1747 174.483 13.2572C175.121 13.3622 175.143 13.3848 174.633 13.4072L174.032 13.4334L174.633 13.5661C175.038 13.6555 175.087 13.7031 174.783 13.712C174.384 13.7238 174.383 13.7418 174.782 13.8713C175.167 13.9965 175.146 14.0503 174.631 14.2501C174.301 14.3785 174.201 14.4852 174.408 14.4878C174.614 14.4906 174.783 14.5911 174.783 14.7114C174.783 14.8317 175.19 15.0228 175.688 15.136C176.185 15.2492 176.533 15.4209 176.461 15.5176C176.381 15.6251 176.552 15.6636 176.901 15.6165C177.368 15.5538 177.414 15.4838 177.155 15.2347C176.98 15.067 176.916 14.8892 177.012 14.8399C177.108 14.7905 177.186 14.8313 177.186 14.9303C177.186 15.0294 177.321 15.1105 177.487 15.1105C177.652 15.1105 177.787 15.0087 177.787 14.8843C177.787 14.7599 178.057 14.5837 178.388 14.4927C178.718 14.4018 178.989 14.2669 178.989 14.1928C178.989 14.0342 177.801 14.1625 177.261 14.3795C177.055 14.4626 176.887 14.4699 176.888 14.3958C176.891 14.1971 178.638 13.7205 179.363 13.7205C179.708 13.7205 179.898 13.6731 179.785 13.615C179.672 13.557 180.018 13.4146 180.555 13.2986C181.348 13.127 181.447 13.0584 181.085 12.9307C180.745 12.8107 180.8 12.7967 181.317 12.8714C181.824 12.9448 181.992 12.9048 181.992 12.7105C181.992 12.5441 182.153 12.4836 182.443 12.5409C182.691 12.5897 182.894 12.5673 182.894 12.4909C182.894 12.4109 183.266 12.407 183.775 12.4821C184.478 12.5857 184.624 12.5679 184.494 12.394C184.397 12.2646 184.519 12.1761 184.793 12.1761C185.047 12.1761 185.298 12.0252 185.351 11.8407C185.46 11.4583 186.198 11.2572 186.198 11.6098C186.198 11.7372 186.029 11.872 185.822 11.9092C185.616 11.9465 185.818 11.9783 186.273 11.98C186.727 11.9817 187.099 11.9083 187.099 11.817C187.099 11.7021 187.202 11.704 187.433 11.8229C187.903 12.0644 187.545 12.2896 186.503 12.4072C185.74 12.4933 185.628 12.5693 185.713 12.9434C185.803 13.3449 185.714 13.3879 184.578 13.4878C183.554 13.578 183.446 13.6183 183.945 13.7249C184.808 13.9093 185.666 13.9032 185.439 13.7144C185.314 13.6101 185.52 13.5889 186.026 13.6543C186.661 13.7363 186.771 13.7089 186.62 13.506C186.369 13.1706 186.99 13.188 187.379 13.5275C187.588 13.7096 187.764 13.7425 187.92 13.628C188.046 13.5347 188.353 13.4535 188.601 13.4475C188.849 13.4415 189.356 13.4001 189.727 13.3557C190.099 13.3113 190.403 13.3479 190.403 13.437C190.403 13.5262 190.197 13.5585 189.946 13.5088C189.581 13.437 189.548 13.4764 189.785 13.7037C190.165 14.0686 189.845 14.2384 189.247 13.9894C188.876 13.8353 188.832 13.8368 189.02 13.9976C189.15 14.109 189.079 14.3056 188.859 14.4418C188.505 14.6606 188.6 14.6744 189.765 14.5732L191.066 14.4603L190.867 14.9252C190.751 15.1972 190.8 15.4319 190.986 15.4911C191.161 15.5467 191.304 15.4796 191.304 15.3422C191.304 15.2047 191.439 15.1352 191.605 15.1877C191.77 15.2402 191.905 15.2169 191.905 15.136C191.905 15.0551 192.209 14.9904 192.581 14.9922C193.919 14.9988 194.905 14.8858 194.871 14.7293C194.797 14.3774 194.925 14.1839 195.233 14.1839C195.44 14.1839 195.483 14.3585 195.351 14.6665C195.208 15.0021 195.246 15.117 195.478 15.0435C195.66 14.9854 195.822 14.7856 195.836 14.5995C195.858 14.3174 195.904 14.334 196.117 14.6989C196.423 15.2228 196.212 15.5842 195.664 15.4761C195.446 15.433 194.688 15.5417 193.98 15.7175C193.272 15.8934 192.32 16.0372 191.864 16.0372C191.407 16.0372 190.926 16.1241 190.794 16.2305C190.661 16.3368 190.169 16.5258 189.699 16.6505C189.23 16.7751 188.994 16.9025 189.175 16.9335C189.357 16.9647 189.433 17.0508 189.344 17.1247C189.255 17.1987 188.95 17.2165 188.666 17.1641C188.382 17.1118 188.251 17.1258 188.373 17.1953C188.495 17.2647 188.442 17.4165 188.255 17.5325C188.068 17.6486 188.001 17.7879 188.106 17.8421C188.384 17.9848 189.868 17.6063 189.671 17.4427C189.58 17.3671 189.714 17.2639 189.97 17.2134C190.233 17.1615 190.356 17.1873 190.253 17.2727C190.153 17.3556 190.248 17.3955 190.463 17.361C190.678 17.3266 191.231 17.2559 191.692 17.2038C192.216 17.1447 192.451 17.0432 192.319 16.9331C192.179 16.8169 192.276 16.7902 192.603 16.8548C192.887 16.9107 193.069 16.8817 193.028 16.787C192.989 16.6959 193.491 16.5233 194.144 16.4037C194.796 16.2841 195.433 16.1005 195.559 15.9958C195.685 15.8912 196.03 15.8006 196.325 15.7945C196.996 15.7806 198.514 15.4083 198.514 15.2574C198.514 15.1955 198.345 15.1545 198.138 15.1663C197.731 15.1896 197.612 15.088 197.612 14.7153C197.612 14.5829 197.748 14.5175 197.913 14.57C198.078 14.6225 198.213 14.5896 198.213 14.4971C198.213 14.4044 198.005 14.2875 197.75 14.2373C196.952 14.0798 198.79 13.6811 200.616 13.6157C201.525 13.5831 202.441 13.5471 202.652 13.5355C203.128 13.5096 202.973 13.2235 202.433 13.131C202.195 13.0903 202.119 13.1332 202.244 13.2371C202.373 13.3446 202.223 13.4116 201.853 13.4116C201.523 13.4116 201.175 13.3469 201.08 13.2679C200.875 13.0975 201.313 12.9375 202.644 12.6975C203.44 12.554 203.62 12.5608 203.62 12.7349C203.62 12.8523 203.459 12.9483 203.262 12.9483C203.066 12.9483 203.15 13.0405 203.45 13.1533C203.955 13.3432 203.917 13.3774 202.936 13.6166C202.354 13.7587 201.585 13.875 201.227 13.875C200.349 13.875 199.355 14.1635 199.582 14.3524C199.683 14.4365 200.009 14.4657 200.306 14.4172C200.627 14.3647 200.913 14.4195 201.013 14.5531C201.196 14.7992 201.518 14.7904 202.869 14.5028C203.365 14.3973 204.031 14.2839 204.349 14.251C204.667 14.218 205.024 14.1111 205.142 14.0132C205.26 13.9142 205.524 13.889 205.736 13.9562C205.988 14.0364 206.041 14.0151 205.894 13.8926C205.733 13.7588 205.906 13.7344 206.524 13.8041C207.175 13.8774 207.269 13.8614 206.924 13.7354C206.535 13.5933 206.546 13.5706 206.999 13.5684C207.288 13.5672 207.525 13.492 207.525 13.4013C207.525 13.3066 207.781 13.2782 208.126 13.3344C208.503 13.3959 208.727 13.3622 208.727 13.2436C208.727 13.1219 208.929 13.1492 209.298 13.3207C209.872 13.5879 210.815 13.6049 211.17 13.3545C211.438 13.1647 213.714 13.2039 214.352 13.4093C214.812 13.5574 214.789 13.5673 214.188 13.4824C213.645 13.4056 213.454 13.4552 213.326 13.7066C213.236 13.8842 213.035 14.0294 212.879 14.0294C212.724 14.0294 212.687 14.1045 212.797 14.1964C212.912 14.2926 213.334 14.3207 213.791 14.2626C214.43 14.1815 214.511 14.2001 214.209 14.3582C213.699 14.6245 213.736 14.8016 214.301 14.8016C214.559 14.8016 214.686 14.8711 214.584 14.9561C214.482 15.041 214.601 15.1105 214.849 15.1105C215.097 15.1105 215.391 15.0345 215.503 14.9416C215.614 14.8486 216.028 14.8043 216.422 14.8429C216.815 14.8816 217.137 14.8534 217.137 14.7802C217.137 14.7071 217.273 14.6472 217.438 14.6472C217.603 14.6472 217.738 14.7514 217.738 14.8788C217.738 15.1528 217.651 15.146 218.867 14.9669C219.981 14.8026 220.154 14.9856 219.327 15.4552C218.891 15.7031 218.878 15.7677 219.242 15.8833C219.478 15.9582 219.81 15.963 219.981 15.894C220.152 15.825 220.832 15.6816 221.493 15.5754C222.154 15.469 222.823 15.321 222.98 15.2463C223.356 15.0674 224.347 15.0716 224.347 15.2521C224.347 15.33 224.178 15.4322 223.971 15.4793C223.765 15.5263 223.866 15.5494 224.196 15.5307C224.527 15.5119 224.887 15.433 224.996 15.355C225.105 15.2772 225.612 15.2135 226.122 15.2135C226.633 15.2135 227.05 15.1729 227.05 15.1233C227.05 15.0739 227.895 15.0239 228.927 15.0123C231.442 14.9842 233.058 14.811 233.058 14.5698C233.058 14.4609 233.597 14.2609 234.256 14.1253C234.915 13.9897 235.966 13.6075 236.592 13.2759C237.553 12.7668 237.742 12.556 237.805 11.9225C237.845 11.5098 237.924 10.9812 237.98 10.7475C238.047 10.4664 237.943 10.3228 237.672 10.3228C237.447 10.3228 237.263 10.3965 237.263 10.4864C237.263 10.5762 237.119 10.6042 236.943 10.5483C236.734 10.4817 236.809 10.3318 237.16 10.1145C237.456 9.93175 237.505 9.8692 237.27 9.9753C236.844 10.168 236.092 10.2556 236.452 10.0709C236.556 10.0172 236.512 9.84912 236.354 9.69715C236.196 9.54534 236.167 9.39815 236.289 9.37005C236.412 9.34194 236.797 9.10919 237.145 8.85282C238.382 7.94269 236.86 7.12724 234.267 7.31056C233.437 7.3694 232.757 7.48786 232.757 7.57388C232.757 7.66068 232.991 7.68276 233.283 7.62346C233.572 7.56462 234.282 7.48631 234.86 7.4494C235.843 7.38654 235.823 7.39813 234.56 7.62732C233.816 7.7623 232.82 7.90223 232.346 7.93852C231.61 7.99474 231.539 7.97095 231.858 7.77358C232.337 7.47689 231.951 7.48183 230.317 7.7935C229.594 7.93142 228.769 8.03999 228.483 8.03505C228.197 8.02995 227.885 8.09095 227.789 8.17049C227.557 8.36355 226.75 8.35582 226.75 8.16061C226.75 8.07566 227.02 8.00617 227.35 8.00617C227.681 8.00617 227.951 7.9447 227.951 7.86979C227.951 7.65435 226.835 7.56075 226.475 7.74609C226.296 7.83813 226.149 7.86084 226.149 7.79659C226.149 7.73234 225.87 7.78022 225.529 7.90315C225.188 8.02593 224.647 8.09126 224.327 8.04833C223.917 7.99319 223.746 8.0491 223.746 8.23876C223.746 8.45992 223.667 8.47335 223.295 8.31505C222.922 8.15582 222.844 8.1725 222.84 8.41204C222.837 8.58301 222.745 8.63336 222.615 8.53544C222.494 8.44432 222.149 8.32324 221.85 8.26625C221.55 8.20941 221.383 8.09775 221.479 8.01821C221.574 7.93867 221.414 7.62716 221.122 7.32585C220.673 6.86175 220.431 6.77588 219.54 6.7626C218.962 6.75395 218.061 6.7348 217.538 6.72012C217.015 6.70545 216.609 6.76291 216.637 6.84785C216.664 6.93279 216.312 6.98901 215.854 6.97279C215.32 6.9538 215.094 7.00353 215.223 7.11102C215.356 7.22191 215.155 7.25233 214.629 7.20059C214.191 7.15751 213.833 7.18716 213.833 7.26639C213.833 7.34562 213.529 7.39025 213.157 7.36554C212.785 7.34098 212.287 7.38299 212.049 7.45913C211.767 7.54917 211.573 7.53187 211.494 7.40925C211.407 7.27612 211.261 7.26824 210.994 7.38237C210.579 7.55936 209.353 7.68323 207.129 7.77265C206.04 7.81651 205.552 7.76385 205.154 7.55921C204.349 7.14531 203.701 7.05913 200.782 6.97804C199.304 6.93696 197.848 6.83549 197.546 6.7524C197.053 6.61665 197.044 6.57742 197.458 6.3646C197.946 6.11378 197.86 6.01849 196.194 4.96597C195.506 4.53137 193.434 4.435 190.909 4.72056C189.887 4.83608 188.646 4.96551 188.15 5.00844C187.655 5.05122 186.857 5.15254 186.378 5.23346C185.1 5.44953 184.996 5.4259 184.996 4.91732C184.996 4.66249 185.131 4.45399 185.297 4.45399C185.781 4.45399 185.629 3.78649 185.065 3.44132C184.182 2.90092 183.048 2.73598 181.468 2.91807C180.696 3.00702 179.891 3.1539 179.678 3.24456C179.466 3.33521 179.021 3.3729 178.69 3.32842C178.358 3.28378 178.087 3.31035 178.087 3.38742C178.087 3.46433 177.877 3.52734 177.619 3.52734C177.355 3.52734 177.24 3.60147 177.355 3.69723C177.503 3.82063 177.391 3.82063 176.942 3.69723C176.038 3.44842 175.472 3.48919 176.153 3.75406C176.834 4.01908 176.629 4.05028 175.568 3.84287C175.008 3.73337 174.846 3.7434 174.944 3.88148C175.017 3.98403 174.947 4.17214 174.789 4.29955C174.551 4.49121 174.396 4.4977 173.89 4.33646C173.421 4.18696 173.297 4.18542 173.355 4.32951C173.397 4.43268 173.296 4.52612 173.131 4.53708C172.966 4.54805 172.45 4.63809 171.985 4.73724C170.949 4.95794 170.578 4.96473 170.578 4.76288C170.578 4.67793 170.447 4.60844 170.287 4.60844C170.127 4.60844 170.085 4.73014 170.193 4.87871C170.368 5.11964 170.332 5.12489 169.86 4.9272C169.42 4.74295 169.288 4.74064 169.081 4.9133C168.943 5.02744 168.906 5.23146 168.998 5.36659C169.115 5.54019 169.066 5.56629 168.831 5.45586C168.587 5.34142 168.602 5.14219 168.888 4.71531C169.221 4.21692 169.244 3.83097 169.011 2.65397C168.992 2.5559 168.796 2.51126 168.575 2.55466C168.355 2.59821 168.175 2.57381 168.175 2.50045C168.175 1.90878 161.523 1.8796 159.406 2.462C159.096 2.54756 158.305 2.62849 157.65 2.64192C156.996 2.65536 156.46 2.72856 156.46 2.8044C156.46 2.88038 156.252 2.90154 155.998 2.8515C155.729 2.79837 155.46 2.86154 155.355 3.00239C155.227 3.17459 155.112 3.19205 154.956 3.06293C154.765 2.90355 152.048 3.25336 149.25 3.79761C149.003 3.8458 148.695 3.8736 148.566 3.85924C148.438 3.84503 148.255 3.93785 148.159 4.06557C148.064 4.1933 147.865 4.2594 147.717 4.21229C147.569 4.16534 147.448 4.1831 147.448 4.25183C147.448 4.32056 147.105 4.38697 146.685 4.39948C146.266 4.41183 145.596 4.60303 145.198 4.82419C144.799 5.04535 144.272 5.2262 144.026 5.2262C143.78 5.2262 143.489 5.30049 143.38 5.39115C143.271 5.48196 143.021 5.52443 142.824 5.48551C142.628 5.44675 142.216 5.5093 141.909 5.62451C141.603 5.73973 141.237 5.79749 141.096 5.7527C140.955 5.70791 140.84 5.74498 140.84 5.83486C140.84 5.92475 140.705 5.99842 140.539 5.99842C140.374 5.99842 140.239 5.82621 140.239 5.61586C140.239 5.38235 139.958 5.13864 139.516 4.98991C138.752 4.73245 137.235 4.73508 136.864 4.99454C136.743 5.07948 136.639 5.00999 136.634 4.8401C136.627 4.58388 136.575 4.57075 136.334 4.76288C136.14 4.91732 136.041 4.93014 136.038 4.80149C136.036 4.69539 135.831 4.60844 135.583 4.60844C135.335 4.60844 135.132 4.54511 135.132 4.46758C135.132 4.39021 134.896 4.35021 134.607 4.37863C134.317 4.40704 133.98 4.43562 133.856 4.4421C133.732 4.44874 133.63 4.54666 133.63 4.65986C133.63 4.77323 133.462 4.86651 133.255 4.86728C133.049 4.86805 132.542 4.91809 132.129 4.97832C131.392 5.08566 131.389 5.08288 131.978 4.82728C132.511 4.59639 132.517 4.57801 132.029 4.66481C131.726 4.71871 131.359 4.76288 131.212 4.76288C131.066 4.76288 131.024 4.86713 131.119 4.99454C131.214 5.12196 131.142 5.2262 130.959 5.2262C130.776 5.2262 130.627 5.14342 130.627 5.04226C130.627 4.93107 130.478 4.95423 130.251 5.10064C129.84 5.36613 126.186 6.03734 125.807 5.91687C125.677 5.87579 125.524 5.91455 125.467 6.00305C125.41 6.09154 124.553 6.19564 123.564 6.2344C122.384 6.28058 121.643 6.39024 121.41 6.55317C121.214 6.68985 120.91 6.7558 120.734 6.69974C120.558 6.64383 120.414 6.67163 120.414 6.76152C120.414 6.8514 120.294 6.92507 120.147 6.92507C119.782 6.92507 119.523 5.9595 119.835 5.75872C120.287 5.46822 119.796 4.9828 118.759 4.69585C118.201 4.54141 117.678 4.32503 117.596 4.21492C117.512 4.1031 117.188 4.04936 116.861 4.09337C116.539 4.13661 116.185 4.0963 116.074 4.00379C115.822 3.79483 113.102 3.92256 110.801 4.25152C108.112 4.63593 105.307 5.09493 104.343 5.30852C103.269 5.54605 100.023 6.15286 99.8258 6.15286C99.7495 6.15286 99.687 6.04861 99.687 5.9212C99.687 5.79378 99.8312 5.68953 100.007 5.68953C100.198 5.68953 100.246 5.55609 100.126 5.36134C100.003 5.16257 100.039 5.06991 100.217 5.12644C100.701 5.28026 101.787 4.70141 101.485 4.4506C101.335 4.3255 101.339 4.16132 101.494 4.06511C102.057 3.71607 101.42 3.1922 100.07 2.89474C99.3364 2.73304 98.4638 2.60069 98.1313 2.60069C97.0685 2.60069 94.4164 3.05861 92.2891 3.6095C91.154 3.90356 90.0636 4.14434 89.8665 4.14465C89.6695 4.14495 89.0203 4.29307 88.4244 4.47392L87.3403 4.80272L87.5503 4.37276C87.6926 4.08117 87.625 3.88812 87.3403 3.77352C87.1096 3.68055 86.9143 3.32703 86.9068 2.98787C86.8843 1.97303 85.404 1.79465 81.9643 2.39188C80.7258 2.60686 79.9502 2.75142 79.5612 2.83976C79.4786 2.8586 79.1013 2.92548 78.7228 2.98865C78.3444 3.05166 78.0845 3.18031 78.1458 3.27452C78.3068 3.52302 75.8851 4.28766 75.4676 4.12009C75.2699 4.04071 74.8001 4.04827 74.3411 4.138C73.908 4.22264 73.5535 4.24812 73.5535 4.19453C73.5535 4.14109 73.3147 4.20843 73.0224 4.34434C72.7305 4.48025 72.0859 4.62805 71.5902 4.67299C71.0946 4.71794 69.8387 4.96643 68.799 5.22543C67.7594 5.48428 66.7934 5.65957 66.6522 5.61463C66.511 5.56984 66.3269 5.6205 66.2428 5.72722C66.1232 5.87857 66.0265 5.87486 65.8027 5.71069C65.5606 5.53293 65.4906 5.53293 65.353 5.71069C65.2422 5.8537 65.1827 5.83177 65.1665 5.64181C65.1536 5.48814 65.0274 5.39903 64.8862 5.44397C64.7454 5.48876 64.4789 5.35516 64.2945 5.14713C64.013 4.82929 63.8139 4.78373 63.05 4.86218C62.5177 4.91701 61.9596 4.87871 61.7046 4.76983C61.0852 4.50558 59.6725 4.88041 59.403 5.38065C59.2886 5.59301 59.1816 5.67301 59.1651 5.55841C59.1429 5.40443 58.8443 5.43825 58.0191 5.68876L56.9029 6.0273L56.367 5.68675C56.0159 5.46389 55.8308 5.08597 55.8308 4.59129C55.8308 4.176 55.7002 3.83622 55.5404 3.83622C55.3809 3.83622 54.7645 3.58649 54.1706 3.28131C53.2764 2.82154 52.9529 2.74447 52.2833 2.83235C51.8387 2.89073 51.2052 2.9661 50.8754 2.99976C50.5456 3.03343 50.2299 3.1315 50.174 3.21784C50.1181 3.30417 49.9715 3.34294 49.8487 3.30386C49.6087 3.22757 47.2011 3.56919 46.3098 3.80595C46.0119 3.88518 45.2615 3.997 44.6427 4.05445C43.598 4.15144 43.5226 4.13353 43.5914 3.80456C43.6397 3.57228 43.5232 3.46556 43.2528 3.49506C42.9957 3.52302 42.9053 3.45336 43.0122 3.30988C43.1366 3.14324 43.0432 3.10679 42.6737 3.17799C42.2282 3.26371 42.2159 3.24317 42.5755 3.01567C42.9326 2.79003 42.9185 2.75513 42.4682 2.75513C42.1264 2.75513 42.0089 2.67466 42.1246 2.51976C42.4136 2.13257 41.9717 0.901821 41.5436 0.901821C41.2874 0.901821 41.1946 0.74429 41.2697 0.438494C41.3592 0.0746282 41.2739 -0.0188093 40.8723 0.00296705C40.5911 0.0182568 39.7191 0.0568674 38.9342 0.0886826ZM166.748 2.2396C166.542 2.28253 166.204 2.28253 165.997 2.2396C165.791 2.19682 165.959 2.16176 166.372 2.16176C166.785 2.16176 166.955 2.19682 166.748 2.2396ZM158.506 2.39729C158.723 2.44192 158.982 2.43636 159.082 2.38508C159.181 2.33381 159.004 2.29736 158.688 2.304C158.338 2.31142 158.267 2.34802 158.506 2.39729ZM164.27 3.06401C164.022 3.14633 163.684 3.21367 163.519 3.21367C163.354 3.21367 163.421 3.14633 163.669 3.06401C163.917 2.9817 164.255 2.91436 164.42 2.91436C164.585 2.91436 164.518 2.9817 164.27 3.06401ZM159.764 3.99067C159.516 4.07298 159.043 4.13445 158.713 4.12735C158.218 4.11669 158.244 4.0926 158.863 3.99067C159.925 3.81584 160.29 3.81584 159.764 3.99067ZM50.4239 4.81662C50.4239 4.93122 49.8784 5.1513 49.2113 5.3059C48.3672 5.50173 48.1164 5.62544 48.3852 5.71316C48.5979 5.78251 48.6366 5.84119 48.4714 5.84367C48.3062 5.84614 47.88 5.8883 47.524 5.93741C47.0263 6.00614 46.8875 5.96181 46.9232 5.7459C46.9518 5.57169 47.597 5.3025 48.6216 5.03732C50.554 4.53708 50.4239 4.55299 50.4239 4.81662ZM156.064 5.25524C155.968 5.37833 155.897 5.34173 155.883 5.1618C155.87 4.99902 155.941 4.9079 156.04 4.95917C156.14 5.01045 156.151 5.14373 156.064 5.25524ZM152.555 5.2262C152.555 5.31115 152.411 5.38065 152.237 5.38065C152.062 5.38065 152.002 5.31115 152.104 5.2262C152.206 5.14126 152.349 5.07176 152.422 5.07176C152.495 5.07176 152.555 5.14126 152.555 5.2262ZM151.654 5.38065C151.654 5.46559 151.443 5.53509 151.185 5.53509C150.928 5.53509 150.8 5.46559 150.903 5.38065C151.005 5.2957 151.215 5.2262 151.371 5.2262C151.526 5.2262 151.654 5.2957 151.654 5.38065ZM162.167 5.38065C162.167 5.46559 162.024 5.53509 161.849 5.53509C161.674 5.53509 161.614 5.46559 161.716 5.38065C161.819 5.2957 161.962 5.2262 162.035 5.2262C162.108 5.2262 162.167 5.2957 162.167 5.38065ZM168.032 5.65972C167.94 5.70729 167.698 5.65988 167.494 5.55424C167.199 5.40165 167.234 5.38404 167.662 5.46775C167.958 5.52582 168.125 5.61216 168.032 5.65972ZM150.452 5.6103C150.452 5.67733 148.445 6.15286 148.162 6.15286C147.749 6.15286 148.171 5.80876 148.725 5.69432C149.47 5.54034 150.452 5.49262 150.452 5.6103ZM153.155 5.68953C153.155 5.77448 153.012 5.84397 152.837 5.84397C152.663 5.84397 152.603 5.77448 152.705 5.68953C152.807 5.60459 152.95 5.53509 153.023 5.53509C153.096 5.53509 153.155 5.60459 153.155 5.68953ZM112.754 6.00289C112.258 6.17417 111.616 6.28444 111.327 6.24799C111.037 6.21155 110.867 6.23672 110.948 6.30421C111.029 6.37155 110.86 6.46854 110.573 6.51966C108.765 6.84198 107.313 7.07519 107.104 7.0772C106.516 7.08291 107.289 6.78484 108.1 6.69325C108.592 6.6375 109.097 6.50514 109.222 6.39904C109.437 6.21633 112.233 5.72768 113.204 5.70297C113.452 5.69679 113.249 5.83162 112.754 6.00289ZM147.84 6.40831C147.755 6.52167 147.56 6.57433 147.405 6.52537C147.252 6.47657 146.572 6.58499 145.894 6.76646C145.217 6.94793 144.473 7.05897 144.241 7.01326C143.97 6.95966 143.85 7.01959 143.907 7.18175C143.954 7.32029 143.843 7.46083 143.659 7.49419C143.474 7.52755 143.339 7.406 143.358 7.22268C143.385 6.96631 143.783 6.81557 145.107 6.56043C146.05 6.37881 146.989 6.14359 147.193 6.03795C147.633 5.81031 148.09 6.07208 147.84 6.40831ZM148.453 7.00893C148.355 7.14005 148.211 7.21419 148.132 7.17372C148.053 7.13326 148.078 7.02592 148.187 6.93542C148.483 6.68893 148.656 6.7368 148.453 7.00893ZM108.522 7.17295C108.786 7.22484 108.9 7.34469 108.78 7.44322C108.661 7.54052 108.561 7.71829 108.556 7.83844C108.552 7.9586 107.941 8.15999 107.197 8.28632C106.453 8.4125 105.762 8.58085 105.661 8.66023C105.56 8.73977 105.389 8.79706 105.282 8.7878C105.175 8.77853 104.349 8.94456 103.447 9.15676C102.544 9.36896 101.463 9.58688 101.043 9.64109C100.623 9.69515 100.151 9.85345 99.9928 9.9926C99.7663 10.192 99.7032 10.1982 99.696 10.0216C99.6891 9.84743 99.6068 9.83893 99.3265 9.98303C99.1283 10.085 98.6888 10.1656 98.3503 10.1623C97.8985 10.1579 98.0147 10.0897 98.7858 9.90658C99.3641 9.76912 99.9423 9.66827 100.071 9.68233C100.199 9.69638 100.387 9.59769 100.487 9.46302C100.662 9.22889 101.992 8.8556 102.466 8.90795C102.59 8.92155 102.691 8.86332 102.691 8.77838C102.691 8.69343 102.945 8.62393 103.255 8.62393C103.891 8.62393 104.689 8.21003 104.369 8.04555C104.254 7.9864 104.053 8.02717 103.922 8.13621C103.791 8.24509 103.257 8.34053 102.736 8.34826C102.216 8.35582 101.79 8.43258 101.79 8.51876C101.79 8.60494 101.716 8.63768 101.627 8.59166C101.357 8.45328 102.509 7.39627 102.934 7.39226C103.15 7.3901 103.249 7.45311 103.154 7.53218C103.059 7.61126 103.122 7.7206 103.294 7.77527C103.466 7.82995 103.587 7.81744 103.564 7.74732C103.445 7.39504 103.682 7.29573 104.639 7.29573C105.287 7.29573 105.545 7.34407 105.315 7.42299C104.801 7.5989 106.249 7.47905 107.197 7.26716C107.61 7.17465 107.97 7.09465 107.998 7.08924C108.026 7.08399 108.262 7.12152 108.522 7.17295ZM230.559 8.18964C230.464 8.31273 230.392 8.27613 230.378 8.09621C230.365 7.93342 230.436 7.8423 230.536 7.89358C230.635 7.94485 230.646 8.07814 230.559 8.18964ZM142.642 8.31505C142.642 8.39999 142.507 8.46949 142.342 8.46949C142.176 8.46949 142.041 8.39999 142.041 8.31505C142.041 8.23011 142.176 8.16061 142.342 8.16061C142.507 8.16061 142.642 8.23011 142.642 8.31505ZM146.95 8.4786C146.713 8.60046 142.176 9.54735 141.816 9.54997C141.775 9.55028 141.741 9.48572 141.741 9.40649C141.741 9.32727 142.045 9.21344 142.417 9.15367C142.789 9.09375 143.768 8.88942 144.594 8.69961C146.437 8.27613 146.96 8.18578 147.128 8.26161C147.199 8.29374 147.119 8.3915 146.95 8.4786ZM199.415 8.31505C199.415 8.39999 199.212 8.46949 198.964 8.46949C198.716 8.46949 198.514 8.39999 198.514 8.31505C198.514 8.23011 198.716 8.16061 198.964 8.16061C199.212 8.16061 199.415 8.23011 199.415 8.31505ZM141.741 8.46949C141.741 8.55444 141.606 8.62393 141.44 8.62393C141.275 8.62393 141.14 8.55444 141.14 8.46949C141.14 8.38455 141.275 8.31505 141.44 8.31505C141.606 8.31505 141.741 8.38455 141.741 8.46949ZM17.834 8.93189C17.2326 9.27337 16.7808 9.33391 16.7808 9.07274C16.7808 8.97992 17.0512 8.86749 17.3816 8.82317C17.712 8.77869 17.9824 8.66934 17.9824 8.58023C17.9824 8.49096 18.0716 8.46393 18.1809 8.52C18.29 8.57606 18.1338 8.76139 17.834 8.93189ZM14.6781 9.15537C14.6781 9.1929 14.543 9.26641 14.3778 9.31892C14.2125 9.37144 14.0774 9.3407 14.0774 9.25082C14.0774 9.16093 14.2125 9.08726 14.3778 9.08726C14.543 9.08726 14.6781 9.11784 14.6781 9.15537ZM16.0752 9.63522C15.6099 9.89515 15.4799 9.80063 15.7349 9.38734C15.8872 9.1407 16.0112 9.10116 16.1831 9.24417C16.314 9.35321 16.2657 9.52866 16.0752 9.63522ZM141.44 9.55059C141.44 9.63553 141.297 9.70503 141.122 9.70503C140.948 9.70503 140.888 9.63553 140.99 9.55059C141.092 9.46565 141.235 9.39615 141.308 9.39615C141.381 9.39615 141.44 9.46565 141.44 9.55059ZM140.539 9.70503C140.539 9.78997 140.48 9.85947 140.407 9.85947C140.334 9.85947 140.191 9.78997 140.089 9.70503C139.987 9.62009 140.046 9.55059 140.221 9.55059C140.396 9.55059 140.539 9.62009 140.539 9.70503ZM14.5279 10.0139C13.7013 10.1966 13.4072 10.1966 13.6268 10.0139C13.7289 9.92897 14.1086 9.86442 14.4706 9.87028C15.105 9.88079 15.1071 9.88588 14.5279 10.0139ZM139.504 9.99878C138.961 10.1081 138.972 10.1245 139.654 10.2286C140.355 10.3356 140.361 10.347 139.788 10.4754C139.003 10.6515 138.473 10.664 138.994 10.4942C139.765 10.243 138.795 10.1549 137.777 10.3835C137.231 10.5061 136.987 10.6132 137.235 10.6215C137.635 10.6348 137.635 10.653 137.235 10.7861C136.617 10.9914 136.32 10.9775 136.409 10.7475C136.504 10.5044 138.687 9.89422 139.488 9.88681C140.074 9.88125 140.075 9.88403 139.504 9.99878ZM97.4341 10.6317C97.5362 10.7166 97.4846 10.7861 97.3194 10.7861C97.1542 10.7861 96.9355 10.7166 96.8333 10.6317C96.7312 10.5467 96.7829 10.4772 96.9481 10.4772C97.1133 10.4772 97.332 10.5467 97.4341 10.6317ZM106.997 11.4136C106.766 11.5324 106.63 11.4624 106.521 11.1687C106.381 10.7931 106.409 10.7786 106.845 11.0022C107.185 11.1773 107.229 11.2947 106.997 11.4136ZM187.85 10.9406C187.748 11.0255 187.529 11.095 187.364 11.095C187.199 11.095 187.147 11.0255 187.249 10.9406C187.351 10.8556 187.57 10.7861 187.735 10.7861C187.9 10.7861 187.952 10.8556 187.85 10.9406ZM140.539 11.1722C140.539 11.2996 140.67 11.4039 140.83 11.4039C140.99 11.4039 141.043 11.2996 140.948 11.1722C140.853 11.0448 140.722 10.9406 140.657 10.9406C140.592 10.9406 140.539 11.0448 140.539 11.1722ZM141.652 11.0439C141.546 11.1319 141.654 11.3358 141.891 11.497C142.355 11.8122 142.44 11.6654 142.072 11.1824C141.941 11.0102 141.763 10.9515 141.652 11.0439ZM10.7731 11.4039C10.7731 11.4888 10.6299 11.5583 10.455 11.5583C10.2802 11.5583 10.2204 11.4888 10.3226 11.4039C10.4247 11.319 10.5677 11.2495 10.6407 11.2495C10.7137 11.2495 10.7731 11.319 10.7731 11.4039ZM38.3971 11.4881C38.2007 11.6098 37.9201 11.6712 37.7738 11.6247C37.6272 11.5783 37.5074 11.6444 37.5074 11.7718C37.5074 12.0215 36.9682 12.2594 36.7069 12.125C36.4224 11.9786 37.6041 11.3114 38.1877 11.2888C38.6467 11.2711 38.6867 11.3089 38.3971 11.4881ZM117.71 11.5724C118.08 11.7068 118.087 11.7514 117.751 11.8204C117.405 11.8915 117.405 11.9276 117.751 12.0521C118.097 12.1767 118.097 12.2127 117.751 12.2838C117.433 12.3492 117.424 12.3942 117.715 12.4864C118.171 12.6316 117.84 12.9483 117.232 12.9483C116.988 12.9483 116.099 13.1281 115.256 13.3479C114.028 13.6676 113.672 13.7062 113.468 13.5409C113.278 13.3866 113.212 13.3832 113.209 13.5275C113.206 13.6337 113.002 13.7205 112.754 13.7205C112.506 13.7205 112.303 13.8294 112.303 13.9625C112.303 14.1397 112.485 14.1785 112.979 14.1069C113.508 14.0303 113.557 14.0444 113.204 14.1713C112.956 14.2606 112.504 14.3346 112.199 14.336C111.894 14.3372 111.218 14.4524 110.697 14.592C108.501 15.1803 108.098 15.2367 108.098 14.9561C108.098 14.8711 108.309 14.8016 108.566 14.8016C108.823 14.8016 108.96 14.7397 108.869 14.664C108.693 14.5173 109.956 14.0294 110.512 14.0294C110.695 14.0294 111.047 13.9252 111.295 13.7978C111.543 13.6703 112.02 13.5661 112.357 13.5661C112.724 13.5661 112.91 13.4886 112.823 13.3723C112.744 13.2655 112.855 13.0935 113.071 12.9899C113.383 12.8401 113.491 12.856 113.599 13.068C113.695 13.256 113.746 13.2279 113.77 12.9724C113.792 12.7497 114.036 12.5795 114.406 12.5298C114.736 12.4853 115.007 12.376 115.007 12.2868C115.007 12.1976 115.09 12.1676 115.193 12.2203C115.421 12.3378 116.022 12.039 116.291 11.6742C116.516 11.3687 117.045 11.3307 117.71 11.5724ZM133.931 11.7128C133.931 11.7977 134.142 11.8672 134.399 11.8672C134.657 11.8672 134.784 11.7977 134.682 11.7128C134.58 11.6278 134.369 11.5583 134.214 11.5583C134.058 11.5583 133.931 11.6278 133.931 11.7128ZM140.119 11.8054C140.012 11.9486 139.992 12.1006 140.075 12.1431C140.157 12.1855 140.312 12.1031 140.419 11.9599C140.526 11.8167 140.546 11.6647 140.463 11.6223C140.381 11.5798 140.226 11.6623 140.119 11.8054ZM177.398 11.7772C177.299 11.9343 175.501 12.4614 175.008 12.4776C174.391 12.498 174.897 12.1397 175.684 11.9985C176.18 11.9097 176.585 11.7858 176.585 11.7234C176.585 11.6609 176.792 11.6098 177.044 11.6098C177.297 11.6098 177.456 11.6851 177.398 11.7772ZM184.262 12.1116C183.604 12.3591 183.194 12.3929 183.194 12.1997C183.194 12.0439 184.48 11.7202 184.695 11.8218C184.778 11.8607 184.583 11.9911 184.262 12.1116ZM210.829 12.1761C210.829 12.2611 210.694 12.3306 210.529 12.3306C210.364 12.3306 210.229 12.2611 210.229 12.1761C210.229 12.0912 210.364 12.0217 210.529 12.0217C210.694 12.0217 210.829 12.0912 210.829 12.1761ZM207.921 12.3903C208.035 12.5435 207.895 12.5841 207.427 12.5333C206.778 12.4624 206.778 12.4637 207.375 12.7259C207.909 12.9604 207.914 12.9789 207.425 12.8919C207.123 12.838 206.746 12.7939 206.589 12.7939C206.419 12.7939 206.433 12.6682 206.624 12.485C206.995 12.1285 207.688 12.0779 207.921 12.3903ZM209.327 12.3306C209.327 12.4155 209.192 12.485 209.027 12.485C208.862 12.485 208.727 12.4155 208.727 12.3306C208.727 12.2456 208.862 12.1761 209.027 12.1761C209.192 12.1761 209.327 12.2456 209.327 12.3306ZM116.358 12.6394C116.256 12.7244 116.308 12.7939 116.473 12.7939C116.638 12.7939 116.857 12.7244 116.959 12.6394C117.061 12.5545 117.01 12.485 116.844 12.485C116.679 12.485 116.46 12.5545 116.358 12.6394ZM128.524 12.6394C128.524 12.7244 128.464 12.7939 128.391 12.7939C128.318 12.7939 128.175 12.7244 128.073 12.6394C127.971 12.5545 128.031 12.485 128.206 12.485C128.381 12.485 128.524 12.5545 128.524 12.6394ZM137.836 12.6394C137.565 12.7293 137.528 12.79 137.743 12.7916C137.94 12.7928 138.184 12.7244 138.286 12.6394C138.517 12.4476 138.413 12.4476 137.836 12.6394ZM188 12.6214C188 12.7828 186.467 12.9565 186.092 12.8376C185.95 12.7923 186.017 12.6955 186.241 12.6224C186.776 12.4481 188 12.4473 188 12.6214ZM213.232 12.7167C213.232 12.8441 213.097 12.9483 212.932 12.9483C212.767 12.9483 212.632 12.8441 212.632 12.7167C212.632 12.5892 212.767 12.485 212.932 12.485C213.097 12.485 213.232 12.5892 213.232 12.7167ZM189.802 12.7818C189.802 12.9525 187.733 13.3261 187.488 13.1998C187.393 13.1511 187.639 13.0499 188.033 12.9749C188.428 12.8997 188.954 12.799 189.202 12.7511C189.449 12.7031 189.686 12.6583 189.727 12.6516C189.769 12.645 189.802 12.7035 189.802 12.7818ZM212.121 12.8858C212.016 13.1289 210.229 13.247 210.229 13.0109C210.229 12.8901 210.417 12.8407 210.679 12.8924C210.927 12.9414 211.13 12.9106 211.13 12.824C211.13 12.7375 211.366 12.6847 211.655 12.7065C211.944 12.7282 212.154 12.809 212.121 12.8858ZM114.559 12.9508C114.663 13.0371 114.874 13.0679 115.027 13.0189C115.444 12.8865 115.366 12.7939 114.839 12.7939C114.581 12.7939 114.455 12.8645 114.559 12.9508ZM136.034 13.0384C135.615 13.1579 135.482 13.2515 135.733 13.2499C135.981 13.2486 136.446 13.1454 136.767 13.0206C137.49 12.7395 137.043 12.7503 136.034 13.0384ZM75.0654 13.5241C74.6716 13.752 74.6824 13.7679 75.1651 13.6727C75.4622 13.6141 75.9308 13.565 76.2065 13.5638C76.6397 13.5616 76.6466 13.5411 76.257 13.4116C75.6661 13.2153 75.5853 13.2229 75.0654 13.5241ZM62.0575 13.5049C61.9578 13.5562 61.6986 13.5618 61.482 13.5171C61.2423 13.4679 61.3135 13.4313 61.6634 13.4238C61.98 13.4172 62.1572 13.4537 62.0575 13.5049ZM110.643 13.6194C110.317 13.7335 109.78 13.8646 109.449 13.9106C109.119 13.9567 108.578 14.0379 108.248 14.0912C107.918 14.1445 108.323 14.0177 109.149 13.8093C110.802 13.3925 111.568 13.295 110.643 13.6194ZM9.5716 13.6245C9.5716 13.6564 9.3349 13.7781 9.04593 13.8947C8.56952 14.0867 8.559 14.0813 8.93238 13.8364C9.32499 13.5791 9.5716 13.4974 9.5716 13.6245ZM37.958 13.875C38.0601 13.9599 38.2031 14.0294 38.2761 14.0294C38.3491 14.0294 38.4085 13.9599 38.4085 13.875C38.4085 13.79 38.2652 13.7205 38.0904 13.7205C37.9156 13.7205 37.8558 13.79 37.958 13.875ZM210.829 13.875C210.559 13.9649 210.521 14.0256 210.736 14.0271C210.933 14.0283 211.178 13.9599 211.28 13.875C211.51 13.6832 211.406 13.6832 210.829 13.875ZM89.6271 14.0269C89.5235 14.1133 89.1492 14.1839 88.7953 14.1839C88.3544 14.1839 88.2495 14.2339 88.4613 14.3428C88.6734 14.4518 89.0299 14.4327 89.5953 14.2818C90.0488 14.1608 90.284 14.0186 90.1179 13.9659C89.9518 13.9131 89.731 13.9406 89.6271 14.0269ZM115.834 14.17C114.953 14.3218 114.417 14.504 114.431 14.6472C114.446 14.8053 114.501 14.8177 114.605 14.6858C114.688 14.5797 115 14.4927 115.298 14.4927C116.036 14.4927 117.85 14.0896 117.523 13.9981C117.378 13.9574 116.618 14.0348 115.834 14.17ZM124.619 14.1839C123.249 14.5695 122.706 14.5771 123.868 14.1944C124.364 14.0311 124.972 13.8954 125.22 13.8927C125.467 13.8901 125.197 14.0211 124.619 14.1839ZM151.654 14.0294C151.406 14.1117 151 14.1754 150.752 14.1706C150.455 14.165 150.506 14.117 150.903 14.0294C151.728 13.847 152.203 13.847 151.654 14.0294ZM182.463 14.0455C182.616 14.1734 181.197 14.4927 180.476 14.4927C180.154 14.4927 179.89 14.5544 179.89 14.6296C179.89 14.7048 179.417 14.8819 178.838 15.0229C177.549 15.3375 177.483 15.4782 178.688 15.3422C179.813 15.2152 179.844 15.3385 178.763 15.6399L177.937 15.8704L178.967 15.8765C180.376 15.885 181.992 15.563 181.997 15.2725C182.001 15.0815 182.053 15.075 182.257 15.2406C182.444 15.3924 182.552 15.3428 182.658 15.0554C182.739 14.8396 182.662 14.59 182.488 14.5006C182.268 14.3871 182.281 14.3383 182.533 14.3383C182.731 14.3383 182.894 14.393 182.894 14.4598C182.894 14.5267 183.164 14.5919 183.494 14.6047C184.234 14.6333 184.294 14.3856 183.569 14.296C183.136 14.2422 183.175 14.2012 183.795 14.0612C184.504 13.9009 184.485 13.8932 183.448 13.9218C182.845 13.9386 182.402 13.9942 182.463 14.0455ZM187.343 13.9805C187.56 14.0251 187.819 14.0195 187.919 13.9683C188.018 13.917 187.841 13.8805 187.525 13.8872C187.175 13.8946 187.103 13.9312 187.343 13.9805ZM7.386 14.3352C7.44097 14.7116 6.93302 14.8968 6.48154 14.6646C6.23613 14.5385 6.24785 14.4927 6.5254 14.4927C6.73327 14.4927 6.82729 14.4291 6.73387 14.3514C6.64045 14.2737 6.73387 14.1751 6.94143 14.132C7.149 14.089 7.32382 14.0483 7.32983 14.0416C7.33614 14.035 7.36137 14.167 7.386 14.3352ZM12.835 14.5601C12.2339 14.8475 11.6701 15.1757 11.5818 15.2895C11.4826 15.4175 11.4124 15.3805 11.3976 15.1924C11.3847 15.0251 11.8131 14.6951 12.3502 14.4592C13.7391 13.8487 14.1456 13.9334 12.835 14.5601ZM15.1287 14.1839C15.0266 14.2688 14.7821 14.3372 14.5853 14.336C14.3702 14.3344 14.4075 14.2737 14.6781 14.1839C15.2552 13.992 15.3591 13.992 15.1287 14.1839ZM5.37222 14.5663C5.06523 14.7564 5.06673 14.8016 5.37943 14.8016C5.59241 14.8016 5.69604 14.8381 5.60953 14.8826C5.52302 14.9269 5.22413 14.9184 4.94568 14.8634C4.47137 14.7698 4.47167 14.7449 4.95078 14.4727C5.54885 14.133 5.93364 14.2185 5.37222 14.5663ZM129.644 14.2771C129.544 14.3284 129.285 14.334 129.069 14.2893C128.829 14.2401 128.9 14.2035 129.25 14.1961C129.567 14.1894 129.744 14.2259 129.644 14.2771ZM198.6 14.5168C198.622 14.6691 198.824 14.8297 199.048 14.8741C199.3 14.9238 199.384 15.071 199.268 15.2592C199.094 15.5419 199.152 15.5516 200.073 15.3933C201.671 15.1192 201.671 15.0058 200.071 14.6121C198.695 14.2736 198.563 14.2649 198.6 14.5168ZM122.516 14.6472C122.516 14.7321 122.373 14.8016 122.198 14.8016C122.023 14.8016 121.964 14.7321 122.066 14.6472C122.168 14.5622 122.311 14.4927 122.384 14.4927C122.457 14.4927 122.516 14.5622 122.516 14.6472ZM193.707 14.6472C193.707 14.7321 193.572 14.8016 193.407 14.8016C193.242 14.8016 193.107 14.7321 193.107 14.6472C193.107 14.5622 193.242 14.4927 193.407 14.4927C193.572 14.4927 193.707 14.5622 193.707 14.6472ZM197.312 14.8016C197.312 14.8866 197.177 14.9561 197.012 14.9561C196.846 14.9561 196.711 14.8866 196.711 14.8016C196.711 14.7167 196.846 14.6472 197.012 14.6472C197.177 14.6472 197.312 14.7167 197.312 14.8016ZM43.4135 15.3036C43.3303 15.4098 43.2621 15.3229 43.2621 15.1105C43.2621 14.8982 43.3303 14.8114 43.4135 14.9175C43.497 15.0237 43.497 15.1975 43.4135 15.3036ZM70.5497 14.9561C70.5497 15.041 70.4064 15.1105 70.2316 15.1105C70.0568 15.1105 69.997 15.041 70.0991 14.9561C70.2012 14.8711 70.3442 14.8016 70.4172 14.8016C70.4902 14.8016 70.5497 14.8711 70.5497 14.9561ZM200.466 14.9561C200.364 15.041 200.145 15.1105 199.98 15.1105C199.815 15.1105 199.763 15.041 199.865 14.9561C199.967 14.8711 200.186 14.8016 200.351 14.8016C200.517 14.8016 200.568 14.8711 200.466 14.9561ZM8.22918 15.2572C8.11864 15.3491 7.91708 15.3891 7.78131 15.346C7.64553 15.3029 7.31391 15.4407 7.04416 15.6524C6.51969 16.064 5.96699 16.1616 5.96699 15.8427C5.96699 15.6546 6.84231 15.2897 7.76929 15.0914C8.3223 14.9729 8.49562 15.0355 8.22918 15.2572ZM84.067 15.1105C84.067 15.1955 84.0075 15.265 83.9345 15.265C83.8615 15.265 83.7185 15.1955 83.6164 15.1105C83.5143 15.0256 83.5741 14.9561 83.7489 14.9561C83.9237 14.9561 84.067 15.0256 84.067 15.1105ZM121.315 15.1786C121.315 15.3011 121.18 15.4441 121.014 15.4966C120.849 15.5491 120.714 15.5589 120.714 15.5184C120.714 15.4778 120.632 15.3348 120.532 15.2004C120.412 15.0401 120.515 14.9561 120.832 14.9561C121.098 14.9561 121.315 15.0561 121.315 15.1786ZM2.05267 15.6511C2.05267 15.736 1.92171 15.7013 1.7616 15.5738C1.6015 15.4464 1.47053 15.2727 1.47053 15.1877C1.47053 15.1028 1.6015 15.1375 1.7616 15.265C1.92171 15.3924 2.05267 15.5661 2.05267 15.6511ZM11.0735 15.2478C11.0735 15.3233 10.796 15.5493 10.4568 15.7497L9.84015 16.1144L10.0468 15.7283C10.1604 15.5159 10.404 15.2911 10.5884 15.2287C11.0234 15.0813 11.0735 15.0833 11.0735 15.2478ZM106.343 15.5738C106.343 15.7862 106.411 15.8731 106.494 15.7669C106.578 15.6608 106.578 15.487 106.494 15.3808C106.411 15.2747 106.343 15.3615 106.343 15.5738ZM83.1658 15.5738C83.1658 15.6588 83.0307 15.7283 82.8654 15.7283C82.7002 15.7283 82.5651 15.6588 82.5651 15.5738C82.5651 15.4889 82.7002 15.4194 82.8654 15.4194C83.0307 15.4194 83.1658 15.4889 83.1658 15.5738ZM110.651 15.5738C110.549 15.6588 110.609 15.7283 110.784 15.7283C110.958 15.7283 111.102 15.6588 111.102 15.5738C111.102 15.4889 111.042 15.4194 110.969 15.4194C110.896 15.4194 110.753 15.4889 110.651 15.5738ZM157.361 15.5738C157.361 15.6588 157.218 15.7283 157.043 15.7283C156.868 15.7283 156.808 15.6588 156.91 15.5738C157.012 15.4889 157.155 15.4194 157.228 15.4194C157.301 15.4194 157.361 15.4889 157.361 15.5738ZM8.99636 15.7973C9.14746 15.7493 9.27122 15.8109 9.27122 15.9343C9.27122 16.0577 9.08528 16.1952 8.85819 16.2401C8.57042 16.2968 8.44696 16.1964 8.45117 15.9091C8.45447 15.6823 8.51665 15.5839 8.58934 15.6906C8.66234 15.7973 8.84527 15.8453 8.99636 15.7973ZM43.1132 16.0758C43.0299 16.182 42.9618 16.0951 42.9618 15.8827C42.9618 15.6704 43.0299 15.5836 43.1132 15.6897C43.1967 15.7959 43.1967 15.9697 43.1132 16.0758ZM155.838 16.0849C155.817 16.4111 155.808 16.4121 155.559 16.1144C155.203 15.6894 155.203 15.5382 155.559 15.6511C155.724 15.7036 155.849 15.8988 155.838 16.0849ZM222.544 15.7283C222.274 15.8182 222.236 15.8789 222.451 15.8804C222.648 15.8816 222.893 15.8132 222.995 15.7283C223.225 15.5365 223.121 15.5365 222.544 15.7283ZM65.5032 15.9136C65.0328 16.1555 65.0442 16.346 65.5291 16.346C65.7414 16.346 65.915 16.2071 65.915 16.0372C65.915 15.8673 65.9036 15.7283 65.8895 15.7283C65.8754 15.7283 65.7015 15.8117 65.5032 15.9136ZM177.349 15.8721C177.254 15.9511 177.314 16.0594 177.482 16.1128C177.65 16.1661 177.787 16.1014 177.787 15.9691C177.787 15.6977 177.607 15.6579 177.349 15.8721ZM224.799 15.881C224.694 15.9684 224.815 15.9944 225.082 15.9417C225.602 15.839 225.697 15.7283 225.266 15.7283C225.11 15.7283 224.9 15.797 224.799 15.881ZM5.5912 16.1524C5.67231 16.2776 5.44552 16.3332 4.94027 16.3116C4.15777 16.2784 3.98865 16.1791 4.37525 15.9803C4.68404 15.8217 5.44702 15.9297 5.5912 16.1524ZM158.863 15.9508C158.863 15.9884 158.728 16.0619 158.562 16.1144C158.397 16.1669 158.262 16.1362 158.262 16.0463C158.262 15.9564 158.397 15.8827 158.562 15.8827C158.728 15.8827 158.863 15.9133 158.863 15.9508ZM176.279 16.1179C175.962 16.3145 175.98 16.3372 176.393 16.2559C176.664 16.2023 176.886 16.0965 176.886 16.0206C176.886 15.822 176.712 15.85 176.279 16.1179ZM104.931 16.3564C104.656 16.5854 104.915 16.6806 105.5 16.5652C105.77 16.5118 105.917 16.406 105.825 16.3298C105.601 16.1428 105.173 16.1555 104.931 16.3564ZM106.295 16.3369C106.295 16.4169 106.408 16.5181 106.546 16.5618C106.684 16.6055 106.796 16.5402 106.796 16.4165C106.796 16.2928 106.684 16.1916 106.546 16.1916C106.408 16.1916 106.295 16.2569 106.295 16.3369ZM5.1965 16.6712C4.98683 16.8455 4.16468 16.8531 4.16468 16.6807C4.16468 16.4633 4.50291 16.3632 4.94327 16.4501C5.17397 16.4955 5.28812 16.595 5.1965 16.6712ZM8.17241 16.5507C8.28115 16.4948 8.37006 16.5301 8.37006 16.6291C8.37006 16.7283 8.12224 16.8094 7.81946 16.8094C7.51637 16.8094 7.26855 16.7062 7.26855 16.5802C7.26855 16.422 7.37819 16.3976 7.6218 16.5016C7.81585 16.5845 8.06367 16.6066 8.17241 16.5507ZM42.9143 17.2727C42.9143 17.3576 42.8548 17.4271 42.7818 17.4271C42.7088 17.4271 42.5659 17.3576 42.4637 17.2727C42.3616 17.1878 42.4214 17.1183 42.5962 17.1183C42.771 17.1183 42.9143 17.1878 42.9143 17.2727ZM6.62783 17.6125C6.34757 17.7566 6.18717 17.7566 5.90691 17.6125C5.62665 17.4684 5.70655 17.4271 6.26737 17.4271C6.82819 17.4271 6.90809 17.4684 6.62783 17.6125ZM19.1839 17.4878C19.1839 17.5212 18.9742 17.5899 18.7177 17.6406C18.4504 17.6932 18.3299 17.6673 18.4351 17.5799C18.6114 17.433 19.1839 17.3627 19.1839 17.4878Z" fill="#F2FF46" fill-opacity="0.8"/>
</svg>
