<svg width="16" height="16" viewBox="0 0 16 16" fill="none" xmlns="http://www.w3.org/2000/svg">
<g clip-path="url(#clip0_278_429)">
<path d="M15.8867 1.86667C15.8802 1.53812 15.849 1.21053 15.7933 0.886667C15.7703 0.767944 15.7122 0.658829 15.6267 0.573333C15.5373 0.513826 15.4379 0.470918 15.3333 0.446667C14.8663 0.359784 14.3942 0.301895 13.92 0.273333C12.08 0.12 9.06 0 7.84667 0C7.48667 0 4.75333 0 2.73333 0.0666667C2.13724 0.0871272 1.54287 0.14278 0.953333 0.233333C0.748271 0.25905 0.551995 0.332083 0.38 0.446667C0.308067 0.51661 0.255274 0.603833 0.226667 0.7C0.145568 1.07272 0.0987068 1.45208 0.0866667 1.83333C0 3.38 0 6 0 6.58C0 7.16 0.0866667 9.66 0.173333 11.1733C0.173333 11.66 0.226667 12.04 0.253333 12.22C0.259191 12.3117 0.291622 12.3997 0.346667 12.4733C0.536936 12.6284 0.768955 12.7236 1.01333 12.7467C1.4899 12.7947 1.9701 12.7947 2.44667 12.7467C2.96 12.7 3.4 12.66 3.78 12.66C4.80667 12.66 4.72 12.9067 4.75333 13.0333C4.82934 13.4006 4.82934 13.7794 4.75333 14.1467C4.65732 14.6836 4.42809 15.1879 4.08667 15.6133C4.06003 15.6531 4.04519 15.6996 4.04387 15.7474C4.04256 15.7952 4.05482 15.8425 4.07923 15.8836C4.10364 15.9248 4.13922 15.9582 4.18183 15.98C4.22444 16.0017 4.27234 16.011 4.32 16.0067C4.5808 16.0037 4.84036 15.9701 5.09333 15.9067C5.75926 15.7836 6.37916 15.4817 6.88667 15.0333C7.13485 14.7558 7.35794 14.4569 7.55333 14.14C7.88667 13.6133 8.08667 13.1267 8.27333 12.86C8.33333 12.86 8.49333 12.8133 8.65333 12.8133C9.75333 12.8133 12.3333 12.9267 13.2533 13C13.7394 13.0331 14.2272 13.0331 14.7133 13C14.995 12.9957 15.268 12.9024 15.4933 12.7333C15.7066 12.2669 15.8158 11.7596 15.8133 11.2467C16 9.51334 16 6.57333 16 6C16 5.42667 15.96 3.17333 15.8867 1.86667ZM15.22 10.5733C15.2131 11.0818 15.1752 11.5894 15.1067 12.0933C15.1067 12.1733 15.06 12.2667 15.0533 12.3C15.0005 12.3227 14.9441 12.3362 14.8867 12.34C14.7034 12.3669 14.5186 12.3825 14.3333 12.3867H13.36C12.5533 12.34 10.4867 12.2667 9.22667 12.2733C8.90392 12.2664 8.58107 12.2798 8.26 12.3133C8.15961 12.3201 8.06498 12.3627 7.99333 12.4333C7.78 12.68 7.56667 13.26 7.18 13.8867C7.00049 14.1671 6.79274 14.4285 6.56 14.6667C6.0492 15.1173 5.41546 15.4052 4.74 15.4933C5.02552 14.9873 5.19835 14.4256 5.24667 13.8467C5.4 12.0733 4.35333 12.18 3.82667 12.1733C3.44 12.1733 2.98 12.1733 2.44667 12.2467C2.06943 12.2753 1.69057 12.2753 1.31333 12.2467C1.11009 12.253 0.909136 12.2022 0.733333 12.1L0.6 6.58C0.6 6.10667 0.6 4.47333 0.673333 3.04667C0.673333 2.30667 0.746667 1.62 0.806667 1.19333C0.818911 1.09683 0.836719 1.00112 0.86 0.906667C0.946667 0.906667 1.08667 0.906667 1.2 0.873333C1.95941 0.790327 2.72273 0.748044 3.48667 0.746667C5.36667 0.706667 7.52667 0.746667 7.84 0.746667C8.74667 0.746667 10.68 0.826667 12.36 0.926667C13.32 0.986667 14.1933 1.05333 14.7467 1.12L15.06 1.17333C15.0644 1.25105 15.0644 1.32895 15.06 1.40667C15.1667 2.54 15.2133 5.25333 15.2067 5.99333C15.24 6.5 15.2867 8.83333 15.2267 10.5733H15.22Z" fill="black"/>
<path d="M12.8465 3.86667C12.3799 3.82667 11.0732 3.73334 9.54652 3.67334H8.13319H6.71986C5.33319 3.72001 4.09319 3.82001 3.38652 3.88667C3.33348 3.88667 3.28261 3.90774 3.2451 3.94525C3.20759 3.98276 3.18652 4.03363 3.18652 4.08667C3.18652 4.13972 3.20759 4.19059 3.2451 4.22809C3.28261 4.2656 3.33348 4.28667 3.38652 4.28667C4.05319 4.28667 5.30652 4.36667 6.67986 4.40667H8.08652H9.49986C11.0132 4.40667 12.3199 4.32667 12.7865 4.34001C12.8473 4.34184 12.9064 4.31987 12.9512 4.27878C12.9961 4.23769 13.0231 4.18072 13.0265 4.12001C13.0329 4.06304 13.018 4.00574 12.9848 3.95901C12.9516 3.91229 12.9024 3.87942 12.8465 3.86667Z" fill="black"/>
<path d="M12.667 6.34003H9.45365H8.08031C7.62031 6.34003 7.15365 6.34003 6.70698 6.39336C5.14698 6.48003 3.85365 6.59336 3.52031 6.60003C3.46727 6.60003 3.4164 6.6211 3.37889 6.65861C3.34138 6.69611 3.32031 6.74698 3.32031 6.80003C3.32031 6.85307 3.34138 6.90394 3.37889 6.94145C3.4164 6.97896 3.46727 7.00003 3.52031 7.00003C3.86031 7.00003 5.16698 7.10669 6.74698 7.12003H8.12031C8.58698 7.12003 9.04698 7.08669 9.50031 7.06003C10.767 6.98669 11.947 6.88003 12.707 6.81336C12.7671 6.81336 12.8247 6.78948 12.8673 6.74697C12.9098 6.70446 12.9336 6.64681 12.9336 6.58669C12.9336 6.52658 12.9098 6.46892 12.8673 6.42642C12.8247 6.38391 12.7671 6.36003 12.707 6.36003L12.667 6.34003Z" fill="black"/>
<path d="M8.20007 8.89334C7.92007 8.89334 7.26673 8.82667 6.5134 8.82001H5.80007C5.56007 8.82001 5.3134 8.82001 5.08673 8.87334C4.38007 8.95334 3.7534 9.06667 3.4334 9.09334C3.38036 9.09334 3.32948 9.11441 3.29198 9.15192C3.25447 9.18943 3.2334 9.2403 3.2334 9.29334C3.2334 9.34638 3.25447 9.39726 3.29198 9.43476C3.32948 9.47227 3.38036 9.49334 3.4334 9.49334C4.07515 9.56803 4.72065 9.60587 5.36673 9.60667C5.74673 9.60667 6.14007 9.60667 6.50673 9.53334C7.26673 9.46001 7.92007 9.35334 8.20673 9.33334C8.26685 9.33334 8.3245 9.30946 8.36701 9.26695C8.40952 9.22444 8.4334 9.16679 8.4334 9.10667C8.43256 9.07719 8.4258 9.04818 8.41353 9.02136C8.40125 8.99454 8.38371 8.97047 8.36194 8.95056C8.34017 8.93066 8.31462 8.91534 8.28681 8.90551C8.25901 8.89568 8.22951 8.89154 8.20007 8.89334Z" fill="black"/>
</g>
<defs>
<clipPath id="clip0_278_429">
<rect width="16" height="16" fill="white"/>
</clipPath>
</defs>
</svg>
