<svg width="16" height="17" viewBox="0 0 16 17" fill="none" xmlns="http://www.w3.org/2000/svg">
<g clip-path="url(#clip0_268_507)">
<path d="M4.83347 11.48C5.05245 11.5337 5.28115 11.5337 5.50013 11.48C5.74631 11.4254 5.96427 11.2833 6.11347 11.08C6.20423 10.9413 6.25959 10.7825 6.2747 10.6175C6.28981 10.4524 6.2642 10.2862 6.20013 10.1333C6.10546 9.89663 5.93105 9.70045 5.70706 9.57872C5.48307 9.45699 5.22358 9.41735 4.97347 9.46667C4.7939 9.49319 4.62534 9.56939 4.4868 9.68667C4.35241 9.80211 4.24642 9.94695 4.17705 10.11C4.10768 10.273 4.0768 10.4498 4.0868 10.6267C4.1014 10.8308 4.18222 11.0246 4.31698 11.1786C4.45174 11.3326 4.63309 11.4384 4.83347 11.48ZM4.9268 10.1067C4.98862 10.0257 5.07525 9.96714 5.17347 9.94C5.29186 9.92279 5.41226 9.95308 5.50841 10.0243C5.60457 10.0954 5.66869 10.2017 5.6868 10.32C5.70306 10.3814 5.70364 10.446 5.6885 10.5077C5.67336 10.5694 5.64298 10.6264 5.60013 10.6733C5.53089 10.7253 5.44668 10.7533 5.36013 10.7533C5.25717 10.7782 5.14976 10.7782 5.0468 10.7533C4.98211 10.7408 4.92392 10.7058 4.88246 10.6546C4.841 10.6034 4.81893 10.5392 4.82013 10.4733C4.81577 10.3429 4.85313 10.2144 4.9268 10.1067Z" fill="#1C1B29"/>
<path d="M7.70596 3.83332L8.77263 3.35998C9.27263 3.12665 9.78596 2.90665 10.2926 2.69332C10.6126 2.23998 10.4726 2.02665 9.51929 2.33998C9.17263 2.45332 8.85263 2.57332 8.49263 2.69998C8.13263 2.82665 7.7593 2.98665 7.3993 3.13998C7.0393 3.29332 6.67929 3.45998 6.32596 3.63998L6.07929 3.77998C4.83929 4.60665 4.84596 4.84665 5.5393 4.76665L6.66596 4.27998L7.70596 3.83332Z" fill="#1C1B29"/>
<path d="M14.6663 4.75999C14.5909 4.19991 14.4614 3.64844 14.2797 3.11332C14.1772 2.92724 14.0518 2.75477 13.9063 2.59999C13.7118 2.42515 13.4855 2.28935 13.2397 2.19999L11.373 1.47332C10.9797 1.32666 10.5997 1.16666 10.213 1.06666C9.82634 0.966658 9.43967 0.826658 9.04634 0.719991C8.81301 0.659991 8.57967 0.579991 8.33301 0.539991C8.14726 0.513729 7.95875 0.513729 7.77301 0.539991C7.46329 0.585058 7.1711 0.711596 6.92634 0.906658C6.61012 1.14234 6.32359 1.41544 6.07301 1.71999C5.62634 2.27332 5.20634 2.85332 4.81301 3.45332C4.41967 4.05332 4.04634 4.66666 3.70634 5.28666C3.17967 6.24666 2.57967 7.28666 2.11301 8.35332C1.83967 8.97332 1.33301 10.4333 1.33301 10.4533C1.33301 10.9133 1.23301 11.5267 1.24634 12.1C1.24396 12.4999 1.32811 12.8956 1.49301 13.26C1.65505 13.5585 1.88305 13.8162 2.15967 14.0133C2.53504 14.2741 2.92698 14.5101 3.33301 14.72C4.03902 15.1344 4.76922 15.5062 5.51967 15.8333C6.03163 16.059 6.56559 16.231 7.11301 16.3467C7.48416 16.4346 7.865 16.4749 8.24634 16.4667C8.52755 16.4565 8.80397 16.3908 9.05967 16.2733C9.59795 16.0114 10.0715 15.6334 10.4463 15.1667C10.9369 14.5017 11.3824 13.8046 11.7797 13.08C12.2397 12.3133 12.6597 11.5467 13.033 10.76C13.4091 9.96624 13.7451 9.15411 14.0397 8.32666C14.1797 7.93332 14.3863 7.50666 14.5197 7.08666C14.5856 6.89577 14.6347 6.69946 14.6663 6.49999C14.7424 5.92248 14.7424 5.3375 14.6663 4.75999ZM4.17967 5.55332C4.24634 5.43999 6.17967 2.62666 6.57967 2.13999C6.80088 1.8725 7.05386 1.63296 7.33301 1.42666C7.47965 1.31011 7.6544 1.23423 7.83967 1.20666C7.96285 1.20076 8.08625 1.21198 8.20634 1.23999C8.42634 1.28666 12.933 2.90666 12.933 2.90666C13.0691 2.9584 13.1988 3.0255 13.3197 3.10666C13.3531 3.13075 13.381 3.16161 13.4017 3.19722C13.4223 3.23282 13.4353 3.27238 13.4397 3.31332C13.4683 3.90027 13.3634 4.48607 13.133 5.02666L12.953 5.44666C12.7197 5.98666 12.4797 6.52666 12.2263 7.05999C11.973 7.59332 11.7063 8.11999 11.4197 8.62666C10.993 9.37999 10.5797 10.1333 10.1463 10.88C10.1195 10.9185 10.095 10.9585 10.073 11C9.49063 10.5432 8.87317 10.1331 8.22634 9.77332C7.85967 9.55999 7.48634 9.35999 7.10634 9.17999C6.72634 8.99999 6.37967 8.83999 5.99967 8.67999L3.89967 7.83332C3.596 7.74444 3.28631 7.6776 2.97301 7.63332C3.36634 6.93332 3.79301 6.21999 4.17967 5.55332ZM2.52634 8.53999C2.60634 8.37332 2.69301 8.20666 2.77967 8.03999C3.18019 8.12915 3.56933 8.26334 3.93967 8.43999C4.53301 8.70666 5.09967 9.04666 5.63967 9.33332C6.17967 9.61999 6.66634 9.83332 7.22634 10.08C7.78634 10.3267 8.27967 10.5467 8.78634 10.8133C9.1385 10.9982 9.48116 11.2007 9.81301 11.42C9.62634 11.7267 9.43301 12.0267 9.23301 12.3267C9.04684 12.6382 8.8397 12.9366 8.61301 13.22C8.48898 13.3726 8.32516 13.488 8.13967 13.5533C8.05577 13.5668 7.97025 13.5668 7.88634 13.5533C7.7201 13.5326 7.55534 13.5014 7.39301 13.46C7.08634 13.3933 6.79301 13.32 6.50634 13.2333C6.21677 13.1472 5.9338 13.0403 5.65967 12.9133C5.37967 12.78 5.09967 12.6333 4.82634 12.48C4.55301 12.3267 4.28634 12.1533 4.03301 11.98C3.58634 11.6733 3.01967 11.38 2.53301 11.0267C2.30754 10.838 2.07161 10.6621 1.82634 10.5C1.99188 9.82439 2.22644 9.1676 2.52634 8.53999ZM14.1397 6.39332C14.1005 6.62211 14.0356 6.84574 13.9463 7.05999C13.8063 7.41999 13.6263 7.77332 13.4997 8.10666C13.1797 8.91332 12.833 9.68666 12.4397 10.4467C12.0463 11.2067 11.633 11.94 11.1663 12.6733C10.7653 13.3679 10.32 14.036 9.83301 14.6733C9.53887 15.061 9.16341 15.3796 8.73301 15.6067C8.52478 15.7055 8.29681 15.7556 8.06634 15.7533C7.79544 15.7389 7.52589 15.7055 7.25967 15.6533C6.75584 15.5626 6.2623 15.4219 5.78634 15.2333C5.05408 14.932 4.33959 14.5893 3.64634 14.2067C3.25 14.0272 2.86682 13.8201 2.49967 13.5867C2.28131 13.444 2.09696 13.2551 1.95967 13.0333C1.81744 12.7376 1.74016 12.4148 1.73301 12.0867C1.71288 11.7158 1.71288 11.3442 1.73301 10.9733C1.89145 11.1402 2.06312 11.2941 2.24634 11.4333C2.72634 11.7933 3.29301 12.1 3.73301 12.42C3.99967 12.6067 4.27301 12.7867 4.55301 12.96C4.83967 13.1267 5.12634 13.2867 5.41967 13.4333C5.71294 13.5766 6.01591 13.6991 6.32634 13.8C6.63297 13.9002 6.94448 13.9847 7.25967 14.0533C7.44609 14.1042 7.6353 14.1443 7.82634 14.1733C7.98487 14.1891 8.14492 14.1778 8.29967 14.14C8.59356 14.0486 8.85653 13.8779 9.05967 13.6467C9.30458 13.3477 9.52739 13.0313 9.72634 12.7C10.0663 12.22 10.393 11.7333 10.6863 11.2333C11.1397 10.5 11.5663 9.74666 12.0197 8.99332C12.2597 8.57999 12.493 8.15332 12.6863 7.71999C13.013 7.05332 13.313 6.38666 13.5997 5.75999C13.7802 5.3641 13.9339 4.95651 14.0597 4.53999C14.0597 4.63332 14.0597 4.72666 14.1063 4.82666C14.1871 5.34507 14.1983 5.87195 14.1397 6.39332Z" fill="#1C1B29"/>
<path d="M7.71325 5.83332C7.35325 6.00666 6.99992 6.18666 6.65325 6.37333C5.99992 6.72666 5.33325 7.10666 4.73325 7.50666C4.37992 7.87333 4.37325 8.05999 5.33325 7.73333C5.51325 7.64666 5.68659 7.54666 5.87325 7.45999C6.49325 7.17332 7.12659 6.91999 7.75325 6.65332C8.37992 6.38666 9.01325 6.10666 9.64658 5.83332C10.4533 5.45999 11.2666 5.07999 12.0866 4.72666C12.2733 4.64666 12.4666 4.57999 12.6533 4.50666C13.4533 4.01333 13.1533 3.75999 12.6533 3.93999C12.3933 4.01999 12.1266 4.08666 11.8666 4.17999C11.0266 4.49999 10.1866 4.81999 9.33325 5.16666C8.80658 5.36666 8.25325 5.59332 7.71325 5.83332Z" fill="#1C1B29"/>
</g>
<defs>
<clipPath id="clip0_268_507">
<rect width="16" height="16" fill="white" transform="translate(0 0.5)"/>
</clipPath>
</defs>
</svg>
