<svg width="18" height="19" viewBox="0 0 18 19" fill="none" xmlns="http://www.w3.org/2000/svg">
<g clip-path="url(#clip0_268_405)">
<path fill-rule="evenodd" clip-rule="evenodd" d="M8.82765 2.75C8.82665 2.78411 8.8325 2.81808 8.84487 2.84989C8.85723 2.8817 8.87586 2.9107 8.89964 2.93518C8.92342 2.95966 8.95187 2.97912 8.9833 2.9924C9.01474 3.00568 9.04852 3.01251 9.08265 3.0125C9.15227 3.0125 9.21904 2.98484 9.26827 2.93562C9.3175 2.88639 9.34515 2.81962 9.34515 2.75C9.40907 2.50299 9.45915 2.2526 9.49515 2C9.50259 1.89763 9.50259 1.79487 9.49515 1.6925C9.50662 1.59283 9.50662 1.49217 9.49515 1.3925C9.44265 1.175 9.35265 0.965 9.29265 0.725C9.29071 0.664646 9.26535 0.607418 9.22196 0.565425C9.17857 0.523432 9.12054 0.499969 9.06015 0.5C9.00048 0.5 8.94325 0.523705 8.90105 0.565901C8.85886 0.608097 8.83515 0.665326 8.83515 0.725C8.75897 0.970836 8.69884 1.22136 8.65515 1.475C8.6475 1.57736 8.6475 1.68014 8.65515 1.7825C8.6607 1.88325 8.67323 1.98349 8.69265 2.0825C8.71515 2.2775 8.77515 2.495 8.82765 2.75Z" fill="#1C1B29"/>
<path fill-rule="evenodd" clip-rule="evenodd" d="M9.29265 16.25C9.29071 16.1897 9.26535 16.1324 9.22196 16.0904C9.17857 16.0484 9.12054 16.025 9.06015 16.025C9.03032 16.024 9.0006 16.0291 8.97283 16.04C8.94505 16.0509 8.91983 16.0675 8.89872 16.0886C8.87762 16.1097 8.86108 16.1349 8.85015 16.1627C8.83921 16.1904 8.8341 16.2202 8.83515 16.25C8.75897 16.4958 8.69884 16.7464 8.65515 17C8.6475 17.1024 8.6475 17.2051 8.65515 17.3075C8.6607 17.4083 8.67323 17.5085 8.69265 17.6075C8.69265 17.8325 8.79015 18.05 8.84265 18.305C8.84165 18.3391 8.8475 18.3731 8.85987 18.4049C8.87223 18.4367 8.89086 18.4657 8.91464 18.4902C8.93842 18.5147 8.96687 18.5341 8.9983 18.5474C9.02974 18.5607 9.06353 18.5675 9.09765 18.5675C9.16599 18.5675 9.23165 18.5409 9.28067 18.4933C9.32968 18.4457 9.3582 18.3808 9.36015 18.3125C9.42407 18.0655 9.47415 17.8151 9.51015 17.5625C9.51759 17.4601 9.51759 17.3574 9.51015 17.255C9.52162 17.1553 9.52162 17.0547 9.51015 16.955C9.44265 16.6625 9.35265 16.4525 9.29265 16.25Z" fill="#1C1B29"/>
<path fill-rule="evenodd" clip-rule="evenodd" d="M17.7144 9.5975C17.4824 9.51563 17.2441 9.45292 17.0019 9.41C16.8997 9.39885 16.7966 9.39885 16.6944 9.41C16.5945 9.40298 16.4943 9.40298 16.3944 9.41C16.1694 9.41 15.9444 9.5075 15.6894 9.5525C15.6556 9.55046 15.6218 9.55534 15.5901 9.56686C15.5583 9.57838 15.5292 9.59628 15.5046 9.61947C15.48 9.64266 15.4604 9.67064 15.447 9.70169C15.4337 9.73274 15.4268 9.7662 15.4269 9.8C15.4248 9.86839 15.4495 9.93487 15.4958 9.9853C15.542 10.0357 15.6061 10.0661 15.6744 10.07C15.9369 10.13 16.1619 10.19 16.4244 10.2275C16.5267 10.2349 16.6295 10.2349 16.7319 10.2275C16.8315 10.239 16.9322 10.239 17.0319 10.2275C17.27 10.1774 17.5053 10.1148 17.7369 10.04C17.7671 10.041 17.7971 10.0359 17.8253 10.0251C17.8535 10.0142 17.8792 9.99781 17.9008 9.97681C17.9225 9.95582 17.9398 9.93068 17.9516 9.90288C17.9633 9.87508 17.9694 9.84519 17.9694 9.815C17.9686 9.78339 17.9612 9.75229 17.9476 9.72374C17.934 9.69519 17.9145 9.66982 17.8905 9.6493C17.8664 9.62878 17.8383 9.61356 17.8079 9.60463C17.7776 9.59571 17.7457 9.59328 17.7144 9.5975Z" fill="#1C1B29"/>
<path fill-rule="evenodd" clip-rule="evenodd" d="M1.33471 9.815C1.43708 9.82243 1.53985 9.82243 1.64221 9.815C1.88971 9.77 2.09971 9.6875 2.33971 9.6275C2.39328 9.61776 2.44174 9.58953 2.47662 9.54772C2.51151 9.50592 2.53062 9.4532 2.53062 9.39875C2.53062 9.3443 2.51151 9.29158 2.47662 9.24977C2.44174 9.20797 2.39328 9.17974 2.33971 9.17C2.10665 9.0917 1.86862 9.02906 1.62721 8.9825C1.52502 8.97129 1.42191 8.97129 1.31971 8.9825H1.01971C0.794713 9.02 0.569713 9.08 0.322213 9.125C0.253129 9.12489 0.186632 9.15127 0.136407 9.1987C0.0861826 9.24614 0.0560507 9.31102 0.0522128 9.38C0.050164 9.41374 0.055049 9.44754 0.0665664 9.47932C0.0780838 9.51111 0.0959895 9.54019 0.119179 9.56479C0.142369 9.58938 0.170352 9.60897 0.201401 9.62233C0.232451 9.6357 0.265909 9.64256 0.299713 9.6425C0.562213 9.71 0.787213 9.77 1.04971 9.8075L1.33471 9.815Z" fill="#1C1B29"/>
<path fill-rule="evenodd" clip-rule="evenodd" d="M14.2498 5.17252C14.4823 5.03752 14.6848 4.93252 14.8873 4.79752C14.9705 4.7392 15.0506 4.67662 15.1273 4.61002C15.2007 4.54055 15.2684 4.46531 15.3298 4.38502C15.4873 4.18252 15.5848 3.98002 15.7198 3.77002C15.7615 3.72669 15.7848 3.6689 15.7848 3.60877C15.7848 3.54863 15.7615 3.49084 15.7198 3.44752C15.6994 3.42499 15.6745 3.40699 15.6468 3.39466C15.619 3.38234 15.5889 3.37598 15.5586 3.37598C15.5282 3.37598 15.4981 3.38234 15.4704 3.39466C15.4426 3.40699 15.4177 3.42499 15.3973 3.44752C15.173 3.54913 14.9551 3.66435 14.7448 3.79252C14.664 3.85343 14.5864 3.91852 14.5123 3.98752C14.4409 4.05892 14.3733 4.13403 14.3098 4.21252C14.1673 4.39252 14.0473 4.58752 13.8898 4.79752C13.8422 4.84531 13.8154 4.91004 13.8154 4.97752C13.8154 5.04499 13.8422 5.10972 13.8898 5.15752C13.9366 5.20548 13.9999 5.23375 14.0668 5.23653C14.1338 5.23932 14.1992 5.21642 14.2498 5.17252Z" fill="#1C1B29"/>
<path fill-rule="evenodd" clip-rule="evenodd" d="M3.92245 13.82C3.69745 13.94 3.48745 14.03 3.26995 14.1725C3.18732 14.2311 3.10957 14.2964 3.03745 14.3675C2.96424 14.4372 2.89654 14.5124 2.83495 14.5925C2.69245 14.7725 2.57245 14.9675 2.41495 15.17C2.36856 15.22 2.34277 15.2856 2.34277 15.3538C2.34277 15.4219 2.36856 15.4876 2.41495 15.5375C2.46401 15.5856 2.52999 15.6125 2.5987 15.6125C2.66741 15.6125 2.73338 15.5856 2.78245 15.5375C2.9987 15.4261 3.20898 15.3034 3.41245 15.17C3.50126 15.1134 3.58417 15.0481 3.65995 14.975C3.72577 14.9049 3.78595 14.8296 3.83995 14.75C3.99745 14.54 4.09495 14.3375 4.22994 14.1275C4.25211 14.1073 4.27007 14.083 4.28282 14.0558C4.29557 14.0287 4.30284 13.9993 4.30424 13.9694C4.30563 13.9394 4.30111 13.9095 4.29094 13.8813C4.28076 13.8531 4.26514 13.8272 4.24494 13.805C4.22475 13.7828 4.2004 13.7649 4.17326 13.7521C4.14613 13.7394 4.11675 13.7321 4.0868 13.7307C4.05685 13.7293 4.02693 13.7338 3.99873 13.744C3.97053 13.7542 3.94461 13.7698 3.92245 13.79V13.82Z" fill="#1C1B29"/>
<path fill-rule="evenodd" clip-rule="evenodd" d="M14.7001 15.245C14.6415 15.16 14.5763 15.0797 14.5051 15.005L14.2876 14.8025C14.1076 14.6525 13.9126 14.5325 13.7101 14.375C13.663 14.3311 13.6015 14.306 13.5372 14.3045C13.4728 14.303 13.4102 14.3252 13.3612 14.3669C13.3121 14.4085 13.2801 14.4667 13.2711 14.5304C13.2622 14.5942 13.2769 14.659 13.3126 14.7125C13.4241 14.9312 13.5467 15.1439 13.6801 15.35C13.7315 15.4403 13.7946 15.5235 13.8676 15.5975C13.9325 15.6749 14.0054 15.7453 14.0851 15.8075C14.2876 15.965 14.4901 16.0625 14.6926 16.205C14.7293 16.2491 14.7809 16.2781 14.8377 16.2864C14.8945 16.2947 14.9523 16.2818 15.0001 16.25C15.0216 16.229 15.0388 16.204 15.0505 16.1763C15.0621 16.1486 15.0682 16.1188 15.0682 16.0888C15.0682 16.0587 15.0621 16.0289 15.0505 16.0012C15.0388 15.9735 15.0216 15.9485 15.0001 15.9275C14.9143 15.694 14.8141 15.4661 14.7001 15.245Z" fill="#1C1B29"/>
<path fill-rule="evenodd" clip-rule="evenodd" d="M3.45001 3.72499C3.50832 3.80817 3.57091 3.88828 3.63751 3.96499C3.70236 4.0425 3.77527 4.1129 3.85501 4.17499C4.06158 4.3207 4.277 4.45345 4.50001 4.57249C4.52098 4.59403 4.54605 4.61116 4.57374 4.62285C4.60144 4.63454 4.6312 4.64057 4.66126 4.64057C4.69132 4.64057 4.72108 4.63454 4.74878 4.62285C4.77647 4.61116 4.80155 4.59403 4.82251 4.57249C4.86422 4.52917 4.88752 4.47137 4.88752 4.41124C4.88752 4.3511 4.86422 4.29331 4.82251 4.24999C4.72759 4.03135 4.61991 3.81848 4.50001 3.61249C4.44401 3.52997 4.38129 3.4522 4.31251 3.37999C4.24305 3.30658 4.1678 3.23886 4.08751 3.17749C3.90751 3.02749 3.71251 2.90749 3.51001 2.74999C3.48834 2.72438 3.46184 2.70329 3.43202 2.68792C3.40221 2.67256 3.36965 2.66321 3.33622 2.66043C3.3028 2.65764 3.26914 2.66147 3.23719 2.67169C3.20524 2.68191 3.17562 2.69832 3.15001 2.71999C3.1244 2.74165 3.10331 2.76815 3.08795 2.79797C3.07258 2.82779 3.06324 2.86034 3.06045 2.89377C3.05767 2.9272 3.06149 2.96085 3.07171 2.9928C3.08193 3.02475 3.09834 3.05438 3.12001 3.07999C3.21646 3.30166 3.32667 3.51708 3.45001 3.72499Z" fill="#1C1B29"/>
<path fill-rule="evenodd" clip-rule="evenodd" d="M5.72978 2.165C5.75551 2.26218 5.78809 2.35742 5.82728 2.45C5.87228 2.54 5.91728 2.63 5.96978 2.72C6.02228 2.81 6.23228 3.095 6.36728 3.3125C6.39243 3.37692 6.44199 3.42881 6.50519 3.4569C6.56838 3.48498 6.64011 3.487 6.70478 3.4625C6.76742 3.43734 6.81795 3.389 6.84589 3.32755C6.87382 3.2661 6.877 3.19624 6.85478 3.1325C6.80978 2.87 6.78728 2.6375 6.72728 2.3825C6.70524 2.28273 6.67514 2.18491 6.63728 2.09C6.60147 1.99569 6.55624 1.90523 6.50228 1.82C6.35978 1.6025 6.20228 1.4375 6.05978 1.2425C6.04896 1.21393 6.03261 1.18777 6.01168 1.16552C5.99074 1.14327 5.96562 1.12536 5.93776 1.11282C5.9099 1.10029 5.87984 1.09336 5.8493 1.09245C5.81876 1.09154 5.78834 1.09665 5.75978 1.1075C5.70466 1.13227 5.66092 1.17692 5.63728 1.23254C5.61365 1.28815 5.61186 1.35063 5.63228 1.4075C5.64961 1.66172 5.68217 1.91468 5.72978 2.165Z" fill="#1C1B29"/>
<path fill-rule="evenodd" clip-rule="evenodd" d="M12.4194 16.8125C12.3974 16.7103 12.3673 16.61 12.3294 16.5125C12.2844 16.4225 12.2394 16.325 12.1869 16.2425C12.0519 16.025 11.8944 15.8675 11.7444 15.665C11.7345 15.6367 11.7189 15.6108 11.6985 15.5888C11.6781 15.5669 11.6535 15.5493 11.626 15.5374C11.5985 15.5254 11.5689 15.5192 11.5389 15.5193C11.509 15.5193 11.4793 15.5255 11.4519 15.5375C11.4243 15.5483 11.399 15.5644 11.3777 15.5849C11.3563 15.6055 11.3392 15.6301 11.3273 15.6572C11.3155 15.6844 11.3091 15.7137 11.3086 15.7433C11.3081 15.773 11.3135 15.8024 11.3244 15.83C11.3415 16.0818 11.3741 16.3322 11.4219 16.58C11.4477 16.6796 11.4803 16.7773 11.5194 16.8725C11.561 16.9631 11.6086 17.0507 11.6619 17.135C11.7819 17.3375 11.9169 17.5175 12.0594 17.7275C12.0712 17.759 12.0891 17.7879 12.1121 17.8125C12.1351 17.8371 12.1627 17.8569 12.1933 17.8708C12.224 17.8848 12.2571 17.8925 12.2907 17.8937C12.3243 17.8948 12.3579 17.8893 12.3894 17.8775C12.4209 17.8657 12.4498 17.8478 12.4744 17.8248C12.499 17.8018 12.5188 17.7742 12.5327 17.7436C12.5467 17.7129 12.5544 17.6798 12.5556 17.6462C12.5567 17.6125 12.5512 17.579 12.5394 17.5475C12.5019 17.27 12.4719 17.0375 12.4194 16.8125Z" fill="#1C1B29"/>
<path fill-rule="evenodd" clip-rule="evenodd" d="M15.127 7.19749C15.1507 7.2615 15.1984 7.31374 15.26 7.34315C15.3216 7.37255 15.3923 7.3768 15.457 7.35499C15.7195 7.31749 15.952 7.29499 16.207 7.24249C16.3061 7.21806 16.4038 7.18801 16.4995 7.15249C16.5961 7.11659 16.6891 7.07138 16.777 7.01749C16.9945 6.88249 17.1595 6.72499 17.362 6.58249C17.3903 6.57246 17.4163 6.55688 17.4385 6.53665C17.4606 6.51641 17.4785 6.49195 17.4911 6.46469C17.5037 6.43743 17.5107 6.40794 17.5117 6.37793C17.5127 6.34793 17.5077 6.31803 17.497 6.28999C17.4862 6.26142 17.4698 6.23526 17.4489 6.213C17.4279 6.19075 17.4028 6.17285 17.375 6.16031C17.3471 6.14777 17.317 6.14085 17.2865 6.13994C17.256 6.13902 17.2255 6.14414 17.197 6.15499C16.9495 6.15499 16.717 6.15499 16.447 6.24499C16.3488 6.26733 16.2533 6.30001 16.162 6.34249L15.8845 6.49999C15.682 6.61249 15.502 6.75499 15.2845 6.88999C15.2255 6.9135 15.177 6.95763 15.148 7.01417C15.119 7.07072 15.1116 7.13585 15.127 7.19749Z" fill="#1C1B29"/>
<path fill-rule="evenodd" clip-rule="evenodd" d="M2.99931 11.75C2.98848 11.7214 2.97214 11.6953 2.9512 11.673C2.93026 11.6508 2.90515 11.6329 2.87729 11.6203C2.84942 11.6078 2.81936 11.6009 2.78882 11.6C2.75829 11.599 2.72787 11.6042 2.69931 11.615C2.44788 11.6275 2.19743 11.6551 1.94931 11.6975C1.85212 11.7232 1.75689 11.7558 1.66431 11.795L1.39431 11.93C1.19181 12.05 1.01181 12.185 0.794305 12.32C0.730297 12.3437 0.678049 12.3915 0.648646 12.4531C0.619242 12.5147 0.614995 12.5853 0.636805 12.65C0.647724 12.6823 0.665008 12.7121 0.687634 12.7376C0.71026 12.7631 0.737769 12.7838 0.768535 12.7985C0.799301 12.8132 0.832699 12.8215 0.866754 12.8231C0.90081 12.8246 0.93483 12.8193 0.966805 12.8075C1.22931 12.77 1.46181 12.7475 1.71681 12.695C1.81686 12.6741 1.91477 12.6439 2.00931 12.605C2.09206 12.5767 2.17233 12.5416 2.24931 12.5C2.46681 12.3725 2.6318 12.215 2.83431 12.0725C2.86909 12.0668 2.90206 12.053 2.93054 12.0323C2.95902 12.0115 2.98222 11.9843 2.99828 11.9529C3.01434 11.9216 3.02279 11.8868 3.02297 11.8516C3.02315 11.8163 3.01504 11.7816 2.99931 11.75Z" fill="#1C1B29"/>
<path fill-rule="evenodd" clip-rule="evenodd" d="M11.9471 3.68749C11.9771 3.70297 12.0099 3.71234 12.0435 3.71506C12.0772 3.71778 12.111 3.71379 12.1431 3.70332C12.1752 3.69286 12.2049 3.67612 12.2305 3.65409C12.2561 3.63206 12.277 3.60517 12.2921 3.57499C12.4646 3.36499 12.6146 3.19249 12.7496 2.99749C12.8069 2.91812 12.8595 2.83548 12.9071 2.74999C12.9531 2.6594 12.9883 2.56375 13.0121 2.46499C13.0796 2.21749 13.0946 1.99249 13.1471 1.75249C13.1693 1.72639 13.1854 1.69572 13.1943 1.66268C13.2032 1.62964 13.2047 1.59504 13.1987 1.56134C13.1927 1.52765 13.1794 1.49569 13.1596 1.46776C13.1398 1.43982 13.1142 1.41659 13.0844 1.39973C13.0546 1.38287 13.0214 1.3728 12.9873 1.37023C12.9532 1.36765 12.9189 1.37265 12.8869 1.38485C12.855 1.39705 12.8261 1.41616 12.8023 1.44082C12.7786 1.46548 12.7606 1.49507 12.7496 1.52749C12.5801 1.70459 12.4223 1.89248 12.2771 2.08999C12.2183 2.1748 12.1681 2.26525 12.1271 2.35999C12.1271 2.44999 12.0521 2.54749 12.0221 2.64499C11.9546 2.86249 11.9171 3.08749 11.8496 3.33499C11.8168 3.39488 11.8087 3.4652 11.8269 3.53101C11.8451 3.59682 11.8882 3.65295 11.9471 3.68749Z" fill="#1C1B29"/>
<path fill-rule="evenodd" clip-rule="evenodd" d="M6.17985 15.305C6.12613 15.2792 6.06438 15.2758 6.00813 15.2955C5.95189 15.3152 5.90576 15.3563 5.87985 15.41C5.70788 15.5896 5.54755 15.78 5.39985 15.98C5.3423 16.0656 5.29212 16.1559 5.24985 16.25C5.24985 16.34 5.17485 16.4375 5.14485 16.535C5.07735 16.7525 5.03985 16.9775 4.97235 17.225C4.95317 17.2558 4.94057 17.2902 4.93535 17.3261C4.93013 17.362 4.9324 17.3985 4.94202 17.4335C4.95164 17.4684 4.9684 17.501 4.99124 17.5292C5.01408 17.5574 5.0425 17.5805 5.07472 17.5971C5.10694 17.6137 5.14226 17.6235 5.17845 17.6258C5.21463 17.6281 5.25091 17.6229 5.28498 17.6105C5.31904 17.5981 5.35017 17.5787 5.3764 17.5537C5.40262 17.5287 5.42337 17.4985 5.43735 17.465C5.60235 17.2625 5.75235 17.0825 5.88735 16.8875C5.94531 16.8034 5.99792 16.7157 6.04485 16.625C6.08846 16.5334 6.1236 16.438 6.14985 16.34C6.2105 16.0931 6.25559 15.8426 6.28485 15.59C6.30442 15.5378 6.30459 15.4803 6.28532 15.428C6.26604 15.3757 6.22861 15.332 6.17985 15.305Z" fill="#1C1B29"/>
<path fill-rule="evenodd" clip-rule="evenodd" d="M16.9802 13.25C16.8029 13.0784 16.615 12.9181 16.4177 12.77C16.3373 12.7085 16.249 12.658 16.1552 12.62C16.066 12.5748 15.9731 12.5372 15.8777 12.5075C15.6527 12.44 15.4277 12.395 15.1802 12.3275C15.1205 12.2957 15.0506 12.2888 14.9859 12.3085C14.9212 12.3282 14.867 12.3728 14.8352 12.4325C14.803 12.4933 14.796 12.5643 14.8156 12.6302C14.8352 12.6961 14.88 12.7517 14.9402 12.785C15.1427 12.95 15.3152 13.1075 15.5102 13.2425C15.5943 13.3005 15.6819 13.3531 15.7727 13.4C15.8649 13.4463 15.9601 13.4864 16.0577 13.52C16.3052 13.5875 16.5302 13.6025 16.7702 13.6625C16.825 13.6886 16.8878 13.6922 16.9453 13.6726C17.0028 13.653 17.0503 13.6117 17.0777 13.5575C17.0919 13.531 17.1006 13.5019 17.1034 13.472C17.1062 13.442 17.1029 13.4118 17.0939 13.3831C17.0848 13.3545 17.07 13.3279 17.0505 13.3051C17.031 13.2822 17.0071 13.2635 16.9802 13.25Z" fill="#1C1B29"/>
<path fill-rule="evenodd" clip-rule="evenodd" d="M1.15506 5.75C1.35756 5.915 1.53006 6.0725 1.72506 6.2075C1.80916 6.26546 1.89683 6.31807 1.98756 6.365C2.07052 6.41831 2.15843 6.46352 2.25006 6.5C2.49756 6.5675 2.72256 6.59 3.00006 6.6425C3.05776 6.66173 3.1207 6.65758 3.17539 6.63094C3.23007 6.6043 3.27213 6.55729 3.29256 6.5C3.30677 6.47349 3.31552 6.44441 3.31831 6.41447C3.32109 6.38452 3.31784 6.35432 3.30875 6.32566C3.29966 6.29699 3.28491 6.27044 3.26539 6.24756C3.24586 6.22469 3.22194 6.20597 3.19506 6.1925C3.01667 6.03377 2.82882 5.886 2.63256 5.75C2.55215 5.68849 2.46387 5.63804 2.37006 5.6C2.27884 5.55354 2.18341 5.51587 2.08506 5.4875C1.86756 5.42 1.64256 5.375 1.39506 5.3075C1.33538 5.27567 1.26551 5.26885 1.20081 5.28854C1.13611 5.30824 1.08188 5.35282 1.05006 5.4125C1.02239 5.47173 1.01782 5.53915 1.03724 5.60157C1.05666 5.66399 1.09867 5.71692 1.15506 5.75Z" fill="#1C1B29"/>
<path d="M14.4746 7.93249C14.3756 7.55131 14.2426 7.17981 14.0771 6.82249C13.9135 6.45591 13.7016 6.11287 13.4471 5.80249C13.4233 5.77776 13.3947 5.75809 13.3631 5.74466C13.3316 5.73122 13.2976 5.72429 13.2633 5.72429C13.229 5.72429 13.195 5.73122 13.1635 5.74466C13.1319 5.75809 13.1033 5.77776 13.0796 5.80249C13.0337 5.85119 13.0081 5.91558 13.0081 5.98249C13.0081 6.0494 13.0337 6.11378 13.0796 6.16249C13.2962 6.44297 13.4752 6.75058 13.6121 7.07749C13.7541 7.40699 13.867 7.74829 13.9496 8.09749C14.1868 9.03894 14.1419 10.0294 13.8205 10.9455C13.4991 11.8616 12.9154 12.6631 12.1421 13.25C11.839 13.482 11.5152 13.6854 11.1746 13.8575C10.3731 14.27 9.47314 14.4526 8.57431 14.3851C7.67547 14.3176 6.81287 14.0026 6.08205 13.475C5.68759 13.1989 5.35753 12.8407 5.11455 12.425C4.37798 11.262 4.10995 9.86288 4.36455 8.50999C4.51061 7.82699 4.79147 7.18001 5.1907 6.60692C5.58993 6.03384 6.09949 5.54617 6.68955 5.17249C7.56798 4.64267 8.59324 4.4087 9.61455 4.50499C10.6516 4.61585 11.6431 4.99022 12.4946 5.59249C12.545 5.62607 12.6063 5.63933 12.6661 5.62959C12.7259 5.61985 12.7799 5.58784 12.8171 5.53999C12.8337 5.51499 12.8451 5.48692 12.8507 5.45742C12.8563 5.42793 12.856 5.39761 12.8497 5.36826C12.8434 5.3389 12.8313 5.31111 12.8141 5.2865C12.7969 5.26189 12.775 5.24098 12.7496 5.22499C11.8446 4.54573 10.7808 4.10938 9.65955 3.95749C8.51308 3.8031 7.34743 4.02412 6.33705 4.58749C5.64314 4.99113 5.03862 5.53174 4.56027 6.17642C4.08191 6.8211 3.73973 7.55637 3.55455 8.33749C3.27865 9.3763 3.31461 10.4733 3.65795 11.4918C4.00129 12.5104 4.63683 13.4053 5.48533 14.065C6.33383 14.7248 7.35776 15.1202 8.42947 15.202C9.50118 15.2838 10.5733 15.0484 11.5121 14.525C12.7036 13.9515 13.6544 12.9756 14.1964 11.7694C14.7384 10.5632 14.837 9.20426 14.4746 7.93249Z" fill="#1C1B29"/>
<path d="M6.27659 12.395C6.37409 12.14 6.41159 12.08 6.50909 11.8475C6.64861 11.5007 6.84366 11.179 7.08659 10.895C7.32383 10.6387 7.59966 10.4211 7.90409 10.25C8.59202 10.5534 9.36505 10.6039 10.0866 10.3925C10.323 10.3198 10.5477 10.2137 10.7541 10.0775C10.9941 10.3127 11.1853 10.5931 11.3166 10.9025L11.4666 11.255L11.6916 11.7875C11.8266 12.1025 11.8491 12.2225 11.9541 12.44C11.9825 12.5067 12.0294 12.5639 12.0891 12.605C12.2466 12.695 12.5016 12.6575 12.6141 12.335C12.6567 12.1473 12.641 11.951 12.5691 11.7725C12.5309 11.5739 12.4705 11.3802 12.3891 11.195C12.3153 11.0022 12.2197 10.8185 12.1041 10.6475C11.8514 10.2788 11.5146 9.97544 11.1216 9.76248C11.5046 9.35784 11.7146 8.81962 11.7066 8.26248C11.7315 7.86311 11.6884 7.46241 11.5791 7.07748C11.4831 6.81557 11.3351 6.57577 11.1441 6.37248C11.121 6.34797 11.0931 6.32843 11.0621 6.31509C11.0312 6.30174 10.9978 6.29485 10.9641 6.29485C10.9304 6.29485 10.897 6.30174 10.8661 6.31509C10.8351 6.32843 10.8072 6.34797 10.7841 6.37248C10.7579 6.39358 10.7361 6.41966 10.72 6.44921C10.704 6.47877 10.6939 6.51121 10.6904 6.54467C10.6869 6.57814 10.6901 6.61196 10.6997 6.64419C10.7094 6.67643 10.7253 6.70643 10.7466 6.73248C10.9147 6.93188 11.026 7.17278 11.0691 7.42998C11.1067 7.70872 11.1067 7.99124 11.0691 8.26998C11.0524 8.60276 10.9254 8.92051 10.7081 9.1731C10.4908 9.4257 10.1956 9.59876 9.86909 9.66498C9.5354 9.75019 9.18732 9.76282 8.84833 9.70201C8.50935 9.6412 8.18735 9.50837 7.90409 9.31248C7.72822 9.17845 7.59952 8.99196 7.53659 8.77998C7.45044 8.53996 7.42218 8.28299 7.45409 8.02998C7.48649 7.66162 7.60743 7.30654 7.80659 6.99498C8.01396 6.69609 8.31469 6.4745 8.66159 6.36498C8.9414 6.27791 9.23132 6.22749 9.52409 6.21498C9.81289 6.20094 10.1015 6.24691 10.3716 6.34998C10.3986 6.3625 10.4279 6.36953 10.4577 6.37064C10.4875 6.37176 10.5172 6.36694 10.5451 6.35647C10.573 6.34601 10.5986 6.3301 10.6203 6.30967C10.642 6.28924 10.6594 6.2647 10.6716 6.23748C10.685 6.21014 10.6926 6.18029 10.6937 6.14985C10.6949 6.11941 10.6896 6.08907 10.6783 6.06079C10.667 6.0325 10.6499 6.00691 10.6281 5.98567C10.6062 5.96443 10.5802 5.94801 10.5516 5.93748C10.2328 5.78409 9.88523 5.69975 9.53159 5.68998C9.18797 5.66198 8.84212 5.68217 8.50409 5.74998C8.00671 5.84914 7.55742 6.11343 7.22909 6.49998C6.92504 6.89528 6.7217 7.35859 6.63659 7.84998C6.58518 8.22614 6.62373 8.60912 6.74909 8.96748C6.8533 9.30965 7.05066 9.61608 7.31909 9.85248C6.91752 10.0249 6.55709 10.2805 6.26159 10.6025C6.0348 10.8609 5.86146 11.1617 5.75159 11.4875C5.66149 11.7425 5.62076 12.0123 5.63159 12.2825V12.4475C5.63159 12.5075 5.99909 13.16 6.27659 12.395Z" fill="#1C1B29"/>
</g>
<defs>
<clipPath id="clip0_268_405">
<rect width="18" height="18" fill="white" transform="translate(0 0.5)"/>
</clipPath>
</defs>
</svg>
