<svg width="25" height="25" viewBox="0 0 25 25" fill="none" xmlns="http://www.w3.org/2000/svg">
<path d="M17.6492 19.2245C18.5694 18.3572 19.2336 17.2537 19.5692 16.0345C19.7491 15.5102 19.7837 14.9469 19.6692 14.4045C19.641 14.3213 19.5951 14.2451 19.5347 14.1812C19.4743 14.1174 19.4008 14.0673 19.3192 14.0345C19.2692 14.0345 17.4792 13.9445 15.1992 13.9745C13.9592 13.9745 12.5692 14.0245 11.2592 14.0845C9.57923 14.1645 8.02923 14.2845 7.04923 14.3845C6.62002 14.4117 6.19632 14.4958 5.78923 14.6345C5.62694 14.7592 5.51939 14.9421 5.48923 15.1445C5.44107 15.5803 5.49235 16.0214 5.63923 16.4345C5.9557 17.5327 6.52801 18.5403 7.30923 19.3745C7.34561 19.4055 7.39147 19.4231 7.43923 19.4245C7.43923 19.4245 7.43923 19.4945 7.43923 19.5245C7.404 20.8177 7.86156 22.076 8.71923 23.0445C9.15536 23.5387 9.69058 23.9357 10.2901 24.2096C10.8897 24.4836 11.5401 24.6283 12.1992 24.6345C13.5191 24.4728 14.7544 23.8989 15.7292 22.9945C16.2608 22.5622 16.6885 22.0161 16.981 21.3965C17.2735 20.777 17.4232 20.0996 17.4192 19.4145C17.4239 19.3847 17.4239 19.3543 17.4192 19.3245C17.5056 19.3207 17.5875 19.2851 17.6492 19.2245ZM14.9692 22.1545C14.2113 22.9254 13.2331 23.4424 12.1692 23.6345C11.6416 23.675 11.1118 23.5931 10.6209 23.3954C10.1301 23.1977 9.69148 22.8894 9.33923 22.4945C8.7142 21.5866 8.26634 20.5687 8.01923 19.4945C8.04226 19.2742 8.1253 19.0645 8.25931 18.8882C8.39333 18.7118 8.57316 18.5757 8.77923 18.4945C9.19499 18.2579 9.66129 18.1242 10.1392 18.1045C10.396 18.1254 10.6468 18.1932 10.8792 18.3045C11.2461 18.4635 11.6034 18.6438 11.9492 18.8445C12.061 18.9124 12.1885 18.9503 12.3192 18.9545C12.4692 18.9545 13.1292 18.5545 13.8792 18.3345C14.1501 18.2471 14.4354 18.2132 14.7192 18.2345C15.0836 18.2968 15.4271 18.4479 15.7192 18.6745C15.855 18.7582 15.9709 18.8704 16.059 19.0034C16.147 19.1363 16.2051 19.2869 16.2292 19.4445C16.2351 19.9617 16.125 20.4736 15.9069 20.9426C15.6889 21.4115 15.3684 21.8257 14.9692 22.1545ZM16.7092 18.0445C16.1852 17.5728 15.5217 17.2849 14.8192 17.2245C14.394 17.2033 13.9689 17.2679 13.5692 17.4145C13.1502 17.5771 12.7454 17.7745 12.3592 18.0045H12.2792C11.9192 17.8224 11.5485 17.6621 11.1692 17.5245C10.8271 17.3966 10.4645 17.3322 10.0992 17.3345C9.37158 17.4047 8.67842 17.6785 8.09923 18.1245C7.88282 18.2924 7.69968 18.4993 7.55923 18.7345C7.24357 18.3335 6.98138 17.8931 6.77923 17.4245C6.52847 16.8685 6.36003 16.279 6.27923 15.6745C6.28683 15.5593 6.30695 15.4453 6.33923 15.3345C6.82923 15.2845 7.85923 15.2745 9.12923 15.2445L13.8492 15.1045C15.8492 15.0345 17.6892 14.9345 18.5592 14.9045H18.7192C18.752 15.0149 18.7688 15.1294 18.7692 15.2445C18.6871 15.9021 18.4944 16.5411 18.1992 17.1345C17.9331 17.6967 17.5748 18.2105 17.1392 18.6545C17.0292 18.4297 16.884 18.2237 16.7092 18.0445Z" fill="black"/>
<path d="M1.65954 13.6345C1.49034 12.2732 1.558 10.8928 1.85954 9.55452C2.14072 8.22291 2.69955 6.96556 3.49954 5.86452C4.34139 4.70407 5.38867 3.70763 6.58954 2.92452C7.79396 2.13893 9.16224 1.63951 10.5895 1.46452C11.2895 1.38452 11.9895 1.31452 12.6995 1.30452C13.1608 1.30155 13.6217 1.32828 14.0795 1.38452C14.1528 1.38798 14.2249 1.36445 14.282 1.31838C14.3391 1.27231 14.3774 1.2069 14.3895 1.13452C14.3966 1.09564 14.3957 1.05573 14.3869 1.01722C14.378 0.978705 14.3613 0.942415 14.3379 0.910575C14.3145 0.878735 14.2848 0.852016 14.2507 0.832059C14.2166 0.812102 14.1788 0.799328 14.1395 0.794521C13.6539 0.706577 13.1627 0.65311 12.6695 0.634521C11.9395 0.634521 11.2195 0.634521 10.4895 0.704521C8.92769 0.807902 7.41275 1.28089 6.06954 2.08452C4.73737 2.891 3.56736 3.93893 2.61954 5.17452C1.70535 6.38764 1.07024 7.78762 0.759537 9.27452C0.452867 10.7422 0.415595 12.2535 0.649537 13.7345C1.07269 16.6974 2.55824 19.4055 4.82954 21.3545C4.89327 21.418 4.97957 21.4537 5.06954 21.4537C5.15951 21.4537 5.24581 21.418 5.30954 21.3545C5.37304 21.2908 5.40871 21.2045 5.40871 21.1145C5.40871 21.0246 5.37304 20.9382 5.30954 20.8745C3.25794 18.9816 1.96132 16.4096 1.65954 13.6345Z" fill="black"/>
<path d="M24.3999 10.4245C24.2849 9.4024 24.0568 8.39625 23.7199 7.42448C23.0238 5.631 21.8304 4.07337 20.2799 2.93448C18.752 1.82327 16.9586 1.13352 15.0799 0.934483C14.9916 0.925638 14.9032 0.950668 14.8327 1.00451C14.7621 1.05835 14.7146 1.13698 14.6999 1.22448C14.6943 1.26918 14.6977 1.31454 14.7098 1.35793C14.7219 1.40132 14.7425 1.44187 14.7704 1.47722C14.7983 1.51258 14.833 1.54204 14.8724 1.56388C14.9118 1.58573 14.9551 1.59953 14.9999 1.60448C16.731 1.88191 18.3587 2.60956 19.7199 3.71448C21.0745 4.78604 22.0945 6.22246 22.6599 7.85448C22.9593 8.74317 23.1605 9.66198 23.2599 10.5945C23.3791 11.5295 23.4092 12.4738 23.3499 13.4145C23.2924 14.3519 23.1074 15.2771 22.7999 16.1645C22.5042 17.0661 22.1013 17.9289 21.5999 18.7345C20.9762 19.7347 20.1605 20.6014 19.1999 21.2845C19.1668 21.3066 19.1385 21.3351 19.1165 21.3683C19.0945 21.4014 19.0794 21.4386 19.0719 21.4777C19.0645 21.5168 19.0649 21.557 19.0731 21.5959C19.0814 21.6349 19.0972 21.6718 19.1199 21.7045C19.1662 21.7692 19.2357 21.8136 19.3139 21.8285C19.3921 21.8434 19.473 21.8276 19.5399 21.7845C20.0645 21.4432 20.5596 21.0585 21.0199 20.6345C21.4806 20.1975 21.8961 19.715 22.2599 19.1945C22.8444 18.3597 23.331 17.4605 23.7099 16.5145C24.0898 15.5521 24.3387 14.5431 24.4499 13.5145C24.5361 12.4854 24.5193 11.4503 24.3999 10.4245Z" fill="black"/>
<path d="M8.49999 7.23451C8.35508 7.16698 8.19521 7.13794 8.03581 7.1502C7.87641 7.16246 7.72286 7.21561 7.58999 7.30451C7.05999 7.63451 6.69999 8.50451 7.33999 8.93451C7.47078 9.01024 7.61542 9.05896 7.76537 9.0778C7.91532 9.09664 8.06752 9.08521 8.21298 9.04418C8.35843 9.00316 8.49417 8.93337 8.61218 8.83896C8.73018 8.74454 8.82805 8.62742 8.89999 8.49451C8.99805 8.27178 9.01153 8.02094 8.93789 7.78898C8.86425 7.55703 8.70856 7.35989 8.49999 7.23451Z" fill="black"/>
<path d="M8.94958 5.06455C8.60369 4.95697 8.24117 4.91293 7.87958 4.93455C7.53662 4.96709 7.19996 5.04788 6.87958 5.17455C6.13678 5.45712 5.50297 5.96838 5.06958 6.63455C4.66711 7.28761 4.43025 8.0291 4.37958 8.79455C4.34634 9.27913 4.41095 9.76546 4.56958 10.2245C4.74592 10.7123 5.07129 11.1321 5.49958 11.4245C5.71934 11.5653 5.95855 11.6732 6.20958 11.7445C7.30399 12.0243 8.46001 11.9364 9.49958 11.4945C10.24 11.1776 10.8428 10.6066 11.1996 9.88455C11.5827 9.07131 11.6504 8.14484 11.3896 7.28455C11.2515 6.71292 10.9452 6.19583 10.5103 5.80009C10.0753 5.40434 9.53167 5.14812 8.94958 5.06455ZM10.3596 9.43455C10.0692 9.93441 9.61272 10.3166 9.06958 10.5145C8.50832 10.7254 7.90682 10.8075 7.30958 10.7545C7.08962 10.7351 6.87198 10.695 6.65958 10.6345C6.47935 10.5977 6.30682 10.53 6.14958 10.4345C5.9116 10.2699 5.73005 10.036 5.62958 9.76455C5.50913 9.44548 5.4547 9.10527 5.46958 8.76455C5.46642 8.16664 5.60703 7.57673 5.87958 7.04455C6.16948 6.5235 6.61295 6.10447 7.14958 5.84455C7.40106 5.72593 7.67227 5.65474 7.94958 5.63455C8.22018 5.57987 8.49899 5.57987 8.76958 5.63455C8.86258 5.65395 8.9509 5.69131 9.02958 5.74455C9.77958 6.27455 10.2896 6.02455 10.6096 7.42455C10.784 8.10202 10.6946 8.82044 10.3596 9.43455Z" fill="black"/>
<path d="M13.8496 9.7745C13.8883 9.78174 13.9281 9.78127 13.9667 9.77312C14.0052 9.76497 14.0418 9.74931 14.0743 9.72702C14.1068 9.70473 14.1346 9.67626 14.1561 9.64322C14.1776 9.61019 14.1924 9.57325 14.1996 9.5345C14.3756 8.93225 14.6868 8.37817 15.1096 7.9145C15.2846 7.72059 15.4994 7.56664 15.7392 7.46311C15.9791 7.35958 16.2384 7.3089 16.4996 7.3145C16.8107 7.29414 17.1225 7.34074 17.414 7.45114C17.7056 7.56154 17.97 7.73319 18.1896 7.9545C18.666 8.43828 18.9744 9.06224 19.0696 9.7345C19.0721 9.77918 19.0835 9.82291 19.103 9.86319C19.1224 9.90347 19.1497 9.93951 19.1831 9.96924C19.2166 9.99897 19.2556 10.0218 19.2979 10.0364C19.3402 10.0511 19.3849 10.0572 19.4296 10.0545C19.518 10.0493 19.6009 10.0099 19.6607 9.9445C19.7204 9.87914 19.7523 9.79303 19.7496 9.7045C19.755 8.82849 19.4583 7.97738 18.9096 7.2945C18.6156 6.94137 18.2469 6.65778 17.8302 6.46412C17.4135 6.27046 16.9591 6.17155 16.4996 6.1745C15.8133 6.1864 15.1579 6.46215 14.6696 6.9445C14.0618 7.64064 13.6814 8.50601 13.5796 9.4245C13.5725 9.46546 13.574 9.50743 13.584 9.54777C13.594 9.58811 13.6123 9.62593 13.6377 9.65884C13.663 9.69175 13.695 9.71902 13.7315 9.73893C13.768 9.75884 13.8082 9.77095 13.8496 9.7745Z" fill="black"/>
</svg>
