<svg width="24" height="25" viewBox="0 0 24 25" fill="none" xmlns="http://www.w3.org/2000/svg">
<path d="M17.0531 7.25469C16.6219 7.31563 16.3125 7.50782 16.3125 7.70469C16.3125 7.77032 16.2703 7.87344 16.2187 7.93907C16.0078 8.20626 15.975 8.45938 15.9516 9.90313L15.9281 11.2719L13.0594 11.2953C10.35 11.3188 9.60469 11.3469 8.2875 11.4969L8.025 11.525L8.00625 10.0109C7.98281 8.39376 7.95 8.12188 7.73437 7.92969C7.68281 7.88282 7.65469 7.83126 7.66875 7.80782C7.67812 7.78438 7.65937 7.70938 7.62187 7.63438C7.48594 7.37657 6.975 7.22657 6.33281 7.25938C5.89219 7.28282 5.5875 7.40001 5.46562 7.59219C5.35781 7.76094 5.20781 8.45001 5.175 8.92344L5.14219 9.36407L4.92656 9.32657C4.80937 9.30782 4.5 9.28907 4.24219 9.28907C3.81562 9.28907 3.75469 9.30313 3.54844 9.42032C3.42656 9.49532 3.27187 9.63126 3.21094 9.72969C3.05156 9.96407 2.95312 10.4563 2.95312 11.0047V11.4547L2.72344 11.4313C2.39062 11.4031 2.1 11.5484 1.93125 11.8344C1.82344 12.0219 1.80469 12.1063 1.80469 12.4297C1.80469 12.7297 1.82812 12.8469 1.9125 13.0016C2.04844 13.2594 2.30156 13.4281 2.65312 13.4938L2.92969 13.5453V14.0891C2.93437 14.4078 2.95781 14.7078 2.99531 14.8203C3.20625 15.4578 3.75937 15.7625 4.64531 15.725L5.05781 15.7109L5.05312 16.2266C5.04844 16.8969 5.10469 17.0938 5.41875 17.4078C5.72812 17.7172 6.02812 17.8156 6.58125 17.7875C7.2 17.7547 7.67812 17.4828 7.89375 17.0328C8.1 16.6109 8.13281 16.1844 8.04375 14.9328C8.00156 14.3281 7.96875 13.7703 7.96875 13.6906V13.5406L10.7016 13.5172C13.2703 13.4938 14.4234 13.4422 15.6281 13.3016L15.9516 13.2641L15.9094 14.2766C15.8484 15.9313 15.8578 16.5641 15.9516 16.8406C16.0687 17.1828 16.3078 17.4359 16.6781 17.6188C16.9687 17.7641 17.0203 17.7734 17.4844 17.7734C17.9297 17.7734 18 17.7594 18.2156 17.6469C18.7172 17.3844 18.8906 17.0094 18.8906 16.2078V15.7109H19.4437C20.0953 15.7063 20.3672 15.6125 20.6672 15.2891C20.9203 15.0125 21.0047 14.7172 21.0047 14.0656V13.5406L21.2906 13.4891C21.8344 13.3953 22.125 13.0531 22.1625 12.4672C22.1859 12.1391 22.1203 11.9 21.9516 11.6984C21.7781 11.4969 21.6047 11.4219 21.2812 11.4219H21V10.9391C21 10.0391 20.8172 9.60313 20.3531 9.37344C20.1187 9.26094 20.0391 9.24688 19.6641 9.25157C19.4344 9.25626 19.1437 9.27969 19.0266 9.30313L18.8109 9.34532L18.7828 8.84844C18.75 8.30938 18.5812 7.63438 18.4406 7.47969C18.3328 7.35782 17.8078 7.20313 17.5359 7.20782C17.4187 7.21251 17.1984 7.23126 17.0531 7.25469ZM7.25156 7.60626C7.51406 7.70001 7.56562 7.79376 7.44844 7.95782C7.40156 8.02813 7.32656 8.21563 7.28437 8.37501C7.21875 8.62813 7.21406 9.04063 7.24219 11.9516C7.25625 13.7609 7.275 15.5141 7.27969 15.8516C7.28437 16.2828 7.27031 16.5078 7.22344 16.6156C7.05937 17 6.21562 17.1266 5.925 16.8078C5.84531 16.7234 5.84062 16.5406 5.83125 13.8922C5.82656 11.3422 5.81719 10.9719 5.71875 10.0391C5.56875 8.54376 5.63906 7.77032 5.93906 7.62501C6.25781 7.47969 6.87187 7.47032 7.25156 7.60626ZM17.8219 7.53126C18.1125 7.61094 18.1922 7.71407 18.2625 8.07501C18.3422 8.49688 18.3422 9.09688 18.2578 9.85157C18.1453 10.8406 18.0656 14.5391 18.1312 15.5375C18.2156 16.7609 18.1547 16.9109 17.5828 16.9438C17.1516 16.9672 16.8609 16.8453 16.7437 16.5922C16.6734 16.4375 16.6687 16.3016 16.6875 15.5938C16.6969 15.1438 16.7062 13.3391 16.7109 11.5859C16.7109 8.60469 16.7062 8.38438 16.6266 8.17344C16.5797 8.05157 16.5 7.92501 16.4484 7.88751C16.3594 7.82657 16.3594 7.82188 16.5 7.70001C16.5797 7.63438 16.7062 7.56407 16.7719 7.55001C16.8422 7.53594 16.9219 7.51719 16.9453 7.50782C17.0531 7.47032 17.6625 7.48907 17.8219 7.53126ZM5.22656 9.97813C5.25937 10.3625 5.22656 13.0953 5.175 14.2672L5.14687 14.8906H4.62187C4.04062 14.8906 3.90469 14.8484 3.79687 14.6328C3.7125 14.4641 3.7125 13.8359 3.79219 12.9641C3.84375 12.4344 3.83906 12.2844 3.75 11.4641C3.58125 9.95001 3.65156 9.74376 4.40625 9.64063C4.54687 9.62188 4.78125 9.60313 4.92656 9.59844L5.19375 9.59376L5.22656 9.97813ZM19.8516 9.69219C20.3625 9.81876 20.4234 10.1 20.2547 11.4922C20.1844 12.0734 20.1797 12.3031 20.2172 12.8047C20.2828 13.7469 20.2828 14.5203 20.2125 14.6469C20.0859 14.8672 19.9406 14.9141 19.3969 14.9094C19.1203 14.9094 18.8812 14.8953 18.8625 14.8813C18.8156 14.8344 18.7359 10.4469 18.7734 9.99688L18.8062 9.57969L19.2234 9.60782C19.4531 9.62657 19.7344 9.66407 19.8516 9.69219ZM9.51562 11.9188C10.0969 11.9703 11.1562 11.9984 13.1625 12.0172L15.9844 12.0406V12.5094V12.9781L15.7641 12.95C14.5312 12.7953 12.1219 12.6875 9.74062 12.6875H8.01562V12.2375V11.7828L8.35781 11.8156C8.54062 11.8297 9.06562 11.8766 9.51562 11.9188ZM3.04687 12.2656V12.6875H2.85937C2.62969 12.6875 2.56875 12.5891 2.5875 12.2516C2.60156 12.0266 2.61094 12.0031 2.76562 11.9281C3.0375 11.7875 3.04687 11.8016 3.04687 12.2656ZM21.3187 11.9656C21.4031 12.0219 21.4219 12.0781 21.4219 12.2703C21.4219 12.6031 21.3656 12.6875 21.1406 12.6875H20.9531V12.2609V11.8344L21.0844 11.8672C21.1547 11.8813 21.2578 11.9281 21.3187 11.9656Z" fill="#1C1B29"/>
</svg>
