<svg width="24" height="25" viewBox="0 0 24 25" fill="none" xmlns="http://www.w3.org/2000/svg">
<g clip-path="url(#clip0_235_240)">
<path fill-rule="evenodd" clip-rule="evenodd" d="M23.7982 5.35599C23.7382 2.06099 23.5902 0.398993 16.9592 0.647993C16.4002 0.669993 4.95323 0.414993 3.83523 0.529993C0.10023 0.909993 0.29523 3.53299 0.24523 6.93999C-0.0107698 20.626 0.14523 21.731 1.23323 22.892C2.79133 24.0957 4.75104 24.6575 6.71023 24.462C26.4232 23.421 23.8622 28.547 23.6342 6.60499C23.6327 6.50399 23.5918 6.40758 23.5203 6.33625C23.4488 6.26491 23.3522 6.22428 23.2512 6.22299C22.4822 6.22299 23.0212 7.23299 22.9082 15.546C22.7782 26 23.0512 22.359 6.65123 23.131C5.08504 23.2749 3.51795 22.8655 2.22223 21.974C1.49223 21.19 1.59223 19.559 1.57923 18.51C1.54323 1.49999 0.10923 1.76299 6.51523 1.70699C23.0702 1.55299 22.4802 1.19399 22.9252 4.11999C23.0672 5.20199 22.8952 5.76599 23.4392 5.75299C23.5386 5.74558 23.6313 5.70022 23.6981 5.62631C23.765 5.5524 23.8008 5.45561 23.7982 5.35599Z" fill="#1C1B29"/>
<path fill-rule="evenodd" clip-rule="evenodd" d="M9.28599 15.6C9.50599 17.179 10.029 18.7 10.825 20.082C12.455 21.795 14.928 20.385 15.995 18.336C17.1887 15.7562 18.2471 13.116 19.166 10.426C19.874 8.594 20.448 7.092 18.989 5.666C17.833 4.41 15.481 5.41 13.917 5.948C11.892 6.646 6.55299 8.333 5.25299 9.825C2.72699 12.723 5.64799 14.39 9.28599 15.6ZM9.97099 14.395C9.06099 14.138 6.07299 13.018 5.65299 12.087C4.68899 10.089 15.618 6.177 16.936 5.946C18.253 5.715 18.174 6.202 18.43 6.202C19.533 7.392 18.943 8.525 18.261 10.048C17.251 12.336 16.266 15.177 14.861 17.741C14.241 18.885 12.697 20.133 11.784 19.159C11.1626 17.8433 10.7516 16.4382 10.566 14.995C10.5496 14.8423 10.4817 14.6998 10.3736 14.5908C10.2655 14.4818 10.1235 14.4127 9.97099 14.395Z" fill="#1C1B29"/>
</g>
<defs>
<clipPath id="clip0_235_240">
<rect width="24" height="24" fill="white" transform="translate(0 0.5)"/>
</clipPath>
</defs>
</svg>
