<svg width="109" height="11" viewBox="0 0 109 11" fill="none" xmlns="http://www.w3.org/2000/svg">
<path fill-rule="evenodd" clip-rule="evenodd" d="M96.1823 2.03067C96.0883 2.05291 95.945 2.13005 95.8638 2.20225C95.7826 2.27445 95.7184 2.29057 95.7212 2.23807C95.7247 2.17159 95.5831 2.1602 95.254 2.20054C94.9943 2.23234 94.7216 2.23675 94.6481 2.2104C94.5745 2.18397 94.4478 2.20547 94.3665 2.25799C94.2507 2.33296 94.2406 2.32617 94.3198 2.22662C94.4069 2.11717 94.3937 2.11498 94.2246 2.21034C94.1166 2.27126 94.0299 2.29167 94.0317 2.25562C94.0336 2.21956 93.9651 2.2306 93.8794 2.28017C93.7937 2.32965 93.6987 2.34857 93.6685 2.32212C93.6381 2.29566 93.0252 2.48002 92.3066 2.73177C91.5878 2.98352 90.7929 3.25914 90.54 3.34421C90.0471 3.51008 88.2143 4.55501 87.9467 4.82264C87.792 4.97732 87.7754 4.97098 87.5765 4.68005C87.4619 4.51249 87.1183 4.16883 86.813 3.91624C86.5077 3.66365 86.2835 3.4526 86.3147 3.44719C86.3459 3.44177 86.1857 3.26256 85.9587 3.04891C85.4684 2.58768 84.9268 2.3354 84.2388 2.24767C83.962 2.21236 83.6979 2.15266 83.6518 2.11506C83.5438 2.02668 82.2252 2.09038 81.4424 2.22175C81.1079 2.27785 80.5213 2.42409 80.1389 2.54673C79.7565 2.66937 79.3768 2.76622 79.2952 2.76194C79.2135 2.75766 79.1445 2.79611 79.1418 2.84729C79.1391 2.89847 79.0983 2.91917 79.0511 2.89315C78.9436 2.83399 77.5931 3.19901 77.0085 3.44518C76.7684 3.54626 76.5164 3.63243 76.4486 3.63664C76.3807 3.64093 76.1773 3.74032 75.9965 3.85765C75.8157 3.97498 75.6095 4.06788 75.5383 4.06414C75.467 4.06041 75.0797 4.24169 74.6775 4.46708L73.9463 4.87673L73.6093 4.55158C73.4239 4.37282 73.2111 4.15012 73.1363 4.05678C73.0615 3.96344 73.0341 3.94833 73.0753 4.02324C73.1401 4.1411 73.1251 4.14155 72.964 4.02685C72.8615 3.95402 72.8015 3.87768 72.8306 3.85725C72.8985 3.80957 72.612 3.40224 72.245 3.02498C71.894 2.66418 71.5984 2.55354 70.9407 2.53662C70.6624 2.52945 70.3792 2.48868 70.3113 2.44597C70.2373 2.39941 70.1574 2.42291 70.1121 2.50448C70.0703 2.57936 69.9901 2.61519 69.9336 2.58411C69.8772 2.55302 69.7987 2.56451 69.7591 2.60961C69.7194 2.65471 69.6135 2.66521 69.5235 2.63289C69.4335 2.60066 69.2955 2.60816 69.2166 2.64961C69.0767 2.72323 68.1219 2.96375 67.8464 2.99473C67.5469 3.02832 66.4011 3.40848 65.9209 3.63348C65.6422 3.76411 65.3822 3.85331 65.3431 3.83177C65.304 3.81023 65.2453 3.64199 65.2126 3.45783C65.1717 3.22694 65.0132 3.00762 64.7022 2.75129C64.4541 2.54676 64.2147 2.38492 64.1701 2.39166C64.1255 2.39832 64.1245 2.34016 64.1679 2.26227C64.2175 2.17325 64.2009 2.14002 64.1232 2.17272C63.9918 2.228 63.749 1.73503 63.8669 1.65224C63.9297 1.60826 63.7303 1.55954 63.5377 1.57194C63.4933 1.57472 63.4864 1.52445 63.5222 1.4601C63.5639 1.38504 63.4758 1.31517 63.2762 1.26494C63.1051 1.22193 62.9363 1.14598 62.9012 1.09626C62.8659 1.04653 62.7671 0.990996 62.6814 0.972836C62.5957 0.954587 62.4419 0.906232 62.3398 0.865344C61.817 0.656025 59.4725 1.05405 58.356 1.54164C58.024 1.68667 57.6016 1.86771 57.4175 1.94403C56.6927 2.2444 53.9117 3.98108 54.4394 3.8038C54.5339 3.77198 54.4403 3.85922 54.2315 3.99748C54.0226 4.13583 53.8379 4.27826 53.8209 4.31414C53.8039 4.35002 53.7514 4.36702 53.704 4.35202C53.6566 4.33692 53.5846 4.38439 53.544 4.45739C53.5034 4.53039 53.2922 4.71888 53.0749 4.8761C52.8576 5.0334 52.6766 5.22074 52.6729 5.29241C52.6599 5.53987 52.3866 5.36259 52.0787 4.90695C51.9088 4.65555 51.7072 4.39411 51.6307 4.32608C51.5544 4.25797 51.4937 4.16546 51.496 4.12061C51.4984 4.07567 51.4446 4.04596 51.3765 4.05447C51.3084 4.06307 51.2001 3.98791 51.136 3.88755C50.9455 3.58956 50.3973 2.8873 50.2567 2.76124C50.1848 2.6968 50.072 2.64133 50.0058 2.63786C49.9397 2.6344 49.888 2.58539 49.8909 2.52893C49.8939 2.47256 49.8617 2.45068 49.8194 2.48039C49.7771 2.51009 49.677 2.48668 49.597 2.42852C49.4873 2.3487 49.4495 2.35236 49.4435 2.44331C49.4368 2.5434 49.4195 2.54206 49.342 2.43509C49.2901 2.36341 49.0841 2.30138 48.8771 2.29512C48.6298 2.28771 48.5585 2.26167 48.664 2.21728C48.7627 2.17572 48.5095 2.12188 47.9917 2.07438C47.5347 2.03253 47.1076 2.0239 47.0425 2.05523C46.9774 2.08665 46.7982 2.12197 46.6444 2.13384C46.3486 2.15661 46.2432 2.17851 45.3427 2.40415C44.6157 2.58633 43.4115 3.04005 43.2174 3.20483C43.1348 3.27502 43.0016 3.32897 42.9215 3.32477C42.8412 3.32056 42.5219 3.49236 42.2117 3.70643C41.9015 3.9206 41.7267 4.02052 41.8234 3.92858C41.9968 3.76352 41.9958 3.76329 41.7423 3.91411C41.6011 3.99807 41.5106 4.10196 41.5411 4.145C41.5715 4.18804 41.5306 4.19965 41.45 4.17083C41.3694 4.14182 41.0686 4.29387 40.7792 4.50992C40.4907 4.72539 40.4113 4.81127 40.6029 4.70085L40.9511 4.50014L40.6667 4.72738C40.5103 4.85234 40.3582 4.93362 40.3287 4.90791C40.2992 4.8822 40.1789 4.92193 40.0616 4.9962C39.8602 5.12373 39.8498 5.11949 39.8758 4.92059C39.9243 4.54915 39.0807 2.94712 38.8297 2.93396C38.7751 2.9311 38.6413 2.77533 38.5325 2.58771C38.2161 2.04247 37.7237 1.65054 37.2772 1.58825C36.9889 1.5481 36.9107 1.56208 36.9855 1.64042C37.0611 1.71978 36.9077 1.73167 36.393 1.68653C35.6752 1.62351 34.9624 1.70996 34.9545 1.86113C34.952 1.90853 34.8999 1.91983 34.8388 1.8862C34.7776 1.85248 34.7642 1.78 34.8091 1.72512C34.8539 1.67015 34.7643 1.70232 34.6101 1.79653C34.4559 1.89065 34.085 2.04696 33.7858 2.14371C33.4867 2.24047 33.2405 2.3459 33.2389 2.378C33.2372 2.4101 32.9905 2.52654 32.6906 2.63666C32.2056 2.81485 31.5746 3.18539 31.1959 3.51447C30.9767 3.70484 29.8214 4.45266 29.6368 4.52358C29.5296 4.56479 29.5532 4.51382 29.6994 4.38859L29.9343 4.18732L29.6152 4.38435C29.4396 4.49279 29.2923 4.62395 29.2875 4.67582C29.2735 4.83249 28.7257 5.22449 28.2675 5.40594C28.0306 5.49979 27.8337 5.63585 27.8299 5.7084C27.8261 5.78095 27.7115 5.8469 27.5752 5.85484C27.4132 5.86434 27.3466 5.91437 27.3827 5.99907C27.4131 6.07042 27.3691 6.13125 27.285 6.13416C27.2008 6.13715 27.0809 6.14613 27.0186 6.15415C26.9563 6.16217 26.8545 6.1712 26.7924 6.1743C26.7303 6.1774 26.7533 6.22225 26.8435 6.27398C26.9848 6.35502 26.9811 6.36682 26.8175 6.35948C26.713 6.35471 26.5901 6.29923 26.5442 6.23625C26.4614 6.1223 26.4447 6.07345 26.4272 5.89423C26.4221 5.84264 26.3662 5.82217 26.3029 5.84883C26.2396 5.87549 26.1838 5.8253 26.1791 5.73732C26.1742 5.64932 26.1606 5.53715 26.1488 5.48803C26.137 5.43891 26.1177 5.35853 26.1057 5.3094C26.0938 5.26028 26.0915 5.19076 26.1009 5.15483C26.1101 5.11898 26.067 5.08692 26.0053 5.08369C25.9436 5.08045 25.896 5.02143 25.8996 4.95266C25.9032 4.88381 25.7356 4.63305 25.5272 4.39533C25.3187 4.15768 25.1758 3.94385 25.2094 3.92013C25.2432 3.89641 25.1429 3.72643 24.9865 3.5424C24.5601 3.04043 23.8251 2.40748 23.739 2.46795C23.6972 2.49725 23.6665 2.45666 23.6706 2.37769C23.6865 2.07553 23.0451 1.5943 22.3194 1.36395C21.6162 1.14068 20.8105 1.10613 20.8004 1.29863C20.798 1.34453 20.7508 1.35705 20.6955 1.32664C20.6401 1.29614 20.5249 1.31849 20.4396 1.37628C20.3542 1.43397 20.1832 1.47677 20.0597 1.47135C19.9282 1.46561 19.8467 1.51231 19.8631 1.58415C19.8863 1.6851 19.8614 1.68512 19.7224 1.58401C19.5848 1.48394 19.5526 1.48217 19.5477 1.57459C19.5445 1.63694 19.5114 1.66149 19.4743 1.62912C19.4046 1.56842 17.9283 2.04703 17.6795 2.21106C17.6026 2.2617 17.4012 2.3508 17.232 2.40904C17.0628 2.46727 16.75 2.63809 16.5367 2.78864C16.3235 2.93928 16.1082 3.06159 16.0583 3.06047C16.0083 3.05944 15.3892 3.47469 14.6824 3.98323C13.9755 4.49186 13.3427 4.94475 13.2761 4.98976C11.8396 5.96146 11.4291 6.22045 11.2982 6.23749C11.2119 6.24875 11.1224 6.29362 11.0995 6.3373C11.0765 6.38098 11.0084 6.4141 10.9483 6.41095C10.888 6.40779 10.8691 6.37047 10.9064 6.32806C10.9436 6.28566 10.9365 6.23573 10.8907 6.21701C10.8448 6.19839 10.6803 5.97804 10.525 5.7274C10.3697 5.47676 10.195 5.27784 10.1369 5.28537C10.0786 5.2929 9.96645 5.22979 9.88759 5.14515C9.78666 5.03686 9.78464 5.01304 9.881 5.06465C10.0779 5.17029 10.0583 4.99643 9.85669 4.8498C9.76333 4.78186 9.6225 4.62086 9.54371 4.49195C9.41619 4.28307 8.96366 3.86439 8.22564 3.27219C7.68789 2.84067 6.82063 2.76206 6.00544 3.07083C5.79113 3.15201 5.61701 3.19456 5.61854 3.16537C5.62007 3.13626 5.39953 3.23546 5.12857 3.38598C4.8575 3.5365 4.44164 3.74768 4.20422 3.85525C3.96681 3.96283 3.77021 4.0907 3.7672 4.13949C3.76419 4.18836 3.65618 4.27326 3.527 4.32822C3.39793 4.38318 3.32493 4.47441 3.36497 4.53092C3.40584 4.58871 3.38869 4.60676 3.32589 4.57217C3.17818 4.49088 2.88483 4.7271 2.65033 5.11639C2.54615 5.28923 2.35311 5.46941 2.2214 5.51665C2.0897 5.56389 2.00813 5.6254 2.03999 5.65326C2.07196 5.68112 1.96908 5.83781 1.81123 6.00158C1.6535 6.16527 1.54542 6.32891 1.57098 6.36517C1.59666 6.40144 1.53551 6.42134 1.43516 6.40947C1.33469 6.39759 1.22758 6.44603 1.19695 6.51717C1.14758 6.63213 1.15679 6.63262 1.27968 6.52151C1.39726 6.41524 1.40679 6.42015 1.34281 6.5541C1.30146 6.64073 1.26579 6.74803 1.26346 6.79244C1.26113 6.83685 1.20568 6.87036 1.14035 6.86694C1.07501 6.86351 1.05989 6.81686 1.10683 6.76333C1.16153 6.70112 1.14154 6.68737 1.05152 6.72533C0.97417 6.75788 0.935012 6.84136 0.964584 6.91072C0.994264 6.98018 0.966556 7.03419 0.903129 7.03087C0.83959 7.02754 0.816861 7.06603 0.852494 7.1164C0.888127 7.16676 0.865061 7.20524 0.801298 7.20189C0.737422 7.19855 0.602092 7.30856 0.500431 7.44626C0.275901 7.75045 0.265454 7.81877 0.453155 7.75551C0.531993 7.72895 0.513496 7.75541 0.412027 7.81429C0.310669 7.87317 0.248463 7.97758 0.273793 8.04628C0.300505 8.11867 0.270689 8.14417 0.202853 8.10685C0.133052 8.06836 0.0889862 8.11446 0.0936436 8.22105C0.0979484 8.31933 0.166499 8.40317 0.245978 8.40734C0.325458 8.4115 0.388289 8.45624 0.385639 8.50681C0.382989 8.55737 0.517905 8.50254 0.685376 8.38495C1.016 8.15281 1.22322 8.18307 0.929469 8.42058C0.703774 8.60311 0.758601 8.8371 0.991861 8.68637C1.07646 8.63154 1.12444 8.55584 1.09827 8.51814C1.07211 8.48035 1.10431 8.45232 1.16965 8.45574C1.23498 8.45917 1.28633 8.50392 1.28365 8.5551C1.28097 8.60629 1.33137 8.62603 1.39572 8.59898C1.46006 8.57185 1.48564 8.51137 1.45241 8.46448C1.41929 8.41759 1.44907 8.38221 1.51855 8.38585C1.63699 8.39205 1.62222 8.459 1.40334 8.9089C1.36663 8.9844 1.42068 8.96889 1.53362 8.87164L1.72661 8.70539L1.64105 8.87727C1.59411 8.97181 1.51361 9.06873 1.46237 9.09268C1.41114 9.11671 1.44322 9.22836 1.53368 9.34086L1.69822 9.54551L1.91929 9.35674L2.14036 9.16798L2.06668 9.36253C2.00738 9.51877 2.04003 9.55954 2.23256 9.56963C2.43732 9.58036 2.45971 9.61699 2.38558 9.82015C2.33797 9.95099 2.34076 10.0309 2.39192 9.99764C2.4432 9.96435 2.56284 9.99046 2.65803 10.0557C2.80625 10.1572 2.81263 10.1536 2.70246 10.0305C2.60069 9.91679 2.61253 9.83487 2.75924 9.63665C2.86112 9.49905 2.94404 9.36662 2.9434 9.34234C2.94287 9.31806 3.03873 9.30616 3.15641 9.31594C3.27409 9.32572 3.34637 9.2997 3.31703 9.25822C3.28768 9.21674 3.17829 9.17767 3.07393 9.17149C2.96586 9.16504 2.93401 9.13488 2.99981 9.10147C3.10875 9.04616 3.16858 8.93775 3.23937 8.66739C3.25598 8.6038 3.33409 8.52456 3.41306 8.49131C3.5376 8.43884 3.62209 8.28525 3.66641 8.03025C3.67328 7.99137 3.72801 7.98666 3.78819 8.01979C3.84836 8.05293 3.90084 8.01829 3.90478 7.94293C3.90873 7.86756 3.96552 7.80863 4.03085 7.81206C4.09619 7.81548 4.12364 7.78138 4.09178 7.73633C4.05981 7.69118 4.11205 7.63519 4.20761 7.6118C4.32893 7.58218 4.28336 7.6872 4.05729 7.95841C3.74593 8.33221 3.55736 8.89101 3.7733 8.80004C3.83063 8.77588 3.85533 8.70408 3.82816 8.6404C3.80098 8.5768 3.93543 8.31613 4.12687 8.06118C4.36357 7.74616 4.43993 7.5671 4.36522 7.50199C4.29062 7.43697 4.31459 7.39193 4.44014 7.3612C4.54641 7.33521 4.5941 7.35102 4.55244 7.39848C4.51149 7.44519 4.55676 7.46211 4.6571 7.43765C4.81571 7.39888 4.89775 7.23819 4.86357 7.03349C4.85679 6.9931 4.89431 6.98378 4.94694 7.01282C5.04596 7.0673 5.2564 6.9181 5.828 6.38793C6.0121 6.21715 6.21368 6.08883 6.27599 6.10277C6.3383 6.11662 6.41381 6.0375 6.4437 5.92699C6.48222 5.78475 6.45607 5.74246 6.35414 5.78209C6.27497 5.81295 6.25134 5.80633 6.30155 5.76752C6.4468 5.6552 6.75931 5.66329 6.94085 5.78418C7.03266 5.84525 7.07203 5.8586 7.02856 5.81391C6.98497 5.76921 7.01535 5.67292 7.09606 5.5999C7.2277 5.4807 7.21913 5.47884 7.01158 5.58145C6.86932 5.65186 6.89283 5.6157 7.0728 5.4874C7.26562 5.34997 7.39146 5.31362 7.44256 5.38041C7.48954 5.44195 7.52391 5.41765 7.53023 5.31852C7.53705 5.20979 7.59583 5.17513 7.70621 5.21478C7.80897 5.25155 7.87462 5.22316 7.87898 5.13988C7.88286 5.06592 7.938 5.03407 8.00145 5.06905C8.06502 5.10404 8.09753 5.19693 8.07382 5.27549C8.05012 5.35405 8.10366 5.48578 8.19299 5.56832C8.28221 5.65086 8.44926 5.85715 8.56419 6.02675C9.03501 6.72152 9.16733 6.88374 9.49575 7.16823C10.1582 7.74209 10.7258 8.32976 10.6613 8.37497C10.6255 8.40017 10.6582 8.42393 10.7338 8.42789C10.8104 8.4319 10.833 8.47894 10.7849 8.53374C10.7253 8.6016 10.7625 8.6167 10.9042 8.58205C11.0661 8.54248 11.0824 8.55524 10.9805 8.64187C10.8856 8.72252 10.886 8.81152 10.9821 8.97467C11.0544 9.09715 11.1171 9.23623 11.1217 9.28374C11.1322 9.39399 11.3667 9.47224 11.3722 9.36732C11.3744 9.32423 11.3061 9.20822 11.2204 9.10955C11.1346 9.01097 11.0646 8.89804 11.0647 8.8588C11.0649 8.74347 11.721 8.89302 12.0407 9.0812C12.3864 9.28477 12.6119 9.33865 12.6182 9.21905C12.6206 9.17218 12.6726 9.16132 12.7338 9.19495C12.795 9.22867 12.8144 9.29106 12.777 9.33372C12.7396 9.37629 12.7883 9.39181 12.8853 9.36814C12.9823 9.34439 13.0356 9.28819 13.0036 9.24304C12.9717 9.19798 13.0274 9.16536 13.1273 9.1706C13.2272 9.17583 13.2865 9.14843 13.259 9.1096C13.2316 9.07086 13.4794 8.91516 13.8097 8.76369C14.14 8.61222 14.4293 8.44961 14.4527 8.40234C14.577 8.15092 14.6225 8.10789 14.7119 8.1571C14.7657 8.18673 14.8139 8.13185 14.819 8.03512C14.8241 7.93838 14.8881 7.83407 14.9612 7.80333C15.0508 7.76553 15.0617 7.78585 14.9947 7.86593C14.8869 7.99485 15.6198 7.53486 16.0276 7.21787C16.6371 6.74392 18.7071 5.55234 18.7442 5.65401C18.7663 5.71479 18.8344 5.74357 18.8954 5.71785C18.9655 5.68836 18.9661 5.62905 18.897 5.55664C18.8133 5.46902 18.865 5.45506 19.1165 5.49743C19.3842 5.5425 19.4717 5.51269 19.5865 5.33705C19.6641 5.21846 19.7909 5.14406 19.8683 5.17184C19.9458 5.19962 20.0449 5.18171 20.0885 5.13206C20.1382 5.0754 20.0705 5.04761 19.9068 5.05746C19.7632 5.06607 19.5914 5.15645 19.525 5.25817C19.3967 5.45462 19.2829 5.48684 19.1886 5.3535C19.1569 5.30872 19.3181 5.17326 19.5468 5.05235C19.8625 4.88548 19.9271 4.8125 19.8148 4.74929C19.7156 4.6933 19.711 4.66793 19.8009 4.67167C19.8745 4.67482 19.964 4.71884 20 4.76967C20.0406 4.82709 20.1298 4.81659 20.2365 4.74167C20.3307 4.67554 20.4828 4.64841 20.5747 4.68136C20.6666 4.7143 20.7292 4.70004 20.7138 4.64968C20.6985 4.59922 20.7245 4.55685 20.7716 4.55544C20.8188 4.55403 21.0173 4.49768 21.2128 4.43024C21.4081 4.3627 21.5348 4.34544 21.4941 4.3918C21.4489 4.44314 21.5636 4.47323 21.7872 4.46872C22.2018 4.46029 22.5523 4.38272 22.5571 4.29831C22.5588 4.26719 22.7155 4.24136 22.9053 4.2409C23.1769 4.24023 23.2408 4.27153 23.2055 4.3882C23.1798 4.47353 23.0213 4.54812 22.8322 4.56396C22.2749 4.61077 22.3412 4.78866 22.9084 4.76839L23.408 4.75057L23.7153 5.66181C23.8842 6.16307 24.0723 6.5522 24.1331 6.52655C24.1939 6.50099 24.2404 6.54178 24.2364 6.61715C24.2325 6.69251 24.3032 6.75812 24.3937 6.76286C24.4841 6.7676 24.6087 6.85464 24.6706 6.95621C24.7325 7.05778 24.8323 7.12024 24.8924 7.0949C24.9526 7.06958 24.9996 7.09082 24.9969 7.142C24.9942 7.19318 25.0302 7.23246 25.0767 7.22917C25.3181 7.21201 25.4265 7.27183 25.3625 7.38682C25.3231 7.4575 25.3453 7.51819 25.4117 7.52167C25.4781 7.52515 25.5 7.58635 25.4603 7.65764C25.4206 7.72892 25.4412 7.84278 25.5058 7.91063C25.5706 7.97849 25.5844 8.0644 25.5366 8.10157C25.4888 8.13875 25.5109 8.14546 25.5858 8.11641C25.7343 8.05885 26.2965 8.49333 26.1796 8.5753C26.1402 8.60304 26.2047 8.60201 26.3228 8.57319C26.45 8.54212 26.5087 8.55357 26.4668 8.60128C26.428 8.64555 26.4934 8.6869 26.6123 8.69313C26.7313 8.69936 26.8303 8.67342 26.8323 8.63543C26.8382 8.5226 27.0324 8.56682 27.2097 8.72135C27.3006 8.80054 27.4022 8.86538 27.4353 8.86544C27.6704 8.86542 27.7242 8.88834 27.6602 8.96127C27.6192 9.00806 27.6606 9.02663 27.7549 9.00353C27.8608 8.97769 27.9087 8.88294 27.8846 8.74684C27.8637 8.6282 27.8926 8.53351 27.9488 8.53645C28.0052 8.53941 28.0865 8.4785 28.1296 8.40122C28.1951 8.28358 28.1789 8.27726 28.0311 8.36273C27.9134 8.43072 27.856 8.43247 27.8594 8.36784C27.8622 8.31455 27.997 8.25194 28.1588 8.22886C28.38 8.19724 28.4167 8.16521 28.3063 8.0999C28.2104 8.04321 28.2615 8.03715 28.4531 8.08238C28.6331 8.12488 28.7821 8.11135 28.8381 8.04753C28.9019 7.97486 28.8807 7.96246 28.7682 8.00674C28.6726 8.04423 28.6466 8.03943 28.7044 7.99493C28.7582 7.95367 28.8613 7.92114 28.9333 7.92272C29.0055 7.9243 29.053 7.87343 29.039 7.80974C29.0249 7.74604 29.0772 7.71439 29.1552 7.73938C29.2332 7.76436 29.3672 7.72553 29.453 7.65304C29.5746 7.55024 29.589 7.54933 29.5183 7.64871C29.4576 7.73397 29.5114 7.72497 29.6802 7.62148C29.9861 7.43416 29.9985 7.39751 29.7364 7.45626C29.6268 7.48076 29.6811 7.41968 29.8572 7.32044C30.0332 7.2212 30.1459 7.09572 30.1077 7.0416C30.0694 6.98748 30.0881 6.97073 30.1491 7.00435C30.2102 7.03797 30.4516 6.93114 30.6856 6.76686C30.9194 6.60258 31.1086 6.51082 31.1059 6.56288C31.1032 6.61494 30.8655 6.81483 30.5779 7.00698C30.2902 7.19913 30.0778 7.37636 30.1058 7.40084C30.1339 7.42524 30.2839 7.35638 30.4392 7.24786C30.8762 6.94211 31.0916 6.83462 31.0869 6.92467C31.0846 6.96996 30.8867 7.12088 30.6472 7.26017C30.4078 7.39947 30.1049 7.58606 29.9743 7.67498C29.8435 7.76381 29.6879 7.83457 29.6283 7.83225C29.5687 7.82992 29.3428 7.93712 29.1261 8.07047C28.9095 8.20383 28.66 8.30918 28.5716 8.30454C28.4562 8.2985 28.4305 8.35288 28.4804 8.49747C28.5426 8.67753 28.5308 8.68494 28.3691 8.56739C28.2102 8.45174 28.1968 8.45554 28.2578 8.59877C28.3057 8.7108 28.2874 8.73964 28.1993 8.69111C28.1223 8.64872 28.0684 8.67579 28.064 8.75898C28.0583 8.86908 28.151 8.85463 28.518 8.68806C28.7717 8.57297 28.9813 8.43968 28.9838 8.39185C28.9863 8.34392 29.0621 8.35838 29.1522 8.42395C29.2973 8.52952 29.2928 8.55627 29.1118 8.65798C28.9303 8.76002 28.9395 8.76253 29.1938 8.68106C29.3512 8.63058 29.7019 8.46343 29.9731 8.30957C30.3115 8.11761 30.464 8.07137 30.4592 8.1623C30.4554 8.23511 30.3181 8.3549 30.1541 8.42848C29.9901 8.50208 29.8808 8.584 29.9113 8.61064C29.9417 8.63719 30.4011 8.41524 30.9319 8.11732C32.0926 7.46599 32.2175 7.38241 31.8444 7.50668C31.5691 7.59834 31.5713 7.59202 31.9022 7.34411C32.0916 7.20218 32.3035 7.09901 32.3733 7.11483C32.4432 7.13066 32.6455 7.03219 32.823 6.89599C33.0005 6.75979 33.1037 6.70568 33.0522 6.77573C32.9693 6.88849 32.9827 6.88937 33.1702 6.78341C33.3746 6.66785 33.3748 6.66186 33.1729 6.60719C32.8704 6.52538 32.8777 6.34401 33.1809 6.40585C33.3378 6.43779 33.4948 6.39955 33.5974 6.30431C33.7383 6.17343 33.7386 6.16612 33.5988 6.25324C33.5091 6.30921 33.3605 6.35097 33.2685 6.34616C33.1453 6.3397 33.167 6.29463 33.3517 6.17415C33.4893 6.08436 33.6575 6.01381 33.7254 6.01737C33.7935 6.02094 33.8154 5.97623 33.7743 5.91809C33.7235 5.84629 33.7482 5.8392 33.8512 5.89593C33.9347 5.94192 34.0892 5.98899 34.1945 6.0006C34.3487 6.01768 34.3656 5.98822 34.281 5.8494C34.2069 5.72771 34.2181 5.64126 34.3188 5.55571C34.3974 5.48902 34.4866 5.45631 34.5173 5.48296C34.548 5.5097 34.6483 5.45579 34.7404 5.36308C34.8324 5.27038 34.9482 5.21683 34.9977 5.24412C35.0471 5.27131 35.1764 5.1981 35.2849 5.08148C35.3934 4.96477 35.5292 4.89517 35.5867 4.92684C35.6953 4.98659 35.703 4.97421 35.7645 4.6449C35.8 4.45523 35.789 4.45174 35.5291 4.56845C35.374 4.63801 35.2585 4.65074 35.2613 4.59807C35.264 4.54706 35.356 4.48398 35.4656 4.4579C35.5753 4.43172 35.7317 4.35191 35.8129 4.28042C35.9417 4.16716 35.9498 4.17173 35.876 4.31565C35.8088 4.44643 35.8315 4.47098 35.9847 4.43351C36.1506 4.393 36.1595 4.41322 36.0468 4.57583C35.9287 4.74618 35.9322 4.75077 36.0812 4.6211C36.1722 4.54175 36.2809 4.50653 36.3225 4.54284C36.3642 4.57915 36.3699 4.54223 36.3351 4.46069C36.2939 4.364 36.3547 4.2828 36.5102 4.22702C36.6689 4.16999 36.747 4.17188 36.7438 4.23247C36.7412 4.28251 36.6885 4.32084 36.6268 4.31761C36.5651 4.31437 36.5123 4.35367 36.5097 4.40485C36.507 4.45603 36.553 4.47767 36.6119 4.45289C36.6709 4.42803 36.7487 4.44965 36.7849 4.50085C36.8211 4.55204 36.8099 4.59184 36.7599 4.58922C36.71 4.58669 36.6515 5.08961 36.6299 5.70672C36.5847 7.00239 36.5946 7.14647 36.7254 7.09142C36.7781 7.06923 36.818 7.11277 36.8141 7.18813C36.8101 7.26349 36.8574 7.32788 36.9191 7.33111C36.9809 7.33435 37.0284 7.3946 37.0247 7.46495C37.0207 7.54146 37.1743 7.62428 37.4069 7.67095C37.6207 7.714 37.7662 7.7829 37.7299 7.82421C37.6937 7.86544 37.7176 7.90205 37.7829 7.90547C37.8483 7.9089 37.8895 7.94086 37.8746 7.97641C37.8595 8.01196 37.9118 8.14371 37.9908 8.2691C38.0697 8.39448 38.1248 8.51641 38.113 8.54005C38.1013 8.56368 38.1549 8.58809 38.2319 8.59433C38.309 8.60058 38.3587 8.64904 38.3424 8.70198C38.3261 8.75483 38.3845 8.85021 38.472 8.91397C38.5696 8.98495 38.6331 8.99436 38.636 8.93835C38.6386 8.88804 38.5901 8.82413 38.5281 8.79618C38.466 8.76833 38.4792 8.75923 38.5573 8.77611C38.6353 8.7929 38.6973 8.90232 38.6951 9.01922C38.6928 9.13603 38.7515 9.225 38.8255 9.2167C38.8994 9.2085 38.9567 9.26344 38.9527 9.3388C38.9488 9.41417 38.9929 9.45599 39.0508 9.4316C39.1087 9.40721 39.1735 9.43485 39.1947 9.4931C39.216 9.55136 39.3414 9.61093 39.4736 9.62553C39.6057 9.64012 39.6877 9.61515 39.6557 9.57C39.6239 9.52485 39.6905 9.50533 39.804 9.52662C39.9287 9.55009 40.0004 9.51875 39.9855 9.44733C39.9719 9.38233 40.0037 9.35288 40.0561 9.38172C40.1684 9.44351 40.8087 8.99684 40.7671 8.88575C40.7513 8.8441 40.9119 8.72976 41.1237 8.63169C41.3355 8.53371 41.4383 8.44916 41.352 8.44393C41.2194 8.43583 41.2197 8.42376 41.3539 8.36563C41.4412 8.32788 41.4789 8.24917 41.4375 8.19074C41.3814 8.11143 41.3135 8.11096 41.1699 8.18888C40.9967 8.28289 40.9941 8.27843 41.1437 8.14404C41.2588 8.04064 41.3444 8.02466 41.4219 8.09222C41.4994 8.15977 41.6346 8.12223 41.8609 7.97025C42.0407 7.84943 42.1854 7.79758 42.1824 7.855C42.1794 7.91243 42.118 7.9563 42.0459 7.95252C41.9739 7.94875 41.9421 7.9693 41.9753 7.9982C42.0747 8.0849 43.4552 7.12366 43.3855 7.01631C43.3501 6.96172 43.3596 6.94749 43.4067 6.98461C43.5131 7.06859 43.9193 6.93053 43.9257 6.80821C43.9283 6.7587 43.8706 6.74332 43.7975 6.77406C43.7178 6.80763 43.6971 6.79314 43.7456 6.73792C43.79 6.68725 43.927 6.66639 44.0498 6.69152C44.1727 6.71674 44.2502 6.70475 44.2221 6.66501C44.1939 6.62526 44.3632 6.46756 44.5983 6.31454C44.8335 6.16161 44.9481 6.11171 44.853 6.20373C44.6923 6.35941 44.6948 6.36316 44.8884 6.25761C45.0028 6.19518 45.0724 6.08762 45.0429 6.01862C45.0118 5.94538 45.0375 5.91958 45.1048 5.95661C45.1683 5.99159 45.2924 5.95057 45.3807 5.86543C45.4689 5.78037 45.5832 5.70955 45.6346 5.7081C45.8988 5.70078 46.7724 5.36589 46.9679 5.19695C47.091 5.09061 47.1552 5.06117 47.1107 5.13159C47.0459 5.23384 47.0609 5.23312 47.1855 5.12775C47.2713 5.05526 47.4106 5.01812 47.4952 5.04522C47.5979 5.07811 47.6213 5.05536 47.5659 4.97688C47.5138 4.90334 47.5263 4.88327 47.5991 4.92342C47.746 5.00431 48.0947 4.92435 48.025 4.82572C47.9964 4.78533 48.0808 4.78032 48.2127 4.81466C48.3637 4.85397 48.4273 4.8416 48.3846 4.78125C48.3474 4.72869 48.3794 4.69262 48.4557 4.70112C48.5319 4.70961 48.787 4.69405 49.0226 4.66645C49.4112 4.62095 49.4329 4.60445 49.257 4.48862C49.0788 4.37117 49.0834 4.36594 49.3132 4.42393C49.4506 4.45865 49.5614 4.52203 49.5591 4.56477C49.5569 4.60742 49.5935 4.63447 49.6404 4.62485C49.748 4.60271 49.778 4.68453 49.7634 4.96198C49.7536 5.14885 49.697 5.18081 49.3864 5.1752C49.0344 5.16883 49.0374 5.17172 49.4667 5.25506C49.7876 5.31738 49.8335 5.34272 49.6308 5.3455C49.4759 5.3477 49.2462 5.38019 49.1204 5.41778C48.9384 5.47217 48.9655 5.48303 49.2534 5.47095C49.8088 5.44768 49.8372 5.51513 49.9073 7.01975C49.9102 7.08057 50.005 7.1351 50.1183 7.14103C50.2315 7.14696 50.3219 7.19412 50.3191 7.24591C50.3164 7.29762 50.4286 7.33322 50.5683 7.32511C50.7862 7.31228 50.8353 7.36688 50.9141 7.70918C50.9999 8.08228 51.052 8.12972 51.7199 8.44223C52.1126 8.62595 52.4205 8.79208 52.404 8.81141C52.3876 8.83075 52.3781 8.87654 52.383 8.91313C52.388 8.94972 52.3825 9.07844 52.3709 9.19909C52.3593 9.31973 52.3803 9.37074 52.4178 9.31248C52.4632 9.24193 52.5471 9.2361 52.6692 9.29488C52.77 9.34355 52.9026 9.39247 52.964 9.40362C53.0253 9.41477 53.0586 9.4771 53.0381 9.54199C52.9847 9.71096 53.819 9.56995 53.9737 9.38388C54.2022 9.10926 54.1513 9.00845 53.8757 9.18977C53.6734 9.32291 53.6098 9.33509 53.6337 9.23617C53.6655 9.10486 53.9539 8.88585 54.5209 8.56222L54.8039 8.40068L54.52 8.68862C54.3277 8.88348 54.2791 8.99019 54.3695 9.01891C54.4429 9.04225 54.4725 9.09601 54.4353 9.13841C54.398 9.18081 54.3884 9.21664 54.4138 9.21797C54.4811 9.2215 55.5575 8.24512 55.561 8.17741C55.5627 8.14592 55.748 7.98359 55.9729 7.81672C56.1979 7.64986 56.3849 7.46398 56.3885 7.4035C56.3922 7.34312 56.4445 7.29621 56.5046 7.29936C56.5648 7.30252 56.7056 7.18088 56.8173 7.02916C56.9292 6.87744 57.209 6.6362 57.4393 6.49316C57.6696 6.35012 57.9412 6.17582 58.0429 6.10593C58.1446 6.03595 58.2808 5.98154 58.3454 5.98493C58.5016 5.99311 59.15 5.39015 59.1085 5.27537C59.0907 5.22594 59.112 5.21682 59.1559 5.25501C59.2853 5.36779 59.5272 5.17253 59.4781 4.99501C59.4463 4.87994 59.5111 4.81985 59.6973 4.79177C59.8428 4.76986 59.9616 4.75659 59.9613 4.7624C59.961 4.7682 60.1849 4.69669 60.4589 4.60347C60.7329 4.51025 60.9382 4.41757 60.915 4.3974C60.8414 4.33314 60.3725 4.43307 60.3683 4.51398C60.366 4.55663 60.3119 4.58889 60.248 4.58554C60.1698 4.58144 60.1746 4.52332 60.263 4.40749C60.3351 4.31295 60.4409 4.26127 60.498 4.29274C60.5553 4.32423 60.6043 4.30572 60.6071 4.25164C60.61 4.19755 60.6698 4.18499 60.7403 4.22378C60.8235 4.26959 60.8482 4.24698 60.8107 4.15922C60.7769 4.08002 60.8163 4.02742 60.9058 4.03211C60.9899 4.03651 61.0308 4.07173 60.9969 4.11043C60.891 4.23115 61.2313 4.20295 61.4675 4.07142C61.6836 3.951 61.6824 3.94935 61.4349 4.02871C61.2902 4.07509 61.1792 4.07562 61.1816 4.02989C61.184 3.98505 61.3155 3.92986 61.4741 3.90722C61.6325 3.88457 61.736 3.82897 61.7039 3.78355C61.6717 3.73813 61.6981 3.67884 61.7625 3.6517C61.8268 3.62465 61.8775 3.65429 61.8751 3.71765C61.8717 3.81016 61.8908 3.81054 61.9727 3.7196C62.0477 3.63605 62.0908 3.66829 62.1367 3.84212C62.2043 4.09866 61.9093 4.42473 61.8095 4.20363C61.7696 4.11494 61.7559 4.1144 61.7444 4.20101C61.7364 4.26126 61.6065 4.30401 61.4557 4.29611C61.305 4.28821 61.1433 4.32559 61.0963 4.37912C61.0402 4.44302 61.066 4.45734 61.1718 4.42073C61.2604 4.3901 61.1234 4.49527 60.8675 4.65443C60.6115 4.81349 60.4615 4.94743 60.5343 4.95195C60.607 4.95647 60.736 4.91199 60.8209 4.85313C60.9916 4.73474 61.3064 4.64401 61.6687 4.60877C61.8476 4.59133 61.9545 4.66563 62.1032 4.91019C62.2975 5.22989 62.2971 5.23631 62.0759 5.34897C61.9524 5.4118 61.9145 5.46652 61.9918 5.47057C62.0689 5.47461 62.0982 5.51644 62.0569 5.56357C62.0155 5.6107 61.9413 5.627 61.8917 5.59971C61.8422 5.57252 61.7682 5.6771 61.7272 5.83218C61.6862 5.98726 61.5115 6.38286 61.339 6.7112C61.0553 7.25118 60.9955 7.63983 61.2387 7.36272C61.292 7.30202 61.3123 7.21949 61.2839 7.17929C61.2555 7.13909 61.2887 7.10918 61.3577 7.11279C61.4268 7.11641 61.4539 7.07789 61.418 7.02706C61.3802 6.97376 61.4717 6.98447 61.6351 7.05264C61.7904 7.11739 61.9157 7.20597 61.9134 7.2495C61.9111 7.29294 61.8669 7.30517 61.8151 7.27662C61.7628 7.24786 61.7531 7.39206 61.7932 7.60095C61.8329 7.80788 61.8663 8.00195 61.8674 8.03226C61.8714 8.13908 62.5833 8.76429 62.7084 8.77085C62.7782 8.77451 62.8838 8.84944 62.943 8.93746C63.037 9.07696 63.066 9.0813 63.1702 8.97142C63.2735 8.86246 63.2888 8.86556 63.2837 8.99421C63.2743 9.22228 63.4856 9.28662 63.7318 9.13075C63.9434 8.99677 63.9509 8.99884 63.8977 9.17489C63.812 9.45822 64.044 9.40477 64.2297 9.09829C64.34 8.91641 64.4061 8.87314 64.4281 8.96839C64.4549 9.08407 64.5005 9.07394 64.6686 8.91494C64.8177 8.7739 64.8404 8.69908 64.7496 8.649C64.6659 8.6029 64.6517 8.61988 64.7079 8.69928C64.7675 8.78362 64.7502 8.79576 64.6495 8.74031C64.5487 8.68485 64.5314 8.69699 64.591 8.78133C64.6484 8.86238 64.6332 8.87772 64.5442 8.8287C64.4517 8.77792 64.4491 8.72531 64.5351 8.65222C64.6025 8.59499 64.6327 8.52638 64.6021 8.49973C64.5716 8.47318 64.6391 8.40097 64.7522 8.33944C64.9391 8.23751 64.9431 8.24063 64.7957 8.3732C64.6522 8.50218 64.661 8.52046 64.8718 8.5315C65.0028 8.53837 65.1121 8.50442 65.1146 8.45605C65.1172 8.40768 65.195 8.37208 65.2876 8.37693C65.3803 8.38179 65.4579 8.34926 65.4603 8.30459C65.4667 8.18138 66.1455 7.72993 66.2228 7.79738C66.2601 7.82976 66.2777 7.81596 66.2619 7.76663C66.2462 7.7173 66.3032 7.58829 66.3886 7.47998C66.5337 7.29613 66.5287 7.28855 66.3136 7.36573C66.1869 7.4112 66.0434 7.53384 65.9946 7.63816C65.8872 7.8678 65.6004 8.08239 65.5081 8.00207C65.4278 7.93208 65.732 7.51047 65.8258 7.56176C65.8618 7.58155 66.0246 7.47077 66.1875 7.31565C66.3504 7.16052 66.5246 7.03464 66.5747 7.03594C66.6247 7.03715 66.6346 7.07356 66.5968 7.11673C66.5051 7.22118 66.7164 7.3319 66.8777 7.26399C66.9685 7.22571 66.9666 7.1892 66.8711 7.13657C66.7719 7.08208 66.8073 6.99593 67.0069 6.80552C67.1553 6.66391 67.318 6.57085 67.3687 6.59873C67.4193 6.6266 67.4629 6.60746 67.4656 6.55627C67.4682 6.50509 67.5209 6.46579 67.5827 6.46903C67.7886 6.47982 67.6882 6.66679 67.4579 6.70146C67.3331 6.72032 67.2293 6.76744 67.2273 6.80622C67.2253 6.845 67.1898 6.94764 67.1485 7.03427C67.0912 7.15419 67.1012 7.16433 67.19 7.07648C67.2575 7.00965 67.3649 6.99314 67.4452 7.0373C67.5327 7.08553 67.5576 7.0767 67.5127 7.01333C67.4738 6.9582 67.5578 6.83738 67.6995 6.74499C68.0459 6.51896 68.2307 6.541 67.9507 6.77491C67.7447 6.94709 67.7519 6.94649 68.0428 6.76695C68.2164 6.65982 68.3344 6.53832 68.305 6.49692C68.2758 6.45553 68.3575 6.37666 68.4866 6.32169C68.7548 6.20745 68.8128 6.04894 68.5641 6.10971C68.448 6.13811 68.4217 6.10895 68.4758 6.01187C68.5266 5.92045 68.5076 5.89264 68.4193 5.92981C68.332 5.9666 68.3117 5.9397 68.3606 5.85205C68.4172 5.75026 68.3842 5.72948 68.223 5.76565C67.8714 5.84458 67.8319 5.87257 67.9126 5.98536C68.0582 6.18884 68.0237 6.30484 67.8369 6.23932C67.6723 6.18149 67.67 6.19283 67.8138 6.35443C67.9631 6.52221 67.9606 6.52481 67.7734 6.39552C67.5936 6.27128 67.5918 6.24808 67.7555 6.16539C67.8557 6.11473 67.9065 6.04624 67.8684 6.01311C67.8304 5.9799 67.7338 5.99063 67.6539 6.03688C67.5531 6.09517 67.4876 6.09147 67.4405 6.02499C67.4032 5.97215 67.4011 5.92548 67.4359 5.92122C67.4707 5.91696 67.5374 5.90952 67.5841 5.90465C67.8325 5.87869 68.7534 5.38402 68.5711 5.37446C68.5173 5.37165 68.4027 5.41529 68.3163 5.47134C68.1907 5.55303 68.1766 5.55202 68.2455 5.46639C68.2928 5.4075 68.5472 5.28671 68.8108 5.19796C69.0743 5.10913 69.3339 4.98358 69.3875 4.91893C69.4412 4.85429 69.5436 4.83276 69.6151 4.87107C69.7119 4.92288 69.712 4.90499 69.6159 4.80163C69.5116 4.68946 69.5293 4.63695 69.7076 4.53051C69.8291 4.45796 69.9431 4.43827 69.9608 4.48682C69.9784 4.53527 70.102 4.58716 70.2354 4.60209C70.3686 4.61701 70.449 4.66179 70.4141 4.70175C70.379 4.74162 70.2782 4.74842 70.1901 4.71682C70.0999 4.68449 70.0579 4.69922 70.0942 4.75051C70.1297 4.80061 70.0743 4.86234 69.971 4.88752C69.8191 4.92462 69.8109 4.95091 69.9284 5.02462C70.0338 5.09072 70.0088 5.10123 69.8378 5.0629C69.6905 5.02988 69.5417 5.0689 69.4417 5.16674C69.3536 5.25296 69.2001 5.31925 69.1005 5.31403C69.0009 5.30881 68.9164 5.36179 68.9128 5.4317C68.9078 5.52773 68.9576 5.5404 69.1165 5.48338C69.2322 5.44183 69.3258 5.42707 69.3246 5.45046C69.3234 5.47385 69.6419 5.38773 70.0326 5.259C70.8731 4.98198 71.3805 4.88344 71.3745 4.99847C71.3721 5.0434 71.2661 5.0748 71.1391 5.06814C71.012 5.06148 70.9359 5.09567 70.9702 5.14412C71.0079 5.19741 71.1359 5.20721 71.2945 5.16888C71.4934 5.12083 71.5549 5.1364 71.5498 5.23349C71.5461 5.30402 71.4769 5.33769 71.3957 5.30857C71.2019 5.23906 71.1997 5.37475 71.3923 5.51491C71.5002 5.5934 71.5294 5.81186 71.4934 6.27125C71.4476 6.85518 71.4628 6.91532 71.6512 6.89688C71.7929 6.88306 71.838 6.91514 71.7924 6.99732C71.7482 7.07674 71.7815 7.10433 71.8897 7.07781C71.9802 7.05575 72.0298 6.99089 71.9999 6.93377C71.97 6.87665 72.0038 6.89861 72.0749 6.98249C72.1918 7.1201 72.2304 7.12327 72.4715 7.01518C72.7339 6.89736 72.7382 6.90094 72.7216 7.2163C72.7062 7.51081 72.7239 7.53043 72.9359 7.45433C73.1135 7.39062 73.1587 7.3974 73.1313 7.48353C73.1118 7.5452 73.0186 7.61862 72.9242 7.64666C72.808 7.68113 72.8461 7.70447 73.042 7.71897C73.2978 7.73784 73.328 7.77514 73.3027 8.04083C73.2871 8.20614 73.3148 8.32435 73.3644 8.3034C73.414 8.28254 73.4521 8.31399 73.449 8.37327C73.4459 8.43254 73.4759 8.45819 73.5157 8.4302C73.5555 8.40231 73.6502 8.43364 73.7263 8.49997C73.8936 8.64577 74.741 8.72995 74.8454 8.611C74.8864 8.56438 74.9657 8.55134 75.0217 8.58223C75.0778 8.61303 75.1282 8.55069 75.1338 8.44357C75.1439 8.25178 75.1402 8.25114 74.8828 8.39947C74.7393 8.48224 74.8175 8.40521 75.0569 8.22826C75.2963 8.05122 75.5287 7.93827 75.5734 7.9772C75.6181 8.01614 75.6004 8.07279 75.5342 8.10301C75.468 8.13331 75.3751 8.22994 75.3279 8.31768C75.2597 8.44453 75.2828 8.46743 75.4402 8.42894C75.5871 8.39308 75.5664 8.43433 75.3605 8.58861C75.2077 8.703 75.0435 8.77517 74.9958 8.74886C74.9481 8.72264 74.8652 8.7533 74.8115 8.81715C74.758 8.88101 74.6372 8.95175 74.5432 8.97434C74.4197 9.00402 74.4344 9.02049 74.5963 9.03356C74.8649 9.05531 75.4015 8.82576 75.6374 8.58822C75.787 8.43751 75.7859 8.40932 75.6282 8.35282C75.4655 8.29447 75.4681 8.27362 75.6567 8.12698C75.7709 8.03808 75.9109 7.99101 75.9679 8.02239C76.0248 8.05377 76.1488 8.00145 76.2434 7.90614C76.3414 7.80749 76.4854 7.75807 76.5781 7.79133C76.7736 7.86136 76.7863 7.79765 76.6297 7.53257C76.5651 7.42328 76.5508 7.3653 76.598 7.40366C76.7101 7.49525 77.0106 7.32044 76.932 7.20927C76.8969 7.15954 76.7907 7.16747 76.679 7.22802C76.5092 7.32026 76.5045 7.31623 76.64 7.19405C76.7328 7.11029 76.7518 7.03272 76.688 6.99763C76.6301 6.96567 76.5545 6.98799 76.52 7.04711C76.4752 7.12404 76.4564 7.12464 76.454 7.04938C76.4485 6.87943 76.644 6.847 76.7848 6.9945C76.9431 7.16047 77.4007 7.03947 77.2829 6.86276C77.2428 6.80246 77.3189 6.83678 77.4521 6.93908C77.6784 7.11285 77.6812 7.13169 77.4937 7.22636C77.3533 7.29739 77.2527 7.29812 77.1575 7.22893C76.9811 7.10064 77.002 7.33172 77.1841 7.52256C77.2544 7.59626 77.2745 7.68276 77.2288 7.71485C77.1831 7.74693 77.2381 7.75061 77.351 7.72301C77.4812 7.69121 77.5394 7.61199 77.5101 7.50632C77.4849 7.41469 77.5111 7.32004 77.5685 7.29588C77.6258 7.27173 77.6707 7.2904 77.6683 7.33744C77.6618 7.46047 78.3206 7.28936 78.6346 7.08642C78.7782 6.99377 79.0833 6.85906 79.3129 6.78714C79.5424 6.7153 79.7321 6.61996 79.7344 6.57537C79.7367 6.53087 79.8038 6.51772 79.8834 6.54632C79.9631 6.57483 80.2106 6.5132 80.4334 6.40927C80.6563 6.30535 81.0535 6.15844 81.3161 6.08279C81.5788 6.00723 81.7951 5.91795 81.7968 5.88462C81.8 5.82491 81.2792 5.91922 80.6035 6.10074C80.2223 6.20315 80.1444 6.21856 79.9712 6.22544C79.9056 6.22809 79.8756 6.26382 79.9047 6.30502C79.9337 6.34614 79.8052 6.44081 79.6189 6.51544C79.4326 6.59007 79.2815 6.62641 79.2831 6.59616C79.2846 6.566 79.13 6.61785 78.9393 6.71148C78.7487 6.8051 78.594 6.85696 78.5956 6.82679C78.5971 6.79663 78.4661 6.87636 78.3044 7.00395C78.1426 7.13153 78.0412 7.17471 78.0791 7.09998C78.1223 7.01433 78.0837 6.96055 77.9746 6.95483C77.8793 6.94983 77.7994 6.98356 77.7969 7.02982C77.7945 7.07608 77.7194 7.06067 77.6299 6.99558C77.4306 6.85057 77.4144 6.66057 77.6125 6.79088C77.8464 6.94476 78.0087 6.89595 78.6168 6.48876C79.105 6.16179 79.235 6.11358 79.3675 6.20994C79.4556 6.27408 79.5615 6.30282 79.6029 6.27386C79.6441 6.24481 79.616 6.21785 79.5404 6.21389C79.4647 6.20992 79.4363 6.16839 79.4773 6.12169C79.5184 6.07499 79.6781 6.0614 79.8321 6.09161C80.0642 6.13711 80.0908 6.12386 79.9867 6.0147C79.8886 5.91195 79.9003 5.85524 80.0394 5.75751C80.1377 5.68859 80.2932 5.63607 80.3853 5.64089C80.6848 5.65659 80.9135 5.56417 80.8401 5.45706C80.8007 5.39944 80.8522 5.41193 80.9545 5.48484C81.1148 5.59888 81.2036 5.59868 81.5953 5.48297C81.8454 5.40904 82.0514 5.32266 82.0531 5.29083C82.0563 5.23015 83.4306 4.96435 84.0893 4.89702C84.3553 4.86987 84.4497 4.88619 84.3939 4.94976C84.3383 5.01307 84.4113 5.02641 84.6275 4.99251C85.243 4.89593 85.3897 5.00811 85.3116 5.51583C85.2956 5.61949 85.3347 5.73308 85.3984 5.76817C85.4621 5.80317 85.5111 5.87901 85.5071 5.93657C85.5027 5.99947 85.4592 5.98626 85.398 5.9036C85.3136 5.78965 85.2944 5.79614 85.2864 5.94184C85.2677 6.28036 85.3822 6.78459 85.4789 6.78965C85.5325 6.79247 85.5836 6.72575 85.5924 6.64128C85.6059 6.51096 85.6206 6.51508 85.6894 6.66842C85.7341 6.76776 85.7486 6.87592 85.7216 6.90872C85.6947 6.94153 85.8096 7.04587 85.9768 7.14053C86.333 7.34208 86.4484 7.46612 86.3665 7.55944C86.3341 7.59645 86.4241 7.63345 86.5667 7.64162C86.7212 7.65052 86.7719 7.67998 86.6923 7.71461C86.5964 7.75632 86.6134 7.83146 86.7526 7.98099C86.9657 8.20997 87.183 8.26351 87.2058 8.09266C87.2138 8.0325 87.2656 8.09491 87.3207 8.23148C87.3759 8.36806 87.4683 8.45985 87.5262 8.43546C87.5841 8.41107 87.6223 8.56836 87.6109 8.78487C87.577 9.43281 87.7657 9.65602 88.0418 9.29421C88.1172 9.19535 88.1311 9.13452 88.0728 9.15915C88.0143 9.18378 87.9773 9.06932 87.9904 8.90475L88.0143 8.60575L88.2516 8.84543C88.5089 9.1052 88.4389 9.32587 88.0529 9.47142C87.9437 9.51261 87.8891 9.57668 87.9315 9.61365C87.974 9.65071 88.0965 9.63032 88.2036 9.56847C88.3106 9.50654 88.4285 9.45742 88.4653 9.45935C88.5021 9.46128 88.5236 9.43939 88.5132 9.41072C88.4789 9.31676 91.6393 7.19275 91.735 7.24548C91.7863 7.27374 91.8958 7.23953 91.9782 7.16951C92.2155 6.96802 93.9395 6.17487 94.1198 6.18432C94.2095 6.18902 94.3148 6.13529 94.354 6.06485C94.3932 5.99442 94.4693 5.96102 94.5232 5.99074C94.577 6.02037 94.6235 6.00041 94.6263 5.94632C94.6291 5.89224 94.6767 5.87295 94.732 5.90336C94.7874 5.93386 94.9051 5.90794 94.9936 5.84573C95.1814 5.71387 95.5182 5.64007 96.0263 5.61935C96.2258 5.61128 96.5675 5.58096 96.7857 5.5521C97.5152 5.45541 97.5254 5.46449 97.4536 6.14017C97.4179 6.47692 97.4116 6.88267 97.4397 7.04172C97.4835 7.29013 97.537 7.33341 97.8189 7.34818C98.0645 7.36106 98.129 7.39768 98.0755 7.49391C98.0258 7.5831 98.0764 7.62623 98.2405 7.63483C98.3706 7.64165 98.4802 7.70691 98.4841 7.77987C98.4973 8.02641 98.5114 8.05819 98.6729 8.20571C98.7615 8.28672 98.951 8.47998 99.094 8.63519C99.3355 8.89731 99.6334 8.97156 99.4721 8.72943C99.4327 8.67004 99.4977 8.69603 99.6169 8.78719C99.736 8.87835 99.8956 8.95611 99.9716 8.96009C100.047 8.96407 100.073 9.00906 100.028 9.06006C99.9787 9.11655 100.053 9.11401 100.219 9.05339C100.369 8.9988 100.59 8.9529 100.71 8.95155C100.831 8.95021 101.183 8.75508 101.493 8.51806C101.803 8.28103 102.055 8.11443 102.053 8.14794C102.044 8.32294 102.418 7.96158 102.547 7.67074C102.682 7.36584 102.727 7.33873 103.012 7.3892C103.185 7.4199 103.362 7.4045 103.406 7.3551C103.452 7.30232 103.43 7.28804 103.353 7.32051C103.27 7.35565 103.247 7.33012 103.291 7.25069C103.345 7.15481 103.44 7.14753 103.697 7.21985C103.986 7.30078 104.044 7.28923 104.103 7.13751C104.157 7.00151 104.194 6.989 104.265 7.0833C104.34 7.18201 104.389 7.17718 104.517 7.05896C104.658 6.92939 104.693 6.92847 104.81 7.05127C105.026 7.27803 104.817 7.79454 104.475 7.87715C104.317 7.91512 104.218 7.98751 104.254 8.03797C104.289 8.08842 104.344 8.13105 104.375 8.13267C104.406 8.13429 104.407 8.10246 104.379 8.06198C104.35 8.02151 104.477 7.95224 104.661 7.90818C104.862 7.86007 105.019 7.86197 105.056 7.91307C105.089 7.95977 105.164 7.97774 105.223 7.95287C105.282 7.92809 105.328 7.94947 105.325 8.00047C105.322 8.05596 105.47 8.08239 105.693 8.06633C106.037 8.04175 106.078 8.06512 106.207 8.36258C106.399 8.80047 106.621 8.95974 106.653 8.68171C106.674 8.50115 106.683 8.49731 106.724 8.65262C106.784 8.88204 106.987 8.99611 107.104 8.86627C107.165 8.79951 107.193 8.82101 107.188 8.9302C107.183 9.06236 107.214 9.07617 107.346 9.00001C107.477 8.92417 107.523 8.94201 107.573 9.08848C107.608 9.18943 107.606 9.30696 107.569 9.34953C107.472 9.45997 107.602 9.72146 107.728 9.66861C107.785 9.64429 107.806 9.58609 107.772 9.5392C107.716 9.45962 107.882 9.42386 108.104 9.46762C108.158 9.47819 108.17 9.4141 108.132 9.32523C108.093 9.23635 108.086 8.64012 108.115 8.00033C108.145 7.36054 108.126 6.85515 108.074 6.87734C108.021 6.89953 107.907 6.78345 107.821 6.61933C107.735 6.4553 107.571 6.19702 107.455 6.04548C107.34 5.89393 107.217 5.71889 107.182 5.65638C107.147 5.59397 107.048 5.53913 106.962 5.53463C106.876 5.53012 106.808 5.48448 106.81 5.4333C106.813 5.38212 106.872 5.37146 106.942 5.40967C107.022 5.45381 107.039 5.43895 106.99 5.36908C106.93 5.28474 106.874 5.28106 106.748 5.35359C106.625 5.42466 106.586 5.42294 106.59 5.34661C106.593 5.29068 106.447 5.11886 106.267 4.96477C106.073 4.7994 105.973 4.64189 106.023 4.58025C106.07 4.52283 106.069 4.50097 106.02 4.53165C105.971 4.56243 105.828 4.48349 105.702 4.35633C105.186 3.83735 103.245 4.10396 101.251 4.96753C100.859 5.1376 100.63 5.18357 100.429 5.1331C100.199 5.07519 100.163 5.08967 100.217 5.21658C100.253 5.30172 100.237 5.34524 100.181 5.31435C100.125 5.28374 100.081 5.19008 100.083 5.10623C100.091 4.75893 100.021 4.53571 99.8516 4.36323C99.7527 4.26273 99.6739 4.1414 99.6764 4.09365C99.6789 4.04581 99.6304 4.00403 99.5687 4.00079C99.5069 3.99756 99.4595 3.93643 99.4632 3.86502C99.467 3.79362 99.352 3.66661 99.2078 3.58277C99.0636 3.49894 98.8195 3.26401 98.6652 3.06069C98.5109 2.85728 98.2514 2.63716 98.0886 2.57149C97.9257 2.50581 97.6696 2.38013 97.5194 2.29228C97.2203 2.11708 96.4527 1.96698 96.1823 2.03067ZM83.1963 2.22602C83.1575 2.25326 83.0605 2.25135 82.9809 2.22169C82.8927 2.18894 82.9204 2.1695 83.0514 2.17213C83.17 2.17455 83.2351 2.19877 83.1963 2.22602ZM83.2031 3.20167C83.1243 3.22214 83.0822 3.27055 83.1097 3.30938C83.137 3.3482 83.0246 3.35245 82.8598 3.31885C82.5897 3.26378 82.5823 3.25211 82.7849 3.20153C82.9086 3.17062 83.0855 3.14965 83.1781 3.15494C83.292 3.16144 83.3001 3.17659 83.2031 3.20167ZM82.4914 3.37036C82.4889 3.41873 82.4646 3.45714 82.4373 3.45571C82.41 3.45428 82.3587 3.4119 82.323 3.36154C82.2874 3.31117 82.3118 3.27277 82.3772 3.27619C82.4425 3.27961 82.494 3.32199 82.4914 3.37036ZM64.5235 2.55154C64.5225 2.57054 64.5989 2.61378 64.6932 2.64764C64.7915 2.68287 64.8373 2.67045 64.8006 2.61862C64.7391 2.53153 64.5273 2.48031 64.5235 2.55154ZM37.5177 1.7721C37.4789 1.79934 37.3818 1.79743 37.3022 1.76778C37.2141 1.73503 37.2418 1.71558 37.3728 1.71821C37.4913 1.72063 37.5565 1.74486 37.5177 1.7721ZM84.8628 4.2873C84.8995 4.33914 84.8537 4.35155 84.7553 4.31633C84.564 4.24766 84.5317 4.18274 84.6931 4.1912C84.7513 4.19425 84.8276 4.23749 84.8628 4.2873ZM97.5963 5.12201C97.585 5.33711 97.531 5.37908 97.242 5.397C97.0452 5.40926 96.8531 5.36798 96.7876 5.29929C96.7252 5.23394 96.5038 5.18195 96.2956 5.18391C96.0873 5.18587 95.947 5.15329 95.9836 5.11148C96.0202 5.06975 96.1446 5.06012 96.2598 5.09006C96.3751 5.12009 96.4712 5.10987 96.4734 5.06739C96.4776 4.98772 97.0652 4.86155 97.4127 4.86574C97.557 4.86749 97.606 4.93584 97.5963 5.12201ZM83.8486 4.3233C83.8842 4.37367 83.8316 4.4106 83.7317 4.40536C83.6318 4.40013 83.5834 4.3579 83.6241 4.31154C83.6648 4.26517 83.7174 4.22825 83.7409 4.22948C83.7645 4.23072 83.8129 4.27294 83.8486 4.3233ZM83.8881 4.64274C82.7505 4.82307 82.5526 4.82883 83.0989 4.66585C83.3191 4.60022 83.5902 4.55411 83.7014 4.56347C83.8125 4.57282 83.93 4.53277 83.9625 4.47442C84.0004 4.4063 84.1702 4.39007 84.4373 4.42911C84.8225 4.48545 84.7823 4.50107 83.8881 4.64274ZM96.8865 5.24133C96.9624 5.26983 97.0887 5.27644 97.1671 5.25604C97.2456 5.23573 97.1835 5.21245 97.0291 5.20436C96.8747 5.19627 96.8106 5.21293 96.8865 5.24133ZM57.2543 3.67399C56.9791 3.88064 56.6778 4.04571 56.585 4.04085C56.4921 4.03597 56.4454 4.05752 56.4813 4.08876C56.517 4.12 56.4194 4.22793 56.2642 4.3287C56.1089 4.42938 56.0175 4.54275 56.0609 4.58065C56.1044 4.61847 56.0837 4.63334 56.0148 4.61351C55.946 4.59377 55.7256 4.70787 55.5249 4.86711C55.3155 5.03329 55.1621 5.10241 55.1649 5.02946C55.1676 4.95949 55.3148 4.79243 55.4922 4.65816C55.6695 4.5239 55.7499 4.43905 55.6709 4.46947C55.4093 4.5704 55.5261 4.43631 56.0302 4.05692C56.3041 3.85073 56.6535 3.67019 56.8066 3.65564C56.9598 3.641 57.2158 3.53732 57.3755 3.42506C57.8803 3.07074 57.7779 3.28115 57.2543 3.67399ZM95.7797 5.23809C95.7533 5.25046 95.6276 5.31327 95.5004 5.37777C95.2864 5.48622 95.2812 5.48409 95.4312 5.34918C95.5204 5.26894 95.6461 5.20613 95.7106 5.20951C95.775 5.21289 95.8062 5.22572 95.7797 5.23809ZM70.6238 4.28639C70.619 4.37916 70.4015 4.40692 70.3417 4.3223C70.3055 4.27111 70.3546 4.23339 70.4509 4.23843C70.5471 4.24347 70.625 4.26502 70.6238 4.28639ZM36.7052 2.82262C36.6101 2.86464 36.4565 2.89504 36.3639 2.89019C36.2143 2.88234 36.2148 2.87293 36.3684 2.80497C36.4634 2.76295 36.617 2.73255 36.7096 2.73741C36.8593 2.74525 36.8588 2.75466 36.7052 2.82262ZM55.9045 3.77106C55.9036 3.78777 55.7852 3.8708 55.6415 3.95569L55.3802 4.10998L55.6044 3.92332C55.8151 3.74794 55.9082 3.70071 55.9045 3.77106ZM69.7047 4.64024C69.557 4.70551 69.5604 4.71839 69.7283 4.72833C69.8362 4.73469 69.9267 4.70037 69.9293 4.65201C69.9349 4.54472 69.9222 4.54405 69.7047 4.64024ZM82.9513 5.3357C82.8297 5.39034 82.8958 5.40271 83.1742 5.37745C83.662 5.33326 83.7559 5.28801 83.3956 5.27089C83.2463 5.26385 83.0464 5.29297 82.9513 5.3357ZM93.0933 6.0792C92.9699 6.14152 92.846 6.17259 92.8181 6.1482C92.7588 6.09659 93.0565 5.95559 93.2118 5.96169C93.2699 5.96404 93.2165 6.01688 93.0933 6.0792ZM22.118 2.46925C22.0396 2.48965 21.9133 2.48303 21.8374 2.45454C21.7615 2.42614 21.8257 2.40948 21.98 2.41757C22.1344 2.42566 22.1965 2.44894 22.118 2.46925ZM92.6995 6.19807C92.6969 6.24644 92.6413 6.2832 92.576 6.27978C92.5106 6.27635 92.4904 6.23561 92.5311 6.18924C92.5718 6.14288 92.6273 6.1061 92.6546 6.10753C92.6818 6.10896 92.702 6.1497 92.6995 6.19807ZM45.0508 3.80276C45.0945 3.86448 45.0778 3.88213 45.0107 3.84519C44.9476 3.8104 44.8608 3.84509 44.8178 3.92229C44.7749 3.99941 44.7097 4.03647 44.6731 4.00448C44.6365 3.97258 44.6735 3.88942 44.7555 3.81982C44.9342 3.66799 44.9547 3.66677 45.0508 3.80276ZM62.4333 4.69169C62.3301 4.76415 62.0442 4.75366 62.0482 4.67759C62.0504 4.63653 62.1507 4.61392 62.2711 4.62737C62.3915 4.64083 62.4645 4.66978 62.4333 4.69169ZM68.672 5.01424C68.6699 5.05557 68.4349 5.19008 68.1498 5.31306C67.8648 5.43612 67.6298 5.57081 67.6276 5.61231C67.6254 5.65391 67.6835 5.66277 67.7566 5.63204C67.8389 5.59729 67.857 5.61305 67.8039 5.67332C67.6818 5.81251 67.4295 5.77944 67.3593 5.61501C67.3251 5.53474 67.3458 5.50046 67.4078 5.53457C67.4673 5.56732 67.5192 5.53238 67.5232 5.45702C67.5271 5.38166 67.602 5.32367 67.6894 5.32826C67.7769 5.33284 67.867 5.30405 67.8898 5.26424C67.9214 5.20893 68.3546 5.0275 68.6474 4.9469C68.6632 4.94261 68.6742 4.97291 68.672 5.01424ZM79.1143 5.52076C79.1133 5.53975 79.0329 5.57478 78.9355 5.5986C78.834 5.62335 78.7898 5.60622 78.8317 5.5585C78.902 5.47832 79.118 5.44952 79.1143 5.52076ZM80.9893 5.68348C81.0624 5.74763 81.1516 5.77938 81.1875 5.7541C81.2235 5.72882 81.1637 5.6764 81.0548 5.63753C80.8973 5.58149 80.8839 5.59083 80.9893 5.68348ZM81.3564 5.69699C81.3537 5.74817 81.4033 5.76832 81.4666 5.74165C81.5299 5.71499 81.5826 5.67578 81.5838 5.65441C81.5849 5.63304 81.5353 5.61298 81.4735 5.60974C81.4118 5.60651 81.3591 5.64581 81.3564 5.69699ZM55.2063 4.46488C55.0269 4.55142 54.9796 4.61737 55.0636 4.66357C55.1556 4.71424 55.1475 4.75703 55.0335 4.82292C54.9099 4.89431 54.881 4.86766 54.8941 4.69437C54.9099 4.48735 55.1252 4.32139 55.3656 4.33099C55.4255 4.33343 55.3539 4.39369 55.2063 4.46488ZM91.2337 6.24277C91.2328 6.26097 91.1407 6.32563 91.0292 6.38637C90.8454 6.48635 90.8417 6.48306 90.9885 6.3509C91.1429 6.21208 91.2375 6.17039 91.2337 6.24277ZM92.2561 6.45852C92.0367 6.61262 92.0872 6.73528 92.319 6.61066C92.4343 6.54854 92.2963 6.64766 92.0122 6.83073C91.5246 7.14495 91.1812 7.24458 91.1904 7.06906C91.1927 7.02596 91.1347 7.01578 91.0616 7.04652C90.9786 7.0815 90.9613 7.06543 91.0154 7.0038C91.0631 6.94951 91.1407 6.92642 91.188 6.95244C91.2353 6.97846 91.3947 6.9093 91.5423 6.79879C91.6899 6.68827 91.8612 6.62564 91.9228 6.65956C91.9908 6.69699 92.0097 6.66227 91.9708 6.57116C91.929 6.47312 91.964 6.42407 92.0717 6.42971C92.1624 6.43447 92.239 6.39219 92.242 6.33573C92.2449 6.27936 92.2805 6.262 92.3209 6.29727C92.3613 6.33255 92.3322 6.4051 92.2561 6.45852ZM70.5144 5.29995C70.4208 5.40668 70.5694 5.41447 70.7951 5.31465C70.9441 5.24883 70.9417 5.23671 70.7782 5.22691C70.6738 5.22074 70.5551 5.25358 70.5144 5.29995ZM36.3566 3.7666C36.2468 3.85696 36.0878 3.89951 35.9867 3.86546C35.8891 3.83266 35.846 3.84081 35.8907 3.88362C36.0218 4.0091 35.4869 4.3598 35.3341 4.24863C35.2379 4.17877 35.2058 4.23238 35.2083 4.45825C35.2102 4.6252 35.1644 4.75181 35.1067 4.73961C35.049 4.72741 34.976 4.76574 34.9445 4.82476C34.8691 4.96613 35.269 4.87704 35.4011 4.72294C35.4538 4.66142 35.5576 4.61553 35.6316 4.621C35.7056 4.62638 35.6091 4.72767 35.4171 4.846C35.2252 4.96433 35.0828 5.10449 35.1005 5.15727C35.1183 5.21014 35.0165 5.15807 34.8742 5.04144C34.732 4.92491 34.5624 4.82669 34.4975 4.82329C34.2884 4.81233 33.7646 5.14872 33.8352 5.24854C33.8765 5.30705 33.9892 5.26666 34.1205 5.14621C34.2398 5.03677 34.336 4.99675 34.3342 5.05723C34.3324 5.11781 34.3845 5.17009 34.4498 5.17352C34.5151 5.17694 34.5399 5.139 34.5047 5.08918C34.468 5.03735 34.5136 5.02484 34.6114 5.05994C34.8532 5.14669 34.7142 5.2603 34.2891 5.32364C34.0893 5.35338 33.9232 5.41478 33.9199 5.46003C33.9081 5.62052 33.7381 5.73294 33.4676 5.75907C33.2572 5.77944 33.2102 5.75528 33.2658 5.65555C33.3206 5.5571 33.2849 5.53724 33.1191 5.5737C32.9097 5.61969 32.9094 5.61676 33.1105 5.50843C33.2262 5.44598 33.3243 5.36179 33.3285 5.32119C33.3327 5.28058 33.3796 5.25923 33.4327 5.27365C33.5224 5.29801 33.8205 4.99415 33.8364 4.8621C33.8402 4.83002 33.8912 4.77317 33.9494 4.73575C34.011 4.6963 34.0192 4.71216 33.9689 4.77354C33.822 4.95323 34.0683 4.90062 34.4235 4.67647C34.678 4.51591 34.7055 4.47502 34.5342 4.51111C34.3605 4.54777 34.3388 4.5364 34.4425 4.46292C34.6333 4.32786 34.8697 4.46723 34.6977 4.61332C34.6153 4.68335 34.6073 4.74448 34.6755 4.78209C34.7345 4.81455 34.8253 4.79312 34.8774 4.73438C34.9695 4.63048 34.9953 4.57372 35.0932 4.25928C35.1215 4.16835 35.244 4.11207 35.3982 4.11892C35.5642 4.12638 35.6942 4.05921 35.7634 3.93048C35.8293 3.80801 35.9315 3.75217 36.027 3.78636C36.1127 3.81713 36.2137 3.78688 36.2513 3.71919C36.289 3.6515 36.3715 3.59877 36.4346 3.60208C36.4976 3.60538 36.4626 3.67938 36.3566 3.7666ZM59.801 4.90514C59.705 4.94676 59.687 4.99599 59.7544 5.03312C59.8148 5.06636 59.896 5.03587 59.9353 4.96544C60.0176 4.81747 60.0108 4.81446 59.801 4.90514ZM70.1123 5.45524C70.0085 5.50112 69.9927 5.53495 70.0731 5.54004C70.1466 5.5446 70.24 5.51043 70.2807 5.46406C70.3725 5.35935 70.3337 5.35732 70.1123 5.45524ZM70.7367 5.47976C70.6997 5.52173 70.7718 5.54077 70.8967 5.52192C71.1616 5.48192 71.1979 5.42395 70.9655 5.41177C70.8765 5.4071 70.7735 5.43769 70.7367 5.47976ZM88.7502 6.37716C88.7493 6.39536 88.6572 6.46002 88.5457 6.52076C88.3619 6.62074 88.3581 6.61745 88.505 6.48529C88.6594 6.34647 88.754 6.30478 88.7502 6.37716ZM43.6174 4.10003C43.6164 4.11823 43.5243 4.18289 43.4129 4.24363C43.2291 4.34361 43.2253 4.34032 43.3722 4.20816C43.5266 4.06934 43.6212 4.02765 43.6174 4.10003ZM56.1907 4.75324C56.1899 4.76836 56.0191 4.88842 55.8109 5.01992L55.4325 5.25908L55.7772 4.99056C56.0985 4.74029 56.1943 4.68526 56.1907 4.75324ZM22.2238 3.1209C22.2605 3.17273 22.2147 3.18515 22.1164 3.14992C21.925 3.08125 21.8927 3.01634 22.0541 3.0248C22.1123 3.02784 22.1886 3.07108 22.2238 3.1209ZM69.7305 5.64624C69.6798 5.73538 69.6636 5.83048 69.6945 5.8575C69.7928 5.94307 69.8898 5.81632 69.8556 5.64707C69.8244 5.492 69.8183 5.49194 69.7305 5.64624ZM70.7938 5.64836C70.7222 5.66312 70.6613 5.71936 70.6585 5.77336C70.6547 5.84538 70.6883 5.84705 70.7845 5.77952C70.8566 5.72889 70.979 5.71027 71.0567 5.73806C71.1342 5.76593 71.2313 5.75047 71.2722 5.70376C71.3433 5.62275 71.0711 5.59129 70.7938 5.64836ZM90.6497 6.64655C90.649 6.66123 90.4539 6.79977 90.2164 6.95452C89.9788 7.10917 89.8621 7.16046 89.9569 7.06843C90.2228 6.8105 90.6549 6.54735 90.6497 6.64655ZM91.713 6.76364C91.6723 6.81001 91.6926 6.85075 91.7579 6.85418C91.8232 6.8576 91.8788 6.82084 91.8814 6.77247C91.8839 6.7241 91.8638 6.68336 91.8365 6.68193C91.8092 6.6805 91.7537 6.71728 91.713 6.76364ZM21.7537 3.20596C21.717 3.24769 21.6601 3.25828 21.627 3.22948C21.594 3.20068 21.484 3.22207 21.3825 3.27698C21.2237 3.36292 21.2183 3.3585 21.3439 3.2448C21.4953 3.10776 21.8711 3.07217 21.7537 3.20596ZM45.2131 4.57942C44.9651 4.70539 44.7431 4.79393 44.7197 4.77613C44.6455 4.7196 44.9882 4.47433 45.2294 4.41149C45.6683 4.29702 45.6631 4.35071 45.2131 4.57942ZM69.4599 5.66725C69.3796 5.7021 69.3573 5.77713 69.4067 5.84691C69.4695 5.93573 69.5098 5.92012 69.5623 5.78663C69.6011 5.68752 69.6251 5.60668 69.6154 5.60688C69.6057 5.60716 69.5357 5.63427 69.4599 5.66725ZM18.57 3.04793C18.5661 3.12171 17.6051 3.60529 17.4354 3.61879C17.3305 3.62705 17.2537 3.67505 17.2646 3.72527C17.2755 3.77549 17.1983 3.79895 17.093 3.77739C16.9878 3.75591 16.8813 3.73419 16.8564 3.72919C16.7648 3.71063 17.2635 3.37187 17.4861 3.30143C17.7122 3.22987 17.7123 3.23084 17.4912 3.35399C17.2683 3.47803 17.2682 3.47943 17.4842 3.48713C17.6041 3.49148 17.8833 3.38707 18.1046 3.2551C18.496 3.02174 18.5731 2.98742 18.57 3.04793ZM42.9966 4.46017C42.8896 4.54336 42.8384 4.64623 42.8828 4.68877C42.9271 4.73139 42.9072 4.7374 42.8387 4.70233C42.7702 4.66726 42.6487 4.69422 42.5686 4.76225C42.4885 4.83027 42.4656 4.88815 42.5178 4.89089C42.57 4.89362 42.4841 4.95826 42.3271 5.03451C42.17 5.11075 42.0031 5.16126 41.956 5.14671C41.9089 5.13216 41.8171 5.21695 41.7519 5.33513C41.6195 5.5751 41.4779 5.6302 41.6007 5.39396C41.7206 5.16304 41.8949 5.03143 42.0023 5.0905C42.0557 5.11984 42.1013 5.10653 42.1037 5.06089C42.106 5.01525 42.3307 4.82623 42.603 4.64095C43.1079 4.29714 43.3477 4.18704 42.9966 4.46017ZM54.4898 4.98922C54.4873 5.03759 54.463 5.076 54.4357 5.07457C54.4085 5.07314 54.3571 5.03077 54.3215 4.9804C54.2858 4.93003 54.3102 4.89163 54.3756 4.89505C54.4409 4.89848 54.4924 4.94086 54.4898 4.98922ZM68.5835 5.72176C68.5456 5.76492 68.5595 5.82491 68.6144 5.85512C68.6692 5.88533 68.7461 5.85241 68.7854 5.78198C68.8626 5.64318 68.6961 5.59344 68.5835 5.72176ZM77.554 6.18765C76.9739 6.56553 76.1072 6.98236 76.0551 6.90873C76.0195 6.85836 76.0566 6.83147 76.1377 6.84904C76.2188 6.8666 76.2739 6.82787 76.2603 6.76296C76.2467 6.69796 76.2861 6.6726 76.3477 6.70661C76.4094 6.74053 76.4618 6.73014 76.4643 6.68344C76.4667 6.63683 76.7111 6.48853 77.0074 6.35397C77.5302 6.11665 77.7799 6.04067 77.554 6.18765ZM43.5908 4.60727C43.4312 4.69978 43.2989 4.80722 43.2969 4.84609C43.2948 4.88505 43.2576 4.94174 43.2143 4.97219C43.1709 5.00272 43.15 4.96714 43.168 4.89322C43.2094 4.72193 43.5973 4.41749 43.7583 4.42972C43.8258 4.43493 43.7504 4.51475 43.5908 4.60727ZM66.8266 5.83867C66.667 5.94195 66.4339 6.0508 66.3085 6.08065C66.1728 6.11287 66.2452 6.03598 66.4873 5.89064C66.9613 5.60614 67.2555 5.56107 66.8266 5.83867ZM54.8988 5.25686C55.0611 5.16352 55.0628 5.17216 54.9156 5.33869C54.7987 5.47101 54.7275 5.49285 54.6702 5.41401C54.6258 5.35304 54.5947 5.26367 54.6011 5.21551C54.6076 5.16735 54.6364 5.18041 54.6651 5.24461C54.7079 5.33989 54.7505 5.34212 54.8988 5.25686ZM102.3 7.86961C102.24 7.97557 102.131 8.0476 102.056 8.02949C101.864 7.9832 101.475 8.2488 101.555 8.37151C101.592 8.42756 101.586 8.44504 101.541 8.41036C101.45 8.33883 101.015 8.61568 101.008 8.74988C101.006 8.79825 100.936 8.83429 100.854 8.82998C100.772 8.82566 100.707 8.76453 100.711 8.69409C100.715 8.62365 100.759 8.58866 100.809 8.61624C100.859 8.64382 101.012 8.53279 101.149 8.36951C101.286 8.20623 101.497 8.05338 101.619 8.02985C101.746 8.00515 101.81 7.94173 101.769 7.87954C101.73 7.82038 101.737 7.8024 101.784 7.83951C101.831 7.87663 101.979 7.85455 102.112 7.79052C102.423 7.63994 102.428 7.64175 102.3 7.86961ZM44.5931 4.81315C44.5881 4.90909 44.0119 5.17633 44.0145 5.08158C44.0155 5.04416 43.9676 5.06766 43.9082 5.13395C43.8487 5.20014 43.7151 5.25963 43.6112 5.26609C43.5074 5.27255 43.4404 5.26516 43.4624 5.24973C43.4843 5.23431 43.5353 5.2301 43.5755 5.24023C43.6159 5.25046 43.7619 5.15741 43.9001 5.03352C44.0645 4.88606 44.2135 4.83047 44.3312 4.87261C44.4513 4.91568 44.4858 4.90153 44.4352 4.83C44.3935 4.77103 44.413 4.72566 44.4783 4.72909C44.5437 4.73251 44.5954 4.77032 44.5931 4.81315ZM70.0868 6.16685C69.9364 6.20544 69.8405 6.26055 69.8734 6.28926C69.9065 6.31798 70.0799 6.28809 70.2592 6.22288C70.6196 6.09169 70.5137 6.05721 70.0868 6.16685ZM100.96 7.8075C100.888 7.8688 100.852 7.94629 100.881 7.97972C100.909 8.01314 100.9 8.01883 100.86 7.99239C100.82 7.96596 100.679 8.00749 100.546 8.08473C100.413 8.16199 100.459 8.10498 100.649 7.95803C100.982 7.69951 101.226 7.58166 100.96 7.8075ZM17.062 3.62294C16.9152 3.75511 16.919 3.75839 17.1027 3.65841C17.2143 3.59768 17.3063 3.53301 17.3073 3.51481C17.311 3.44244 17.2164 3.48413 17.062 3.62294ZM89.3587 7.65435C89.0746 7.85771 88.8186 8.02287 88.7898 8.02135C88.725 8.01796 89.2243 7.62315 89.5394 7.42873C89.9761 7.15911 89.8761 7.28394 89.3587 7.65435ZM21.035 3.86396C20.9629 3.91459 20.926 4.00781 20.953 4.07121C20.9801 4.13453 20.9474 4.20945 20.8805 4.23761C20.8063 4.26881 20.788 4.23655 20.8334 4.15489C20.8875 4.05773 20.8576 4.03323 20.7249 4.06561C20.6242 4.09022 20.5678 4.14723 20.5998 4.19238C20.6317 4.23744 20.6013 4.27138 20.5323 4.26777C20.4632 4.26415 20.4379 4.30515 20.4758 4.3589C20.5173 4.41751 20.4625 4.44109 20.3387 4.41785C20.2253 4.39656 20.1411 4.42548 20.1517 4.48212C20.1622 4.53876 20.0874 4.57108 19.9853 4.55391C19.8831 4.53665 19.6218 4.60549 19.4045 4.70671C19.1872 4.80802 18.9537 4.86236 18.8854 4.82739C18.8173 4.79251 18.7977 4.79872 18.842 4.84134C18.9423 4.93742 18.5742 5.23683 18.4439 5.16509C18.2845 5.07738 18.3483 4.92481 18.5189 4.98605C18.623 5.02334 18.6606 5.00017 18.6263 4.91972C18.5671 4.78099 18.9722 4.59799 19.1056 4.70313C19.1526 4.74025 19.1554 4.71659 19.1119 4.65037C19.011 4.49747 19.3945 4.28768 19.6429 4.35995C19.7542 4.39233 19.9252 4.32281 20.0828 4.18099C20.2246 4.05341 20.3031 4.00012 20.2573 4.06244C20.2116 4.12486 20.3745 4.08613 20.6193 3.97639C21.1081 3.75739 21.236 3.72282 21.035 3.86396ZM48.1711 5.27534C48.076 5.31736 48.0487 5.35438 48.1105 5.35762C48.1722 5.36085 48.3005 5.32913 48.3956 5.28711C48.4907 5.24509 48.5179 5.20807 48.4562 5.20484C48.3944 5.2016 48.2661 5.23333 48.1711 5.27534ZM44.608 5.36303C44.36 5.50092 44.1691 5.65264 44.1836 5.70005C44.1981 5.74754 44.1606 5.75907 44.1001 5.72583C43.965 5.65146 44.2224 5.33295 44.4098 5.34277C44.48 5.34645 44.6034 5.2934 44.6841 5.22487C44.7648 5.15635 44.8821 5.10298 44.9447 5.10626C45.0074 5.10954 44.8559 5.22506 44.608 5.36303ZM47.2349 5.28748C47.1166 5.42228 47.4419 5.51023 47.741 5.42432C47.9807 5.35549 47.9777 5.35251 47.6965 5.38054C47.5152 5.39864 47.3789 5.36769 47.3553 5.30296C47.3275 5.22699 47.292 5.22248 47.2349 5.28748ZM66.5705 6.26167C66.5439 6.27244 66.3392 6.39063 66.1158 6.52443L65.7097 6.76769L66.0544 6.49916C66.2439 6.35151 66.4486 6.23323 66.5091 6.2364C66.5696 6.23957 66.5972 6.2509 66.5705 6.26167ZM48.3009 5.46372C47.7107 5.52344 46.4227 5.97312 46.341 6.14785C46.296 6.24408 46.3313 6.24037 46.4849 6.13255C46.5969 6.05394 46.7337 6.01455 46.789 6.04505C46.8443 6.07546 46.8918 6.05846 46.8945 6.00728C46.8971 5.9561 46.9369 5.92079 46.983 5.92894C47.181 5.96409 47.3297 5.9263 47.5718 5.77982C47.7136 5.69395 48.0295 5.60787 48.2739 5.58849C48.5183 5.56911 48.7485 5.51857 48.7857 5.47625C48.8228 5.43393 48.8374 5.40277 48.8181 5.40713C48.7987 5.41141 48.566 5.43687 48.3009 5.46372ZM35.7771 5.09802C35.261 5.3439 35.2465 5.36156 35.4592 5.47985C35.5953 5.55541 35.6543 5.56406 35.6104 5.50197C35.5701 5.44519 35.733 5.27516 35.9783 5.11791C36.521 4.77008 36.4749 4.76546 35.7771 5.09802ZM66.6829 6.45547C66.6819 6.47394 66.4861 6.58563 66.2477 6.70356L65.8144 6.91814L66.2172 6.66836C66.614 6.42232 66.6863 6.38925 66.6829 6.45547ZM102.94 8.41019C102.836 8.45607 102.82 8.48991 102.901 8.495C102.974 8.49956 103.067 8.46539 103.108 8.41902C103.2 8.31431 103.161 8.31227 102.94 8.41019ZM19.9148 4.23541C19.8741 4.28177 19.7903 4.31707 19.7286 4.31383C19.6668 4.31059 19.6496 4.27001 19.6903 4.22364C19.731 4.17727 19.8148 4.14198 19.8766 4.14522C19.9383 4.14846 19.9555 4.18904 19.9148 4.23541ZM22.16 4.35307C22.1193 4.39944 22.0259 4.43361 21.9524 4.42905C21.8721 4.42396 21.8878 4.39013 21.9916 4.34425C22.213 4.24633 22.2518 4.24836 22.16 4.35307ZM42.9595 5.75829C42.7508 5.90969 42.5353 6.00916 42.4809 5.97915C42.3643 5.91501 41.9155 6.1772 41.9817 6.27079C42.0065 6.30604 41.9459 6.33065 41.8469 6.32546C41.731 6.31938 41.8396 6.20312 42.1521 5.99895C42.4189 5.82467 42.6824 5.70682 42.7375 5.73713C42.8308 5.78849 43.0049 5.66367 43.0491 5.51396C43.0597 5.47818 43.0757 5.427 43.0849 5.40041C43.0941 5.37381 43.155 5.38142 43.2204 5.41747C43.2948 5.45841 43.1972 5.58601 42.9595 5.75829ZM28.7799 4.92231C28.6572 4.9866 28.5818 5.06105 28.6124 5.08769C28.6431 5.11434 28.7639 5.0616 28.881 4.97038C29.1306 4.77632 29.0929 4.75838 28.7799 4.92231ZM36.0236 5.33351C35.8627 5.41925 35.7942 5.50667 35.8596 5.54264C35.9213 5.57664 36.0595 5.51026 36.1667 5.39497C36.3979 5.14625 36.3851 5.14082 36.0236 5.33351ZM46.1751 5.78704C46.1332 5.83476 46.1774 5.85189 46.2789 5.82714C46.4764 5.77885 46.5153 5.71766 46.3539 5.7092C46.2957 5.70615 46.2153 5.74118 46.1751 5.78704ZM16.2531 4.29861C16.2508 4.34179 16.1647 4.39768 16.0618 4.42289C15.9053 4.46116 15.899 4.44787 16.0235 4.34214C16.1932 4.19803 16.259 4.18552 16.2531 4.29861ZM76.3138 7.40641C76.3127 7.42778 76.26 7.46699 76.1967 7.49365C76.1334 7.52032 76.0838 7.50017 76.0865 7.44899C76.0892 7.39781 76.1419 7.35851 76.2036 7.36174C76.2654 7.36498 76.315 7.38504 76.3138 7.40641ZM33.592 5.30493C33.55 5.35281 33.478 5.37126 33.432 5.34592C33.386 5.32067 33.3454 5.3569 33.3417 5.42655C33.3376 5.50482 33.383 5.52713 33.4607 5.48481C33.5296 5.44724 33.6604 5.40251 33.7511 5.38531C33.8651 5.36386 33.8778 5.33313 33.7922 5.28606C33.7241 5.24853 33.634 5.25704 33.592 5.30493ZM76.8118 7.56998C76.7711 7.61635 76.8166 7.65841 76.9128 7.66346C77.009 7.6685 77.0899 7.63306 77.0925 7.58469C77.095 7.53632 77.0496 7.49426 76.9914 7.49121C76.9333 7.48816 76.8525 7.52361 76.8118 7.56998ZM45.7381 6.03345C45.8113 6.1021 45.9516 6.17189 46.0499 6.18841C46.1481 6.20494 46.196 6.18998 46.1559 6.15517C46.116 6.12036 46.0496 6.08946 46.0086 6.0866C45.9674 6.08365 45.8598 6.04247 45.7694 5.99497C45.6362 5.92502 45.6303 5.9323 45.7381 6.03345ZM56.8812 6.61364C56.8787 6.66201 56.823 6.69878 56.7577 6.69535C56.6924 6.69193 56.6721 6.65118 56.7128 6.60482C56.7535 6.55845 56.809 6.52168 56.8363 6.52311C56.8636 6.52454 56.8837 6.56527 56.8812 6.61364ZM15.5537 4.7564C15.4704 4.82716 15.3781 4.86386 15.3485 4.83806C15.3189 4.81225 15.3627 4.73334 15.446 4.66257C15.5293 4.59181 15.6216 4.55511 15.6512 4.58091C15.6808 4.60671 15.637 4.68563 15.5537 4.7564ZM34.5939 5.67233C34.4929 5.74331 34.409 5.82621 34.4074 5.85655C34.4058 5.88698 34.4676 5.86756 34.5447 5.8134C34.7238 5.68769 34.9049 5.69418 34.7924 5.82242C34.7406 5.88134 34.7574 5.89844 34.8349 5.86582C34.9052 5.83626 34.9373 5.75241 34.9062 5.67961C34.8357 5.51437 34.8194 5.51405 34.5939 5.67233ZM56.8702 6.82408C56.8692 6.84308 56.7888 6.87811 56.6914 6.90193C56.5899 6.92668 56.5457 6.90954 56.5876 6.86183C56.6578 6.78165 56.8739 6.75285 56.8702 6.82408ZM75.9942 7.86151C76.0224 7.90144 75.9486 7.93478 75.8302 7.93555C75.7119 7.93631 75.5878 7.89833 75.5544 7.85117C75.521 7.804 75.5948 7.77074 75.7183 7.77722C75.8418 7.78369 75.9659 7.82167 75.9942 7.86151ZM32.7591 5.7327C32.7063 5.79518 32.4638 5.96722 32.2204 6.11495C31.9544 6.27623 31.8246 6.40946 31.8955 6.44844C31.9658 6.48714 31.8958 6.55552 31.722 6.61792C31.2683 6.78074 31.1288 6.58516 31.4681 6.2615C31.6166 6.11964 31.7621 6.02436 31.7913 6.04969C31.8204 6.07511 31.7164 6.19356 31.5604 6.31307C31.0581 6.69732 31.67 6.41467 32.2568 5.99129C32.7949 5.60309 32.9251 5.53602 32.7591 5.7327ZM37.7376 6.06786C37.6982 6.13607 37.6726 6.11383 37.6726 6.0111C37.6726 5.91816 37.7019 5.86766 37.7376 5.89881C37.7733 5.92996 37.7734 6.00607 37.7376 6.06786ZM54.2813 6.82068C54.279 6.86386 54.1929 6.91975 54.0901 6.94496C53.9335 6.98322 53.9272 6.96993 54.0517 6.8642C54.2214 6.7201 54.2872 6.70759 54.2813 6.82068ZM88.8971 8.86074C88.7082 8.96556 88.5296 9.03027 88.4999 9.00447C88.4703 8.97867 88.6006 8.87174 88.7894 8.76691C88.9782 8.66199 89.157 8.59738 89.1866 8.62318C89.2162 8.64898 89.0858 8.75582 88.8971 8.86074ZM20.3086 5.1868C20.0925 5.30722 20.0937 5.30887 20.3411 5.22951C20.4829 5.18403 20.5997 5.12843 20.6009 5.106C20.6044 5.03873 20.5451 5.05511 20.3086 5.1868ZM40.2415 6.22659C40.1608 6.29511 40.0408 6.34835 39.9748 6.34489C39.9089 6.34144 39.956 6.28561 40.0796 6.22093C40.3699 6.06877 40.4249 6.07078 40.2415 6.22659ZM33.5065 5.86348C33.5055 5.88213 33.375 5.95553 33.2165 6.02668C33.058 6.09782 32.9301 6.12154 32.9323 6.07951C32.9345 6.03739 33.0522 5.96595 33.1939 5.92074C33.5046 5.82168 33.5087 5.82092 33.5065 5.86348ZM53.8243 6.94796C53.8205 7.02069 53.6004 7.05042 53.5537 6.98449C53.5234 6.94172 53.5723 6.9105 53.6622 6.91521C53.7521 6.91993 53.825 6.93469 53.8243 6.94796ZM61.4 7.37956C61.3593 7.42592 61.3796 7.46667 61.4449 7.47009C61.5103 7.47351 61.5659 7.43675 61.5684 7.38838C61.571 7.34001 61.5508 7.29928 61.5235 7.29785C61.4963 7.29642 61.4407 7.33319 61.4 7.37956ZM107.931 9.81817C107.929 9.86653 107.977 9.90875 108.039 9.91199C108.101 9.91523 108.153 9.8783 108.156 9.82993C108.159 9.78156 108.11 9.73934 108.048 9.73611C107.987 9.73287 107.934 9.7698 107.931 9.81817ZM44.4838 6.7647L44.0839 7.01173L44.4875 6.82944C44.7094 6.72926 44.9126 6.63833 44.939 6.62736C44.9653 6.61648 44.9637 6.5873 44.9353 6.56262C44.9069 6.53785 44.7037 6.62879 44.4838 6.7647ZM32.7515 6.08988C32.7149 6.15594 32.5734 6.2263 32.4374 6.24634C32.2065 6.28018 32.2093 6.27221 32.4795 6.12686C32.8287 5.93916 32.836 5.93813 32.7515 6.08988ZM53.8541 7.27959C53.8111 7.35679 53.7296 7.39431 53.6728 7.36303C53.6112 7.32911 53.6262 7.25803 53.7098 7.18702C53.8822 7.04059 53.9595 7.09023 53.8541 7.27959ZM29.676 5.92376C29.6751 5.94047 29.5569 6.02351 29.4131 6.10839L29.1517 6.26267L29.3759 6.07602C29.5866 5.90064 29.6797 5.8534 29.676 5.92376ZM65.3107 7.93723C65.27 7.9836 65.2987 8.02478 65.3743 8.02875C65.45 8.03271 65.4803 8.05811 65.4417 8.08519C65.3368 8.15888 65.124 8.01625 65.2036 7.92553C65.2414 7.88237 65.2977 7.84837 65.3285 7.84999C65.3594 7.8516 65.3514 7.89086 65.3107 7.93723ZM53.2851 7.83908C53.0877 8.0044 52.9787 8.04913 52.9832 7.96277C52.9906 7.82127 53.4623 7.46549 53.546 7.5383C53.5725 7.56138 53.4551 7.69676 53.2851 7.83908ZM18.4062 5.89794C18.2593 6.0301 18.2631 6.03338 18.4469 5.9334C18.6399 5.82827 18.7031 5.75918 18.6107 5.75434C18.5875 5.75312 18.4954 5.81769 18.4062 5.89794ZM43.3467 7.26471C43.119 7.43523 43.1091 7.46292 43.2796 7.45228C43.3897 7.44545 43.5247 7.35623 43.5798 7.254C43.707 7.01755 43.6749 7.01895 43.3467 7.26471ZM14.1428 5.95897C13.9488 6.08593 13.7878 6.23322 13.785 6.28634C13.7822 6.33954 13.7208 6.37988 13.6485 6.37609C13.5762 6.3723 13.4321 6.4144 13.3285 6.46955C13.2247 6.52478 13.2607 6.48884 13.4082 6.38978C13.6978 6.19535 13.7712 6.06648 13.5382 6.16159C13.4393 6.20191 13.4447 6.17662 13.5552 6.08047C13.6437 6.00354 13.7543 5.96172 13.8011 5.98745C13.8478 6.01327 13.9749 5.9388 14.0834 5.82218C14.1918 5.70547 14.329 5.63655 14.388 5.6691C14.447 5.70164 14.3367 5.8321 14.1428 5.95897ZM73.6595 8.99205C73.6531 9.11296 73.676 9.16381 73.7103 9.10494C73.7447 9.04616 73.7498 8.94722 73.7218 8.88509C73.6939 8.82304 73.6658 8.87113 73.6595 8.99205ZM6.59753 6.33813C6.07257 6.73451 5.54993 7.15314 5.43627 7.26844L5.22964 7.47806L5.59253 7.27663C5.79207 7.16584 5.98576 7.00333 6.02301 6.91551C6.06489 6.81656 6.14135 6.78388 6.22428 6.8295C6.30393 6.87335 6.33105 6.86499 6.29133 6.80885C6.25475 6.75711 6.35856 6.6473 6.52205 6.56486C6.68554 6.48243 6.86865 6.32836 6.92903 6.22235C6.98941 6.11635 7.0859 6.03216 7.14337 6.03518C7.2645 6.04152 7.15761 6.36934 7.01476 6.42949C6.96181 6.45176 6.9444 6.53038 6.97588 6.60434C7.02229 6.71312 7.08118 6.70219 7.28598 6.5467C7.42513 6.44112 7.62882 6.33275 7.73874 6.30588C7.89028 6.26885 7.9233 6.19942 7.87561 6.01826C7.83448 5.86232 7.85221 5.80117 7.92649 5.8421C7.98919 5.8766 8.07245 5.84719 8.11172 5.77676C8.19225 5.63195 8.02015 5.59083 7.90115 5.72648C7.84751 5.7876 7.78183 5.78443 7.68792 5.71619C7.58675 5.64255 7.30931 5.80084 6.59753 6.33813ZM40.2823 7.59555C40.2798 7.64392 40.2242 7.68069 40.1588 7.67726C40.0935 7.67384 40.0732 7.63309 40.1139 7.58673C40.1546 7.54036 40.2101 7.50359 40.2374 7.50502C40.2647 7.50645 40.2848 7.54718 40.2823 7.59555ZM73.7028 9.31565C73.7753 9.34299 73.8038 9.42068 73.7662 9.48837C73.6573 9.68381 74.1044 9.65953 74.3597 9.45599L74.5835 9.27768L74.2667 9.41716C73.9823 9.54229 73.9506 9.54204 73.9572 9.41461C73.9614 9.33529 73.8777 9.27112 73.7679 9.26924C73.6597 9.26736 73.6303 9.28822 73.7028 9.31565ZM7.65406 5.98849C7.62018 6.0271 7.6585 6.06279 7.73929 6.06773C7.92622 6.07929 7.60402 6.23233 7.40993 6.22419C7.31435 6.22015 7.29112 5.97599 7.37979 5.90798C7.44077 5.86126 7.69908 5.93714 7.65406 5.98849ZM13.2216 6.29597C13.2208 6.31267 13.1025 6.39572 12.9587 6.48059L12.6973 6.63488L12.9215 6.44823C13.1322 6.27285 13.2253 6.22561 13.2216 6.29597ZM52.0603 8.38917C52.0578 8.43754 52.0335 8.47595 52.0062 8.47452C51.9789 8.47309 51.9276 8.43072 51.8919 8.38035C51.8563 8.32998 51.8807 8.29158 51.946 8.295C52.0114 8.29843 52.0628 8.34081 52.0603 8.38917ZM54.8558 8.74538C54.8549 8.76358 54.7628 8.82824 54.6513 8.88898C54.4675 8.98896 54.4638 8.98567 54.6106 8.85351C54.765 8.71469 54.8596 8.673 54.8558 8.74538ZM31.267 7.71831C31.2631 7.75443 31.1187 7.85286 30.946 7.93693L30.6319 8.08969L30.9163 7.86924C31.2153 7.63747 31.2784 7.61035 31.267 7.71831ZM12.1788 6.86282C12.1778 6.88182 12.0974 6.91684 12 6.94066C11.8986 6.96541 11.8543 6.94828 11.8962 6.90057C11.9665 6.82039 12.1826 6.79159 12.1788 6.86282ZM30.4764 7.83507C30.4758 7.84527 30.4058 7.89389 30.3207 7.94313C30.2049 8.00999 30.1673 8.00326 30.1719 7.91673C30.1752 7.85297 30.2453 7.80435 30.3277 7.80867C30.41 7.81298 30.4769 7.82487 30.4764 7.83507ZM13.7819 7.22082C13.6042 7.41211 13.4744 7.46325 13.3377 7.39594C13.3101 7.38242 13.2027 7.44619 13.0989 7.53775C12.9152 7.6999 12.9137 7.6992 13.0449 7.5104C13.1189 7.40379 13.219 7.3384 13.2675 7.36502C13.3158 7.39171 13.4778 7.32189 13.6273 7.20998C13.9743 6.95022 14.0299 6.9541 13.7819 7.22082ZM40.8004 8.44967C40.7994 8.46788 40.7073 8.53254 40.5959 8.59327C40.4121 8.69325 40.4083 8.68997 40.5552 8.55781C40.7096 8.41899 40.8042 8.3773 40.8004 8.44967ZM6.56751 6.85719C6.37977 7.0007 6.42633 7.07677 6.64549 6.98446C6.73044 6.94871 6.78333 6.8782 6.76301 6.82775C6.74158 6.77478 6.65921 6.78713 6.56751 6.85719ZM15.3752 7.3052C15.3577 7.37756 15.2733 7.48222 15.1876 7.53787C15.0614 7.61987 15.052 7.61506 15.1377 7.51233C15.196 7.44263 15.2523 7.35625 15.2628 7.32047C15.301 7.19082 15.3155 7.16891 15.3609 7.1713C15.3863 7.17263 15.3927 7.23292 15.3752 7.3052ZM30.0123 8.09787C30.0073 8.19364 29.3771 8.50893 29.2883 8.4601C29.1588 8.38867 29.6366 8.037 29.8481 8.04808C29.9396 8.05288 30.0135 8.07527 30.0123 8.09787ZM41.45 8.68768C41.4406 8.72643 41.4373 8.78816 41.4428 8.82478C41.4482 8.8614 41.4063 8.889 41.3496 8.88603C41.2929 8.88306 41.1525 8.90295 41.0377 8.93027C40.8468 8.97573 40.844 8.96615 41.0062 8.81839C41.1709 8.66847 41.1688 8.66492 40.9779 8.76894C40.8649 8.83047 40.7963 8.90183 40.8256 8.92735C40.8548 8.95287 40.77 9.08166 40.6368 9.21348C40.5037 9.34539 40.429 9.45506 40.471 9.45726C40.5129 9.45945 40.4236 9.53758 40.2726 9.63089L39.9979 9.80045L40.3439 9.64178C40.9083 9.38291 41.7202 8.7566 41.5867 8.68312C41.5208 8.64686 41.4594 8.64893 41.45 8.68768ZM15.952 7.62113C15.8051 7.75329 15.8089 7.75658 15.9927 7.6566C16.1042 7.59587 16.1962 7.5312 16.1972 7.513C16.201 7.44062 16.1064 7.48231 15.952 7.62113ZM2.44241 7.06454C2.4295 7.31086 2.33758 7.27791 2.30032 7.01362C2.28669 6.91714 2.31571 6.84035 2.36465 6.84292C2.41371 6.84549 2.44867 6.9452 2.44241 7.06454ZM27.4671 8.33485C27.4264 8.38121 27.472 8.42328 27.5682 8.42832C27.6644 8.43336 27.7403 8.49316 27.7367 8.56114C27.7315 8.66104 27.6789 8.66269 27.4633 8.56991C27.2656 8.48477 27.2284 8.4278 27.3198 8.35023C27.4665 8.22564 27.5727 8.21455 27.4671 8.33485ZM52.3348 9.59463C52.3194 9.88976 52.8643 10.1499 53.0514 9.93668C53.1013 9.87977 53.0253 9.86371 52.8353 9.89079C52.6146 9.92234 52.544 9.89898 52.5494 9.79635C52.5533 9.72143 52.5073 9.63304 52.4471 9.5999C52.3869 9.56676 52.3364 9.56438 52.3348 9.59463ZM12.513 7.68058C12.544 7.75337 12.5307 7.82931 12.4833 7.84931C12.4359 7.86922 12.3938 7.80881 12.3897 7.71495C12.3809 7.51193 12.4347 7.49694 12.513 7.68058ZM12.1995 7.78496C12.211 7.8443 12.1978 7.85331 12.17 7.80484C12.1422 7.75639 12.0374 7.73688 11.9371 7.76134C11.8124 7.79183 11.7834 7.77338 11.8453 7.70282C11.9523 7.58092 12.1695 7.63119 12.1995 7.78496ZM29.4657 8.74099C29.3423 8.80331 29.2655 8.87353 29.2953 8.89705C29.3249 8.92056 29.4502 8.87087 29.5738 8.7866C29.8396 8.6053 29.7821 8.58112 29.4657 8.74099ZM2.30185 7.43988C2.26596 7.46516 2.17678 7.43341 2.10371 7.36927C1.99825 7.27662 2.01169 7.26727 2.16916 7.32331C2.27811 7.36218 2.33784 7.41461 2.30185 7.43988ZM15.3584 8.2073C15.2116 8.33946 15.2153 8.34275 15.3991 8.24277C15.5922 8.13763 15.6553 8.06854 15.5629 8.0637C15.5397 8.06248 15.4476 8.12706 15.3584 8.2073ZM26.9789 8.89928C26.9899 8.98231 27.0585 9.06254 27.1313 9.07746C27.2041 9.09239 27.2126 9.08163 27.1502 9.05367C27.0878 9.02563 27.0649 8.97063 27.0993 8.93143C27.1337 8.89223 27.1162 8.83496 27.0603 8.80417C27.0044 8.77346 26.9678 8.81625 26.9789 8.89928ZM12.4906 8.14836C12.5186 8.18792 12.4478 8.21534 12.3334 8.20935C12.219 8.20335 12.1515 8.16868 12.1834 8.13226C12.2155 8.09585 12.2862 8.06834 12.3406 8.07119C12.3951 8.07404 12.4625 8.10879 12.4906 8.14836ZM26.3123 8.8916C26.2716 8.93796 26.2919 8.97871 26.3572 8.98213C26.4225 8.98556 26.4781 8.94879 26.4807 8.90042C26.4832 8.85205 26.4631 8.81132 26.4358 8.80989C26.4085 8.80846 26.353 8.84523 26.3123 8.8916ZM29.139 9.18921C28.901 9.30169 28.7042 9.43123 28.7018 9.47705C28.6994 9.52295 28.9061 9.44569 29.1611 9.30544C29.4161 9.16519 29.6256 9.03393 29.6266 9.0138C29.6295 8.9598 29.6104 8.96665 29.139 9.18921ZM27.3803 9.08716C27.3803 9.18989 27.4059 9.21213 27.4453 9.14392C27.4811 9.08213 27.4811 9.00602 27.4453 8.97487C27.4096 8.94372 27.3804 8.99422 27.3803 9.08716ZM4.56243 8.23885C4.48044 8.30845 4.43428 8.38363 4.45968 8.40586C4.4852 8.42801 4.57177 8.37214 4.65205 8.28155C4.82576 8.08564 4.7726 8.06036 4.56243 8.23885ZM39.4619 10.0878C39.315 10.2199 39.3188 10.2232 39.5026 10.1232C39.6956 10.0181 39.7588 9.94902 39.6664 9.94418C39.6432 9.94297 39.5511 10.0075 39.4619 10.0878ZM28.0154 9.68631C27.9116 9.73219 27.8959 9.76602 27.9762 9.77111C28.0497 9.77567 28.1431 9.7415 28.1838 9.69513C28.2757 9.59042 28.2368 9.58839 28.0154 9.68631ZM27.3934 9.74189C27.1754 9.80278 27.1765 9.80662 27.4172 9.82515C27.556 9.83577 27.6715 9.80497 27.6741 9.7566C27.6766 9.70823 27.6658 9.67081 27.6503 9.67335C27.6347 9.67597 27.5191 9.70677 27.3934 9.74189ZM11.5858 9.01257C11.6589 9.07671 11.7481 9.10846 11.784 9.08318C11.82 9.05791 11.7602 9.00548 11.6513 8.96662C11.4938 8.91057 11.4804 8.91992 11.5858 9.01257ZM3.46226 9.09026C3.42838 9.12896 3.47189 9.16431 3.55912 9.16888C3.64634 9.17345 3.69331 9.14284 3.66366 9.10081C3.634 9.05887 3.59037 9.02352 3.5668 9.02228C3.54322 9.02105 3.49614 9.05165 3.46226 9.09026ZM11.318 9.50487C11.2299 9.60528 11.6401 9.91654 11.7819 9.85687C11.8449 9.83036 11.9241 9.84801 11.9582 9.89609C12.0226 9.98729 12.4455 9.97736 12.5705 9.88171C12.6101 9.85133 12.5009 9.83917 12.3277 9.85452C12.0958 9.87517 11.9848 9.83699 11.9074 9.70983C11.8495 9.61483 11.753 9.55783 11.6929 9.58316C11.6327 9.60849 11.5858 9.58725 11.5885 9.53607C11.5943 9.42403 11.4078 9.40253 11.318 9.50487ZM1.24823 9.29759C1.24569 9.34596 1.28945 9.44746 1.34548 9.52314C1.40152 9.59883 1.44942 9.62118 1.45196 9.57281C1.45449 9.52445 1.41073 9.42295 1.3547 9.34726C1.29867 9.27157 1.25076 9.24922 1.24823 9.29759ZM3.08599 9.41595C3.12638 9.47874 3.11749 9.57747 3.06605 9.63536C2.92512 9.79428 2.90343 9.96545 3.03097 9.91173C3.09301 9.88562 3.11664 9.84074 3.08359 9.81194C3.05054 9.78313 3.08443 9.70784 3.15888 9.64463C3.26173 9.55726 3.26045 9.50225 3.15343 9.41578C3.04295 9.32648 3.02843 9.32651 3.08599 9.41595ZM3.76827 9.47375C3.72757 9.52012 3.74784 9.56086 3.81317 9.56429C3.87851 9.56771 3.93413 9.53094 3.93666 9.48258C3.9392 9.43421 3.91904 9.39347 3.89176 9.39204C3.86449 9.39061 3.80898 9.42738 3.76827 9.47375Z" fill="#F2FF46" fill-opacity="0.8"/>
</svg>
